<svg width="16" height="16" viewBox="0 0 16 16" fill="none" xmlns="http://www.w3.org/2000/svg">
<path d="M8 6.00195C8.39556 6.00195 8.78224 6.11925 9.11114 6.33901C9.44004 6.55878 9.69639 6.87113 9.84776 7.23659C9.99914 7.60204 10.0387 8.00417 9.96157 8.39213C9.8844 8.7801 9.69392 9.13646 9.41421 9.41617C9.13451 9.69587 8.77814 9.88635 8.39018 9.96352C8.00222 10.0407 7.60009 10.0011 7.23463 9.84971C6.86918 9.69834 6.55683 9.44199 6.33706 9.11309C6.1173 8.7842 6 8.39752 6 8.00195C6.00066 7.47172 6.21159 6.9634 6.58652 6.58847C6.96145 6.21354 7.46977 6.00261 8 6.00195ZM8 5.00195C7.40666 5.00195 6.82664 5.1779 6.33329 5.50754C5.83994 5.83719 5.45543 6.30572 5.22836 6.8539C5.0013 7.40208 4.94189 8.00528 5.05765 8.58722C5.1734 9.16917 5.45912 9.70372 5.87868 10.1233C6.29824 10.5428 6.83279 10.8286 7.41473 10.9443C7.99667 11.0601 8.59987 11.0007 9.14805 10.7736C9.69623 10.5465 10.1648 10.162 10.4944 9.66866C10.8241 9.17532 11 8.5953 11 8.00195C11 7.2063 10.6839 6.44324 10.1213 5.88063C9.55871 5.31802 8.79565 5.00195 8 5.00195Z" fill="white"/>
<path d="M2.69727 3.40672L3.40427 2.69922L5.15727 4.45222L4.45027 5.15922L2.69727 3.40672Z" fill="white"/>
<path d="M1 7.50195H3.5V8.50195H1V7.50195Z" fill="white"/>
<path d="M2.69727 12.5987L4.45027 10.8457L5.15727 11.5532L3.40427 13.3057L2.69727 12.5987Z" fill="white"/>
<path d="M7.5 12.502H8.5V15.002H7.5V12.502Z" fill="white"/>
<path d="M10.8438 11.5532L11.5507 10.8457L13.3037 12.5987L12.5967 13.3057L10.8438 11.5532Z" fill="white"/>
<path d="M12.5 7.50195H15V8.50195H12.5V7.50195Z" fill="white"/>
<path d="M10.8438 4.45222L12.5967 2.69922L13.3037 3.40672L11.5507 5.15922L10.8438 4.45222Z" fill="white"/>
<path d="M7.5 1.00195H8.5V3.50195H7.5V1.00195Z" fill="white"/>
</svg>
