<svg width="16" height="16" viewBox="0 0 16 16" fill="none" xmlns="http://www.w3.org/2000/svg">
<path d="M8 12V11C8.38661 10.9666 8.74904 10.7978 9.02343 10.5234C9.29783 10.249 9.46659 9.88661 9.5 9.5H10.5C10.4677 10.1526 10.1939 10.7699 9.73189 11.2319C9.26987 11.6939 8.65259 11.9677 8 12Z" fill="white"/>
<path d="M8 13.9998C6.80697 13.9983 5.66323 13.5237 4.81963 12.6801C3.97603 11.8365 3.50146 10.6928 3.5 9.49976C3.52691 8.62262 3.78457 7.76808 4.247 7.02226L7.5765 1.71826C7.62459 1.65076 7.68812 1.59574 7.76178 1.55777C7.83545 1.51981 7.91713 1.5 8 1.5C8.08287 1.5 8.16455 1.51981 8.23822 1.55777C8.31188 1.59574 8.37541 1.65076 8.4235 1.71826L11.7385 6.99626C12.2087 7.74899 12.4714 8.6127 12.5 9.49976C12.4985 10.6928 12.024 11.8365 11.1804 12.6801C10.3368 13.5237 9.19303 13.9983 8 13.9998ZM8 2.92376L5.109 7.52776C4.7365 8.12027 4.52647 8.80038 4.5 9.49976C4.5 10.428 4.86875 11.3183 5.52513 11.9746C6.1815 12.631 7.07174 12.9998 8 12.9998C8.92826 12.9998 9.8185 12.631 10.4749 11.9746C11.1313 11.3183 11.5 10.428 11.5 9.49976C11.4715 8.7906 11.2562 8.10155 10.876 7.50226L8 2.92376Z" fill="white"/>
</svg>
