<svg width="16" height="16" viewBox="0 0 16 16" fill="none" xmlns="http://www.w3.org/2000/svg">
    <path
        d="M8.26048 10.1814V5.82422H7.19567V10.1814C6.84044 10.307 6.54105 10.5541 6.35041 10.8791C6.15977 11.2041 6.09015 11.586 6.15386 11.9574C6.21758 12.3287 6.41052 12.6656 6.69859 12.9084C6.98665 13.1513 7.3513 13.2845 7.72808 13.2845C8.10485 13.2845 8.4695 13.1513 8.75757 12.9084C9.04563 12.6656 9.23857 12.3287 9.30229 11.9574C9.366 11.586 9.29639 11.2041 9.10574 10.8791C8.9151 10.5541 8.61571 10.307 8.26048 10.1814Z"
        fill="white" />
    <path
        d="M7.72729 15.4073C6.99363 15.4082 6.27607 15.1922 5.66473 14.7866C5.05338 14.381 4.57551 13.8038 4.29111 13.1275C4.00671 12.4511 3.92846 11.7059 4.0662 10.9853C4.20393 10.2646 4.55151 9.60078 5.06527 9.07704V3.16202C5.06527 2.45601 5.34573 1.77891 5.84496 1.27969C6.34419 0.780462 7.02128 0.5 7.72729 0.5C8.43331 0.5 9.1104 0.780462 9.60963 1.27969C10.1089 1.77891 10.3893 2.45601 10.3893 3.16202V9.07704C10.9031 9.60078 11.2507 10.2646 11.3884 10.9853C11.5261 11.7059 11.4479 12.4511 11.1635 13.1275C10.8791 13.8038 10.4012 14.381 9.78986 14.7866C9.17852 15.1922 8.46096 15.4082 7.72729 15.4073ZM7.72729 1.56481C7.30382 1.56523 6.89781 1.73364 6.59836 2.03309C6.29892 2.33253 6.1305 2.73854 6.13008 3.16202V9.54183L5.95332 9.70101C5.55129 10.0603 5.26786 10.5333 5.14054 11.0572C5.01323 11.5812 5.04803 12.1315 5.24034 12.6352C5.43265 13.139 5.7734 13.5724 6.2175 13.8783C6.66159 14.1841 7.18809 14.3478 7.72729 14.3478C8.2665 14.3478 8.793 14.1841 9.23709 13.8783C9.68119 13.5724 10.0219 13.139 10.2143 12.6352C10.4066 12.1315 10.4414 11.5812 10.314 11.0572C10.1867 10.5333 9.9033 10.0603 9.50127 9.70101L9.32451 9.54183V3.16202C9.32409 2.73854 9.15567 2.33253 8.85623 2.03309C8.55678 1.73364 8.15077 1.56523 7.72729 1.56481V1.56481Z"
        fill="white" />
</svg>