<svg width="16" height="14" viewBox="0 0 16 14" fill="none" xmlns="http://www.w3.org/2000/svg">
<path d="M10.5 6.5H4V5.5H10.5C10.7967 5.5 11.0867 5.41203 11.3334 5.24721C11.58 5.08238 11.7723 4.84812 11.8858 4.57403C11.9994 4.29994 12.0291 3.99834 11.9712 3.70737C11.9133 3.41639 11.7704 3.14912 11.5607 2.93934C11.3509 2.72956 11.0836 2.5867 10.7926 2.52882C10.5017 2.47095 10.2001 2.50065 9.92597 2.61418C9.65189 2.72771 9.41762 2.91997 9.2528 3.16665C9.08797 3.41332 9 3.70333 9 4H8C8 3.50555 8.14662 3.0222 8.42133 2.61108C8.69603 2.19995 9.08648 1.87952 9.54329 1.6903C10.0001 1.50108 10.5028 1.45157 10.9877 1.54804C11.4727 1.6445 11.9181 1.8826 12.2678 2.23223C12.6174 2.58187 12.8555 3.02732 12.952 3.51228C13.0484 3.99723 12.9989 4.49989 12.8097 4.95671C12.6205 5.41352 12.3 5.80397 11.8889 6.07867C11.4778 6.35338 10.9945 6.5 10.5 6.5V6.5Z" fill="white"/>
<path d="M11.5 13C10.8372 12.9992 10.2018 12.7356 9.73311 12.2669C9.26444 11.7982 9.00079 11.1628 9 10.5H10C10 10.7967 10.088 11.0867 10.2528 11.3334C10.4176 11.58 10.6519 11.7723 10.926 11.8858C11.2001 11.9994 11.5017 12.0291 11.7926 11.9712C12.0836 11.9133 12.3509 11.7704 12.5607 11.5607C12.7704 11.3509 12.9133 11.0836 12.9712 10.7926C13.0291 10.5017 12.9994 10.2001 12.8858 9.92597C12.7723 9.65189 12.58 9.41762 12.3334 9.2528C12.0867 9.08797 11.7967 9 11.5 9H2V8H11.5C12.163 8 12.7989 8.26339 13.2678 8.73223C13.7366 9.20107 14 9.83696 14 10.5C14 11.163 13.7366 11.7989 13.2678 12.2678C12.7989 12.7366 12.163 13 11.5 13V13Z" fill="white"/>
</svg>
