<?xml version="1.0" standalone="no"?>
<!DOCTYPE svg PUBLIC "-//W3C//DTD SVG 1.1//EN" "http://www.w3.org/Graphics/SVG/1.1/DTD/svg11.dtd" >
<svg xmlns="http://www.w3.org/2000/svg" xmlns:xlink="http://www.w3.org/1999/xlink" version="1.1">
<metadata>
Created by FontForge 20170731 at Wed Dec  8 17:00:41 2021
 By Aleksey,,,
Copyright (c) 2005-2009, Joshua Darden &#38; Phil's Fonts, Inc. All rights reserved. Published by Garagefonts USA 301-879-9222 www.garagefonts.com
</metadata>
<defs>
<font id="FreightDispProMedium-Regular" horiz-adv-x="1536" >
  <font-face 
    font-family="FreightDisp Pro Medium"
    font-weight="500"
    font-stretch="normal"
    units-per-em="2048"
    panose-1="2 0 6 3 8 0 0 2 0 4"
    ascent="1638"
    descent="-410"
    x-height="881"
    cap-height="1280"
    bbox="-416 -561 2648 2003"
    underline-thickness="40"
    underline-position="-380"
    unicode-range="U+0020-FB04"
  />
<missing-glyph horiz-adv-x="1024" 
 />
    <glyph glyph-name="ff" unicode="ff" horiz-adv-x="1167" 
d="M47 0l6 31l49 8q42 3 58 10t16 25v719l-162 4l31 84h127l4 30q14 110 56 197t102.5 140.5t132 81.5t149.5 28q77 0 127 -33.5t50 -87.5q0 -41 -28.5 -69.5t-70.5 -28.5q-57 0 -95 45.5t-38 111.5l-59 15q-83 -34 -118.5 -122t-35.5 -237v-71h377l4 53q8 107 48 194
t98.5 140t127.5 81.5t140 28.5q72 0 112.5 -31.5t40.5 -76.5q0 -41 -28.5 -68.5t-69.5 -27.5q-45 0 -83 36.5t-50 94.5q0 1 -1 7t-1 7l-37 4q-71 -34 -98 -117t-27 -233v-92h254l-29 -86h-225v-732q0 -14 17.5 -20.5t76.5 -9.5l82 -2l6 -31h-483l6 31l43 2q44 3 62 10t18 25
v729h-381v-725q0 -16 16.5 -24t67.5 -9l90 -8l6 -31h-481z" />
    <glyph glyph-name="fi" unicode="fi" horiz-adv-x="1069" 
d="M47 0l6 31l43 2q45 3 62.5 10t17.5 25v725l-162 4l31 84h127l4 53q8 108 49.5 194t105 140t140 82t160.5 28q77 0 130.5 -35t53.5 -94q0 -41 -28.5 -69.5t-71.5 -28.5q-59 0 -95 44.5t-38 113.5l-78 18q-84 -34 -120 -120.5t-36 -233.5v-92h361l192 22v-840q0 -14 17 -20
t77 -10l39 -2l4 -31h-438l6 31l43 2q47 3 63.5 10t16.5 25v727h-381v-732q0 -15 17 -21t75 -9l78 -2l6 -31h-477z" />
    <glyph glyph-name="fl" unicode="fl" horiz-adv-x="1062" 
d="M745 1348l156 45v-1330q0 -14 16.5 -19t77.5 -11l39 -2l4 -31h-438l6 31l41 2q47 3 64.5 10t17.5 25v727h-381v-732q0 -15 17 -21t75 -9l78 -2l6 -31h-477l6 31l43 2q45 3 62.5 10t17.5 25v725l-162 4l31 84h127l4 53q8 108 49 194t104 140t139.5 82t160.5 28
q73 0 116 -30zM729 881v280q-16 -4 -27 -4q-60 0 -98.5 43.5t-36.5 108.5l-65 18q-84 -34 -119 -120t-35 -234v-92h381z" />
    <glyph glyph-name="ffi" unicode="ffi" horiz-adv-x="1619" 
d="M47 0l6 31l49 8q42 3 58 10t16 25v719l-162 4l31 84h127l4 30q14 110 56 197t102.5 140.5t132 81.5t149.5 28q77 0 127 -33.5t50 -87.5q0 -41 -28.5 -69.5t-70.5 -28.5q-56 0 -94.5 46t-38.5 111l-59 15q-83 -34 -118.5 -122t-35.5 -237v-71h377l4 53q8 108 49.5 194
t105 140t141 82t161.5 28q76 0 130 -35t54 -94q0 -40 -29.5 -69t-70.5 -29q-61 0 -98 44.5t-37 113.5l-78 18q-85 -34 -120.5 -120t-35.5 -234v-92h361l192 22v-840q0 -14 17.5 -20t78.5 -10l37 -2l6 -31h-438l6 31l43 4q46 3 62 9t16 24v727h-381v-732q0 -14 17.5 -20.5
t76.5 -9.5l78 -2l6 -31h-479l6 31l43 2q44 3 62 10t18 25v729h-381v-725q0 -16 16.5 -24t67.5 -9l90 -8l6 -31h-481z" />
    <glyph glyph-name="ffl" unicode="ffl" horiz-adv-x="1615" 
d="M1303 1350l151 43v-1330q0 -14 16.5 -19t79.5 -11l37 -2l6 -31h-438l6 31l41 2q46 3 63 10t17 25v727h-381v-732q0 -14 17.5 -20.5t76.5 -9.5l78 -2l6 -31h-479l6 31l43 2q44 3 62 10t18 25v729h-381v-725q0 -16 16.5 -24t67.5 -9l90 -8l6 -31h-481l6 31l49 8q42 3 58 10
t16 25v719l-162 4l31 84h127l4 30q14 110 56 197t102.5 140.5t132 81.5t149.5 28q77 0 127 -33.5t50 -87.5q0 -41 -28.5 -69.5t-70.5 -28.5q-57 0 -95 45t-38 112l-59 15q-83 -34 -118.5 -122t-35.5 -237v-71h377l4 53q8 108 49.5 194t105 140t140 82t160.5 28q68 0 119 -28
zM1282 881v276h-12q-62 0 -99.5 43t-37.5 109l-76 18q-85 -34 -120.5 -120t-35.5 -234v-92h381z" />
    <glyph glyph-name=".notdef" horiz-adv-x="1024" 
 />
    <glyph glyph-name=".null" horiz-adv-x="0" 
 />
    <glyph glyph-name="nonmarkingreturn" horiz-adv-x="682" 
 />
    <glyph glyph-name="space" unicode=" " horiz-adv-x="368" 
 />
    <glyph glyph-name="exclam" unicode="!" horiz-adv-x="532" 
d="M256 375l-90 833q-5 48 14 75.5t86 27.5h4q68 0 88 -27.5t15 -75.5l-90 -833q-1 -7 -13 -7t-14 7zM268 -31q-53 0 -89 36.5t-36 84.5t36 83.5t89 35.5t87 -35t34 -84t-34.5 -85t-86.5 -36z" />
    <glyph glyph-name="quotedbl" unicode="&#x22;" horiz-adv-x="684" 
d="M340 825l219 498h2l135 -55l-327 -443h-29zM6 825l219 498h4l136 -55l-330 -443h-29z" />
    <glyph glyph-name="numbersign" unicode="#" horiz-adv-x="1056" 
d="M152 -10l104 397h-276v35h286l113 432h-277v35h287l107 405h41l-109 -405h338l108 405h39l-106 -405h276v-35h-286l-113 -432h277v-35h-287l-105 -397h-39l105 397h-338l-107 -397h-38zM305 422h338l115 432h-338z" />
    <glyph glyph-name="dollar" unicode="$" horiz-adv-x="966" 
d="M291 -18q-103 16 -221 51l-15 327h35l121 -264q49 -33 96 -53l139 530l-10 5q-82 29 -139.5 59.5t-106.5 74t-73.5 103t-24.5 135.5q0 64 27 126t76.5 114.5t129.5 84.5t177 32q81 0 135 -11l59 217h39l-59 -223q32 -5 96 -22l84 26l2 -354h-33l-110 252q-24 16 -58 33
l-122 -471q93 -33 157.5 -65.5t121 -79t84.5 -109.5t28 -144q0 -70 -33 -138.5t-91.5 -123.5t-148.5 -89t-194 -34q-61 0 -129 6l-84 -315h-39zM623 1239q-66 27 -131 27q-103 0 -170.5 -68.5t-67.5 -163.5q0 -101 61.5 -160.5t182.5 -105.5zM344 33q73 -21 125 -19
q119 0 200 76t81 189q0 106 -68 169t-199 111z" />
    <glyph glyph-name="percent" unicode="%" horiz-adv-x="1216" 
d="M301 748q-125 0 -201.5 82t-76.5 200q0 120 76.5 203.5t201.5 83.5q128 0 205.5 -83.5t77.5 -203.5q0 -118 -77.5 -200t-205.5 -82zM119 -29l925 1340h50l-924 -1340h-51zM913 -35q-126 0 -202 82t-76 201q0 120 76 203.5t202 83.5q127 0 204 -83.5t77 -203.5
q0 -118 -77 -200.5t-204 -82.5zM301 791q106 0 171 69t65 170q0 103 -65 173.5t-171 70.5q-104 0 -167.5 -70.5t-63.5 -173.5q0 -101 63.5 -170t167.5 -69zM913 8q105 0 169.5 69t64.5 173q0 100 -65 171t-169 71t-167.5 -70.5t-63.5 -171.5q0 -104 63 -173t168 -69z" />
    <glyph glyph-name="ampersand" unicode="&#x26;" horiz-adv-x="1458" 
d="M422 -31q-183 0 -290 107.5t-107 259.5q0 144 94.5 252t255.5 164q-87 44 -136 111t-49 149q0 77 50 146.5t130.5 111t168.5 41.5q148 0 236.5 -71.5t88.5 -164.5q0 -85 -62.5 -152.5t-187.5 -109.5q100 -49 206.5 -157t164.5 -216q160 207 162 283q0 66 -146 80l-26 4
l-6 29h501l-6 -29l-28 -4q-75 -9 -135 -50.5t-134 -138.5l-161 -211q80 -169 141 -236t143 -67q92 0 176 84l21 -24q-76 -86 -147 -138.5t-148 -52.5q-109 0 -183.5 71.5t-138.5 215.5q-233 -287 -448 -287zM578 829q124 62 124 232q0 80 -46 146.5t-128 66.5
q-80 0 -129 -58.5t-49 -138.5q0 -86 53 -141t175 -107zM510 117q178 0 342 178q-67 153 -181.5 265.5t-262.5 172.5q-110 -68 -156.5 -146.5t-46.5 -176.5q-2 -123 86.5 -208t218.5 -85z" />
    <glyph glyph-name="quotesingle" unicode="'" horiz-adv-x="354" 
d="M6 825l219 498h4l136 -55l-330 -443h-29z" />
    <glyph glyph-name="parenleft" unicode="(" horiz-adv-x="696" 
d="M668 -555q-57 31 -115.5 77t-120 110t-114.5 145.5t-95.5 174.5t-67 207t-24.5 234q0 143 35.5 278t91 238t128 191.5t143 146t139.5 94.5l22 -34q-66 -36 -134 -94t-137 -144t-122 -186t-86 -228t-33 -262q0 -135 33 -264t86 -228.5t122 -185t136.5 -143t134.5 -94.5z
" />
    <glyph glyph-name="parenright" unicode=")" horiz-adv-x="696" 
d="M29 -555l-23 33q67 37 134.5 94.5t136 143t121 185t85.5 228.5t33 264q0 134 -33 262t-85.5 228t-121 186t-136.5 144t-134 94l23 34q69 -37 139.5 -94.5t143 -146t128 -191.5t90.5 -238t35 -278q0 -120 -24.5 -234t-66.5 -207t-95 -174.5t-114.5 -145.5t-120 -110
t-115.5 -77z" />
    <glyph glyph-name="asterisk" unicode="*" horiz-adv-x="649" 
d="M414 641l-103 86l4 221q0 3 -6.5 6t-7.5 0l-119 -180l-135 -10q-3 0 -8.5 6t-3.5 8l49 129l207 58q3 3 3 10t-3 10l-207 64l-53 125q0 3 4.5 9.5t7.5 6.5l139 -8l117 -189q1 -3 9.5 0t8.5 6v226l101 82q1 1 9.5 -2t8.5 -5l37 -126l-143 -179q-1 -2 1 -6.5t5 -7.5t4 -2
l215 76l109 -74q2 0 2 -8t-2 -8l-109 -76l-215 80q-2 0 -6.5 -7.5t-3.5 -11.5l139 -178l-37 -125q0 -2 -8.5 -4.5t-9.5 -1.5z" />
    <glyph glyph-name="plus" unicode="+" horiz-adv-x="917" 
d="M436 55v406h-405l6 45h399v405h45v-405h400l6 -45h-406v-406h-45z" />
    <glyph glyph-name="comma" unicode="," horiz-adv-x="397" 
d="M74 -276l-21 16q72 39 121 103.5t49 131.5q0 40 -18.5 71.5t-44.5 44t-53 17t-44 -9.5q-17 49 17 95.5t104 46.5q72 0 122 -48.5t50 -128.5q0 -95 -84.5 -190.5t-197.5 -148.5z" />
    <glyph glyph-name="hyphen" unicode="-" horiz-adv-x="602" 
d="M47 434l6 90h504l-4 -90h-506z" />
    <glyph glyph-name="period" unicode="." horiz-adv-x="430" 
d="M215 -27q-55 0 -92 37.5t-37 89.5q0 50 37 86.5t92 36.5q56 0 91.5 -36t35.5 -87q0 -52 -35.5 -89.5t-91.5 -37.5z" />
    <glyph glyph-name="slash" unicode="/" horiz-adv-x="528" 
d="M27 -483l434 1796h43l-432 -1796h-45z" />
    <glyph glyph-name="zero" unicode="0" horiz-adv-x="1122" 
d="M559 -25q-214 0 -353.5 140t-139.5 364t141.5 368t355.5 144q213 0 353.5 -142t140.5 -366t-141 -366t-357 -142zM565 25q139 0 224 129t85 317q0 201 -86 334t-231 133q-91 0 -162.5 -60.5t-109 -159.5t-37.5 -216q0 -214 83 -345.5t234 -131.5z" />
    <glyph glyph-name="one" unicode="1" horiz-adv-x="716" 
d="M119 0l6 31l88 8q42 3 59 11t17 26v796l-217 29l6 27l377 53v-909q0 -9 6.5 -15t27.5 -11t58 -7l86 -8l6 -31h-520z" />
    <glyph glyph-name="two" unicode="2" horiz-adv-x="923" 
d="M47 0l-6 47q124 98 202.5 164t146 130.5t102.5 113t54 97t19 97.5q0 93 -60.5 153t-150.5 60q-83 0 -144 -42.5t-114 -129.5l-22 12q139 287 375 287q118 0 200 -76t82 -188q0 -63 -23.5 -118t-94.5 -126t-124 -115.5t-188 -150.5q-56 -44 -86 -68v-4h381
q102 0 152.5 42.5t101.5 162.5l16 39l31 -2l-70 -385h-780z" />
    <glyph glyph-name="three" unicode="3" horiz-adv-x="831" 
d="M264 -412q-111 0 -180.5 44t-69.5 102q0 41 29 69.5t72 28.5q62 0 103 -54t34 -126q2 0 18 -3t37 -6t35 -3q105 0 189.5 87t84.5 218q0 146 -82.5 233.5t-218.5 87.5q-71 0 -168 -33l-10 27q33 21 87 55t82.5 53t69 48t61.5 51.5t43 52t31 61.5t9 68q0 92 -58 152.5
t-151 60.5q-172 0 -262 -172q-8 2 -22 12q60 134 156 210.5t216 76.5q124 0 206.5 -75.5t82.5 -182.5q0 -47 -16 -89t-39.5 -73t-66 -65.5t-77.5 -57.5t-92 -57v-4q170 6 273.5 -91.5t103.5 -248.5q0 -117 -67.5 -222t-186 -170t-256.5 -65z" />
    <glyph glyph-name="four" unicode="4" horiz-adv-x="974" 
d="M557 -377v404h-539l-2 24l650 922h51v-813h241l-34 -133h-207v-404h-160zM137 160h420v590h-4z" />
    <glyph glyph-name="five" unicode="5" horiz-adv-x="817" 
d="M221 -412q-120 0 -185 39t-65 105q0 42 28.5 70t72.5 28q57 0 98 -54.5t53 -123.5q36 -12 74 -12q110 0 192 90t82 225q0 154 -131 261t-360 149l151 593h533l-35 -172h-496l-69 -268q276 -58 417.5 -180.5t141.5 -292.5q0 -90 -39.5 -174t-106.5 -146t-160.5 -99.5
t-195.5 -37.5z" />
    <glyph glyph-name="six" unicode="6" horiz-adv-x="1019" 
d="M516 -27q-139 0 -243.5 69t-157 181t-52.5 248q0 174 69.5 328t190 266t285.5 183.5t353 88.5l2 -32q-145 -22 -264 -82t-202 -147t-139 -187.5t-88 -216.5l2 -4q63 57 147.5 93t170.5 36q156 0 260 -107t104 -276q0 -99 -35.5 -183t-96 -140t-140 -87t-166.5 -31z
M539 12q112 0 177.5 94t65.5 250q0 148 -83.5 251.5t-204.5 103.5q-65 0 -126 -26t-102 -67q-7 -7 -14.5 -57.5t-7.5 -89.5q0 -127 30 -228t98.5 -166t166.5 -65z" />
    <glyph glyph-name="seven" unicode="7" horiz-adv-x="890" 
d="M168 -377l594 1165l-2 9h-301q-76 0 -116.5 -1t-84 -5.5t-64 -12t-41.5 -22.5t-31 -35.5t-20 -52.5l-20 -52h-35l41 342h770l6 -34l-569 -1301h-127z" />
    <glyph glyph-name="eight" unicode="8" horiz-adv-x="985" 
d="M487 -29q-177 0 -299 95.5t-122 240.5q0 115 84 200.5t225 121.5v4q-63 33 -106 62t-82 67.5t-58.5 86.5t-19.5 105q0 61 26 123t73.5 115.5t123.5 87t166 33.5q161 0 270 -94t109 -236q0 -92 -72.5 -165t-194.5 -116v-4q73 -37 121 -67t96 -73.5t71.5 -98.5t23.5 -123
q0 -148 -124.5 -256.5t-310.5 -108.5zM578 715q67 52 101 115.5t34 152.5q0 68 -27 135t-83.5 114.5t-129.5 47.5q-97 0 -154 -71t-57 -165q0 -60 24.5 -109.5t73.5 -90t97.5 -68.5t120.5 -61zM512 6q123 0 190.5 68.5t67.5 173.5q0 46 -14 86.5t-42.5 74.5t-59.5 61
t-77.5 54t-83.5 45.5t-90 42.5q-172 -107 -172 -305q0 -118 79 -209.5t202 -91.5z" />
    <glyph glyph-name="nine" unicode="9" horiz-adv-x="1019" 
d="M57 -365l-2 31q117 18 217 61.5t175 103t135.5 137t100 159.5t65.5 174l-3 2q-63 -57 -147 -92t-170 -35q-158 0 -261.5 106t-103.5 277q0 196 129 318t310 122q136 0 240.5 -68.5t158 -180.5t53.5 -246q0 -175 -69.5 -329.5t-190 -267t-285 -184t-352.5 -88.5zM524 260
q137 0 228 94q7 7 14.5 59t7.5 91q0 93 -17.5 173.5t-53 144t-93.5 100t-133 36.5q-110 0 -175.5 -93t-65.5 -249q0 -148 83.5 -252t204.5 -104z" />
    <glyph glyph-name="colon" unicode=":" horiz-adv-x="425" 
d="M215 598q-54 0 -91.5 38t-37.5 89q0 48 37.5 84.5t91.5 36.5q55 0 91 -36t36 -85q0 -51 -36 -89t-91 -38zM215 -27q-55 0 -92 37.5t-37 89.5q0 48 37.5 84.5t91.5 36.5q55 0 91 -36t36 -85q0 -52 -35.5 -89.5t-91.5 -37.5z" />
    <glyph glyph-name="semicolon" unicode=";" horiz-adv-x="397" 
d="M205 598q-55 0 -92 37t-37 88q0 50 37 86.5t92 36.5t91 -36t36 -87t-36.5 -88t-90.5 -37zM74 -274l-21 16q71 37 120.5 101.5t49.5 131.5q0 32 -12 58.5t-31 42t-41 24t-42 8t-34 -9.5q-17 47 17 93.5t104 46.5q72 0 122 -48t50 -127q0 -96 -84 -190t-198 -147z" />
    <glyph glyph-name="less" unicode="&#x3c;" horiz-adv-x="897" 
d="M840 72l-813 395v29l813 395l16 -41l-754 -363v-8l754 -366z" />
    <glyph glyph-name="equal" unicode="=" horiz-adv-x="917" 
d="M59 637l-6 45h811l-6 -45h-799zM53 283l6 45h799l6 -45h-811z" />
    <glyph glyph-name="greater" unicode="&#x3e;" horiz-adv-x="897" 
d="M870 467l-813 -395l-16 41l754 366v8l-754 363l16 41l813 -395v-29z" />
    <glyph glyph-name="question" unicode="?" horiz-adv-x="651" 
d="M289 369q-56 47 -106 115.5t-50 117.5q0 46 11 77.5t42 57t64.5 42t99.5 44.5q113 48 156 78t43 74q0 71 -78.5 122.5t-232.5 51.5q-63 0 -146 -19q-24 34 -24 93q0 88 145 88q113 0 201.5 -57t133 -141.5t44.5 -176.5q0 -75 -20.5 -121.5t-59 -74.5t-117.5 -64
q-10 -5 -38 -17t-37.5 -17t-30 -16t-28 -18.5t-18.5 -20t-14.5 -26t-3.5 -29.5q0 -43 23.5 -78t73.5 -85h-33zM297 -29q-53 0 -89 36.5t-36 84.5q0 47 36 82t89 35q52 0 86.5 -35t34.5 -82q0 -49 -34.5 -85t-86.5 -36z" />
    <glyph glyph-name="at" unicode="@" horiz-adv-x="1609" 
d="M805 -225q-214 0 -384.5 92.5t-265 261t-89.5 381.5q3 164 68 313t172.5 257t254.5 171t307 62q148 -1 277 -51.5t220.5 -137.5t142.5 -209.5t48 -263.5q-2 -113 -43.5 -216t-107 -174t-148 -113t-165.5 -42q-120 0 -169 49.5t-44 118.5q0 27 14.5 93t28.5 98h-13
q-114 -177 -193.5 -263.5t-152.5 -86.5q-75 0 -129.5 53.5t-54.5 128.5q0 120 89 274.5t198 253.5q130 123 237 123q49 0 81 -52t38 -126h8l70 207l139 -6l-125 -326l-76 -272q-33 -94 -6 -142.5t121 -48.5q89 0 171 60.5t135.5 170t56.5 240.5t-45 246.5t-134 197.5
t-208 130t-261 49q-202 2 -376.5 -101.5t-278 -281t-107.5 -385.5q-3 -151 49 -280.5t144.5 -220.5t224 -143t283.5 -52q169 0 316 80.5t223 203.5l20 -28q-82 -129 -233 -211t-328 -82zM639 219q43 0 129 106t170 259q49 96 49 129q-5 46 -56.5 91.5t-117.5 45.5
q-46 0 -84 -35q-64 -61 -123 -210.5t-59 -254.5q0 -61 27 -96t65 -35z" />
    <glyph glyph-name="A" unicode="A" horiz-adv-x="1263" 
d="M739 530h-368l-72 -202q-16 -48 -26 -79t-17.5 -62t-9 -49t2 -35.5t12.5 -26.5t25.5 -17.5t37 -12.5t51.5 -7l55 -8l6 -31h-452l6 31l39 6q32 5 50.5 10.5t41.5 24.5t38 44t40 79t49 119t63 175l228 639l-17 66q34 12 80.5 51t59.5 68h24l352 -1082q37 -118 64 -153
t88 -39l72 -8l6 -31h-574l6 31l76 8q48 3 66.5 25.5t14 64t-29.5 119.5zM383 571h344l-158 514h-6q-178 -514 -180 -514z" />
    <glyph glyph-name="B" unicode="B" horiz-adv-x="1191" 
d="M59 0l7 31l77 8q90 8 90 35v1138q0 13 -19 19t-85 12l-61 6l-7 31h506q135 0 233 -23t151.5 -63.5t77.5 -87t24 -102.5q0 -114 -94.5 -195t-282.5 -109v-6q212 -13 327 -109.5t115 -234.5q0 -160 -143.5 -255t-405.5 -95h-510zM555 37q-1 0 41 4q139 4 224 89.5t85 207.5
q0 149 -100 241.5t-260 92.5q-82 0 -117 -6v-592zM428 711h104q149 3 226.5 77t77.5 185q0 266 -318 266h-90v-528z" />
    <glyph glyph-name="C" unicode="C" horiz-adv-x="1398" 
d="M788 -31q-207 0 -369.5 79.5t-256.5 231.5t-94 353q0 200 93.5 355t260.5 239t381 84q90 0 185.5 -23.5t148.5 -50.5l133 49l4 -405h-37l-150 313q-103 76 -290 76q-159 0 -277.5 -85t-177.5 -223.5t-59 -308.5q0 -285 147 -464t375 -179q95 0 169 29t126 78t108 129
l62 147h39l-66 -348l-78 -4q-63 -27 -172 -49.5t-205 -22.5z" />
    <glyph glyph-name="D" unicode="D" horiz-adv-x="1376" 
d="M59 0l7 31l77 8q90 8 90 35v1138q0 13 -19 19t-85 12l-61 6l-7 31l504 6q180 3 323.5 -42.5t235.5 -129t140.5 -196.5t48.5 -248q0 -139 -50.5 -259t-146.5 -212.5t-249.5 -145.5t-346.5 -53h-461zM567 39q130 2 233.5 50t169 128.5t100 183.5t34.5 220q0 103 -21 194.5
t-66.5 170.5t-112 135.5t-163 89t-213.5 32.5h-100v-1163z" />
    <glyph glyph-name="E" unicode="E" horiz-adv-x="1214" 
d="M59 0l7 31l71 8q96 9 96 35v1138q0 13 -19 19t-85 12l-61 6l-7 31h990l20 -393h-39l-20 78q-16 47 -26 72.5t-28 60.5t-36.5 53t-48.5 38.5t-68 30.5t-91 16.5t-120 6.5h-166v-567l82 2q155 5 210.5 29t82.5 106l20 61l35 -2l-43 -436l-35 2l-6 60q-6 86 -56.5 109.5
t-219.5 29.5l-70 2v-594l193 -6q68 0 124.5 8.5t96.5 21t74 35.5t55 43t42 54.5t33 59.5t29 67l25 75l41 -2l-64 -401h-1018z" />
    <glyph glyph-name="F" unicode="F" horiz-adv-x="1153" 
d="M59 0l7 31l81 8q86 8 86 35v1138q0 9 -5 13.5t-27 9t-68 8.5l-65 6l-7 31h994l24 -393h-39l-20 78q-16 47 -26.5 73t-29 60.5t-37.5 52.5t-49.5 38.5t-68.5 30.5t-91 16.5t-120 6.5h-170v-579l88 2q154 5 210 28.5t83 104.5l22 61l33 -2l-43 -434l-33 2l-6 59
q-6 86 -57 110t-219 30l-78 2v-559q0 -9 6.5 -14t29.5 -9.5t68 -7.5l107 -6l6 -31h-586z" />
    <glyph glyph-name="G" unicode="G" horiz-adv-x="1445" 
d="M778 -29q-204 0 -364.5 79t-253 230.5t-92.5 352.5q0 200 95 355t263.5 239t382.5 84q92 0 186 -22t140 -48l127 45l6 -405h-37l-144 313q-100 76 -288 76q-157 0 -276 -84.5t-179.5 -223.5t-60.5 -309q0 -141 40 -261.5t109 -204t164 -130.5t203 -47q76 0 145.5 19.5
t114.5 50.5v414q0 7 -8.5 12t-33 9t-69.5 7l-86 8l-6 31h565l-6 -31l-78 -10q-90 -8 -90 -33v-378h103l2 -23q-135 -46 -295 -80.5t-279 -34.5z" />
    <glyph glyph-name="H" unicode="H" horiz-adv-x="1505" 
d="M59 0l7 31l77 8q90 8 90 35v1138q0 13 -19 19t-85 12l-61 6l-7 31h545l-6 -31l-82 -8q-90 -8 -90 -35v-534h649v540q0 13 -19 19t-85 12l-66 6l-6 31h545l-6 -31l-78 -8q-90 -8 -90 -35v-1138q0 -13 19 -19t85 -12l62 -6l6 -31h-545l6 31l82 8q90 8 90 35v559h-649v-565
q0 -13 19 -19t85 -12l66 -6l6 -31h-545z" />
    <glyph glyph-name="I" unicode="I" horiz-adv-x="704" 
d="M70 0l6 31l90 8q90 8 90 35v1138q0 13 -19 19t-85 12l-74 6l-6 31h563l-6 -31l-88 -8q-90 -8 -90 -35v-1138q0 -13 19 -19t85 -12l72 -6l6 -31h-563z" />
    <glyph glyph-name="J" unicode="J" horiz-adv-x="704" 
d="M86 -248q-76 0 -126 36.5t-50 92.5q0 47 32.5 79t84.5 32q73 0 103.5 -67t-7.5 -130q160 3 160 391v1026q0 9 -7 14t-30 9.5t-68 7.5l-80 6l-6 31h570l-7 -31l-88 -8q-90 -8 -90 -35v-1032q0 -89 -55 -187t-147.5 -166.5t-188.5 -68.5z" />
    <glyph glyph-name="K" unicode="K" horiz-adv-x="1357" 
d="M59 0l7 31l81 8q86 8 86 35v1138q0 9 -5 13.5t-27 9t-68 8.5l-65 6l-7 31h560l-7 -31l-96 -8q-90 -8 -90 -35v-639l334 336q193 196 220 262q20 50 -32 67q-23 7 -67 11l-82 6l-2 31h514l-6 -31l-37 -4q-48 -4 -78 -13.5t-69 -37.5t-86.5 -74.5t-129.5 -130.5
q-15 -16 -24 -25.5t-24 -24.5l-28 -28l-106 -104l399 -623q61 -96 87.5 -119.5t84.5 -29.5l52 -4l6 -31h-535l4 31l62 6q29 2 41.5 11.5t11.5 30.5t-15.5 53.5t-45.5 84.5l-285 459l-164 -164v-444q0 -13 19 -19t85 -12l80 -6l6 -31h-559z" />
    <glyph glyph-name="L" unicode="L" horiz-adv-x="1148" 
d="M59 0l7 31l81 8q86 8 86 35v1138q0 9 -5 13.5t-27 9t-68 8.5l-65 6l-7 31h580l-6 -31l-117 -8q-90 -8 -90 -35v-1161l160 -8q112 0 184.5 17t120.5 66.5t68.5 87.5t58.5 130q1 3 2 4l27 86h41l-60 -428h-971z" />
    <glyph glyph-name="M" unicode="M" horiz-adv-x="1697" 
d="M39 0l6 31l64 6q81 4 105.5 37.5t29.5 140.5l26 950q-12 35 -37 52.5t-69 23.5l-76 8l-6 31h405l367 -1001h4l379 1001h408l-7 -31l-112 -8q-40 -4 -61 -16t-21 -25l20 -1020q3 -84 21 -109.5t80 -31.5l75 -8l7 -31h-553l6 31l102 10q44 5 59.5 35t12.5 108l-23 996h-6
l-444 -1168h-41l-416 1116q-3 9 -9.5 19.5t-14 20t-9.5 12.5l-22 -967q-4 -103 24.5 -137t122.5 -39l60 -6l6 -31h-463z" />
    <glyph glyph-name="N" unicode="N" horiz-adv-x="1429" 
d="M1161 -12l-882 1126h-5l2 -899q0 -99 29.5 -133t116.5 -43l57 -8l6 -31h-442l6 31l57 8q69 6 98 42.5t29 137.5l7 883q-48 120 -160 141l-47 8l-6 31h368l768 -991l4 2l-2 772q0 99 -29 133t-116 43l-57 8l-7 31h443l-6 -31l-58 -8q-69 -6 -98 -42.5t-29 -137.5l-4 -1073
h-43z" />
    <glyph glyph-name="O" unicode="O" horiz-adv-x="1505" 
d="M743 -31q-143 0 -268 49t-214.5 136t-141 211t-51.5 268q0 129 54.5 252t146 216.5t221 150.5t270.5 57q192 0 346.5 -84t243 -236.5t88.5 -345.5q0 -130 -54.5 -253.5t-146.5 -216t-222 -148.5t-272 -56zM756 8q209 0 337 170t128 461q0 278 -135.5 454.5t-340.5 176.5
q-207 0 -334.5 -170.5t-127.5 -460.5q0 -280 134 -455.5t339 -175.5z" />
    <glyph glyph-name="P" unicode="P" horiz-adv-x="1146" 
d="M39 0l6 31l98 8q90 8 90 35v1138q0 13 -19 19t-85 12l-82 6l-6 31h567q240 0 363 -84.5t123 -230.5q0 -169 -141 -272t-361 -103q-86 0 -164 10v-532q0 -9 6.5 -14t29.5 -9.5t68 -7.5l107 -6l6 -31h-606zM588 629q135 0 216 81t81 222q0 315 -318 309h-139v-592
q75 -20 160 -20z" />
    <glyph glyph-name="Q" unicode="Q" horiz-adv-x="1505" 
d="M1286 -367q-99 0 -176 14t-151.5 49t-133 103.5t-100.5 169.5q-188 5 -337.5 89.5t-234.5 235t-85 339.5q0 129 54.5 252t146 216.5t221 150.5t270.5 57q143 0 268.5 -49.5t215.5 -136.5t142 -211.5t52 -268.5q0 -216 -138 -396.5t-354 -246.5q50 -109 112 -177
t133.5 -97.5t159 -36t189.5 7.5l4 -29q-38 -14 -117.5 -24.5t-140.5 -10.5zM756 8q209 0 337 170t128 461q0 278 -135.5 454.5t-340.5 176.5q-206 0 -334 -171t-128 -460q0 -280 134 -455.5t339 -175.5z" />
    <glyph glyph-name="R" unicode="R" horiz-adv-x="1298" 
d="M39 0l6 31l98 8q33 3 61.5 14t28.5 21v1138q0 13 -19 19t-85 12l-82 6l-6 31h545q248 0 373.5 -85.5t125.5 -246.5q0 -117 -85 -204.5t-224 -120.5l279 -424q64 -92 105.5 -124t107.5 -38l37 -6l8 -31h-369l-35 61l-336 555q-128 25 -145 31v-579q0 -19 104 -31l86 -6
l7 -31h-586zM588 659q136 3 212.5 76.5t76.5 208.5q0 148 -88 226t-259 71l-102 -4v-551q32 -10 82 -18.5t78 -8.5z" />
    <glyph glyph-name="S" unicode="S" horiz-adv-x="1026" 
d="M485 -29q-166 -3 -389 68l-14 323h35l65 -167q52 -93 134.5 -139t181.5 -46q126 1 203 80t77 197q0 116 -74 181t-227 118q-83 30 -142 60t-111 73.5t-78.5 103t-26.5 135.5q0 64 26.5 125.5t76 112t129.5 81.5t177 32q123 0 271 -39l84 26l4 -356h-33l-111 256
q-111 72 -223 72q-105 0 -172 -65t-67 -159q0 -57 21.5 -101t65.5 -77t89.5 -54.5t115.5 -47.5q93 -33 156.5 -66.5t117.5 -80t80.5 -108.5t26.5 -142q0 -72 -33.5 -142t-92 -127t-149 -92t-194.5 -35z" />
    <glyph glyph-name="T" unicode="T" horiz-adv-x="1323" 
d="M358 0l7 31l108 8q90 8 90 35v1169h-61q-75 -3 -137 -24.5t-106 -59t-75 -79.5t-57 -95l-27 -84h-41l64 379h1091l39 -379h-39l-22 78q-56 133 -138 196.5t-231 67.5h-65v-1175q0 -13 19.5 -19t84.5 -12l94 -6l7 -31h-605z" />
    <glyph glyph-name="U" unicode="U" horiz-adv-x="1421" 
d="M727 -29q-264 0 -384 111t-120 362v770q0 8 -6.5 12.5t-29.5 8.5t-68 8l-82 8l-6 31h579l-6 -31l-96 -8q-90 -8 -90 -35v-719q0 -226 95 -331t286 -105q176 0 276.5 114.5t100.5 330.5l-2 567q0 99 -30.5 134t-117.5 44l-57 8l-6 31h444l-6 -31l-60 -8q-68 -8 -96 -44.5
t-28 -137.5l-5 -574q-2 -246 -119.5 -381t-365.5 -135z" />
    <glyph glyph-name="V" unicode="V" horiz-adv-x="1284" 
d="M610 -23l-393 1074q-48 131 -68.5 158.5t-85.5 31.5l-75 10l-6 31h571l-6 -31l-86 -6q-79 -4 -85 -35.5t38 -146.5l301 -848h10l246 684q26 76 40 124t20 88.5t1 62t-23.5 38t-45.5 23.5t-72 12l-45 4l-6 31h463l-7 -31l-41 -8q-34 -4 -54.5 -12t-43 -27t-43 -60
t-45.5 -101.5t-61 -161.5l-328 -904h-70z" />
    <glyph glyph-name="W" unicode="W" horiz-adv-x="1986" 
d="M606 -23l-387 1074q-44 123 -68.5 153.5t-91.5 36.5l-73 8l-6 31h569l-6 -31l-76 -6q-32 -2 -48 -7t-26.5 -14t-8.5 -31t9.5 -50t24.5 -78l287 -832h6l276 715l-37 105q-46 122 -71.5 153t-90.5 37l-73 8l-6 31h565l-6 -31l-76 -6q-27 -2 -43 -4.5t-25.5 -12t-12.5 -19
t1 -33t11 -46t22 -65.5l293 -827h6l231 653q28 80 42.5 127.5t21 89.5t2.5 62.5t-22.5 37.5t-44.5 23.5t-72 11.5l-54 8l-6 31h463l-6 -31l-37 -6q-42 -7 -65 -17.5t-51 -50.5t-54.5 -104t-71.5 -190l-323 -904h-51l-332 914h-4l-353 -914h-51z" />
    <glyph glyph-name="X" unicode="X" horiz-adv-x="1314" 
d="M-8 0l6 31l47 6q43 4 74 16t65.5 44t65 70t84.5 114l237 337l-295 433q-83 126 -105 149q-34 37 -75 41l-71 8l-11 31h559l-4 -31l-80 -4q-36 -2 -51 -11.5t-12 -35t25.5 -66t68.5 -110.5l178 -270h4l168 249q59 87 74.5 136t-5 72t-79.5 32l-61 8l-6 31h473l-6 -31
l-48 -6q-81 -7 -134 -54t-154 -190l-199 -280l387 -572q45 -65 67 -84.5t62 -23.5l68 -8l8 -31h-555l4 31l80 4q45 3 60 19t5 44t-43 78l-270 408h-4q0 1 -51.5 -75.5t-103.5 -152.5l-52 -77q-59 -87 -74.5 -136.5t5.5 -72.5t81 -31l60 -8l6 -31h-473z" />
    <glyph glyph-name="Y" unicode="Y" horiz-adv-x="1265" 
d="M334 0l6 31l109 8q90 8 90 35v487l-320 551q-40 70 -73.5 97.5t-88.5 31.5l-61 8l-6 31h559l-6 -31l-58 -4q-77 -6 -80.5 -45.5t54.5 -136.5l243 -432h5l192 356q40 74 57 117t15 73.5t-25 44.5t-72 21l-47 6l-6 31h430l-6 -31l-47 -6q-65 -10 -115.5 -58.5
t-124.5 -185.5l-225 -407v-524q0 -13 20.5 -19t86.5 -12l92 -6l6 -31h-604z" />
    <glyph glyph-name="Z" unicode="Z" horiz-adv-x="1181" 
d="M68 0v27l802 1208v6h-221q-106 0 -186 -14.5t-129 -37t-85.5 -61t-54.5 -73t-36 -86.5l-17 -66h-37l25 377h973v-31l-801 -1204v-6h250q78 0 140.5 7t108.5 18t83 32.5t61.5 42t47.5 55t37.5 64t33.5 76.5l22 72h43l-57 -406h-1003z" />
    <glyph glyph-name="bracketleft" unicode="[" horiz-adv-x="665" 
d="M133 -489v1785h506v-41h-459v-1704h459v-40h-506z" />
    <glyph glyph-name="backslash" unicode="\" horiz-adv-x="503" 
d="M430 -483l-434 1796h45l432 -1796h-43z" />
    <glyph glyph-name="bracketright" unicode="]" horiz-adv-x="665" 
d="M25 -489v40h458v1704h-458v41h505v-1785h-505z" />
    <glyph glyph-name="asciicircum" unicode="^" horiz-adv-x="776" 
d="M100 1001l273 398h30l273 -398h-25l-260 226h-4l-264 -226h-23z" />
    <glyph glyph-name="underscore" unicode="_" horiz-adv-x="927" 
d="M23 -74l6 76h872l6 -76h-884z" />
    <glyph glyph-name="grave" unicode="`" horiz-adv-x="776" 
d="M457 1018l-367 383h197l190 -383h-20z" />
    <glyph glyph-name="a" unicode="a" horiz-adv-x="868" 
d="M684 -25q-129 0 -141 152l-4 2q-65 -70 -126.5 -111t-131.5 -41q-91 0 -156.5 61t-65.5 148q0 74 43 130t153 107t296 93l2 51q5 281 -201 281q-50 0 -101.5 -21t-51.5 -36q0 -5 12.5 -21.5t25.5 -41t13 -48.5q0 -37 -28 -63.5t-72 -26.5t-73.5 25t-29.5 61
q0 51 67.5 107t163.5 92t177 36q161 0 221.5 -74.5t50.5 -277.5l-18 -379q-3 -49 13.5 -74.5t49.5 -25.5q15 0 32.5 8.5t26.5 16t31 26.5l19 -18q-104 -138 -197 -138zM369 86q89 0 170 78l12 319q-96 -22 -161 -49.5t-98.5 -59.5t-47 -63.5t-13.5 -70.5q0 -67 41.5 -110.5
t96.5 -43.5z" />
    <glyph glyph-name="b" unicode="b" horiz-adv-x="1009" 
d="M113 -41v1231q0 34 -14 49.5t-52 26.5l-74 26l2 21l306 82v-666l6 -2q151 172 313 172q158 0 260.5 -122t102.5 -308q0 -114 -40 -209.5t-106 -157.5t-150 -96.5t-173 -34.5q-57 0 -128 17t-124 39h-2l-111 -68h-16zM532 14q108 0 174 113t66 283q0 159 -73.5 263.5
t-194.5 104.5q-127 0 -223 -110v-465q39 -80 107 -134.5t144 -54.5z" />
    <glyph glyph-name="c" unicode="c" horiz-adv-x="854" 
d="M457 -29q-177 0 -293.5 128.5t-116.5 318.5q0 136 59.5 248.5t167 178.5t240.5 66q129 0 215 -53t86 -137q0 -48 -31 -77.5t-73 -29.5q-49 0 -80.5 37.5t-26.5 87.5q0 28 14.5 53t14.5 27q-6 19 -45 37t-80 18q-119 0 -199 -106.5t-80 -275.5q0 -175 90.5 -283.5
t227.5 -108.5q84 0 145.5 32.5t114.5 113.5l24 -13q-142 -262 -374 -262z" />
    <glyph glyph-name="d" unicode="d" horiz-adv-x="1032" 
d="M727 -33v174h-6q-141 -168 -307 -168q-157 0 -262 123.5t-105 313.5q0 113 40.5 207t107 154.5t151 94t174.5 33.5q119 0 203 -37q4 2 4 0v344q0 35 -13.5 52t-51.5 24l-91 23l4 20l322 70v-1268q0 -29 6.5 -39.5t22.5 -15.5l110 -27l-2 -22zM514 92q119 0 213 101v481
q-37 78 -105 130t-143 52q-112 0 -177.5 -110.5t-65.5 -278.5q0 -162 76.5 -268.5t201.5 -106.5z" />
    <glyph glyph-name="e" unicode="e" horiz-adv-x="888" 
d="M459 -29q-179 0 -295.5 128.5t-116.5 318.5q0 209 129.5 351t325.5 142q152 0 239.5 -78.5t87.5 -209.5q0 -24 -6 -54l-587 4q-7 -35 -7 -84q0 -174 90.5 -281.5t227.5 -107.5q85 0 150.5 32.5t119.5 113.5l23 -13q-145 -262 -381 -262zM240 606q26 0 67.5 0.5t130.5 0.5
t147.5 0.5t57.5 0.5q2 114 -40.5 190t-125.5 76t-150.5 -78t-86.5 -190z" />
    <glyph glyph-name="f" unicode="f" horiz-adv-x="616" 
d="M47 0l6 31l43 2q46 3 63 9t17 24v727l-162 4l31 84h127l4 53q7 86 34 159.5t68 125t92.5 88t106.5 54t111 17.5q73 0 115 -31.5t42 -76.5q0 -41 -29.5 -68.5t-72.5 -27.5t-81 37.5t-50 95.5l-4 12l-35 4q-71 -34 -98 -117t-27 -233v-92h254l-31 -86h-223v-732
q0 -14 18 -20.5t78 -9.5l80 -2l6 -31h-483z" />
    <glyph glyph-name="g" unicode="g" horiz-adv-x="935" 
d="M356 -510q-158 0 -248 59t-90 162q0 43 21 83t56.5 70.5t74.5 53t82 39.5v6q-90 10 -146.5 53.5t-56.5 102.5q0 70 64 125.5t149 77.5l2 6q-77 31 -128.5 101t-51.5 163q0 135 100.5 225t249.5 90q128 0 240 -73l258 34l-14 -110l-203 30l-2 -8q71 -71 71 -174
q0 -129 -103 -219t-253 -90q-60 0 -123 14q-47 -10 -78.5 -37t-31.5 -65q0 -88 157 -88q33 0 115.5 3t118.5 3q139 0 219 -66t80 -180q0 -170 -146.5 -280.5t-382.5 -110.5zM432 330q85 0 133.5 69t48.5 189q0 132 -43.5 210.5t-138.5 78.5q-77 0 -124.5 -72t-47.5 -189
q0 -129 47 -207.5t125 -78.5zM465 -461q130 0 214.5 71t84.5 173q0 170 -250 178q-78 2 -219 -10q-50 -19 -91.5 -72t-41.5 -115q0 -100 85.5 -162.5t217.5 -62.5z" />
    <glyph glyph-name="h" unicode="h" horiz-adv-x="1034" 
d="M18 0l7 31l41 2q45 3 62 10t17 25v1120q0 36 -12.5 52t-50.5 26l-74 24l2 23l307 80v-648l5 -2q46 37 74 58t75.5 50.5t94.5 43.5t96 14q99 0 161 -59q68 -71 68 -211v-573q0 -9 4.5 -13.5t27 -10t66.5 -9.5l35 -2l6 -31h-440l6 31l43 2q47 3 63.5 11.5t16.5 23.5v518
q0 105 -44.5 151.5t-137.5 46.5q-125 0 -220 -84v-637q0 -14 18 -20t79 -10l41 -2l6 -31h-443z" />
    <glyph glyph-name="i" unicode="i" horiz-adv-x="499" 
d="M233 1081q-55 0 -84.5 36t-29.5 79q0 46 29.5 82.5t84.5 36.5t85 -37t30 -82q0 -43 -30 -79t-85 -36zM37 0l6 31l43 2q47 3 64.5 10t17.5 25v565q0 93 -15.5 121.5t-70.5 40.5l-47 10l2 22l301 80v-844q0 -14 17.5 -20t78.5 -10l37 -2l6 -31h-440z" />
    <glyph glyph-name="j" unicode="j" horiz-adv-x="477" 
d="M229 1081q-55 0 -85.5 36t-30.5 79q0 45 30.5 82t85.5 37q54 0 83.5 -37t29.5 -82q0 -43 -29.5 -79t-83.5 -36zM-18 -518q-68 0 -109 31t-41 81q0 43 32 72t73 29q49 0 87.5 -38t59.5 -101q78 28 78 260v817q0 93 -15.5 121.5t-70.5 40.5l-47 10l2 22l301 80v-962
q-3 -118 -58.5 -227t-135.5 -172.5t-156 -63.5z" />
    <glyph glyph-name="k" unicode="k" horiz-adv-x="980" 
d="M18 0l7 31l41 2q47 5 63 11t16 24v1120q0 36 -12.5 52t-50.5 26l-74 24l2 23l307 80v-973l181 176q153 142 153 197q0 46 -102 55l-27 2l-4 31h408l-6 -31l-39 -4q-56 -5 -103 -40.5t-160 -145.5q-25 -24 -38 -37l-60 -56l258 -403q50 -78 76.5 -101.5t77.5 -27.5l35 -4
l6 -31h-309l-41 72l-226 374l-80 -75v-308q0 -13 17 -18.5t80 -11.5l35 -2l6 -31h-437z" />
    <glyph glyph-name="l" unicode="l" horiz-adv-x="493" 
d="M33 0l4 31l43 2q46 3 63 10t17 25v1071q0 70 -12.5 93t-53.5 34l-71 24l2 23l307 80v-1330q0 -14 16.5 -19t77.5 -11l39 -2l6 -31h-438z" />
    <glyph glyph-name="m" unicode="m" horiz-adv-x="1568" 
d="M37 0l6 31l43 2q47 3 64.5 10t17.5 25v563q0 94 -15.5 123t-70.5 41l-47 10l2 22l303 80l-4 -162l6 -2q33 31 50.5 47t52.5 42.5t62.5 40.5t66 25t77.5 11q100 0 164 -61q41 -41 53 -111l4 -2q78 80 154 127t166 47q102 0 164 -59q67 -70 67 -219v-565q0 -9 4 -13.5
t26.5 -10t66.5 -9.5l34 -2l7 -31h-439l6 31l43 2q47 3 63.5 11.5t16.5 23.5v516q0 108 -41 154t-133 46q-58 0 -115 -27t-79 -63q1 -4 -0.5 -16.5t-1.5 -13.5v-598q0 -9 4 -13.5t26 -10t66 -9.5l37 -2l6 -31h-436l6 31l41 2q47 3 62.5 11.5t15.5 23.5v516q0 107 -40.5 153.5
t-129.5 46.5q-100 0 -201 -82v-639q0 -14 17 -20t77 -10l43 -2l4 -31h-442z" />
    <glyph glyph-name="n" unicode="n" horiz-adv-x="1058" 
d="M37 0l6 31l43 2q47 3 64.5 10t17.5 25v563q0 94 -15.5 123t-70.5 41l-47 10l2 22l303 80l-4 -164h6q44 36 73.5 57.5t76.5 50.5t94.5 43.5t95.5 14.5q106 0 162 -59q67 -67 67 -213v-571q0 -8 4.5 -13t27 -10.5t67.5 -9.5l34 -2l7 -31h-437l7 31l41 2q47 3 62 11.5
t15 23.5v516q0 107 -44 153.5t-138 46.5q-120 0 -219 -84v-637q0 -14 17 -20t77 -10l43 -2l4 -31h-442z" />
    <glyph glyph-name="o" unicode="o" horiz-adv-x="1032" 
d="M510 -29q-203 0 -333 134t-130 333q0 198 136.5 335.5t338.5 137.5t332.5 -131.5t130.5 -326.5q0 -133 -61 -243t-170.5 -174.5t-243.5 -64.5zM520 8q79 0 140 56.5t92.5 148.5t31.5 201q0 126 -27.5 229.5t-82.5 159.5q-71 71 -164 71q-82 0 -142.5 -57.5t-90 -146.5
t-29.5 -195q0 -282 108 -393q70 -74 164 -74z" />
    <glyph glyph-name="p" unicode="p" horiz-adv-x="1034" 
d="M8 -514l6 31l43 2q46 3 64 9.5t18 22.5v1082q0 92 -16 121t-70 41l-47 10l2 22l303 80l-2 -178l6 -2q148 172 312 172q158 0 260 -122t102 -308q0 -114 -39.5 -209.5t-105.5 -157.5t-150 -96.5t-174 -34.5q-116 0 -209 39h-2v-463q0 -9 5.5 -14t26.5 -8.5t62 -5.5l74 -2
l6 -31h-475zM559 14q107 0 174.5 113.5t67.5 282.5q0 158 -75.5 263t-197.5 105q-64 0 -121 -30.5t-98 -79.5v-467q39 -80 106.5 -133.5t143.5 -53.5z" />
    <glyph glyph-name="q" unicode="q" horiz-adv-x="1019" 
d="M555 -514l6 31l72 2q40 2 61.5 6.5t27 9.5t5.5 14v592h-6q-141 -168 -307 -168q-157 0 -262 123.5t-105 313.5q0 113 40.5 207.5t107 155t151 93.5t174.5 33q145 0 252 -55h2l107 76h16v-1369q0 -15 17.5 -21t68.5 -11l41 -2l6 -31h-475zM514 92q119 0 213 101v475
q-37 79 -105 133.5t-143 54.5q-113 0 -178 -108.5t-65 -276.5q0 -162 76.5 -270.5t201.5 -108.5z" />
    <glyph glyph-name="r" unicode="r" horiz-adv-x="757" 
d="M37 0l6 31l43 2q47 3 64.5 10t17.5 25v563q0 94 -15.5 123t-70.5 41l-47 10l2 22l303 80l-4 -305h6q56 155 121 231t153 76q55 0 93.5 -33t38.5 -79q0 -47 -30.5 -81t-80.5 -34q-43 0 -77.5 29t-41.5 82q-102 -32 -180 -275v-455q0 -14 18.5 -20.5t77.5 -9.5l70 -2l6 -31
h-473z" />
    <glyph glyph-name="s" unicode="s" horiz-adv-x="759" 
d="M348 -29q-147 0 -270 47l-17 261l39 2l45 -119q38 -72 95 -113t127 -41q82 0 136 48.5t54 121.5q0 70 -56 115.5t-163 83.5q-47 18 -77 31.5t-67 37.5t-58.5 50t-36.5 65.5t-15 87.5q0 113 86 187.5t221 74.5q106 0 193 -34l65 22l10 -258l-38 -2l-91 178q-70 57 -145 57
q-77 0 -120.5 -40.5t-43.5 -106.5q0 -36 13 -63t45 -49t63.5 -36t89.5 -36q49 -18 83.5 -33.5t72 -40.5t60 -52.5t37.5 -67.5t15 -89q0 -119 -94.5 -204t-257.5 -85z" />
    <glyph glyph-name="t" unicode="t" horiz-adv-x="679" 
d="M379 -29q-106 0 -163 58.5t-56 179.5l12 579l-164 5l6 34l111 86l197 158l24 -6l-2 -182h315l-28 -86h-287l-14 -568q-3 -147 151 -147q95 0 172 61l11 -20q-148 -152 -285 -152z" />
    <glyph glyph-name="u" unicode="u" horiz-adv-x="1011" 
d="M707 -33v170h-5q-82 -74 -162.5 -120t-170.5 -46q-99 0 -164 62q-66 69 -66 213l2 571q0 15 -15.5 20t-84.5 11l-35 4l-6 31h315l-6 -586q0 -106 45 -152.5t140 -46.5q116 0 211 80v590q0 46 -18.5 60.5t-78.5 19.5l-43 4l-6 31h318v-740q0 -28 6 -39t22 -16l111 -27
l-2 -22z" />
    <glyph glyph-name="v" unicode="v" horiz-adv-x="948" 
d="M453 -20l-316 753q-31 71 -47.5 89t-62.5 22l-41 6l-9 31h451l-4 -31l-43 -4q-51 -3 -62.5 -24t9.5 -72l221 -545l164 436q31 86 34 126t-20 57t-86 22l-37 4l-6 31h360l-6 -31l-37 -4q-56 -5 -79 -35.5t-72 -151.5q-9 -23 -14 -36l-248 -643h-49z" />
    <glyph glyph-name="w" unicode="w" horiz-adv-x="1464" 
d="M426 -20l-281 729q-32 87 -52.5 110t-69.5 27l-39 4l-7 31h449l-4 -31l-39 -4q-56 -3 -69.5 -20t5.5 -68l209 -555l185 446l-39 94q-27 62 -46.5 79.5t-72.5 23.5l-35 4l-6 31h444l-4 -31l-39 -4q-50 -3 -62.5 -23.5t3.5 -64.5l227 -559l148 428q43 121 28 165.5
t-106 53.5l-33 4l-6 31h361l-7 -31l-32 -4q-62 -4 -86 -39t-75 -182q-1 -2 -1.5 -3.5t-1.5 -3.5l-225 -638h-50l-262 620l-258 -620h-51z" />
    <glyph glyph-name="x" unicode="x" horiz-adv-x="950" 
d="M-4 0l6 29l53 8q50 8 89.5 42.5t121.5 141.5l137 185l-206 292q-63 87 -92 115.5t-70 32.5l-31 4l-6 31h440l-6 -31l-45 -6q-32 -3 -41 -17.5t2 -43.5t45 -78l121 -175h2l107 156q59 86 57.5 119.5t-62.5 38.5l-45 6l-6 31h361l-6 -31l-54 -6q-50 -5 -93 -42t-120 -145
l-116 -155l227 -320q60 -81 91.5 -112t68.5 -35l30 -4l7 -31h-441l6 29l39 8q33 4 44 18.5t0 42.5t-44 76l-141 203h-2l-125 -182q-60 -86 -61.5 -120.5t55.5 -39.5l55 -6l6 -29h-358z" />
    <glyph glyph-name="y" unicode="y" horiz-adv-x="942" 
d="M199 -528q-54 0 -90.5 31t-36.5 77q0 43 29 73t73 30q87 0 121 -89q31 8 53.5 48t52.5 125l74 221h-2l-336 745q-32 71 -49.5 89t-64.5 22l-41 6l-7 31h449l-6 -31l-39 -4q-51 -3 -62 -24t11 -72l229 -531l154 426q42 122 29 157t-103 44l-37 4l-6 31h362l-6 -31l-39 -4
q-60 -6 -84 -40t-79 -183l-228 -609l-86 -268q-45 -142 -98 -208t-137 -66z" />
    <glyph glyph-name="z" unicode="z" horiz-adv-x="884" 
d="M45 0v27l557 817h-94q-74 0 -126 -8.5t-87.5 -23t-61.5 -43t-42.5 -59t-36.5 -81.5l-25 -74h-39v326h719v-29l-555 -815l100 -2q119 1 198.5 27.5t123.5 69t84 116.5l43 78h37l-70 -326h-725z" />
    <glyph glyph-name="braceleft" unicode="{" horiz-adv-x="638" 
d="M602 -526q-183 9 -298.5 91.5t-115.5 217.5q0 91 42 229t42 203q0 84 -71.5 120t-212.5 46l-11 25l11 22q284 20 284 168q0 65 -42 203t-42 229q0 135 115 216.5t299 90.5l2 -28q-148 -18 -213 -70t-65 -143q0 -67 44 -207.5t44 -227.5q0 -100 -91.5 -165.5t-232.5 -83.5
v-11q141 -18 232.5 -83.5t91.5 -165.5q0 -86 -44 -225.5t-44 -205.5q0 -93 65 -146t213 -71z" />
    <glyph glyph-name="bar" unicode="|" horiz-adv-x="389" 
d="M176 -424v1796h37v-1796h-37z" />
    <glyph glyph-name="braceright" unicode="}" horiz-adv-x="638" 
d="M-6 -526l-2 28q146 18 211 71t65 146q0 66 -43 205.5t-43 225.5q0 100 90.5 165.5t231.5 83.5v11q-141 18 -231.5 83.5t-90.5 165.5q0 87 43 227.5t43 207.5q0 91 -65 143t-211 70l2 28q183 -9 298.5 -91t115.5 -216q0 -91 -43 -229t-43 -203q0 -148 286 -168l10 -22
l-10 -25q-69 -5 -118 -14.5t-88.5 -28t-59.5 -49.5t-20 -74q0 -65 43 -203t43 -229q0 -135 -116 -217.5t-298 -91.5z" />
    <glyph glyph-name="asciitilde" unicode="~" horiz-adv-x="776" 
d="M541 317q-54 0 -122.5 33.5t-128.5 67t-93 33.5q-42 0 -65.5 -22.5t-35.5 -94.5h-24q15 122 52 174.5t112 52.5q52 0 121 -33.5t129.5 -66.5t93.5 -33q41 0 64 23t36 94h25q-14 -121 -51.5 -174.5t-112.5 -53.5z" />
    <glyph glyph-name="nbspace" unicode="&#xa0;" horiz-adv-x="284" 
 />
    <glyph glyph-name="exclamdown" unicode="&#xa1;" horiz-adv-x="532" 
d="M266 1061q-53 0 -88 35.5t-35 83.5q0 49 35 84.5t88 35.5t88 -35.5t35 -84.5q0 -48 -35 -83.5t-88 -35.5zM264 -39q-63 0 -81 26.5t-13 73.5l82 836q2 7 14 7t13 -7l83 -836q5 -47 -13 -73.5t-81 -26.5h-4z" />
    <glyph glyph-name="cent" unicode="&#xa2;" horiz-adv-x="858" 
d="M305 -328l82 308q-152 28 -246 151.5t-94 292.5q0 207 132.5 347t334.5 140q54 0 119 -14l96 358h39l-100 -368q68 -24 107.5 -67t39.5 -99q0 -43 -29 -74t-67 -31q-37 0 -65.5 21.5t-37.5 54.5l-155 -577q54 -15 90 -15q81 0 142 32.5t116 113.5l22 -13
q-142 -262 -370 -262q-25 0 -37 2l-82 -301h-37zM426 127l190 711q-49 36 -108 36q-119 0 -199 -106.5t-80 -275.5q0 -131 53.5 -227t143.5 -138z" />
    <glyph glyph-name="sterling" unicode="&#xa3;" horiz-adv-x="1056" 
d="M330 582h-219l6 39h205q-19 93 -19 149q0 104 35.5 199t98.5 166.5t156.5 114t203.5 42.5q99 0 155 -39.5t56 -109.5q0 -40 -34.5 -72.5t-78.5 -32.5t-71.5 29.5t-29 68t10.5 76.5q-31 31 -90 31q-98 0 -169 -79.5t-71 -235.5q0 -47 15 -162t18 -145h264l6 -39h-268
q6 -58 6 -123q0 -112 -74 -250q17 -5 70.5 -22t78.5 -24t67.5 -18t75.5 -15.5t63 -4.5q87 0 127.5 48.5t58.5 184.5l27 -4q-2 -105 -34.5 -190.5t-96 -138t-146.5 -52.5q-52 0 -101.5 10t-100.5 33t-79.5 38t-82.5 46q-108 -127 -219 -127q-67 0 -107.5 34t-40.5 89
q0 66 54.5 113t156.5 47q66 0 162 -27q8 50 8 74q0 23 -2.5 49t-5 42.5t-10 50t-10 42.5t-13.5 50t-12 45zM330 125q-120 76 -187 76q-47 0 -78.5 -28.5t-31.5 -74.5q0 -43 33 -69.5t84 -26.5q50 0 97.5 33.5t82.5 89.5z" />
    <glyph glyph-name="currency" unicode="&#xa4;" horiz-adv-x="917" 
d="M160 408l-29 28l117 117q-68 77 -68 182q0 106 68 183l-117 116l29 29l116 -117q81 68 183 68q101 0 182 -68l117 117l28 -29l-116 -116q67 -80 67 -183q0 -102 -67 -182l116 -117l-28 -28l-117 116q-76 -67 -182 -67q-107 0 -183 67zM221 735q0 -98 70 -167.5t168 -69.5
t167.5 69.5t69.5 167.5t-69.5 168t-167.5 70t-168 -70t-70 -168z" />
    <glyph glyph-name="yen" unicode="&#xa5;" horiz-adv-x="1243" 
d="M324 0l6 31l116 12q84 8 84 37v250h-370l6 39h364v221h-366l-2 41h348l-281 483q-43 69 -75.5 96t-85.5 31l-62 8l-6 31h557l-6 -31l-59 -4q-78 -6 -82.5 -45.5t55.5 -136.5l229 -408h6l187 353q49 95 58 141t-14 65t-89 29l-47 6l-7 31h431l-7 -31l-47 -6
q-34 -5 -54.5 -13t-47.5 -30.5t-55 -66t-66 -115.5q-209 -387 -211 -387h363l-2 -41h-371v-221h369l6 -39h-375v-254q0 -9 6 -14.5t28.5 -11t63.5 -9.5l101 -10l6 -31h-602z" />
    <glyph glyph-name="brokenbar" unicode="&#xa6;" horiz-adv-x="389" 
d="M176 598v686h37v-686h-37zM176 -315v686h37v-686h-37z" />
    <glyph glyph-name="section" unicode="&#xa7;" horiz-adv-x="798" 
d="M336 -102q-100 0 -166 38t-66 103q0 37 25.5 65.5t63.5 28.5q40 0 65.5 -26.5t29 -62t-2.5 -71.5q36 -36 102 -36q72 0 115 49t43 110q0 25 -7.5 48t-28.5 46t-36.5 38.5t-54 40.5t-57 36t-68.5 41q-60 36 -101 65t-84.5 69t-65.5 86.5t-22 97.5q0 152 173 235
q-54 69 -54 148q0 104 91 184t227 80q100 0 162.5 -38t62.5 -104q0 -38 -28 -66t-68 -28q-59 0 -81.5 50.5t-8.5 109.5q-37 37 -86 37q-69 0 -112.5 -47.5t-43.5 -106.5q0 -25 8 -48t28 -46t37 -39.5t54 -40.5t57.5 -36.5t67.5 -39.5q63 -37 101.5 -63.5t83 -66.5t66 -85
t21.5 -96q0 -80 -47 -142.5t-125 -101.5q56 -67 56 -147q0 -107 -93 -187.5t-233 -80.5zM590 332q74 59 74 139q0 68 -45 118.5t-144 112.5q-26 16 -76.5 46.5t-76 46.5t-57.5 40t-54 46q-76 -56 -76 -138q0 -68 45.5 -118t143.5 -111q25 -15 76.5 -46t76.5 -47t58 -41
t55 -48z" />
    <glyph glyph-name="dieresis" unicode="&#xa8;" horiz-adv-x="776" 
d="M580 1065q-53 0 -83 35.5t-30 77.5t30.5 80t82.5 38t81 -37.5t29 -80.5q0 -42 -29 -77.5t-81 -35.5zM199 1065q-53 0 -83 35.5t-30 77.5t30.5 80t82.5 38t81 -37.5t29 -80.5q0 -42 -29 -77.5t-81 -35.5z" />
    <glyph glyph-name="copyright" unicode="&#xa9;" horiz-adv-x="1460" 
d="M731 -29q-137 0 -261 53t-213.5 142.5t-142.5 213.5t-53 261q0 183 89.5 337.5t244 244.5t336.5 90t336.5 -90t244 -244.5t89.5 -337.5q0 -137 -53 -261t-142.5 -213.5t-213.5 -142.5t-261 -53zM731 4q128 0 245 50.5t201.5 136t134.5 203.5t50 247q0 128 -50 246
t-134.5 203.5t-201.5 136.5t-245 51q-129 0 -246.5 -51t-202 -136.5t-134.5 -203.5t-50 -246q0 -129 50 -247t135 -203.5t202 -136t246 -50.5zM752 242q-188 0 -304 108.5t-116 282.5t118.5 286.5t307.5 112.5q107 0 196 -41l80 29l2 -248h-22l-94 184q-55 45 -168 45
q-134 0 -212.5 -99.5t-78.5 -250.5q0 -167 85.5 -273t217.5 -106q80 0 132.5 35.5t96.5 108.5l43 84h23l-39 -215l-47 -4q-37 -15 -101.5 -27t-119.5 -12z" />
    <glyph glyph-name="ordfeminine" unicode="&#xaa;" horiz-adv-x="675" 
d="M195 586q-65 0 -111.5 43t-46.5 106q0 77 95.5 145t295.5 113l2 49q1 103 -48.5 153t-121.5 50q-27 0 -50 -8.5t-33.5 -18t-10.5 -16.5q0 -2 17.5 -33.5t17.5 -50.5q0 -29 -24 -50t-60 -21q-34 0 -57 22.5t-23 54.5q0 40 53.5 82t132 69.5t148.5 27.5q95 0 153 -55
t54 -154l-13 -330q-3 -90 56 -90q33 0 69 39l8 -15q-27 -44 -69 -78t-92 -34q-54 0 -81.5 33t-33.5 102h-2q-112 -135 -225 -135zM293 680q58 0 127 72l8 213q-242 -56 -242 -172q0 -51 30 -82t77 -31z" />
    <glyph glyph-name="guillemotleft" unicode="&#xab;" horiz-adv-x="925" 
d="M874 96l-444 338v39l444 340l11 -18l-279 -340l279 -340zM485 117l-444 317v39l444 318l11 -19l-273 -317l273 -320z" />
    <glyph glyph-name="logicalnot" unicode="&#xac;" horiz-adv-x="917" 
d="M856 639v-369h-45v324h-782l6 45h821z" />
    <glyph glyph-name="uni00AD" unicode="&#xad;" horiz-adv-x="602" 
d="M47 434l6 90h504l-4 -90h-506z" />
    <glyph glyph-name="registered" unicode="&#xae;" horiz-adv-x="1460" 
d="M731 -29q-137 0 -261 53t-213.5 142.5t-142.5 213.5t-53 261q0 183 89.5 337.5t244 244.5t336.5 90t336.5 -90t244 -244.5t89.5 -337.5q0 -137 -53 -261t-142.5 -213.5t-213.5 -142.5t-261 -53zM731 4q128 0 245 50.5t201.5 136t134.5 203.5t50 247q0 128 -50 246
t-134.5 203.5t-201.5 136.5t-245 51q-129 0 -246.5 -51t-202 -136.5t-134.5 -203.5t-50 -246q0 -129 50 -247t135 -203.5t202 -136t246 -50.5zM385 266l4 27l62 8q18 3 33.5 10t15.5 13v641q0 8 -11.5 12t-48.5 8l-49 6l-4 29h324q146 0 220.5 -53t74.5 -146q0 -69 -50 -122
t-133 -70l160 -242q33 -51 57 -67t66 -23l31 -4l4 -27h-223l-19 35l-199 322q-5 1 -38.5 7t-45.5 9v-317q0 -7 19 -13t41 -8l53 -8l4 -27h-348zM711 655q80 2 125 44t45 122q0 84 -53 126t-158 36l-54 -2v-309q62 -17 95 -17z" />
    <glyph glyph-name="macron" unicode="&#xaf;" horiz-adv-x="774" 
d="M125 1079l12 62h512l-8 -62h-516z" />
    <glyph glyph-name="degree" unicode="&#xb0;" horiz-adv-x="659" 
d="M330 750q-126 0 -203.5 81.5t-77.5 200.5q0 120 77 202.5t204 82.5t203.5 -82.5t76.5 -202.5q0 -119 -76.5 -200.5t-203.5 -81.5zM330 791q105 0 170 69.5t65 171.5q0 103 -65 173.5t-170 70.5t-169.5 -70.5t-64.5 -173.5q0 -102 64.5 -171.5t169.5 -69.5z" />
    <glyph glyph-name="plusminus" unicode="&#xb1;" horiz-adv-x="917" 
d="M436 172v332h-405l6 45h399v344h45v-344h400l6 -45h-406v-332h-45zM860 55h-803l6 45h791z" />
    <glyph glyph-name="twosuperior" unicode="&#xb2;" horiz-adv-x="587" 
d="M31 547l-6 26q185 182 242 249q108 128 118 233q2 15 2 30q0 83 -44.5 125.5t-106.5 42.5q-55 0 -99 -28.5t-88 -89.5l-12 12q111 192 266 192q88 0 148.5 -54.5t60.5 -141.5q0 -24 -5.5 -48t-12 -44.5t-23 -46.5t-27.5 -44t-38 -47.5t-42 -46.5t-51 -51.5t-53.5 -51.5
t-62 -58t-64.5 -60v-4h248q63 0 91.5 23t59.5 96l13 22h22l-53 -235h-483z" />
    <glyph glyph-name="threesuperior" unicode="&#xb3;" horiz-adv-x="548" 
d="M199 508q-74 0 -120 25.5t-46 66.5q0 28 18.5 46t46.5 18q39 0 65 -35t21 -80l11 -2q11 -2 25 -4t22 -2q72 0 122 52.5t50 127.5q0 90 -48 139t-133 49q-52 0 -104 -20l-10 16q25 16 64.5 40t59.5 36.5t46 32t38.5 35t21.5 37.5t9 47q0 54 -34.5 87t-92.5 33
q-111 0 -178 -102l-14 12q46 80 110.5 128t143.5 48q77 0 131.5 -45t54.5 -110q0 -19 -5.5 -37t-12 -31t-22 -28.5t-24.5 -24t-32.5 -23t-33 -20.5t-37.5 -21t-36 -20v-4q106 15 179 -43t73 -154q0 -107 -100 -188.5t-229 -81.5z" />
    <glyph glyph-name="acute" unicode="&#xb4;" horiz-adv-x="776" 
d="M297 1018l190 383h199l-367 -383h-22z" />
    <glyph glyph-name="mu" unicode="&#xb5;" horiz-adv-x="1011" 
d="M442 -514h-432l6 31l43 2q46 3 64 9.5t18 22.5v1266q0 15 -15.5 20t-84.5 11l-35 4l-6 31h315l-6 -641q0 -148 172 -148q131 0 224 80v594q0 46 -18.5 60.5t-78.5 19.5l-43 4l-6 31h318v-740q0 -28 6 -39t22 -16l111 -27l-2 -22l-307 -72v166h-5q-23 -35 -33 -49.5
t-32.5 -41.5t-41 -39t-47 -22t-61.5 -10q-57 0 -100.5 35t-71.5 88h-4v-543q0 -16 18 -22.5t64 -9.5l43 -2z" />
    <glyph glyph-name="mu" unicode="&#x3bc;" horiz-adv-x="1011" 
d="M442 -514h-432l6 31l43 2q46 3 64 9.5t18 22.5v1266q0 15 -15.5 20t-84.5 11l-35 4l-6 31h315l-6 -641q0 -148 172 -148q131 0 224 80v594q0 46 -18.5 60.5t-78.5 19.5l-43 4l-6 31h318v-740q0 -28 6 -39t22 -16l111 -27l-2 -22l-307 -72v166h-5q-23 -35 -33 -49.5
t-32.5 -41.5t-41 -39t-47 -22t-61.5 -10q-57 0 -100.5 35t-71.5 88h-4v-543q0 -16 18 -22.5t64 -9.5l43 -2z" />
    <glyph glyph-name="paragraph" unicode="&#xb6;" horiz-adv-x="925" 
d="M754 -66v601q-113 -17 -199 -17q-231 0 -362.5 103.5t-131.5 283.5q0 184 126 279.5t358 95.5h254v-1346h-45z" />
    <glyph glyph-name="periodcentered" unicode="&#xb7;" horiz-adv-x="432" 
d="M215 334q-55 0 -92 37.5t-37 89.5q0 50 37 86.5t92 36.5q56 0 91.5 -36t35.5 -87q0 -52 -35.5 -89.5t-91.5 -37.5z" />
    <glyph glyph-name="cedilla" unicode="&#xb8;" horiz-adv-x="776" 
d="M199 -547l-11 23q157 30 235.5 72t78.5 112q0 59 -47.5 87t-126.5 28q-61 0 -133 -21v23l208 231h43l-124 -137q129 15 215 -30t86 -132q0 -59 -34.5 -104t-98.5 -74.5t-132.5 -47t-158.5 -30.5z" />
    <glyph glyph-name="onesuperior" unicode="&#xb9;" horiz-adv-x="520" 
d="M96 547l4 22l68 6q47 0 47 23v655l-141 19l4 16l262 43v-735q0 -21 57 -21l60 -6l2 -22h-363z" />
    <glyph glyph-name="ordmasculine" unicode="&#xba;" horiz-adv-x="802" 
d="M399 584q-159 0 -263.5 103t-104.5 251q0 153 106 260t264 107q161 0 264 -104t103 -255q0 -154 -103.5 -258t-265.5 -104zM403 614q87 0 138 92.5t51 219.5q0 96 -18.5 176t-55.5 117q-50 53 -121 53q-92 0 -141 -92t-49 -222q0 -216 76 -292q52 -52 120 -52z" />
    <glyph glyph-name="guillemotright" unicode="&#xbb;" horiz-adv-x="925" 
d="M444 117l-10 18l271 320l-271 317l10 19l445 -318v-39zM55 96l-10 19l277 340l-277 340l10 18l445 -340v-39z" />
    <glyph glyph-name="onequarter" unicode="&#xbc;" horiz-adv-x="1386" 
d="M1110 -279v220h-330l-2 18l391 553h58v-496h143l-20 -75h-123v-220h-117zM852 16h258v359h-4zM96 547l4 22l68 6q47 0 47 23v655l-141 19l4 16l262 43v-735q0 -21 57 -21l60 -6l2 -22h-363zM66 -248l1187 1538h60l-1188 -1538h-59z" />
    <glyph glyph-name="onehalf" unicode="&#xbd;" horiz-adv-x="1361" 
d="M793 -281l-7 27q185 182 240 247q110 129 121 233q2 16 2 32q0 83 -45 125.5t-107 42.5q-55 0 -98 -29t-88 -90l-12 12q112 193 266 193q88 0 148.5 -55t60.5 -142q0 -26 -4.5 -51t-18.5 -53t-24.5 -48t-38 -52.5t-42 -50t-54 -56.5t-57.5 -56t-68.5 -64t-71.5 -66v-4
h248q64 0 92 22.5t59 95.5l13 23h22l-53 -236h-483zM96 547l4 22l68 6q47 0 47 23v655l-141 19l4 16l262 43v-735q0 -21 57 -21l60 -6l2 -22h-363zM66 -248l1187 1538h60l-1188 -1538h-59z" />
    <glyph glyph-name="threequarters" unicode="&#xbe;" horiz-adv-x="1333" 
d="M1057 -279v220h-330l-2 18l391 553h58v-496h143l-21 -75h-122v-220h-117zM799 16h258v359h-4zM199 508q-74 0 -120 25.5t-46 66.5q0 28 18.5 46t46.5 18q39 0 65 -35t21 -80l11 -2q11 -2 25 -4t22 -2q72 0 122 52.5t50 127.5q0 90 -48 139t-133 49q-52 0 -104 -20l-10 16
q25 16 64.5 40t59.5 36.5t46 32t38.5 35t21.5 37.5t9 47q0 54 -34.5 87t-92.5 33q-111 0 -178 -102l-14 12q46 80 110.5 128t143.5 48q77 0 131.5 -45t54.5 -110q0 -19 -5.5 -37t-12 -31t-22 -28.5t-24.5 -24t-32.5 -23t-33 -20.5t-37.5 -21t-36 -20v-4q106 15 179 -43
t73 -154q0 -107 -100 -188.5t-229 -81.5zM12 -248l1188 1538h60l-1188 -1538h-60z" />
    <glyph glyph-name="questiondown" unicode="&#xbf;" horiz-adv-x="651" 
d="M356 1071q-52 0 -86 35t-34 82q0 51 33.5 87t86.5 36t89 -36.5t36 -86.5q0 -47 -36 -82t-89 -35zM440 -29q-113 0 -201.5 57t-133 141.5t-44.5 176.5q0 75 20.5 121.5t59 74.5t117.5 62q10 4 30.5 13.5t29.5 13.5t25.5 12.5t24.5 13.5t20 14t17.5 16.5t11.5 17.5t8.5 21
t2.5 24q0 42 -23 76.5t-73 84.5h33q55 -45 105 -113.5t50 -117.5q0 -32 -4.5 -56t-18.5 -44t-27.5 -34t-43.5 -30.5t-53 -27.5t-70 -31q-114 -48 -156.5 -77t-42.5 -73q0 -71 79 -123.5t233 -52.5q62 0 145 19q25 -32 25 -93q0 -86 -146 -86z" />
    <glyph glyph-name="Agrave" unicode="&#xc0;" horiz-adv-x="1263" 
d="M739 530h-368l-72 -202q-16 -48 -26 -79t-17.5 -62t-9 -49t2 -35.5t12.5 -26.5t25.5 -17.5t37 -12.5t51.5 -7l55 -8l6 -31h-452l6 31l39 6q32 5 50.5 10.5t41.5 24.5t38 44t40 79t49 119t63 175l228 639l-17 66q34 12 80.5 51t59.5 68h24l352 -1082q37 -118 64 -153
t88 -39l72 -8l6 -31h-574l6 31l76 8q48 3 66.5 25.5t14 64t-29.5 119.5zM383 571h344l-158 514h-6q-178 -514 -180 -514zM670 1360l-367 383h197l190 -383h-20z" />
    <glyph glyph-name="Aacute" unicode="&#xc1;" horiz-adv-x="1263" 
d="M739 530h-368l-72 -202q-16 -48 -26 -79t-17.5 -62t-9 -49t2 -35.5t12.5 -26.5t25.5 -17.5t37 -12.5t51.5 -7l55 -8l6 -31h-452l6 31l39 6q32 5 50.5 10.5t41.5 24.5t38 44t40 79t49 119t63 175l228 639l-17 66q34 12 80.5 51t59.5 68h24l352 -1082q37 -118 64 -153
t88 -39l72 -8l6 -31h-574l6 31l76 8q48 3 66.5 25.5t14 64t-29.5 119.5zM383 571h344l-158 514h-6q-178 -514 -180 -514zM557 1360l191 383h198l-366 -383h-23z" />
    <glyph glyph-name="Acircumflex" unicode="&#xc2;" horiz-adv-x="1263" 
d="M739 530h-368l-72 -202q-16 -48 -26 -79t-17.5 -62t-9 -49t2 -35.5t12.5 -26.5t25.5 -17.5t37 -12.5t51.5 -7l55 -8l6 -31h-452l6 31l39 6q32 5 50.5 10.5t41.5 24.5t38 44t40 79t49 119t63 175l228 639l-17 66q34 12 80.5 51t59.5 68h24l352 -1082q37 -118 64 -153
t88 -39l72 -8l6 -31h-574l6 31l76 8q48 3 66.5 25.5t14 64t-29.5 119.5zM383 571h344l-158 514h-6q-178 -514 -180 -514zM358 1343l273 398h31l272 -398h-25l-260 226h-4l-264 -226h-23z" />
    <glyph glyph-name="Atilde" unicode="&#xc3;" horiz-adv-x="1263" 
d="M739 530h-368l-72 -202q-16 -48 -26 -79t-17.5 -62t-9 -49t2 -35.5t12.5 -26.5t25.5 -17.5t37 -12.5t51.5 -7l55 -8l6 -31h-452l6 31l39 6q32 5 50.5 10.5t41.5 24.5t38 44t40 79t49 119t63 175l228 639l-17 66q34 12 80.5 51t59.5 68h24l352 -1082q37 -118 64 -153
t88 -39l72 -8l6 -31h-574l6 31l76 8q48 3 66.5 25.5t14 64t-29.5 119.5zM383 571h344l-158 514h-6q-178 -514 -180 -514zM786 1374q-43 0 -95.5 21t-93.5 45.5t-84.5 45.5t-70.5 21q-42 0 -65 -22t-35 -94h-25q15 122 52 174.5t112 52.5q41 0 94 -21t94 -45.5t85 -45.5
t71 -21q41 0 64.5 23t36.5 94h24q-14 -121 -51.5 -174.5t-112.5 -53.5z" />
    <glyph glyph-name="Adieresis" unicode="&#xc4;" horiz-adv-x="1263" 
d="M739 530h-368l-72 -202q-16 -48 -26 -79t-17.5 -62t-9 -49t2 -35.5t12.5 -26.5t25.5 -17.5t37 -12.5t51.5 -7l55 -8l6 -31h-452l6 31l39 6q32 5 50.5 10.5t41.5 24.5t38 44t40 79t49 119t63 175l228 639l-17 66q34 12 80.5 51t59.5 68h24l352 -1082q37 -118 64 -153
t88 -39l72 -8l6 -31h-574l6 31l76 8q48 3 66.5 25.5t14 64t-29.5 119.5zM383 571h344l-158 514h-6q-178 -514 -180 -514zM825 1407q-53 0 -82.5 35.5t-29.5 77.5q0 43 30 80.5t82 37.5t81.5 -37.5t29.5 -80.5q0 -42 -29 -77.5t-82 -35.5zM444 1407q-53 0 -82.5 35.5
t-29.5 77.5q0 43 30 80.5t82 37.5t81.5 -37.5t29.5 -80.5q0 -42 -29 -77.5t-82 -35.5z" />
    <glyph glyph-name="Aring" unicode="&#xc5;" horiz-adv-x="1263" 
d="M741 526h-374l-68 -198q-16 -48 -26 -79t-17.5 -62t-9 -49t2 -35.5t12.5 -26.5t25.5 -17.5t37 -12.5t51.5 -7l55 -8l6 -31h-452l6 31l39 6q32 5 50.5 10.5t41.5 24.5t38 44t40 79t49 119t63 175l275 768q-63 18 -98 66t-35 111q0 76 50 129t132 53t132 -53t50 -129
q0 -59 -31 -105t-84 -65l336 -1033q37 -118 64 -153t88 -39l72 -8l6 -31h-574l6 31l76 8q48 3 66.5 25.5t14 64t-29.5 119.5zM383 571h344l-158 516h-6zM635 1278q67 0 108 44.5t41 109.5q0 64 -41 109.5t-108 45.5q-68 0 -109 -45.5t-41 -109.5q0 -65 41 -109.5t109 -44.5z
" />
    <glyph glyph-name="AE" unicode="&#xc6;" horiz-adv-x="1722" 
d="M-106 0l6 31l69 10q44 7 79 33t89.5 102.5t136.5 222.5l418 738q31 49 12.5 72t-110.5 30l-72 6l-6 35h1053l18 -393h-35l-22 78q-3 11 -10 31q-20 61 -31 88.5t-37.5 65t-62.5 52.5t-97.5 27t-150.5 12h-158v-565l61 2q152 5 202 28t77 107l20 61l33 -2l-43 -436l-30 2
l-7 60q-2 31 -6.5 51t-17.5 36t-29 24.5t-48.5 14.5t-67.5 8.5t-95 4.5l-49 2v-594l156 -6q69 0 125.5 8.5t97 21t74.5 35.5t55 43t42 54.5t33 59.5t29 67l23 75l39 -2l-62 -401h-995l6 31l105 12q82 8 82 37v446h-396l-106 -190q-88 -163 -88 -224t86 -73l61 -8l6 -31h-462
zM422 571h371v648h-9z" />
    <glyph glyph-name="Ccedilla" unicode="&#xc7;" horiz-adv-x="1398" 
d="M764 -31q-201 5 -358 86t-247.5 231.5t-90.5 346.5q0 200 93.5 355t260.5 239t381 84q90 0 185.5 -23.5t148.5 -50.5l133 49l4 -405h-37l-150 313q-103 76 -290 76q-159 0 -277.5 -85t-177.5 -223.5t-59 -308.5q0 -285 147 -464t375 -179q95 0 169 29t126 78t108 129
l62 147h39l-66 -348l-78 -4q-59 -25 -161.5 -47t-196.5 -25l-90 -98q129 15 215 -30t86 -132q0 -59 -34.5 -104t-98.5 -74.5t-132.5 -47t-158.5 -30.5l-10 23q157 30 235 72t78 112q0 59 -47.5 87t-126.5 28q-61 0 -133 -21v23z" />
    <glyph glyph-name="Egrave" unicode="&#xc8;" horiz-adv-x="1214" 
d="M59 0l7 31l71 8q96 9 96 35v1138q0 13 -19 19t-85 12l-61 6l-7 31h990l20 -393h-39l-20 78q-16 47 -26 72.5t-28 60.5t-36.5 53t-48.5 38.5t-68 30.5t-91 16.5t-120 6.5h-166v-567l82 2q155 5 210.5 29t82.5 106l20 61l35 -2l-43 -436l-35 2l-6 60q-6 86 -56.5 109.5
t-219.5 29.5l-70 2v-594l193 -6q68 0 124.5 8.5t96.5 21t74 35.5t55 43t42 54.5t33 59.5t29 67l25 75l41 -2l-64 -401h-1018zM657 1360l-366 383h196l191 -383h-21z" />
    <glyph glyph-name="Eacute" unicode="&#xc9;" horiz-adv-x="1214" 
d="M59 0l7 31l71 8q96 9 96 35v1138q0 13 -19 19t-85 12l-61 6l-7 31h990l20 -393h-39l-20 78q-16 47 -26 72.5t-28 60.5t-36.5 53t-48.5 38.5t-68 30.5t-91 16.5t-120 6.5h-166v-567l82 2q155 5 210.5 29t82.5 106l20 61l35 -2l-43 -436l-35 2l-6 60q-6 86 -56.5 109.5
t-219.5 29.5l-70 2v-594l193 -6q68 0 124.5 8.5t96.5 21t74 35.5t55 43t42 54.5t33 59.5t29 67l25 75l41 -2l-64 -401h-1018zM551 1360l190 383h199l-367 -383h-22z" />
    <glyph glyph-name="Ecircumflex" unicode="&#xca;" horiz-adv-x="1214" 
d="M59 0l7 31l71 8q96 9 96 35v1138q0 13 -19 19t-85 12l-61 6l-7 31h990l20 -393h-39l-20 78q-16 47 -26 72.5t-28 60.5t-36.5 53t-48.5 38.5t-68 30.5t-91 16.5t-120 6.5h-166v-567l82 2q155 5 210.5 29t82.5 106l20 61l35 -2l-43 -436l-35 2l-6 60q-6 86 -56.5 109.5
t-219.5 29.5l-70 2v-594l193 -6q68 0 124.5 8.5t96.5 21t74 35.5t55 43t42 54.5t33 59.5t29 67l25 75l41 -2l-64 -401h-1018zM322 1343l272 398h31l272 -398h-25l-260 226h-4l-264 -226h-22z" />
    <glyph glyph-name="Edieresis" unicode="&#xcb;" horiz-adv-x="1214" 
d="M59 0l7 31l71 8q96 9 96 35v1138q0 13 -19 19t-85 12l-61 6l-7 31h990l20 -393h-39l-20 78q-16 47 -26 72.5t-28 60.5t-36.5 53t-48.5 38.5t-68 30.5t-91 16.5t-120 6.5h-166v-567l82 2q155 5 210.5 29t82.5 106l20 61l35 -2l-43 -436l-35 2l-6 60q-6 86 -56.5 109.5
t-219.5 29.5l-70 2v-594l193 -6q68 0 124.5 8.5t96.5 21t74 35.5t55 43t42 54.5t33 59.5t29 67l25 75l41 -2l-64 -401h-1018zM795 1407q-53 0 -83 35.5t-30 77.5t30.5 80t82.5 38t81 -37.5t29 -80.5q0 -42 -29 -77.5t-81 -35.5zM414 1407q-53 0 -83 35.5t-30 77.5t30.5 80
t82.5 38t81 -37.5t29 -80.5q0 -42 -29 -77.5t-81 -35.5z" />
    <glyph glyph-name="Igrave" unicode="&#xcc;" horiz-adv-x="704" 
d="M70 0l6 31l90 8q90 8 90 35v1138q0 13 -19 19t-85 12l-74 6l-6 31h563l-6 -31l-88 -8q-90 -8 -90 -35v-1138q0 -13 19 -19t85 -12l72 -6l6 -31h-563zM397 1360l-366 383h196l191 -383h-21z" />
    <glyph glyph-name="Iacute" unicode="&#xcd;" horiz-adv-x="704" 
d="M70 0l6 31l90 8q90 8 90 35v1138q0 13 -19 19t-85 12l-74 6l-6 31h563l-6 -31l-88 -8q-90 -8 -90 -35v-1138q0 -13 19 -19t85 -12l72 -6l6 -31h-563zM274 1360l191 383h199l-367 -383h-23z" />
    <glyph glyph-name="Icircumflex" unicode="&#xce;" horiz-adv-x="704" 
d="M70 0l6 31l90 8q90 8 90 35v1138q0 13 -19 19t-85 12l-74 6l-6 31h563l-6 -31l-88 -8q-90 -8 -90 -35v-1138q0 -13 19 -19t85 -12l72 -6l6 -31h-563zM66 1343l272 398h31l272 -398h-25l-260 226h-4l-264 -226h-22z" />
    <glyph glyph-name="Idieresis" unicode="&#xcf;" horiz-adv-x="704" 
d="M70 0l6 31l90 8q90 8 90 35v1138q0 13 -19 19t-85 12l-74 6l-6 31h563l-6 -31l-88 -8q-90 -8 -90 -35v-1138q0 -13 19 -19t85 -12l72 -6l6 -31h-563zM547 1407q-53 0 -83 35.5t-30 77.5t30.5 80t82.5 38t81 -37.5t29 -80.5q0 -42 -29 -77.5t-81 -35.5zM166 1407
q-53 0 -83 35.5t-30 77.5t30.5 80t82.5 38t81 -37.5t29 -80.5q0 -42 -29 -77.5t-81 -35.5z" />
    <glyph glyph-name="Eth" unicode="&#xd0;" horiz-adv-x="1368" 
d="M233 625h-192l6 43h186v536q0 11 -31.5 21.5t-66.5 13.5l-88 10l-6 31l518 6q179 3 322 -42.5t236 -128.5t142.5 -196.5t49.5 -248.5q0 -143 -50.5 -264t-147 -212t-249.5 -142.5t-346 -51.5h-477l6 31l105 12q83 8 83 37v545zM424 668h291l6 -43h-297v-545l139 -41
q104 0 192.5 30.5t152 84t108.5 126.5t66.5 158t21.5 178q0 131 -34.5 242.5t-103.5 198.5t-182.5 136.5t-261.5 49.5h-98v-575z" />
    <glyph glyph-name="Ntilde" unicode="&#xd1;" horiz-adv-x="1429" 
d="M1161 -12l-882 1126h-5l2 -899q0 -99 29.5 -133t116.5 -43l57 -8l6 -31h-442l6 31l57 8q69 6 98 42.5t29 137.5l7 883q-48 120 -160 141l-47 8l-6 31h368l768 -991l4 2l-2 772q0 99 -29 133t-116 43l-57 8l-7 31h443l-6 -31l-58 -8q-69 -6 -98 -42.5t-29 -137.5l-4 -1073
h-43zM903 1374q-43 0 -95.5 21t-93.5 45.5t-84.5 45.5t-70.5 21q-42 0 -65 -22t-35 -94h-25q15 122 52 174.5t112 52.5q41 0 94 -21t94 -45.5t85 -45.5t71 -21q41 0 64 23t36 94h25q-14 -121 -51.5 -174.5t-112.5 -53.5z" />
    <glyph glyph-name="Ograve" unicode="&#xd2;" horiz-adv-x="1505" 
d="M743 -31q-143 0 -268 49t-214.5 136t-141 211t-51.5 268q0 129 54.5 252t146 216.5t221 150.5t270.5 57q192 0 346.5 -84t243 -236.5t88.5 -345.5q0 -130 -54.5 -253.5t-146.5 -216t-222 -148.5t-272 -56zM756 8q209 0 337 170t128 461q0 278 -135.5 454.5t-340.5 176.5
q-207 0 -334.5 -170.5t-127.5 -460.5q0 -280 134 -455.5t339 -175.5zM813 1360l-367 383h197l191 -383h-21z" />
    <glyph glyph-name="Oacute" unicode="&#xd3;" horiz-adv-x="1505" 
d="M743 -31q-143 0 -268 49t-214.5 136t-141 211t-51.5 268q0 129 54.5 252t146 216.5t221 150.5t270.5 57q192 0 346.5 -84t243 -236.5t88.5 -345.5q0 -130 -54.5 -253.5t-146.5 -216t-222 -148.5t-272 -56zM756 8q209 0 337 170t128 461q0 278 -135.5 454.5t-340.5 176.5
q-207 0 -334.5 -170.5t-127.5 -460.5q0 -280 134 -455.5t339 -175.5zM668 1360l190 383h199l-367 -383h-22z" />
    <glyph glyph-name="Ocircumflex" unicode="&#xd4;" horiz-adv-x="1505" 
d="M743 -31q-143 0 -268 49t-214.5 136t-141 211t-51.5 268q0 129 54.5 252t146 216.5t221 150.5t270.5 57q192 0 346.5 -84t243 -236.5t88.5 -345.5q0 -130 -54.5 -253.5t-146.5 -216t-222 -148.5t-272 -56zM756 8q209 0 337 170t128 461q0 278 -135.5 454.5t-340.5 176.5
q-207 0 -334.5 -170.5t-127.5 -460.5q0 -280 134 -455.5t339 -175.5zM469 1343l272 398h31l272 -398h-24l-260 226h-4l-264 -226h-23z" />
    <glyph glyph-name="Otilde" unicode="&#xd5;" horiz-adv-x="1505" 
d="M743 -31q-143 0 -268 49t-214.5 136t-141 211t-51.5 268q0 129 54.5 252t146 216.5t221 150.5t270.5 57q192 0 346.5 -84t243 -236.5t88.5 -345.5q0 -130 -54.5 -253.5t-146.5 -216t-222 -148.5t-272 -56zM756 8q209 0 337 170t128 461q0 278 -135.5 454.5t-340.5 176.5
q-207 0 -334.5 -170.5t-127.5 -460.5q0 -280 134 -455.5t339 -175.5zM911 1374q-43 0 -95.5 21t-93.5 45.5t-84.5 45.5t-70.5 21q-42 0 -65 -22t-35 -94h-25q15 122 52 174.5t112 52.5q41 0 94 -21t94 -45.5t85 -45.5t71 -21q41 0 64.5 23t36.5 94h24q-14 -121 -51.5 -174.5
t-112.5 -53.5z" />
    <glyph glyph-name="Odieresis" unicode="&#xd6;" horiz-adv-x="1505" 
d="M743 -31q-143 0 -268 49t-214.5 136t-141 211t-51.5 268q0 129 54.5 252t146 216.5t221 150.5t270.5 57q192 0 346.5 -84t243 -236.5t88.5 -345.5q0 -130 -54.5 -253.5t-146.5 -216t-222 -148.5t-272 -56zM756 8q209 0 337 170t128 461q0 278 -135.5 454.5t-340.5 176.5
q-207 0 -334.5 -170.5t-127.5 -460.5q0 -280 134 -455.5t339 -175.5zM950 1407q-53 0 -82.5 35.5t-29.5 77.5q0 43 30 80.5t82 37.5t81.5 -37.5t29.5 -80.5q0 -42 -29 -77.5t-82 -35.5zM569 1407q-53 0 -82.5 35.5t-29.5 77.5q0 43 30 80.5t82 37.5t81.5 -37.5t29.5 -80.5
q0 -42 -29 -77.5t-82 -35.5z" />
    <glyph glyph-name="multiply" unicode="&#xd7;" horiz-adv-x="917" 
d="M68 125l358 358l-358 359l32 32l359 -358l358 358l33 -32l-358 -359l358 -358l-33 -33l-358 359l-359 -359z" />
    <glyph glyph-name="Oslash" unicode="&#xd8;" horiz-adv-x="1505" 
d="M1116 1219q150 -87 236 -236.5t86 -339.5q0 -130 -54.5 -253.5t-146.5 -216t-222 -148.5t-272 -56q-164 0 -313 68l-106 -187h-45l116 203q-152 85 -239.5 236t-87.5 344q0 129 54.5 252t146 216.5t221 150.5t270.5 57q177 0 321 -72l101 174h45zM449 145l583 1008
q-126 117 -287 117q-206 0 -334 -171t-128 -460q0 -155 44 -282t122 -212zM1061 1124l-584 -1007q121 -109 279 -109q209 0 337 170t128 461q0 150 -42 274t-118 211z" />
    <glyph glyph-name="Ugrave" unicode="&#xd9;" horiz-adv-x="1421" 
d="M727 -29q-264 0 -384 111t-120 362v770q0 8 -6.5 12.5t-29.5 8.5t-68 8l-82 8l-6 31h579l-6 -31l-96 -8q-90 -8 -90 -35v-719q0 -226 95 -331t286 -105q176 0 276.5 114.5t100.5 330.5l-2 567q0 99 -30.5 134t-117.5 44l-57 8l-6 31h444l-6 -31l-60 -8q-68 -8 -96 -44.5
t-28 -137.5l-5 -574q-2 -246 -119.5 -381t-365.5 -135zM797 1360l-367 383h197l190 -383h-20z" />
    <glyph glyph-name="Uacute" unicode="&#xda;" horiz-adv-x="1421" 
d="M727 -29q-264 0 -384 111t-120 362v770q0 8 -6.5 12.5t-29.5 8.5t-68 8l-82 8l-6 31h579l-6 -31l-96 -8q-90 -8 -90 -35v-719q0 -226 95 -331t286 -105q176 0 276.5 114.5t100.5 330.5l-2 567q0 99 -30.5 134t-117.5 44l-57 8l-6 31h444l-6 -31l-60 -8q-68 -8 -96 -44.5
t-28 -137.5l-5 -574q-2 -246 -119.5 -381t-365.5 -135zM662 1360l190 383h199l-367 -383h-22z" />
    <glyph glyph-name="Ucircumflex" unicode="&#xdb;" horiz-adv-x="1421" 
d="M727 -29q-264 0 -384 111t-120 362v770q0 8 -6.5 12.5t-29.5 8.5t-68 8l-82 8l-6 31h579l-6 -31l-96 -8q-90 -8 -90 -35v-719q0 -226 95 -331t286 -105q176 0 276.5 114.5t100.5 330.5l-2 567q0 99 -30.5 134t-117.5 44l-57 8l-6 31h444l-6 -31l-60 -8q-68 -8 -96 -44.5
t-28 -137.5l-5 -574q-2 -246 -119.5 -381t-365.5 -135zM453 1343l272 398h31l272 -398h-24l-261 226h-4l-264 -226h-22z" />
    <glyph glyph-name="Udieresis" unicode="&#xdc;" horiz-adv-x="1421" 
d="M727 -29q-264 0 -384 111t-120 362v770q0 8 -6.5 12.5t-29.5 8.5t-68 8l-82 8l-6 31h579l-6 -31l-96 -8q-90 -8 -90 -35v-719q0 -226 95 -331t286 -105q176 0 276.5 114.5t100.5 330.5l-2 567q0 99 -30.5 134t-117.5 44l-57 8l-6 31h444l-6 -31l-60 -8q-68 -8 -96 -44.5
t-28 -137.5l-5 -574q-2 -246 -119.5 -381t-365.5 -135zM963 1407q-53 0 -83 35.5t-30 77.5t30.5 80t82.5 38t81 -37.5t29 -80.5q0 -42 -29 -77.5t-81 -35.5zM582 1407q-53 0 -83 35.5t-30 77.5t30.5 80t82.5 38t81 -37.5t29 -80.5q0 -42 -29 -77.5t-81 -35.5z" />
    <glyph glyph-name="Yacute" unicode="&#xdd;" horiz-adv-x="1265" 
d="M334 0l6 31l109 8q90 8 90 35v487l-320 551q-40 70 -73.5 97.5t-88.5 31.5l-61 8l-6 31h559l-6 -31l-58 -4q-77 -6 -80.5 -45.5t54.5 -136.5l243 -432h5l192 356q40 74 57 117t15 73.5t-25 44.5t-72 21l-47 6l-6 31h430l-6 -31l-47 -6q-65 -10 -115.5 -58.5
t-124.5 -185.5l-225 -407v-524q0 -13 20.5 -19t86.5 -12l92 -6l6 -31h-604zM594 1360l190 383h199l-367 -383h-22z" />
    <glyph glyph-name="Thorn" unicode="&#xde;" horiz-adv-x="1155" 
d="M39 0l6 31l98 8q90 8 90 35v1138q0 13 -19 19t-85 12l-82 6l-6 31h580l-7 -31l-96 -8q-42 -4 -66 -14t-24 -21v-186l180 -2q239 0 362.5 -91.5t123.5 -242.5q0 -168 -142.5 -277.5t-359.5 -109.5q-78 0 -164 14v-243q0 -9 6.5 -14t29.5 -9.5t68 -7.5l107 -6l6 -31h-606z
M594 340q133 0 212 85.5t79 227.5q0 157 -82.5 243t-255.5 85l-119 -2v0v-619q78 -20 166 -20z" />
    <glyph glyph-name="germandbls" unicode="&#xdf;" horiz-adv-x="1054" 
d="M662 852q63 -35 124.5 -88t114.5 -118.5t86 -143.5t33 -152q0 -151 -98.5 -263t-235.5 -112q-92 0 -156.5 48t-64.5 114q0 54 33 88.5t84 34.5q69 0 94 -50.5t-2 -100.5t-86 -48q10 -18 38 -34.5t66 -16.5q79 0 127.5 60.5t48.5 160.5q0 155 -104 312.5t-295 269.5v21
q137 24 201.5 90t64.5 194q0 89 -54.5 152t-135.5 63q-104 0 -150.5 -75.5t-46.5 -247.5v-1008h-301l6 29l47 4q44 3 60 9t16 24v725l-162 4l31 84l131 2l2 45q20 213 123 331.5t266 118.5q156 0 247 -71.5t91 -194.5q0 -100 -66.5 -165t-176.5 -95z" />
    <glyph glyph-name="agrave" unicode="&#xe0;" horiz-adv-x="868" 
d="M684 -25q-129 0 -141 152l-4 2q-65 -70 -126.5 -111t-131.5 -41q-91 0 -156.5 61t-65.5 148q0 74 43 130t153 107t296 93l2 51q5 281 -201 281q-50 0 -101.5 -21t-51.5 -36q0 -5 12.5 -21.5t25.5 -41t13 -48.5q0 -37 -28 -63.5t-72 -26.5t-73.5 25t-29.5 61
q0 51 67.5 107t163.5 92t177 36q161 0 221.5 -74.5t50.5 -277.5l-18 -379q-3 -49 13.5 -74.5t49.5 -25.5q15 0 32.5 8.5t26.5 16t31 26.5l19 -18q-104 -138 -197 -138zM369 86q89 0 170 78l12 319q-96 -22 -161 -49.5t-98.5 -59.5t-47 -63.5t-13.5 -70.5q0 -67 41.5 -110.5
t96.5 -43.5zM498 1018l-367 383h197l190 -383h-20z" />
    <glyph glyph-name="aacute" unicode="&#xe1;" horiz-adv-x="868" 
d="M684 -25q-129 0 -141 152l-4 2q-65 -70 -126.5 -111t-131.5 -41q-91 0 -156.5 61t-65.5 148q0 74 43 130t153 107t296 93l2 51q5 281 -201 281q-50 0 -101.5 -21t-51.5 -36q0 -5 12.5 -21.5t25.5 -41t13 -48.5q0 -37 -28 -63.5t-72 -26.5t-73.5 25t-29.5 61
q0 51 67.5 107t163.5 92t177 36q161 0 221.5 -74.5t50.5 -277.5l-18 -379q-3 -49 13.5 -74.5t49.5 -25.5q15 0 32.5 8.5t26.5 16t31 26.5l19 -18q-104 -138 -197 -138zM369 86q89 0 170 78l12 319q-96 -22 -161 -49.5t-98.5 -59.5t-47 -63.5t-13.5 -70.5q0 -67 41.5 -110.5
t96.5 -43.5zM350 1018l191 383h198l-366 -383h-23z" />
    <glyph glyph-name="acircumflex" unicode="&#xe2;" horiz-adv-x="868" 
d="M684 -25q-129 0 -141 152l-4 2q-65 -70 -126.5 -111t-131.5 -41q-91 0 -156.5 61t-65.5 148q0 74 43 130t153 107t296 93l2 51q5 281 -201 281q-50 0 -101.5 -21t-51.5 -36q0 -5 12.5 -21.5t25.5 -41t13 -48.5q0 -37 -28 -63.5t-72 -26.5t-73.5 25t-29.5 61
q0 51 67.5 107t163.5 92t177 36q161 0 221.5 -74.5t50.5 -277.5l-18 -379q-3 -49 13.5 -74.5t49.5 -25.5q15 0 32.5 8.5t26.5 16t31 26.5l19 -18q-104 -138 -197 -138zM369 86q89 0 170 78l12 319q-96 -22 -161 -49.5t-98.5 -59.5t-47 -63.5t-13.5 -70.5q0 -67 41.5 -110.5
t96.5 -43.5zM127 1001l272 398h31l272 -398h-24l-260 226h-4l-264 -226h-23z" />
    <glyph glyph-name="atilde" unicode="&#xe3;" horiz-adv-x="868" 
d="M684 -25q-129 0 -141 152l-4 2q-65 -70 -126.5 -111t-131.5 -41q-91 0 -156.5 61t-65.5 148q0 74 43 130t153 107t296 93l2 51q5 281 -201 281q-50 0 -101.5 -21t-51.5 -36q0 -5 12.5 -21.5t25.5 -41t13 -48.5q0 -37 -28 -63.5t-72 -26.5t-73.5 25t-29.5 61
q0 51 67.5 107t163.5 92t177 36q161 0 221.5 -74.5t50.5 -277.5l-18 -379q-3 -49 13.5 -74.5t49.5 -25.5q15 0 32.5 8.5t26.5 16t31 26.5l19 -18q-104 -138 -197 -138zM369 86q89 0 170 78l12 319q-96 -22 -161 -49.5t-98.5 -59.5t-47 -63.5t-13.5 -70.5q0 -67 41.5 -110.5
t96.5 -43.5zM567 1032q-43 0 -95.5 21t-93.5 45.5t-84.5 45.5t-70.5 21q-42 0 -65 -22t-35 -94h-25q15 122 52 174.5t112 52.5q41 0 94 -21t94 -45.5t85 -45.5t71 -21q41 0 64.5 23t36.5 94h24q-14 -121 -51.5 -174.5t-112.5 -53.5z" />
    <glyph glyph-name="adieresis" unicode="&#xe4;" horiz-adv-x="868" 
d="M684 -25q-129 0 -141 152l-4 2q-65 -70 -126.5 -111t-131.5 -41q-91 0 -156.5 61t-65.5 148q0 74 43 130t153 107t296 93l2 51q5 281 -201 281q-50 0 -101.5 -21t-51.5 -36q0 -5 12.5 -21.5t25.5 -41t13 -48.5q0 -37 -28 -63.5t-72 -26.5t-73.5 25t-29.5 61
q0 51 67.5 107t163.5 92t177 36q161 0 221.5 -74.5t50.5 -277.5l-18 -379q-3 -49 13.5 -74.5t49.5 -25.5q15 0 32.5 8.5t26.5 16t31 26.5l19 -18q-104 -138 -197 -138zM369 86q89 0 170 78l12 319q-96 -22 -161 -49.5t-98.5 -59.5t-47 -63.5t-13.5 -70.5q0 -67 41.5 -110.5
t96.5 -43.5zM598 1065q-53 0 -83 35.5t-30 77.5t30.5 80t82.5 38t81.5 -37.5t29.5 -80.5q0 -42 -29 -77.5t-82 -35.5zM217 1065q-53 0 -83 35.5t-30 77.5t30.5 80t82.5 38t81.5 -37.5t29.5 -80.5q0 -42 -29 -77.5t-82 -35.5z" />
    <glyph glyph-name="aring" unicode="&#xe5;" horiz-adv-x="864" 
d="M426 1032q-82 0 -132 53.5t-50 131.5q0 76 50 130t132 54t132 -54t50 -130q0 -78 -50 -131.5t-132 -53.5zM684 -25q-129 0 -141 152l-4 2q-65 -70 -126.5 -111t-131.5 -41q-91 0 -156.5 61t-65.5 148q0 74 43 130t153 107t296 93l2 51q5 281 -201 281q-50 0 -101.5 -21
t-51.5 -36q0 -5 12.5 -21.5t25.5 -41t13 -48.5q0 -37 -28 -63.5t-72 -26.5t-73.5 25t-29.5 61q0 51 67.5 107t163.5 92t177 36q161 0 221.5 -74.5t50.5 -277.5l-18 -379q-3 -49 13.5 -74.5t49.5 -25.5q15 0 32.5 8.5t26.5 16t31 26.5l19 -18q-104 -138 -197 -138zM426 1061
q67 0 107 45.5t40 110.5q0 64 -40 108.5t-107 44.5q-68 0 -109 -44.5t-41 -108.5q0 -66 41 -111t109 -45zM369 86q89 0 170 78l12 319q-96 -22 -161 -49.5t-98.5 -59.5t-47 -63.5t-13.5 -70.5q0 -67 41.5 -110.5t96.5 -43.5z" />
    <glyph glyph-name="ae" unicode="&#xe6;" horiz-adv-x="1386" 
d="M281 -29q-91 0 -156.5 62t-65.5 149q0 74 42 131t153 109.5t297 93.5l2 53q7 145 -47.5 212t-153.5 67q-50 0 -101.5 -21t-51.5 -36q0 -5 12.5 -21.5t25.5 -41t13 -48.5q0 -37 -28 -63.5t-72 -26.5t-73.5 25t-29.5 61q0 51 66 107t164.5 92t187.5 36q91 0 146 -28.5
t81 -94.5q126 123 305 123q152 0 240 -79t88 -209q0 -24 -6 -54q-580 4 -588 4q-4 -40 -4 -84q0 -174 89.5 -281.5t225.5 -107.5q87 0 153 32.5t120 113.5l22 -13q-145 -262 -383 -262q-117 0 -210 58t-142 153q-108 -113 -176 -162t-145 -49zM735 606q12 0 31.5 0.5t73 1
t100 0.5t95 0.5t77 1t27.5 0.5q3 113 -39 188.5t-127 75.5q-83 0 -151 -78t-87 -190zM369 80q56 0 101 28.5t116 102.5q-41 100 -41 213q0 21 4 57q-98 -25 -162.5 -53t-97.5 -60.5t-45.5 -63.5t-12.5 -71q0 -65 42 -109t96 -44z" />
    <glyph glyph-name="ccedilla" unicode="&#xe7;" horiz-adv-x="854" 
d="M469 -29h-12q-177 0 -293.5 128.5t-116.5 318.5q0 136 59.5 248.5t167 178.5t240.5 66q129 0 215 -53t86 -137q0 -48 -31 -77.5t-73 -29.5q-49 0 -80.5 37.5t-26.5 87.5q0 28 14.5 53t14.5 27q-6 19 -45 37t-80 18q-119 0 -199 -106.5t-80 -275.5q0 -175 90.5 -283.5
t227.5 -108.5q84 0 145.5 32.5t114.5 113.5l24 -13q-127 -230 -315 -258l-96 -104q129 15 215 -30t86 -132q0 -59 -34.5 -104t-98.5 -74.5t-132.5 -47t-158.5 -30.5l-10 23q157 30 235 72t78 112q0 59 -47.5 87t-126.5 28q-61 0 -133 -21v23z" />
    <glyph glyph-name="egrave" unicode="&#xe8;" horiz-adv-x="888" 
d="M459 -29q-179 0 -295.5 128.5t-116.5 318.5q0 209 129.5 351t325.5 142q152 0 239.5 -78.5t87.5 -209.5q0 -24 -6 -54l-587 4q-7 -35 -7 -84q0 -174 90.5 -281.5t227.5 -107.5q85 0 150.5 32.5t119.5 113.5l23 -13q-145 -262 -381 -262zM240 606q26 0 67.5 0.5t130.5 0.5
t147.5 0.5t57.5 0.5q2 114 -40.5 190t-125.5 76t-150.5 -78t-86.5 -190zM539 1018l-367 383h197l190 -383h-20z" />
    <glyph glyph-name="eacute" unicode="&#xe9;" horiz-adv-x="888" 
d="M459 -29q-179 0 -295.5 128.5t-116.5 318.5q0 209 129.5 351t325.5 142q152 0 239.5 -78.5t87.5 -209.5q0 -24 -6 -54l-587 4q-7 -35 -7 -84q0 -174 90.5 -281.5t227.5 -107.5q85 0 150.5 32.5t119.5 113.5l23 -13q-145 -262 -381 -262zM240 606q26 0 67.5 0.5t130.5 0.5
t147.5 0.5t57.5 0.5q2 114 -40.5 190t-125.5 76t-150.5 -78t-86.5 -190zM379 1018l190 383h199l-367 -383h-22z" />
    <glyph glyph-name="ecircumflex" unicode="&#xea;" horiz-adv-x="888" 
d="M459 -29q-179 0 -295.5 128.5t-116.5 318.5q0 209 129.5 351t325.5 142q152 0 239.5 -78.5t87.5 -209.5q0 -24 -6 -54l-587 4q-7 -35 -7 -84q0 -174 90.5 -281.5t227.5 -107.5q85 0 150.5 32.5t119.5 113.5l23 -13q-145 -262 -381 -262zM240 606q26 0 67.5 0.5t130.5 0.5
t147.5 0.5t57.5 0.5q2 114 -40.5 190t-125.5 76t-150.5 -78t-86.5 -190zM182 1001l273 398h30l273 -398h-25l-260 226h-4l-264 -226h-23z" />
    <glyph glyph-name="edieresis" unicode="&#xeb;" horiz-adv-x="888" 
d="M459 -29q-179 0 -295.5 128.5t-116.5 318.5q0 209 129.5 351t325.5 142q152 0 239.5 -78.5t87.5 -209.5q0 -24 -6 -54l-587 4q-7 -35 -7 -84q0 -174 90.5 -281.5t227.5 -107.5q85 0 150.5 32.5t119.5 113.5l23 -13q-145 -262 -381 -262zM240 606q26 0 67.5 0.5t130.5 0.5
t147.5 0.5t57.5 0.5q2 114 -40.5 190t-125.5 76t-150.5 -78t-86.5 -190zM647 1065q-53 0 -82.5 35.5t-29.5 77.5q0 43 30 80.5t82 37.5t81.5 -37.5t29.5 -80.5q0 -42 -29 -77.5t-82 -35.5zM266 1065q-53 0 -82.5 35.5t-29.5 77.5q0 43 30 80.5t82 37.5t81.5 -37.5
t29.5 -80.5q0 -42 -29 -77.5t-82 -35.5z" />
    <glyph glyph-name="igrave" unicode="&#xec;" horiz-adv-x="499" 
d="M37 0l6 31l43 2q47 3 64.5 10t17.5 25v565q0 93 -15.5 121.5t-70.5 40.5l-47 10l2 22l301 80v-844q0 -14 17.5 -20t78.5 -10l37 -2l6 -31h-440zM315 1018l-366 383h196l191 -383h-21z" />
    <glyph glyph-name="iacute" unicode="&#xed;" horiz-adv-x="499" 
d="M37 0l6 31l43 2q47 3 64.5 10t17.5 25v565q0 93 -15.5 121.5t-70.5 40.5l-47 10l2 22l301 80v-844q0 -14 17.5 -20t78.5 -10l37 -2l6 -31h-440zM172 1018l190 383h199l-366 -383h-23z" />
    <glyph glyph-name="icircumflex" unicode="&#xee;" horiz-adv-x="499" 
d="M2 1001l246 398h31l243 -398h-24l-234 226h-4l-233 -226h-25zM37 0l6 31l43 2q47 3 64.5 10t17.5 25v565q0 93 -15.5 121.5t-70.5 40.5l-47 10l2 22l301 80v-844q0 -14 17.5 -20t78.5 -10l37 -2l6 -31h-440z" />
    <glyph glyph-name="idieresis" unicode="&#xef;" horiz-adv-x="499" 
d="M37 0l6 31l43 2q47 3 64.5 10t17.5 25v565q0 93 -15.5 121.5t-70.5 40.5l-47 10l2 22l301 80v-844q0 -14 17.5 -20t78.5 -10l37 -2l6 -31h-440zM455 1065q-53 0 -83 35.5t-30 77.5t30.5 80t82.5 38t81 -37.5t29 -80.5q0 -42 -29 -77.5t-81 -35.5zM74 1065q-53 0 -83 35.5
t-30 77.5t30.5 80t82.5 38t81 -37.5t29 -80.5q0 -42 -29 -77.5t-81 -35.5z" />
    <glyph glyph-name="eth" unicode="&#xf0;" horiz-adv-x="1003" 
d="M461 1139l-281 -90l4 45l232 75q-129 76 -271 103l11 28q188 -20 352 -100l254 82l4 -43l-207 -68q129 -75 221 -184.5t137 -232t46 -250.5q0 -231 -128 -382t-333 -151q-199 0 -327 133t-128 334q0 207 126.5 338t318.5 131q114 0 192 -37q-81 164 -223 269zM512 10
q116 0 183 106.5t67 295.5q0 207 -72.5 333.5t-193.5 126.5q-118 0 -184 -105.5t-66 -289.5q0 -219 69 -343t197 -124z" />
    <glyph glyph-name="ntilde" unicode="&#xf1;" horiz-adv-x="1058" 
d="M37 0l6 31l43 2q47 3 64.5 10t17.5 25v563q0 94 -15.5 123t-70.5 41l-47 10l2 22l303 80l-4 -164h6q44 36 73.5 57.5t76.5 50.5t94.5 43.5t95.5 14.5q106 0 162 -59q67 -67 67 -213v-571q0 -8 4.5 -13t27 -10.5t67.5 -9.5l34 -2l7 -31h-437l7 31l41 2q47 3 62 11.5
t15 23.5v516q0 107 -44 153.5t-138 46.5q-120 0 -219 -84v-637q0 -14 17 -20t77 -10l43 -2l4 -31h-442zM694 1032q-43 0 -95.5 21t-93.5 45.5t-84.5 45.5t-70.5 21q-42 0 -65 -22t-35 -94h-25q15 122 52 174.5t112 52.5q41 0 94 -21t94 -45.5t85 -45.5t71 -21q41 0 64.5 23
t36.5 94h24q-14 -121 -51.5 -174.5t-112.5 -53.5z" />
    <glyph glyph-name="ograve" unicode="&#xf2;" horiz-adv-x="1032" 
d="M510 -29q-203 0 -333 134t-130 333q0 198 136.5 335.5t338.5 137.5t332.5 -131.5t130.5 -326.5q0 -133 -61 -243t-170.5 -174.5t-243.5 -64.5zM520 8q79 0 140 56.5t92.5 148.5t31.5 201q0 126 -27.5 229.5t-82.5 159.5q-71 71 -164 71q-82 0 -142.5 -57.5t-90 -146.5
t-29.5 -195q0 -282 108 -393q70 -74 164 -74zM563 1018l-366 383h196l191 -383h-21z" />
    <glyph glyph-name="oacute" unicode="&#xf3;" horiz-adv-x="1032" 
d="M510 -29q-203 0 -333 134t-130 333q0 198 136.5 335.5t338.5 137.5t332.5 -131.5t130.5 -326.5q0 -133 -61 -243t-170.5 -174.5t-243.5 -64.5zM520 8q79 0 140 56.5t92.5 148.5t31.5 201q0 126 -27.5 229.5t-82.5 159.5q-71 71 -164 71q-82 0 -142.5 -57.5t-90 -146.5
t-29.5 -195q0 -282 108 -393q70 -74 164 -74zM444 1018l191 383h199l-367 -383h-23z" />
    <glyph glyph-name="ocircumflex" unicode="&#xf4;" horiz-adv-x="1032" 
d="M510 -29q-203 0 -333 134t-130 333q0 198 136.5 335.5t338.5 137.5t332.5 -131.5t130.5 -326.5q0 -133 -61 -243t-170.5 -174.5t-243.5 -64.5zM520 8q79 0 140 56.5t92.5 148.5t31.5 201q0 126 -27.5 229.5t-82.5 159.5q-71 71 -164 71q-82 0 -142.5 -57.5t-90 -146.5
t-29.5 -195q0 -282 108 -393q70 -74 164 -74zM227 1001l273 398h30l273 -398h-25l-260 226h-4l-264 -226h-23z" />
    <glyph glyph-name="otilde" unicode="&#xf5;" horiz-adv-x="1032" 
d="M510 -29q-203 0 -333 134t-130 333q0 198 136.5 335.5t338.5 137.5t332.5 -131.5t130.5 -326.5q0 -133 -61 -243t-170.5 -174.5t-243.5 -64.5zM520 8q79 0 140 56.5t92.5 148.5t31.5 201q0 126 -27.5 229.5t-82.5 159.5q-71 71 -164 71q-82 0 -142.5 -57.5t-90 -146.5
t-29.5 -195q0 -282 108 -393q70 -74 164 -74zM668 1032q-43 0 -95.5 21t-93.5 45.5t-84.5 45.5t-70.5 21q-42 0 -65.5 -22t-35.5 -94h-24q15 122 51.5 174.5t111.5 52.5q41 0 94 -21t94 -45.5t85.5 -45.5t71.5 -21q41 0 64 23t36 94h24q-14 -121 -51 -174.5t-112 -53.5z" />
    <glyph glyph-name="odieresis" unicode="&#xf6;" horiz-adv-x="1032" 
d="M510 -29q-203 0 -333 134t-130 333q0 198 136.5 335.5t338.5 137.5t332.5 -131.5t130.5 -326.5q0 -133 -61 -243t-170.5 -174.5t-243.5 -64.5zM520 8q79 0 140 56.5t92.5 148.5t31.5 201q0 126 -27.5 229.5t-82.5 159.5q-71 71 -164 71q-82 0 -142.5 -57.5t-90 -146.5
t-29.5 -195q0 -282 108 -393q70 -74 164 -74zM707 1065q-53 0 -83 35.5t-30 77.5t30.5 80t82.5 38t81 -37.5t29 -80.5q0 -42 -29 -77.5t-81 -35.5zM326 1065q-53 0 -83 35.5t-30 77.5t30.5 80t82.5 38t81 -37.5t29 -80.5q0 -42 -29 -77.5t-81 -35.5z" />
    <glyph glyph-name="divide" unicode="&#xf7;" horiz-adv-x="917" 
d="M559 772q0 -41 -29.5 -71.5t-72.5 -30.5q-42 0 -71.5 30.5t-29.5 71.5q0 39 29.5 68.5t71.5 29.5q43 0 72.5 -29.5t29.5 -68.5zM868 461h-819l6 45h807zM559 201q0 -41 -29 -72t-71 -31q-43 0 -73 31t-30 72q0 39 29.5 67.5t73.5 28.5q42 0 71 -28.5t29 -67.5z" />
    <glyph glyph-name="oslash" unicode="&#xf8;" horiz-adv-x="1032" 
d="M256 41q-99 62 -154 166t-55 231q0 198 136.5 335.5t338.5 137.5q119 0 211 -47l191 330h39l-199 -344q103 -59 162 -164t59 -233q0 -133 -61 -243t-170.5 -174.5t-243.5 -64.5q-123 0 -225 54l-166 -287h-39zM709 756l-375 -647q8 -12 22 -27q70 -74 164 -74
q79 0 140 56.5t92.5 148.5t31.5 201q0 218 -75 342zM313 141l375 645l-14 17q-71 71 -164 71q-82 0 -142.5 -57.5t-90 -146.5t-29.5 -195q0 -218 65 -334z" />
    <glyph glyph-name="ugrave" unicode="&#xf9;" horiz-adv-x="1011" 
d="M707 -33v170h-5q-82 -74 -162.5 -120t-170.5 -46q-99 0 -164 62q-66 69 -66 213l2 571q0 15 -15.5 20t-84.5 11l-35 4l-6 31h315l-6 -586q0 -106 45 -152.5t140 -46.5q116 0 211 80v590q0 46 -18.5 60.5t-78.5 19.5l-43 4l-6 31h318v-740q0 -28 6 -39t22 -16l111 -27
l-2 -22zM561 1018l-366 383h196l191 -383h-21z" />
    <glyph glyph-name="uacute" unicode="&#xfa;" horiz-adv-x="1011" 
d="M707 -33v170h-5q-82 -74 -162.5 -120t-170.5 -46q-99 0 -164 62q-66 69 -66 213l2 571q0 15 -15.5 20t-84.5 11l-35 4l-6 31h315l-6 -586q0 -106 45 -152.5t140 -46.5q116 0 211 80v590q0 46 -18.5 60.5t-78.5 19.5l-43 4l-6 31h318v-740q0 -28 6 -39t22 -16l111 -27
l-2 -22zM414 1018l190 383h199l-367 -383h-22z" />
    <glyph glyph-name="ucircumflex" unicode="&#xfb;" horiz-adv-x="1011" 
d="M707 -33v170h-5q-82 -74 -162.5 -120t-170.5 -46q-99 0 -164 62q-66 69 -66 213l2 571q0 15 -15.5 20t-84.5 11l-35 4l-6 31h315l-6 -586q0 -106 45 -152.5t140 -46.5q116 0 211 80v590q0 46 -18.5 60.5t-78.5 19.5l-43 4l-6 31h318v-740q0 -28 6 -39t22 -16l111 -27
l-2 -22zM211 1001l272 398h31l272 -398h-24l-260 226h-4l-265 -226h-22z" />
    <glyph glyph-name="udieresis" unicode="&#xfc;" horiz-adv-x="1011" 
d="M707 -33v170h-5q-82 -74 -162.5 -120t-170.5 -46q-99 0 -164 62q-66 69 -66 213l2 571q0 15 -15.5 20t-84.5 11l-35 4l-6 31h315l-6 -586q0 -106 45 -152.5t140 -46.5q116 0 211 80v590q0 46 -18.5 60.5t-78.5 19.5l-43 4l-6 31h318v-740q0 -28 6 -39t22 -16l111 -27
l-2 -22zM319 1065q-53 0 -82.5 35.5t-29.5 77.5q0 43 30 80.5t82 37.5t81.5 -37.5t29.5 -80.5q0 -42 -29 -77.5t-82 -35.5zM700 1065q-53 0 -82.5 35.5t-29.5 77.5q0 43 30 80.5t82 37.5t81.5 -37.5t29.5 -80.5q0 -42 -29 -77.5t-82 -35.5z" />
    <glyph glyph-name="yacute" unicode="&#xfd;" horiz-adv-x="942" 
d="M199 -528q-54 0 -90.5 31t-36.5 77q0 43 29 73t73 30q87 0 121 -89q31 8 53.5 48t52.5 125l74 221h-2l-336 745q-32 71 -49.5 89t-64.5 22l-41 6l-7 31h449l-6 -31l-39 -4q-51 -3 -62 -24t11 -72l229 -531l154 426q42 122 29 157t-103 44l-37 4l-6 31h362l-6 -31l-39 -4
q-60 -6 -84 -40t-79 -183l-228 -609l-86 -268q-45 -142 -98 -208t-137 -66zM408 1018l190 383h199l-367 -383h-22z" />
    <glyph glyph-name="thorn" unicode="&#xfe;" horiz-adv-x="1009" 
d="M-18 -514l6 31l43 2q46 3 64 10t18 25v1632q0 35 -14 51t-52 27l-74 26l2 23l306 80v-664l6 -2q151 172 313 172q158 0 260.5 -122t102.5 -310q0 -113 -39.5 -208t-105.5 -157t-150 -96.5t-174 -34.5q-116 0 -209 39h-4v-463q0 -9 6.5 -14t28 -8.5t63.5 -5.5l72 -2l6 -31
h-475zM532 14q108 0 174 113t66 281q0 160 -73.5 265t-194.5 105q-127 0 -223 -110v-467q39 -80 107 -133.5t144 -53.5z" />
    <glyph glyph-name="ydieresis" unicode="&#xff;" horiz-adv-x="942" 
d="M199 -528q-54 0 -90.5 31t-36.5 77q0 43 29 73t73 30q87 0 121 -89q31 8 53.5 48t52.5 125l74 221h-2l-336 745q-32 71 -49.5 89t-64.5 22l-41 6l-7 31h449l-6 -31l-39 -4q-51 -3 -62 -24t11 -72l229 -531l154 426q42 122 29 157t-103 44l-37 4l-6 31h362l-6 -31l-39 -4
q-60 -6 -84 -40t-79 -183l-228 -609l-86 -268q-45 -142 -98 -208t-137 -66zM682 1065q-53 0 -83 35.5t-30 77.5t30.5 80t82.5 38t81.5 -37.5t29.5 -80.5q0 -42 -29 -77.5t-82 -35.5zM301 1065q-53 0 -83 35.5t-30 77.5t30.5 80t82.5 38t81.5 -37.5t29.5 -80.5
q0 -42 -29 -77.5t-82 -35.5z" />
    <glyph glyph-name="Amacron" unicode="&#x100;" horiz-adv-x="1263" 
d="M739 530h-368l-72 -202q-16 -48 -26 -79t-17.5 -62t-9 -49t2 -35.5t12.5 -26.5t25.5 -17.5t37 -12.5t51.5 -7l55 -8l6 -31h-452l6 31l39 6q32 5 50.5 10.5t41.5 24.5t38 44t40 79t49 119t63 175l228 639l-17 66q34 12 80.5 51t59.5 68h24l352 -1082q37 -118 64 -153
t88 -39l72 -8l6 -31h-574l6 31l76 8q48 3 66.5 25.5t14 64t-29.5 119.5zM383 571h344l-158 514h-6q-178 -514 -180 -514zM360 1479l13 61h512l-8 -61h-517z" />
    <glyph glyph-name="amacron" unicode="&#x101;" horiz-adv-x="868" 
d="M684 -25q-129 0 -141 152l-4 2q-65 -70 -126.5 -111t-131.5 -41q-91 0 -156.5 61t-65.5 148q0 74 43 130t153 107t296 93l2 51q5 281 -201 281q-50 0 -101.5 -21t-51.5 -36q0 -5 12.5 -21.5t25.5 -41t13 -48.5q0 -37 -28 -63.5t-72 -26.5t-73.5 25t-29.5 61
q0 51 67.5 107t163.5 92t177 36q161 0 221.5 -74.5t50.5 -277.5l-18 -379q-3 -49 13.5 -74.5t49.5 -25.5q15 0 32.5 8.5t26.5 16t31 26.5l19 -18q-104 -138 -197 -138zM369 86q89 0 170 78l12 319q-96 -22 -161 -49.5t-98.5 -59.5t-47 -63.5t-13.5 -70.5q0 -67 41.5 -110.5
t96.5 -43.5zM164 1079l12 62h512l-8 -62h-516z" />
    <glyph glyph-name="Abreve" unicode="&#x102;" horiz-adv-x="1263" 
d="M739 530h-368l-72 -202q-16 -48 -26 -79t-17.5 -62t-9 -49t2 -35.5t12.5 -26.5t25.5 -17.5t37 -12.5t51.5 -7l55 -8l6 -31h-452l6 31l39 6q32 5 50.5 10.5t41.5 24.5t38 44t40 79t49 119t63 175l228 639l-17 66q34 12 80.5 51t59.5 68h24l352 -1082q37 -118 64 -153
t88 -39l72 -8l6 -31h-574l6 31l76 8q48 3 66.5 25.5t14 64t-29.5 119.5zM383 571h344l-158 514h-6q-178 -514 -180 -514zM614 1407q-44 0 -79.5 14t-61.5 43.5t-44.5 60.5t-34.5 80.5t-25 86.5t-21 94h21q47 -131 105 -197.5t142 -66.5t142.5 66.5t105.5 197.5h21
q-10 -48 -17.5 -80.5t-21 -76t-27 -72t-34 -59.5t-44 -49t-56.5 -30t-71 -12z" />
    <glyph glyph-name="abreve" unicode="&#x103;" horiz-adv-x="868" 
d="M684 -25q-129 0 -141 152l-4 2q-65 -70 -126.5 -111t-131.5 -41q-91 0 -156.5 61t-65.5 148q0 74 43 130t153 107t296 93l2 51q5 281 -201 281q-50 0 -101.5 -21t-51.5 -36q0 -5 12.5 -21.5t25.5 -41t13 -48.5q0 -37 -28 -63.5t-72 -26.5t-73.5 25t-29.5 61
q0 51 67.5 107t163.5 92t177 36q161 0 221.5 -74.5t50.5 -277.5l-18 -379q-3 -49 13.5 -74.5t49.5 -25.5q15 0 32.5 8.5t26.5 16t31 26.5l19 -18q-104 -138 -197 -138zM369 86q89 0 170 78l12 319q-96 -22 -161 -49.5t-98.5 -59.5t-47 -63.5t-13.5 -70.5q0 -67 41.5 -110.5
t96.5 -43.5zM426 1008q-44 0 -79.5 14t-61.5 43.5t-44.5 60t-34.5 80t-25 86.5t-21 94h20q47 -131 105.5 -197.5t142.5 -66.5t142.5 66.5t105.5 197.5h20q-10 -49 -17.5 -81t-20.5 -75.5t-26.5 -72t-34 -59.5t-44.5 -49t-56.5 -29.5t-70.5 -11.5z" />
    <glyph glyph-name="Aogonek" unicode="&#x104;" horiz-adv-x="1263" 
d="M1077 -473q-80 0 -132 49t-52 129q0 93 87.5 180.5t182.5 114.5h-469l6 31l76 8q48 3 66.5 25.5t14 64t-29.5 119.5l-88 282h-370l-70 -202q-16 -48 -26 -79t-17.5 -62t-9 -49t2 -35.5t12.5 -26.5t25.5 -17.5t37 -12.5t51.5 -7l55 -8l6 -31h-452l6 31l39 6
q32 5 50.5 10.5t41.5 24.5t38 44t40 79t49 119t63 175l228 639l-17 66q37 13 87 51.5t61 67.5h16l352 -1082q37 -118 64 -153t88 -39l74 -8l6 -31q-256 -50 -256 -250q0 -61 36 -95t99 -34q60 0 108 51l13 -12q-15 -46 -72 -89.5t-121 -43.5zM383 571h344l-158 514h-6z" />
    <glyph glyph-name="aogonek" unicode="&#x105;" horiz-adv-x="868" 
d="M672 -473q-82 0 -133.5 50.5t-51.5 133.5q0 85 55 155t134 116q-121 0 -133 145l-4 2q-65 -70 -126.5 -111t-131.5 -41q-91 0 -156.5 61t-65.5 148q0 74 43 130t153 107t296 93l2 51q5 281 -201 281q-50 0 -101.5 -21t-51.5 -36q0 -5 12.5 -21.5t25.5 -41t13 -48.5
q0 -37 -28 -63.5t-72 -26.5t-73.5 25t-29.5 61q0 51 67.5 107t163.5 92t177 36q161 0 221.5 -74.5t50.5 -277.5l-18 -379q-3 -49 13.5 -74.5t49.5 -25.5q15 0 32.5 8.5t26.5 16t31 26.5l19 -18q-55 -77 -123 -119q-73 -42 -112.5 -105t-39.5 -133q0 -63 37 -99t100 -36
q61 0 109 51l12 -12q-15 -46 -71.5 -89.5t-120.5 -43.5zM369 86q89 0 170 78l12 319q-96 -22 -161 -49.5t-98.5 -59.5t-47 -63.5t-13.5 -70.5q0 -67 41.5 -110.5t96.5 -43.5z" />
    <glyph glyph-name="Cacute" unicode="&#x106;" horiz-adv-x="1398" 
d="M674 1417l190 383h199l-367 -383h-22zM788 -31q-207 0 -369.5 79.5t-256.5 231.5t-94 353q0 200 93.5 355t260.5 239t381 84q90 0 185.5 -23.5t148.5 -50.5l133 49l4 -405h-37l-150 313q-103 76 -290 76q-159 0 -277.5 -85t-177.5 -223.5t-59 -308.5q0 -285 147 -464
t375 -179q95 0 169 29t126 78t108 129l62 147h39l-66 -348l-78 -4q-63 -27 -172 -49.5t-205 -22.5z" />
    <glyph glyph-name="cacute" unicode="&#x107;" horiz-adv-x="854" 
d="M381 1018l190 383h199l-367 -383h-22zM457 -29q-177 0 -293.5 128.5t-116.5 318.5q0 136 59.5 248.5t167 178.5t240.5 66q129 0 215 -53t86 -137q0 -48 -31 -77.5t-73 -29.5q-49 0 -80.5 37.5t-26.5 87.5q0 28 14.5 53t14.5 27q-6 19 -45 37t-80 18q-119 0 -199 -106.5
t-80 -275.5q0 -175 90.5 -283.5t227.5 -108.5q84 0 145.5 32.5t114.5 113.5l24 -13q-142 -262 -374 -262z" />
    <glyph glyph-name="Ccircumflex" unicode="&#x108;" horiz-adv-x="1398" 
d="M475 1401l273 397h30l273 -397h-25l-260 225h-4l-264 -225h-23zM788 -31q-207 0 -369.5 79.5t-256.5 231.5t-94 353q0 200 93.5 355t260.5 239t381 84q90 0 185.5 -23.5t148.5 -50.5l133 49l4 -405h-37l-150 313q-103 76 -290 76q-159 0 -277.5 -85t-177.5 -223.5
t-59 -308.5q0 -285 147 -464t375 -179q95 0 169 29t126 78t108 129l62 147h39l-66 -348l-78 -4q-63 -27 -172 -49.5t-205 -22.5z" />
    <glyph glyph-name="ccircumflex" unicode="&#x109;" horiz-adv-x="854" 
d="M197 1001l272 398h31l272 -398h-24l-261 226h-4l-264 -226h-22zM457 -29q-177 0 -293.5 128.5t-116.5 318.5q0 136 59.5 248.5t167 178.5t240.5 66q129 0 215 -53t86 -137q0 -48 -31 -77.5t-73 -29.5q-49 0 -80.5 37.5t-26.5 87.5q0 28 14.5 53t14.5 27q-6 19 -45 37
t-80 18q-119 0 -199 -106.5t-80 -275.5q0 -175 90.5 -283.5t227.5 -108.5q84 0 145.5 32.5t114.5 113.5l24 -13q-142 -262 -374 -262z" />
    <glyph glyph-name="Cdotaccent" unicode="&#x10a;" horiz-adv-x="1398" 
d="M788 -31q-207 0 -369.5 79.5t-256.5 231.5t-94 353q0 200 93.5 355t260.5 239t381 84q90 0 185.5 -23.5t148.5 -50.5l133 49l4 -405h-37l-150 313q-103 76 -290 76q-159 0 -277.5 -85t-177.5 -223.5t-59 -308.5q0 -285 147 -464t375 -179q95 0 169 29t126 78t108 129
l62 147h39l-66 -348l-78 -4q-63 -27 -172 -49.5t-205 -22.5zM795 1487q-53 0 -83 35t-30 77q0 44 30 81.5t83 37.5q52 0 81 -37.5t29 -81.5q0 -42 -28.5 -77t-81.5 -35z" />
    <glyph glyph-name="cdotaccent" unicode="&#x10b;" horiz-adv-x="854" 
d="M457 -29q-177 0 -293.5 128.5t-116.5 318.5q0 136 59.5 248.5t167 178.5t240.5 66q129 0 215 -53t86 -137q0 -48 -31 -77.5t-73 -29.5q-49 0 -80.5 37.5t-26.5 87.5q0 28 14.5 53t14.5 27q-6 19 -45 37t-80 18q-119 0 -199 -106.5t-80 -275.5q0 -175 90.5 -283.5
t227.5 -108.5q84 0 145.5 32.5t114.5 113.5l24 -13q-142 -262 -374 -262zM485 1087q-53 0 -82.5 35.5t-29.5 77.5q0 44 29.5 81.5t82.5 37.5q52 0 81.5 -37.5t29.5 -81.5q0 -42 -29 -77.5t-82 -35.5z" />
    <glyph glyph-name="Ccaron" unicode="&#x10c;" horiz-adv-x="1398" 
d="M760 1401l-273 397h23l264 -225h4l262 225h23l-272 -397h-31zM788 -31q-207 0 -369.5 79.5t-256.5 231.5t-94 353q0 200 93.5 355t260.5 239t381 84q90 0 185.5 -23.5t148.5 -50.5l133 49l4 -405h-37l-150 313q-103 76 -290 76q-159 0 -277.5 -85t-177.5 -223.5
t-59 -308.5q0 -285 147 -464t375 -179q95 0 169 29t126 78t108 129l62 147h39l-66 -348l-78 -4q-63 -27 -172 -49.5t-205 -22.5z" />
    <glyph glyph-name="ccaron" unicode="&#x10d;" horiz-adv-x="854" 
d="M471 1001l-272 398h22l264 -225h4l263 225h22l-272 -398h-31zM457 -29q-177 0 -293.5 128.5t-116.5 318.5q0 136 59.5 248.5t167 178.5t240.5 66q129 0 215 -53t86 -137q0 -48 -31 -77.5t-73 -29.5q-49 0 -80.5 37.5t-26.5 87.5q0 28 14.5 53t14.5 27q-6 19 -45 37
t-80 18q-119 0 -199 -106.5t-80 -275.5q0 -175 90.5 -283.5t227.5 -108.5q84 0 145.5 32.5t114.5 113.5l24 -13q-142 -262 -374 -262z" />
    <glyph glyph-name="Dcaron" unicode="&#x10e;" horiz-adv-x="1376" 
d="M578 1401l-273 397h23l264 -225h4l262 225h23l-273 -397h-30zM59 0l7 31l77 8q90 8 90 35v1138q0 13 -19 19t-85 12l-61 6l-7 31l504 6q180 3 323.5 -42.5t235.5 -129t140.5 -196.5t48.5 -248q0 -139 -50.5 -259t-146.5 -212.5t-249.5 -145.5t-346.5 -53h-461zM567 39
q130 2 233.5 50t169 128.5t100 183.5t34.5 220q0 103 -21 194.5t-66.5 170.5t-112 135.5t-163 89t-213.5 32.5h-100v-1163z" />
    <glyph glyph-name="dcaron" unicode="&#x10f;" horiz-adv-x="1429" 
d="M727 -33v174h-6q-141 -168 -307 -168q-157 0 -262 123.5t-105 313.5q0 113 40.5 207t107 154.5t151 94t174.5 33.5q119 0 203 -37q4 2 4 0v344q0 35 -13.5 52t-51.5 24l-91 23l4 20l322 70v-1268q0 -29 6.5 -39.5t22.5 -15.5l110 -27l-2 -22zM514 92q119 0 213 101v481
q-37 78 -105 130t-143 52q-112 0 -177.5 -110.5t-65.5 -278.5q0 -162 76.5 -268.5t201.5 -106.5zM1085 879l-22 16q71 37 120.5 101t49.5 132q0 37 -17 65t-41.5 42.5t-49 23.5t-41.5 12.5t-17 4.5q0 47 33.5 83t95.5 36q69 0 119.5 -52.5t50.5 -132.5q0 -99 -76.5 -186.5
t-204.5 -144.5z" />
    <glyph glyph-name="Dcroat" unicode="&#x110;" horiz-adv-x="1368" 
d="M233 625h-192l6 43h186v536q0 11 -31.5 21.5t-66.5 13.5l-88 10l-6 31l518 6q179 3 322 -42.5t236 -128.5t142.5 -196.5t49.5 -248.5q0 -143 -50.5 -264t-147 -212t-249.5 -142.5t-346 -51.5h-477l6 31l105 12q83 8 83 37v545zM424 668h291l6 -43h-297v-545l139 -41
q104 0 192.5 30.5t152 84t108.5 126.5t66.5 158t21.5 178q0 131 -34.5 242.5t-103.5 198.5t-182.5 136.5t-261.5 49.5h-98v-575z" />
    <glyph glyph-name="dcroat" unicode="&#x111;" horiz-adv-x="1032" 
d="M727 -33v174h-6q-141 -168 -307 -168q-157 0 -262 123.5t-105 313.5q0 113 40.5 207t107 154.5t151 94t174.5 33.5q119 0 203 -37q4 2 4 0v193h-209l-8 59h217v92q0 35 -13.5 52t-51.5 24l-91 23l4 20l322 70v-283l143 2l13 -59h-156v-928q0 -29 6.5 -39.5t22.5 -15.5
l110 -27l-2 -22zM514 92q119 0 213 101v481q-37 78 -105 130t-143 52q-112 0 -177.5 -110.5t-65.5 -278.5q0 -162 76.5 -268.5t201.5 -106.5z" />
    <glyph glyph-name="Emacron" unicode="&#x112;" horiz-adv-x="1214" 
d="M59 0l7 31l71 8q96 9 96 35v1138q0 13 -19 19t-85 12l-61 6l-7 31h990l20 -393h-39l-20 78q-16 47 -26 72.5t-28 60.5t-36.5 53t-48.5 38.5t-68 30.5t-91 16.5t-120 6.5h-166v-567l82 2q155 5 210.5 29t82.5 106l20 61l35 -2l-43 -436l-35 2l-6 60q-6 86 -56.5 109.5
t-219.5 29.5l-70 2v-594l193 -6q68 0 124.5 8.5t96.5 21t74 35.5t55 43t42 54.5t33 59.5t29 67l25 75l41 -2l-64 -401h-1018zM342 1479l12 61h512l-8 -61h-516z" />
    <glyph glyph-name="emacron" unicode="&#x113;" horiz-adv-x="888" 
d="M459 -29q-179 0 -295.5 128.5t-116.5 318.5q0 209 129.5 351t325.5 142q152 0 239.5 -78.5t87.5 -209.5q0 -24 -6 -54l-587 4q-7 -35 -7 -84q0 -174 90.5 -281.5t227.5 -107.5q85 0 150.5 32.5t119.5 113.5l23 -13q-145 -262 -381 -262zM240 606q26 0 67.5 0.5t130.5 0.5
t147.5 0.5t57.5 0.5q2 114 -40.5 190t-125.5 76t-150.5 -78t-86.5 -190zM221 1079l12 62h512l-8 -62h-516z" />
    <glyph glyph-name="Ebreve" unicode="&#x114;" horiz-adv-x="1214" 
d="M59 0l7 31l71 8q96 9 96 35v1138q0 13 -19 19t-85 12l-61 6l-7 31h990l20 -393h-39l-20 78q-16 47 -26 72.5t-28 60.5t-36.5 53t-48.5 38.5t-68 30.5t-91 16.5t-120 6.5h-166v-567l82 2q155 5 210.5 29t82.5 106l20 61l35 -2l-43 -436l-35 2l-6 60q-6 86 -56.5 109.5
t-219.5 29.5l-70 2v-594l193 -6q68 0 124.5 8.5t96.5 21t74 35.5t55 43t42 54.5t33 59.5t29 67l25 75l41 -2l-64 -401h-1018zM596 1407q-44 0 -79.5 14t-61.5 43.5t-44.5 60.5t-34.5 80.5t-25 86.5t-21 94h20q47 -131 105.5 -197.5t142.5 -66.5t142.5 66.5t105.5 197.5h20
q-12 -57 -21 -94t-25 -86.5t-35 -80.5t-45.5 -60.5t-62.5 -43.5t-81 -14z" />
    <glyph glyph-name="ebreve" unicode="&#x115;" horiz-adv-x="888" 
d="M459 -29q-179 0 -295.5 128.5t-116.5 318.5q0 209 129.5 351t325.5 142q152 0 239.5 -78.5t87.5 -209.5q0 -24 -6 -54l-587 4q-7 -35 -7 -84q0 -174 90.5 -281.5t227.5 -107.5q85 0 150.5 32.5t119.5 113.5l23 -13q-145 -262 -381 -262zM240 606q26 0 67.5 0.5t130.5 0.5
t147.5 0.5t57.5 0.5q2 114 -40.5 190t-125.5 76t-150.5 -78t-86.5 -190zM492 1008q-44 0 -79.5 14t-61.5 43t-45 60.5t-34.5 80t-25 86t-21.5 94.5h21q47 -131 105.5 -197.5t142.5 -66.5t142 66.5t105 197.5h21q-10 -49 -17.5 -81t-20.5 -75.5t-26.5 -72t-34 -59.5
t-44.5 -49t-56.5 -29.5t-70.5 -11.5z" />
    <glyph glyph-name="Edotaccent" unicode="&#x116;" horiz-adv-x="1214" 
d="M59 0l7 31l71 8q96 9 96 35v1138q0 13 -19 19t-85 12l-61 6l-7 31h990l20 -393h-39l-20 78q-16 47 -26 72.5t-28 60.5t-36.5 53t-48.5 38.5t-68 30.5t-91 16.5t-120 6.5h-166v-567l82 2q155 5 210.5 29t82.5 106l20 61l35 -2l-43 -436l-35 2l-6 60q-6 86 -56.5 109.5
t-219.5 29.5l-70 2v-594l193 -6q68 0 124.5 8.5t96.5 21t74 35.5t55 43t42 54.5t33 59.5t29 67l25 75l41 -2l-64 -401h-1018zM612 1487q-53 0 -82.5 35t-29.5 77q0 44 29.5 81.5t82.5 37.5q52 0 81.5 -37.5t29.5 -81.5q0 -42 -29 -77t-82 -35z" />
    <glyph glyph-name="edotaccent" unicode="&#x117;" horiz-adv-x="888" 
d="M459 -29q-179 0 -295.5 128.5t-116.5 318.5q0 209 129.5 351t325.5 142q152 0 239.5 -78.5t87.5 -209.5q0 -24 -6 -54l-587 4q-7 -35 -7 -84q0 -174 90.5 -281.5t227.5 -107.5q85 0 150.5 32.5t119.5 113.5l23 -13q-145 -262 -381 -262zM240 606q26 0 67.5 0.5t130.5 0.5
t147.5 0.5t57.5 0.5q2 114 -40.5 190t-125.5 76t-150.5 -78t-86.5 -190zM487 1087q-53 0 -82.5 35.5t-29.5 77.5q0 44 29.5 81.5t82.5 37.5q52 0 81.5 -37.5t29.5 -81.5q0 -42 -29 -77.5t-82 -35.5z" />
    <glyph glyph-name="Eogonek" unicode="&#x118;" horiz-adv-x="1214" 
d="M887 -473q-80 0 -131 50.5t-51 131.5q0 89 65 163.5t158 127.5h-869l7 31l71 8q96 9 96 35v1138q0 13 -19 19t-85 12l-61 6l-7 31h990l20 -393h-39l-20 78q-16 47 -26 72.5t-28 60.5t-36.5 53t-48.5 38.5t-68 30.5t-91 16.5t-120 6.5h-166v-567l82 2q153 5 209.5 29.5
t83.5 105.5l20 61l35 -2l-43 -436l-33 2l-8 60q-6 86 -56.5 109.5t-219.5 29.5l-70 2v-594l193 -6q68 0 124.5 8.5t96.5 21t74 35.5t55 43t42 54.5t33 59.5t29 67l25 75l41 -2l-64 -401h-102q-150 -100 -150 -244q0 -63 35 -99t96 -36t109 51l12 -12q-15 -46 -70.5 -89.5
t-119.5 -43.5z" />
    <glyph glyph-name="eogonek" unicode="&#x119;" horiz-adv-x="888" 
d="M518 -473q-79 0 -130.5 50.5t-51.5 131.5t54.5 151t133.5 117q-27 -6 -65 -6q-179 0 -295.5 128.5t-116.5 318.5q0 209 129.5 351t325.5 142q152 0 239.5 -78.5t87.5 -209.5q0 -24 -6 -54l-587 4q-7 -35 -7 -84q0 -174 90.5 -281.5t227.5 -107.5q85 0 150.5 33t119.5 115
l23 -15q-46 -85 -95 -136.5t-118 -88.5q-78 -42 -124 -112t-46 -140q0 -63 35 -99t98 -36q60 0 108 51l11 -12q-13 -46 -70 -89.5t-121 -43.5zM240 606l403 2q2 114 -40.5 190t-125.5 76t-150.5 -78t-86.5 -190z" />
    <glyph glyph-name="Ecaron" unicode="&#x11a;" horiz-adv-x="1214" 
d="M592 1401l-273 397h23l264 -225h4l262 225h23l-272 -397h-31zM59 0l7 31l71 8q96 9 96 35v1138q0 13 -19 19t-85 12l-61 6l-7 31h990l20 -393h-39l-20 78q-16 47 -26 72.5t-28 60.5t-36.5 53t-48.5 38.5t-68 30.5t-91 16.5t-120 6.5h-166v-567l82 2q155 5 210.5 29
t82.5 106l20 61l35 -2l-43 -436l-35 2l-6 60q-6 86 -56.5 109.5t-219.5 29.5l-70 2v-594l193 -6q68 0 124.5 8.5t96.5 21t74 35.5t55 43t42 54.5t33 59.5t29 67l25 75l41 -2l-64 -401h-1018z" />
    <glyph glyph-name="ecaron" unicode="&#x11b;" horiz-adv-x="888" 
d="M475 1001l-272 398h22l264 -225h5l262 225h22l-272 -398h-31zM459 -29q-179 0 -295.5 128.5t-116.5 318.5q0 209 129.5 351t325.5 142q152 0 239.5 -78.5t87.5 -209.5q0 -24 -6 -54l-587 4q-7 -35 -7 -84q0 -174 90.5 -281.5t227.5 -107.5q85 0 150.5 32.5t119.5 113.5
l23 -13q-145 -262 -381 -262zM240 606q26 0 67.5 0.5t130.5 0.5t147.5 0.5t57.5 0.5q2 114 -40.5 190t-125.5 76t-150.5 -78t-86.5 -190z" />
    <glyph glyph-name="Gcircumflex" unicode="&#x11c;" horiz-adv-x="1445" 
d="M485 1401l273 397h30l273 -397h-25l-260 225h-4l-264 -225h-23zM778 -29q-204 0 -364.5 79t-253 230.5t-92.5 352.5q0 200 95 355t263.5 239t382.5 84q92 0 186 -22t140 -48l127 45l6 -405h-37l-144 313q-100 76 -288 76q-157 0 -276 -84.5t-179.5 -223.5t-60.5 -309
q0 -141 40 -261.5t109 -204t164 -130.5t203 -47q76 0 145.5 19.5t114.5 50.5v414q0 7 -8.5 12t-33 9t-69.5 7l-86 8l-6 31h565l-6 -31l-78 -10q-90 -8 -90 -33v-378h103l2 -23q-135 -46 -295 -80.5t-279 -34.5z" />
    <glyph glyph-name="gcircumflex" unicode="&#x11d;" horiz-adv-x="935" 
d="M152 1001l272 398h31l272 -398h-25l-260 226h-4l-264 -226h-22zM356 -510q-158 0 -248 59t-90 162q0 43 21 83t56.5 70.5t74.5 53t82 39.5v6q-90 10 -146.5 53.5t-56.5 102.5q0 70 64 125.5t149 77.5l2 6q-77 31 -128.5 101t-51.5 163q0 135 100.5 225t249.5 90
q128 0 240 -73l258 34l-14 -110l-203 30l-2 -8q71 -71 71 -174q0 -129 -103 -219t-253 -90q-60 0 -123 14q-47 -10 -78.5 -37t-31.5 -65q0 -88 157 -88q33 0 115.5 3t118.5 3q139 0 219 -66t80 -180q0 -170 -146.5 -280.5t-382.5 -110.5zM432 330q85 0 133.5 69t48.5 189
q0 132 -43.5 210.5t-138.5 78.5q-77 0 -124.5 -72t-47.5 -189q0 -129 47 -207.5t125 -78.5zM465 -461q130 0 214.5 71t84.5 173q0 170 -250 178q-78 2 -219 -10q-50 -19 -91.5 -72t-41.5 -115q0 -100 85.5 -162.5t217.5 -62.5z" />
    <glyph glyph-name="Gbreve" unicode="&#x11e;" horiz-adv-x="1445" 
d="M778 -29q-204 0 -364.5 79t-253 230.5t-92.5 352.5q0 200 95 355t263.5 239t382.5 84q92 0 186 -22t140 -48l127 45l6 -405h-37l-144 313q-100 76 -288 76q-157 0 -276 -84.5t-179.5 -223.5t-60.5 -309q0 -141 40 -261.5t109 -204t164 -130.5t203 -47q76 0 145.5 19.5
t114.5 50.5v414q0 7 -8.5 12t-33 9t-69.5 7l-86 8l-6 31h565l-6 -31l-78 -10q-90 -8 -90 -33v-378h103l2 -23q-135 -46 -295 -80.5t-279 -34.5zM780 1407q-44 0 -79.5 14t-61.5 43.5t-44.5 60.5t-34.5 80.5t-25 86.5t-21 94h21q47 -131 105 -197.5t142 -66.5t142.5 66.5
t105.5 197.5h21q-10 -48 -17.5 -80.5t-21 -76t-27 -72t-34 -59.5t-44 -49t-56.5 -30t-71 -12z" />
    <glyph glyph-name="gbreve" unicode="&#x11f;" horiz-adv-x="935" 
d="M356 -510q-158 0 -248 59t-90 162q0 43 21 83t56.5 70.5t74.5 53t82 39.5v6q-90 10 -146.5 53.5t-56.5 102.5q0 70 64 125.5t149 77.5l2 6q-77 31 -128.5 101t-51.5 163q0 135 100.5 225t249.5 90q128 0 240 -73l258 34l-14 -110l-203 30l-2 -8q71 -71 71 -174
q0 -129 -103 -219t-253 -90q-60 0 -123 14q-47 -10 -78.5 -37t-31.5 -65q0 -88 157 -88q33 0 115.5 3t118.5 3q139 0 219 -66t80 -180q0 -170 -146.5 -280.5t-382.5 -110.5zM432 330q85 0 133.5 69t48.5 189q0 132 -43.5 210.5t-138.5 78.5q-77 0 -124.5 -72t-47.5 -189
q0 -129 47 -207.5t125 -78.5zM465 -461q130 0 214.5 71t84.5 173q0 170 -250 178q-78 2 -219 -10q-50 -19 -91.5 -72t-41.5 -115q0 -100 85.5 -162.5t217.5 -62.5zM424 1008q-44 0 -79.5 14t-61.5 43.5t-44.5 60t-34.5 80t-25 86.5t-21 94h20q47 -131 105.5 -197.5
t142.5 -66.5t142.5 66.5t105.5 197.5h20q-10 -49 -17.5 -81t-20.5 -75.5t-26.5 -72t-34 -59.5t-44.5 -49t-56.5 -29.5t-70.5 -11.5z" />
    <glyph glyph-name="Gdotaccent" unicode="&#x120;" horiz-adv-x="1445" 
d="M778 -29q-204 0 -364.5 79t-253 230.5t-92.5 352.5q0 200 95 355t263.5 239t382.5 84q92 0 186 -22t140 -48l127 45l6 -405h-37l-144 313q-100 76 -288 76q-157 0 -276 -84.5t-179.5 -223.5t-60.5 -309q0 -141 40 -261.5t109 -204t164 -130.5t203 -47q76 0 145.5 19.5
t114.5 50.5v414q0 7 -8.5 12t-33 9t-69.5 7l-86 8l-6 31h565l-6 -31l-78 -10q-90 -8 -90 -33v-378h103l2 -23q-135 -46 -295 -80.5t-279 -34.5zM786 1487q-53 0 -82.5 35t-29.5 77q0 44 29.5 81.5t82.5 37.5q52 0 81.5 -37.5t29.5 -81.5q0 -42 -29 -77t-82 -35z" />
    <glyph glyph-name="gdotaccent" unicode="&#x121;" horiz-adv-x="935" 
d="M356 -510q-158 0 -248 59t-90 162q0 43 21 83t56.5 70.5t74.5 53t82 39.5v6q-90 10 -146.5 53.5t-56.5 102.5q0 70 64 125.5t149 77.5l2 6q-77 31 -128.5 101t-51.5 163q0 135 100.5 225t249.5 90q128 0 240 -73l258 34l-14 -110l-203 30l-2 -8q71 -71 71 -174
q0 -129 -103 -219t-253 -90q-60 0 -123 14q-47 -10 -78.5 -37t-31.5 -65q0 -88 157 -88q33 0 115.5 3t118.5 3q139 0 219 -66t80 -180q0 -170 -146.5 -280.5t-382.5 -110.5zM432 330q85 0 133.5 69t48.5 189q0 132 -43.5 210.5t-138.5 78.5q-77 0 -124.5 -72t-47.5 -189
q0 -129 47 -207.5t125 -78.5zM465 -461q130 0 214.5 71t84.5 173q0 170 -250 178q-78 2 -219 -10q-50 -19 -91.5 -72t-41.5 -115q0 -100 85.5 -162.5t217.5 -62.5zM444 1087q-53 0 -82.5 35.5t-29.5 77.5q0 44 29.5 81.5t82.5 37.5q52 0 81.5 -37.5t29.5 -81.5
q0 -42 -29 -77.5t-82 -35.5z" />
    <glyph glyph-name="Gcommaaccent" unicode="&#x122;" horiz-adv-x="1445" 
d="M674 -561l-15 16q66 18 112 69.5t46 113.5q0 73 -56 103t-95 3q-17 46 14 88.5t100 42.5q68 0 113 -44.5t45 -115.5q0 -89 -80 -170.5t-184 -105.5zM778 -29q-204 0 -364.5 79t-253 230.5t-92.5 352.5q0 200 95 355t263.5 239t382.5 84q92 0 186 -22t140 -48l127 45
l6 -405h-37l-144 313q-100 76 -288 76q-157 0 -276 -84.5t-179.5 -223.5t-60.5 -309q0 -141 40 -261.5t109 -204t164 -130.5t203 -47q76 0 145.5 19.5t114.5 50.5v414q0 7 -8.5 12t-33 9t-69.5 7l-86 8l-6 31h565l-6 -31l-78 -10q-90 -8 -90 -33v-378h103l2 -23
q-135 -46 -295 -80.5t-279 -34.5z" />
    <glyph glyph-name="gcommaaccent" unicode="&#x123;" horiz-adv-x="935" 
d="M573 1454l15 -16q-66 -18 -112 -69.5t-46 -113.5q0 -73 56.5 -103t95.5 -3q17 -46 -14.5 -88.5t-100.5 -42.5q-68 0 -113 44.5t-45 115.5q0 89 80 170.5t184 105.5zM356 -510q-158 0 -248 59t-90 162q0 43 21 83t56.5 70.5t74.5 53t82 39.5v6q-90 10 -146.5 53.5
t-56.5 102.5q0 70 64 125.5t149 77.5l2 6q-77 31 -128.5 101t-51.5 163q0 135 100.5 225t249.5 90q128 0 240 -73l258 34l-14 -110l-203 30l-2 -8q71 -71 71 -174q0 -129 -103 -219t-253 -90q-60 0 -123 14q-47 -10 -78.5 -37t-31.5 -65q0 -88 157 -88q33 0 115.5 3t118.5 3
q139 0 219 -66t80 -180q0 -170 -146.5 -280.5t-382.5 -110.5zM432 330q85 0 133.5 69t48.5 189q0 132 -43.5 210.5t-138.5 78.5q-77 0 -124.5 -72t-47.5 -189q0 -129 47 -207.5t125 -78.5zM465 -461q130 0 214.5 71t84.5 173q0 170 -250 178q-78 2 -219 -10
q-50 -19 -91.5 -72t-41.5 -115q0 -100 85.5 -162.5t217.5 -62.5z" />
    <glyph glyph-name="Hcircumflex" unicode="&#x124;" horiz-adv-x="1505" 
d="M463 1401l272 397h31l272 -397h-24l-260 225h-4l-265 -225h-22zM59 0l7 31l77 8q90 8 90 35v1138q0 13 -19 19t-85 12l-61 6l-7 31h545l-6 -31l-82 -8q-90 -8 -90 -35v-534h649v540q0 13 -19 19t-85 12l-66 6l-6 31h545l-6 -31l-78 -8q-90 -8 -90 -35v-1138q0 -13 19 -19
t85 -12l62 -6l6 -31h-545l6 31l82 8q90 8 90 35v559h-649v-565q0 -13 19 -19t85 -12l66 -6l6 -31h-545z" />
    <glyph glyph-name="hcircumflex" unicode="&#x125;" horiz-adv-x="1034" 
d="M18 0l7 31l41 2q45 3 62 10t17 25v1120q0 36 -12.5 52t-50.5 26l-74 24l2 23l307 80v-648l5 -2q46 37 74 58t75.5 50.5t94.5 43.5t96 14q99 0 161 -59q68 -71 68 -211v-573q0 -9 4.5 -13.5t27 -10t66.5 -9.5l35 -2l6 -31h-440l6 31l43 2q47 3 63.5 11.5t16.5 23.5v518
q0 105 -44.5 151.5t-137.5 46.5q-125 0 -220 -84v-637q0 -14 18 -20t79 -10l41 -2l6 -31h-443zM0 1432l272 397h31l272 -397h-24l-260 225h-4l-264 -225h-23z" />
    <glyph glyph-name="Hbar" unicode="&#x126;" horiz-adv-x="1505" 
d="M41 922l12 61h180v229q0 13 -19 19t-85 12l-61 6l-7 31h545l-6 -31l-82 -8q-90 -8 -90 -35v-223h649v229q0 13 -19 19t-85 12l-66 6l-6 31h545l-6 -31l-78 -8q-90 -8 -90 -35v-223h201l-9 -61h-192v-854q0 -13 19 -19t85 -12l62 -6l6 -31h-545l6 31l82 8q90 8 90 35v559
h-649v-565q0 -13 19 -19t85 -12l66 -6l6 -31h-545l7 31l77 8q90 8 90 35v848h-192zM428 672h649v250h-649v-250z" />
    <glyph glyph-name="hbar" unicode="&#x127;" horiz-adv-x="1034" 
d="M-10 1055l12 59h143v74q0 36 -12.5 52t-50.5 26l-74 24l2 23l307 80v-279h215l-8 -59h-207v-310l5 -2q46 37 74 58t75.5 50.5t94.5 43.5t96 14q99 0 161 -59q68 -71 68 -211v-573q0 -9 4.5 -13.5t27 -10t66.5 -9.5l35 -2l6 -31h-440l6 31l43 2q47 3 63.5 11.5t16.5 23.5
v518q0 105 -44.5 151.5t-137.5 46.5q-125 0 -220 -84v-637q0 -14 18 -20t79 -10l41 -2l6 -31h-443l7 31l41 2q45 3 62 10t17 25v987h-155z" />
    <glyph glyph-name="Imacron" unicode="&#x12a;" horiz-adv-x="704" 
d="M70 0l6 31l90 8q90 8 90 35v1138q0 13 -19 19t-85 12l-74 6l-6 31h563l-6 -31l-88 -8q-90 -8 -90 -35v-1138q0 -13 19 -19t85 -12l72 -6l6 -31h-563zM90 1479l12 61h512l-8 -61h-516z" />
    <glyph glyph-name="imacron" unicode="&#x12b;" horiz-adv-x="499" 
d="M37 0l6 31l43 2q47 3 64.5 10t17.5 25v565q0 93 -15.5 121.5t-70.5 40.5l-47 10l2 22l301 80v-844q0 -14 17.5 -20t78.5 -10l37 -2l6 -31h-440zM-14 1079l12 62h512l-8 -62h-516z" />
    <glyph glyph-name="Ibreve" unicode="&#x12c;" horiz-adv-x="704" 
d="M70 0l6 31l90 8q90 8 90 35v1138q0 13 -19 19t-85 12l-74 6l-6 31h563l-6 -31l-88 -8q-90 -8 -90 -35v-1138q0 -13 19 -19t85 -12l72 -6l6 -31h-563zM365 1407q-44 0 -79.5 14t-61.5 43.5t-45 60.5t-34.5 80t-25 86.5t-21.5 94.5h21q47 -131 105.5 -197.5t142.5 -66.5
t142 66.5t105 197.5h21q-12 -57 -21 -94t-25 -86.5t-35 -80.5t-45.5 -60.5t-62.5 -43.5t-81 -14z" />
    <glyph glyph-name="ibreve" unicode="&#x12d;" horiz-adv-x="499" 
d="M37 0l6 31l43 2q47 3 64.5 10t17.5 25v565q0 93 -15.5 121.5t-70.5 40.5l-47 10l2 22l301 80v-844q0 -14 17.5 -20t78.5 -10l37 -2l6 -31h-440zM250 1008q-44 0 -79.5 14t-61.5 43.5t-44.5 60t-34.5 80t-25 86.5t-21 94h20q47 -131 105.5 -197.5t142.5 -66.5t142.5 66.5
t105.5 197.5h20q-10 -49 -17.5 -81t-20.5 -75.5t-26.5 -72t-34 -59.5t-44.5 -49t-56.5 -29.5t-70.5 -11.5z" />
    <glyph glyph-name="Iogonek" unicode="&#x12e;" horiz-adv-x="704" 
d="M442 -473q-80 0 -132 48.5t-52 129.5q0 98 90.5 183.5t190.5 111.5h-469l6 31l90 8q90 8 90 35v1138q0 13 -19 19t-85 12l-74 6l-6 31h563l-6 -31l-88 -8q-90 -8 -90 -35v-1138q0 -13 19 -19t85 -12l72 -6l6 -31q-124 -32 -190 -96.5t-66 -151.5q0 -62 36.5 -96.5
t100.5 -34.5q61 0 109 51l12 -12q-15 -46 -72 -89.5t-121 -43.5z" />
    <glyph glyph-name="iogonek" unicode="&#x12f;" horiz-adv-x="499" 
d="M285 -473q-83 0 -136 43.5t-53 126.5q0 105 78.5 187t194.5 116h-332l6 31l43 2q47 3 64.5 10t17.5 25v565q0 93 -15.5 121.5t-70.5 40.5l-47 10l2 22l301 80v-844q0 -14 17.5 -20t78.5 -10l37 -2l6 -31q-260 -60 -260 -256q0 -123 139 -123q61 0 109 51l12 -12
q-15 -46 -71.5 -89.5t-120.5 -43.5zM233 1081q-55 0 -84.5 36t-29.5 79q0 46 29.5 82.5t84.5 36.5t85 -37t30 -82q0 -43 -30 -79t-85 -36z" />
    <glyph glyph-name="Idotaccent" unicode="&#x130;" horiz-adv-x="704" 
d="M70 0l6 31l90 8q90 8 90 35v1138q0 13 -19 19t-85 12l-74 6l-6 31h563l-6 -31l-88 -8q-90 -8 -90 -35v-1138q0 -13 19 -19t85 -12l72 -6l6 -31h-563zM358 1487q-53 0 -82.5 35t-29.5 77q0 44 29.5 81.5t82.5 37.5q52 0 81.5 -37.5t29.5 -81.5q0 -42 -29 -77t-82 -35z" />
    <glyph glyph-name="dotlessi" unicode="&#x131;" horiz-adv-x="499" 
d="M37 0l6 31l43 2q47 3 64.5 10t17.5 25v565q0 93 -15.5 121.5t-70.5 40.5l-47 10l2 22l301 80v-844q0 -14 17.5 -20t78.5 -10l37 -2l6 -31h-440z" />
    <glyph glyph-name="Jcircumflex" unicode="&#x134;" horiz-adv-x="704" 
d="M88 1401l272 397h31l273 -397h-25l-260 225h-4l-264 -225h-23zM86 -248q-76 0 -126 36.5t-50 92.5q0 47 32.5 79t84.5 32q73 0 103.5 -67t-7.5 -130q160 3 160 391v1026q0 9 -7 14t-30 9.5t-68 7.5l-80 6l-6 31h570l-7 -31l-88 -8q-90 -8 -90 -35v-1032q0 -89 -55 -187
t-147.5 -166.5t-188.5 -68.5z" />
    <glyph glyph-name="jcircumflex" unicode="&#x135;" horiz-adv-x="477" 
d="M-18 -518q-68 0 -109 31t-41 81q0 43 30.5 72t71.5 29q51 0 90 -38t60 -101q78 28 78 260v817q0 93 -15.5 121.5t-70.5 40.5l-47 10l2 22l301 80v-962q-3 -118 -58.5 -227t-135.5 -172.5t-156 -63.5zM-51 1001l272 398h31l272 -398h-24l-260 226h-4l-265 -226h-22z" />
    <glyph glyph-name="Kcommaaccent" unicode="&#x136;" horiz-adv-x="1357" 
d="M592 -561l-14 16q66 18 111.5 69.5t45.5 113.5q0 73 -56 103t-95 3q-17 46 14 88.5t100 42.5q68 0 113 -44.5t45 -115.5q0 -89 -80 -170.5t-184 -105.5zM59 0l7 31l81 8q86 8 86 35v1138q0 9 -5 13.5t-27 9t-68 8.5l-65 6l-7 31h560l-7 -31l-96 -8q-90 -8 -90 -35v-639
l334 336q193 196 220 262q20 50 -32 67q-23 7 -67 11l-82 6l-2 31h514l-6 -31l-37 -4q-48 -4 -78 -13.5t-69 -37.5t-86.5 -74.5t-129.5 -130.5q-15 -16 -24 -25.5t-24 -24.5l-28 -28l-106 -104l399 -623q61 -96 87.5 -119.5t84.5 -29.5l52 -4l6 -31h-535l4 31l62 6
q29 2 41.5 11.5t11.5 30.5t-15.5 53.5t-45.5 84.5l-285 459l-164 -164v-444q0 -13 19 -19t85 -12l80 -6l6 -31h-559z" />
    <glyph glyph-name="kcommaaccent" unicode="&#x137;" horiz-adv-x="980" 
d="M375 -561l-15 16q66 18 112 69.5t46 113.5q0 73 -56 103t-95 3q-17 46 14 88.5t100 42.5q68 0 113 -44.5t45 -115.5q0 -89 -80 -170.5t-184 -105.5zM18 0l7 31l41 2q47 5 63 11t16 24v1120q0 36 -12.5 52t-50.5 26l-74 24l2 23l307 80v-973l181 176q153 142 153 197
q0 46 -102 55l-27 2l-4 31h408l-6 -31l-39 -4q-56 -5 -103 -40.5t-160 -145.5q-25 -24 -38 -37l-60 -56l258 -403q50 -78 76.5 -101.5t77.5 -27.5l35 -4l6 -31h-309l-41 72l-226 374l-80 -75v-308q0 -13 17 -18.5t80 -11.5l35 -2l6 -31h-437z" />
    <glyph glyph-name="Lacute" unicode="&#x139;" horiz-adv-x="1148" 
d="M266 1417l191 383h198l-366 -383h-23zM59 0l7 31l81 8q86 8 86 35v1138q0 9 -5 13.5t-27 9t-68 8.5l-65 6l-7 31h580l-6 -31l-117 -8q-90 -8 -90 -35v-1161l160 -8q112 0 184.5 17t120.5 66.5t68.5 87.5t58.5 130q1 3 2 4l27 86h41l-60 -428h-971z" />
    <glyph glyph-name="lacute" unicode="&#x13a;" horiz-adv-x="493" 
d="M111 1432l190 383h199l-367 -383h-22zM33 0l4 31l43 2q46 3 63 10t17 25v1071q0 70 -12.5 93t-53.5 34l-71 24l2 23l307 80v-1330q0 -14 16.5 -19t77.5 -11l39 -2l6 -31h-438z" />
    <glyph glyph-name="Lcommaaccent" unicode="&#x13b;" horiz-adv-x="1148" 
d="M469 -561l-14 16q66 18 111.5 69.5t45.5 113.5q0 73 -56 103t-95 3q-17 46 14 88.5t100 42.5q68 0 113 -44.5t45 -115.5q0 -89 -80 -170.5t-184 -105.5zM59 0l7 31l81 8q86 8 86 35v1138q0 9 -5 13.5t-27 9t-68 8.5l-65 6l-7 31h580l-6 -31l-117 -8q-90 -8 -90 -35v-1161
l160 -8q112 0 184.5 17t120.5 66.5t68.5 87.5t58.5 130q1 3 2 4l27 86h41l-60 -428h-971z" />
    <glyph glyph-name="lcommaaccent" unicode="&#x13c;" horiz-adv-x="493" 
d="M127 -561l-14 16q66 18 111.5 69.5t45.5 113.5q0 73 -56 103t-95 3q-17 46 14 88.5t100 42.5q68 0 113 -44.5t45 -115.5q0 -89 -80 -170.5t-184 -105.5zM33 0l4 31l43 2q46 3 63 10t17 25v1071q0 70 -12.5 93t-53.5 34l-71 24l2 23l307 80v-1330q0 -14 16.5 -19t77.5 -11
l39 -2l6 -31h-438z" />
    <glyph glyph-name="Lcaron" unicode="&#x13d;" horiz-adv-x="1351" 
d="M1020 782l-23 17q71 37 120.5 101t49.5 132q0 37 -17 65t-41.5 42.5t-49 23.5t-41.5 12.5t-17 4.5q0 47 33.5 82.5t95.5 35.5q69 0 119.5 -52t50.5 -132q0 -99 -76 -187t-204 -145zM59 0l7 31l81 8q86 8 86 35v1138q0 9 -5 13.5t-27 9t-68 8.5l-65 6l-7 31h580l-6 -31
l-117 -8q-90 -8 -90 -35v-1161l160 -8q112 0 184.5 17t120.5 66.5t68.5 87.5t58.5 130q1 3 2 4l27 86h41l-60 -428h-971z" />
    <glyph glyph-name="lcaron" unicode="&#x13e;" horiz-adv-x="862" 
d="M518 881l-22 16q71 37 120.5 101t49.5 132q0 37 -17 65t-41.5 42.5t-49 23.5t-41.5 12.5t-17 4.5q0 47 33.5 83t95.5 36q69 0 119.5 -52.5t50.5 -132.5q0 -99 -76.5 -186.5t-204.5 -144.5zM33 0l4 31l43 2q46 3 63 10t17 25v1071q0 70 -12.5 93t-53.5 34l-71 24l2 23
l307 80v-1330q0 -14 16.5 -19t77.5 -11l39 -2l6 -31h-438z" />
    <glyph glyph-name="Ldot" unicode="&#x13f;" horiz-adv-x="1331" 
d="M1309 512q-55 0 -92 37.5t-37 89.5q0 50 37 86.5t92 36.5q56 0 91.5 -36t35.5 -87q0 -52 -35.5 -89.5t-91.5 -37.5zM59 0l7 31l81 8q86 8 86 35v1138q0 9 -5 13.5t-27 9t-68 8.5l-65 6l-7 31h580l-6 -31l-117 -8q-90 -8 -90 -35v-1161l160 -8q112 0 184.5 17t120.5 66.5
t68.5 87.5t58.5 130q1 3 2 4l27 86h41l-60 -428h-971z" />
    <glyph glyph-name="ldotaccent" unicode="&#x140;" horiz-adv-x="837" 
d="M676 455q-55 0 -92 37.5t-37 89.5q0 50 37 86.5t92 36.5q56 0 91.5 -36t35.5 -87q0 -52 -35.5 -89.5t-91.5 -37.5zM33 0l4 31l43 2q46 3 63 10t17 25v1071q0 70 -12.5 93t-53.5 34l-71 24l2 23l307 80v-1330q0 -14 16.5 -19t77.5 -11l39 -2l6 -31h-438z" />
    <glyph glyph-name="Lslash" unicode="&#x141;" horiz-adv-x="1148" 
d="M233 530q0 1 -49 -14l-98 -30l-49 -15l2 45l194 59v629q0 9 -6 14.5t-28.5 11t-63.5 9.5l-88 10l-6 31h600l-6 -31l-125 -12q-82 -8 -82 -37v-565l211 65l4 -43q-215 -65 -215 -67v-545l160 -8q65 0 116.5 7t89.5 19t68 33t50.5 43t39.5 55.5t33 64.5t32 75q2 5 3 8
l24 86h46l-60 -428h-991l6 31l105 12q83 8 83 37v450z" />
    <glyph glyph-name="lslash" unicode="&#x142;" horiz-adv-x="493" 
d="M160 498l-154 -47l4 41l150 47v596q0 69 -12.5 92t-53.5 35l-71 24l2 23l307 84v-803l149 47l2 -43l-151 -45v-477q0 -14 16.5 -21.5t67.5 -11.5l55 -8l6 -31h-444l4 31l49 8q44 5 59 11t15 24v424z" />
    <glyph glyph-name="Nacute" unicode="&#x143;" horiz-adv-x="1429" 
d="M686 1417l191 383h198l-366 -383h-23zM1161 -12l-882 1126h-5l2 -899q0 -99 29.5 -133t116.5 -43l57 -8l6 -31h-442l6 31l57 8q69 6 98 42.5t29 137.5l7 883q-48 120 -160 141l-47 8l-6 31h368l768 -991l4 2l-2 772q0 99 -29 133t-116 43l-57 8l-7 31h443l-6 -31l-58 -8
q-69 -6 -98 -42.5t-29 -137.5l-4 -1073h-43z" />
    <glyph glyph-name="nacute" unicode="&#x144;" horiz-adv-x="1058" 
d="M37 0l6 31l43 2q47 3 64.5 10t17.5 25v563q0 94 -15.5 123t-70.5 41l-47 10l2 22l303 80l-4 -164h6q44 36 73.5 57.5t76.5 50.5t94.5 43.5t95.5 14.5q106 0 162 -59q67 -67 67 -213v-571q0 -8 4.5 -13t27 -10.5t67.5 -9.5l34 -2l7 -31h-437l7 31l41 2q47 3 62 11.5
t15 23.5v516q0 107 -44 153.5t-138 46.5q-120 0 -219 -84v-637q0 -14 17 -20t77 -10l43 -2l4 -31h-442zM432 1018l191 383h198l-366 -383h-23z" />
    <glyph glyph-name="Ncommaaccent" unicode="&#x145;" horiz-adv-x="1429" 
d="M575 -561l-14 16q66 18 112 69.5t46 113.5q0 73 -56.5 103t-95.5 3q-17 46 14.5 88.5t100.5 42.5q68 0 113 -44.5t45 -115.5q0 -89 -80.5 -170.5t-184.5 -105.5zM1161 -12l-882 1126h-5l2 -899q0 -99 29.5 -133t116.5 -43l57 -8l6 -31h-442l6 31l57 8q69 6 98 42.5
t29 137.5l7 883q-48 120 -160 141l-47 8l-6 31h368l768 -991l4 2l-2 772q0 99 -29 133t-116 43l-57 8l-7 31h443l-6 -31l-58 -8q-69 -6 -98 -42.5t-29 -137.5l-4 -1073h-43z" />
    <glyph glyph-name="ncommaaccent" unicode="&#x146;" horiz-adv-x="1058" 
d="M37 0l6 31l43 2q47 3 64.5 10t17.5 25v563q0 94 -15.5 123t-70.5 41l-47 10l2 22l303 80l-4 -164h6q44 36 73.5 57.5t76.5 50.5t94.5 43.5t95.5 14.5q106 0 162 -59q67 -67 67 -213v-571q0 -8 4.5 -13t27 -10.5t67.5 -9.5l34 -2l7 -31h-437l7 31l41 2q47 3 62 11.5
t15 23.5v516q0 107 -44 153.5t-138 46.5q-120 0 -219 -84v-637q0 -14 17 -20t77 -10l43 -2l4 -31h-442zM422 -561l-14 16q66 18 111.5 69.5t45.5 113.5q0 73 -56 103t-95 3q-17 46 14 88.5t100 42.5q68 0 113 -44.5t45 -115.5q0 -89 -80 -170.5t-184 -105.5z" />
    <glyph glyph-name="Ncaron" unicode="&#x147;" horiz-adv-x="1429" 
d="M733 1401l-272 397h22l265 -225h4l262 225h22l-272 -397h-31zM1161 -12l-882 1126h-5l2 -899q0 -99 29.5 -133t116.5 -43l57 -8l6 -31h-442l6 31l57 8q69 6 98 42.5t29 137.5l7 883q-48 120 -160 141l-47 8l-6 31h368l768 -991l4 2l-2 772q0 99 -29 133t-116 43l-57 8
l-7 31h443l-6 -31l-58 -8q-69 -6 -98 -42.5t-29 -137.5l-4 -1073h-43z" />
    <glyph glyph-name="ncaron" unicode="&#x148;" horiz-adv-x="1058" 
d="M494 1001l-273 398h23l264 -225h4l262 225h23l-273 -398h-30zM37 0l6 31l43 2q47 3 64.5 10t17.5 25v563q0 94 -15.5 123t-70.5 41l-47 10l2 22l303 80l-4 -164h6q44 36 73.5 57.5t76.5 50.5t94.5 43.5t95.5 14.5q106 0 162 -59q67 -67 67 -213v-571q0 -8 4.5 -13
t27 -10.5t67.5 -9.5l34 -2l7 -31h-437l7 31l41 2q47 3 62 11.5t15 23.5v516q0 107 -44 153.5t-138 46.5q-120 0 -219 -84v-637q0 -14 17 -20t77 -10l43 -2l4 -31h-442z" />
    <glyph glyph-name="Omacron" unicode="&#x14c;" horiz-adv-x="1505" 
d="M518 1479l12 61h512l-8 -61h-516zM743 -31q-143 0 -268 49t-214.5 136t-141 211t-51.5 268q0 129 54.5 252t146 216.5t221 150.5t270.5 57q192 0 346.5 -84t243 -236.5t88.5 -345.5q0 -130 -54.5 -253.5t-146.5 -216t-222 -148.5t-272 -56zM756 8q209 0 337 170t128 461
q0 278 -135.5 454.5t-340.5 176.5q-207 0 -334.5 -170.5t-127.5 -460.5q0 -280 134 -455.5t339 -175.5z" />
    <glyph glyph-name="omacron" unicode="&#x14d;" horiz-adv-x="1032" 
d="M246 1079l12 62h512l-8 -62h-516zM510 -29q-203 0 -333 134t-130 333q0 198 136.5 335.5t338.5 137.5t332.5 -131.5t130.5 -326.5q0 -133 -61 -243t-170.5 -174.5t-243.5 -64.5zM520 8q79 0 140 56.5t92.5 148.5t31.5 201q0 126 -27.5 229.5t-82.5 159.5q-71 71 -164 71
q-82 0 -142.5 -57.5t-90 -146.5t-29.5 -195q0 -282 108 -393q70 -74 164 -74z" />
    <glyph glyph-name="Obreve" unicode="&#x14e;" horiz-adv-x="1505" 
d="M743 -31q-143 0 -268 49t-214.5 136t-141 211t-51.5 268q0 129 54.5 252t146 216.5t221 150.5t270.5 57q192 0 346.5 -84t243 -236.5t88.5 -345.5q0 -130 -54.5 -253.5t-146.5 -216t-222 -148.5t-272 -56zM756 8q209 0 337 170t128 461q0 278 -135.5 454.5t-340.5 176.5
q-207 0 -334.5 -170.5t-127.5 -460.5q0 -280 134 -455.5t339 -175.5zM784 1407q-44 0 -79.5 14t-61.5 43.5t-44.5 60.5t-34.5 80.5t-25 86.5t-21 94h21q47 -131 105 -197.5t142 -66.5t142.5 66.5t105.5 197.5h21q-10 -48 -17.5 -80.5t-21 -76t-27 -72t-34 -59.5t-44 -49
t-56.5 -30t-71 -12z" />
    <glyph glyph-name="obreve" unicode="&#x14f;" horiz-adv-x="1032" 
d="M510 -29q-203 0 -333 134t-130 333q0 198 136.5 335.5t338.5 137.5t332.5 -131.5t130.5 -326.5q0 -133 -61 -243t-170.5 -174.5t-243.5 -64.5zM520 8q79 0 140 56.5t92.5 148.5t31.5 201q0 126 -27.5 229.5t-82.5 159.5q-71 71 -164 71q-82 0 -142.5 -57.5t-90 -146.5
t-29.5 -195q0 -282 108 -393q70 -74 164 -74zM514 1008q-44 0 -79.5 14t-61.5 43.5t-44.5 60t-34.5 80t-25 86.5t-21 94h20q47 -131 105.5 -197.5t142.5 -66.5t142.5 66.5t105.5 197.5h20q-10 -49 -17.5 -81t-20.5 -75.5t-26.5 -72t-34 -59.5t-44.5 -49t-56.5 -29.5
t-70.5 -11.5z" />
    <glyph glyph-name="Ohungarumlaut" unicode="&#x150;" horiz-adv-x="1505" 
d="M850 1417l182 383h182l-337 -383h-27zM539 1417l182 383h182l-338 -383h-26zM743 -31q-143 0 -268 49t-214.5 136t-141 211t-51.5 268q0 129 54.5 252t146 216.5t221 150.5t270.5 57q192 0 346.5 -84t243 -236.5t88.5 -345.5q0 -130 -54.5 -253.5t-146.5 -216
t-222 -148.5t-272 -56zM756 8q209 0 337 170t128 461q0 278 -135.5 454.5t-340.5 176.5q-207 0 -334.5 -170.5t-127.5 -460.5q0 -280 134 -455.5t339 -175.5z" />
    <glyph glyph-name="ohungarumlaut" unicode="&#x151;" horiz-adv-x="1032" 
d="M594 1018l182 383h182l-337 -383h-27zM283 1018l182 383h182l-338 -383h-26zM510 -29q-203 0 -333 134t-130 333q0 198 136.5 335.5t338.5 137.5t332.5 -131.5t130.5 -326.5q0 -133 -61 -243t-170.5 -174.5t-243.5 -64.5zM520 8q79 0 140 56.5t92.5 148.5t31.5 201
q0 126 -27.5 229.5t-82.5 159.5q-71 71 -164 71q-82 0 -142.5 -57.5t-90 -146.5t-29.5 -195q0 -282 108 -393q70 -74 164 -74z" />
    <glyph glyph-name="OE" unicode="&#x152;" horiz-adv-x="1916" 
d="M815 0q-179 -1 -322 44.5t-235.5 128.5t-141 196t-48.5 247q0 111 31 209.5t95.5 182t157.5 144t223 94.5t285 34h895l21 -393h-37l-23 78q-27 83 -46 122t-63 81t-117.5 57.5t-191.5 15.5h-155v-565l74 2q155 5 210 28.5t82 106.5l23 61l31 -2l-43 -436l-31 2l-6 60
q-6 86 -57.5 109.5t-221.5 29.5l-61 2v-594l182 -6q69 0 126 8.5t97.5 21t74.5 35.5t55 43t42 54.5t33 59.5t29 67l22 75l41 -2l-63 -401h-967zM852 43h100v1163l-139 35q-131 -1 -235.5 -48t-170.5 -126.5t-100.5 -181.5t-34.5 -219q0 -130 34.5 -240.5t103.5 -197
t182 -136t260 -49.5z" />
    <glyph glyph-name="oe" unicode="&#x153;" horiz-adv-x="1628" 
d="M510 -29q-204 0 -334.5 133.5t-128.5 333.5q2 198 137.5 335.5t337.5 137.5q116 0 210.5 -46t156.5 -128q63 82 153.5 128t198.5 46q151 0 239.5 -79t88.5 -209q0 -24 -6 -54q-580 4 -590 4q-4 -40 -4 -84q0 -174 90 -281.5t227 -107.5q85 0 150.5 32.5t119.5 113.5
l23 -13q-145 -262 -383 -262q-189 0 -319 168q-64 -78 -159.5 -123t-207.5 -45zM979 606q26 0 67.5 0.5t130.5 1.5t147.5 1.5t57.5 0.5q1 73 -15.5 131t-56 95.5t-96.5 37.5q-82 0 -149 -78t-86 -190zM520 8q118 0 191 116.5t73 287.5q0 124 -27 226.5t-79 160.5
q-71 75 -168 75q-122 0 -191 -115t-71 -288q0 -125 27 -227t81 -160q69 -76 164 -76z" />
    <glyph glyph-name="Racute" unicode="&#x154;" horiz-adv-x="1298" 
d="M492 1417l190 383h199l-367 -383h-22zM39 0l6 31l98 8q33 3 61.5 14t28.5 21v1138q0 13 -19 19t-85 12l-82 6l-6 31h545q248 0 373.5 -85.5t125.5 -246.5q0 -117 -85 -204.5t-224 -120.5l279 -424q64 -92 105.5 -124t107.5 -38l37 -6l8 -31h-369l-35 61l-336 555
q-128 25 -145 31v-579q0 -19 104 -31l86 -6l7 -31h-586zM588 659q136 3 212.5 76.5t76.5 208.5q0 148 -88 226t-259 71l-102 -4v-551q32 -10 82 -18.5t78 -8.5z" />
    <glyph glyph-name="racute" unicode="&#x155;" horiz-adv-x="757" 
d="M37 0l6 31l43 2q47 3 64.5 10t17.5 25v563q0 94 -15.5 123t-70.5 41l-47 10l2 22l303 80l-4 -305h6q56 155 121 231t153 76q55 0 93.5 -33t38.5 -79q0 -47 -30.5 -81t-80.5 -34q-43 0 -77.5 29t-41.5 82q-102 -32 -180 -275v-455q0 -14 18.5 -20.5t77.5 -9.5l70 -2l6 -31
h-473zM317 1018l191 383h199l-367 -383h-23z" />
    <glyph glyph-name="Rcommaaccent" unicode="&#x156;" horiz-adv-x="1298" 
d="M594 -561l-14 16q66 18 111.5 69.5t45.5 113.5q0 73 -56 103t-95 3q-17 46 14 88.5t100 42.5q68 0 113 -44.5t45 -115.5q0 -89 -80 -170.5t-184 -105.5zM39 0l6 31l98 8q33 3 61.5 14t28.5 21v1138q0 13 -19 19t-85 12l-82 6l-6 31h545q248 0 373.5 -85.5t125.5 -246.5
q0 -117 -85 -204.5t-224 -120.5l279 -424q64 -92 105.5 -124t107.5 -38l37 -6l8 -31h-369l-35 61l-336 555q-128 25 -145 31v-579q0 -19 104 -31l86 -6l7 -31h-586zM588 659q136 3 212.5 76.5t76.5 208.5q0 148 -88 226t-259 71l-102 -4v-551q32 -10 82 -18.5t78 -8.5z" />
    <glyph glyph-name="rcommaaccent" unicode="&#x157;" horiz-adv-x="757" 
d="M143 -561l-14 16q66 18 112 69.5t46 113.5q0 73 -56.5 103t-95.5 3q-17 46 14.5 88.5t100.5 42.5q68 0 113 -44.5t45 -115.5q0 -89 -80.5 -170.5t-184.5 -105.5zM37 0l6 31l43 2q47 3 64.5 10t17.5 25v563q0 94 -15.5 123t-70.5 41l-47 10l2 22l303 80l-4 -305h6
q56 155 121 231t153 76q55 0 93.5 -33t38.5 -79q0 -47 -30.5 -81t-80.5 -34q-43 0 -77.5 29t-41.5 82q-102 -32 -180 -275v-455q0 -14 18.5 -20.5t77.5 -9.5l70 -2l6 -31h-473z" />
    <glyph glyph-name="Rcaron" unicode="&#x158;" horiz-adv-x="1298" 
d="M569 1401l-272 397h22l265 -225h4l262 225h22l-272 -397h-31zM39 0l6 31l98 8q33 3 61.5 14t28.5 21v1138q0 13 -19 19t-85 12l-82 6l-6 31h545q248 0 373.5 -85.5t125.5 -246.5q0 -117 -85 -204.5t-224 -120.5l279 -424q64 -92 105.5 -124t107.5 -38l37 -6l8 -31h-369
l-35 61l-336 555q-128 25 -145 31v-579q0 -19 104 -31l86 -6l7 -31h-586zM588 659q136 3 212.5 76.5t76.5 208.5q0 148 -88 226t-259 71l-102 -4v-551q32 -10 82 -18.5t78 -8.5z" />
    <glyph glyph-name="rcaron" unicode="&#x159;" horiz-adv-x="757" 
d="M37 0l6 31l43 2q47 3 64.5 10t17.5 25v563q0 94 -15.5 123t-70.5 41l-47 10l2 22l303 80l-4 -305h6q56 155 121 231t153 76q55 0 93.5 -33t38.5 -79q0 -47 -30.5 -81t-80.5 -34q-43 0 -77.5 29t-41.5 82q-102 -32 -180 -275v-455q0 -14 18.5 -20.5t77.5 -9.5l70 -2l6 -31
h-473zM385 1001l-272 398h22l264 -225h4l263 225h22l-272 -398h-31z" />
    <glyph glyph-name="Sacute" unicode="&#x15a;" horiz-adv-x="1026" 
d="M440 1417l191 383h198l-366 -383h-23zM485 -29q-166 -3 -389 68l-14 323h35l65 -167q52 -93 134.5 -139t181.5 -46q126 1 203 80t77 197q0 116 -74 181t-227 118q-83 30 -142 60t-111 73.5t-78.5 103t-26.5 135.5q0 64 26.5 125.5t76 112t129.5 81.5t177 32
q123 0 271 -39l84 26l4 -356h-33l-111 256q-111 72 -223 72q-105 0 -172 -65t-67 -159q0 -57 21.5 -101t65.5 -77t89.5 -54.5t115.5 -47.5q93 -33 156.5 -66.5t117.5 -80t80.5 -108.5t26.5 -142q0 -72 -33.5 -142t-92 -127t-149 -92t-194.5 -35z" />
    <glyph glyph-name="sacute" unicode="&#x15b;" horiz-adv-x="759" 
d="M281 1018l190 383h199l-367 -383h-22zM348 -29q-147 0 -270 47l-17 261l39 2l45 -119q38 -72 95 -113t127 -41q82 0 136 48.5t54 121.5q0 70 -56 115.5t-163 83.5q-47 18 -77 31.5t-67 37.5t-58.5 50t-36.5 65.5t-15 87.5q0 113 86 187.5t221 74.5q106 0 193 -34l65 22
l10 -258l-38 -2l-91 178q-70 57 -145 57q-77 0 -120.5 -40.5t-43.5 -106.5q0 -36 13 -63t45 -49t63.5 -36t89.5 -36q49 -18 83.5 -33.5t72 -40.5t60 -52.5t37.5 -67.5t15 -89q0 -119 -94.5 -204t-257.5 -85z" />
    <glyph glyph-name="Scircumflex" unicode="&#x15c;" horiz-adv-x="1026" 
d="M238 1401l272 397h31l272 -397h-25l-260 225h-4l-264 -225h-22zM485 -29q-166 -3 -389 68l-14 323h35l65 -167q52 -93 134.5 -139t181.5 -46q126 1 203 80t77 197q0 116 -74 181t-227 118q-83 30 -142 60t-111 73.5t-78.5 103t-26.5 135.5q0 64 26.5 125.5t76 112
t129.5 81.5t177 32q123 0 271 -39l84 26l4 -356h-33l-111 256q-111 72 -223 72q-105 0 -172 -65t-67 -159q0 -57 21.5 -101t65.5 -77t89.5 -54.5t115.5 -47.5q93 -33 156.5 -66.5t117.5 -80t80.5 -108.5t26.5 -142q0 -72 -33.5 -142t-92 -127t-149 -92t-194.5 -35z" />
    <glyph glyph-name="scircumflex" unicode="&#x15d;" horiz-adv-x="759" 
d="M102 1001l273 398h31l272 -398h-25l-260 226h-4l-264 -226h-23zM348 -29q-147 0 -270 47l-17 261l39 2l45 -119q38 -72 95 -113t127 -41q82 0 136 48.5t54 121.5q0 70 -56 115.5t-163 83.5q-47 18 -77 31.5t-67 37.5t-58.5 50t-36.5 65.5t-15 87.5q0 113 86 187.5
t221 74.5q106 0 193 -34l65 22l10 -258l-38 -2l-91 178q-70 57 -145 57q-77 0 -120.5 -40.5t-43.5 -106.5q0 -36 13 -63t45 -49t63.5 -36t89.5 -36q49 -18 83.5 -33.5t72 -40.5t60 -52.5t37.5 -67.5t15 -89q0 -119 -94.5 -204t-257.5 -85z" />
    <glyph glyph-name="Scedilla" unicode="&#x15e;" horiz-adv-x="1026" 
d="M485 -29q-166 -3 -389 68l-14 323h35l65 -167q52 -93 134.5 -139t181.5 -46q126 1 203 80t77 197q0 116 -74 181t-227 118q-83 30 -142 60t-111 73.5t-78.5 103t-26.5 135.5q0 64 26.5 125.5t76 112t129.5 81.5t177 32q123 0 271 -39l84 26l4 -356h-33l-111 256
q-111 72 -223 72q-105 0 -172 -65t-67 -159q0 -57 21.5 -101t65.5 -77t89.5 -54.5t115.5 -47.5q93 -33 156.5 -66.5t117.5 -80t80.5 -108.5t26.5 -142q0 -141 -116 -259t-301 -135l-93 -102q129 15 215 -30t86 -132q0 -59 -34.5 -104t-98 -74.5t-132.5 -47t-158 -30.5
l-11 23q157 30 235.5 72t78.5 112q0 59 -47.5 87t-126.5 28q-62 0 -134 -21v23l177 194h-9z" />
    <glyph glyph-name="scedilla" unicode="&#x15f;" horiz-adv-x="759" 
d="M348 -29q-147 0 -270 47l-17 261l39 2l45 -119q38 -72 95 -113t127 -41q82 0 136 48.5t54 121.5q0 70 -56 115.5t-163 83.5q-47 18 -77 31.5t-67 37.5t-58.5 50t-36.5 65.5t-15 87.5q0 113 86 187.5t221 74.5q106 0 193 -34l65 22l10 -258l-38 -2l-91 178q-70 57 -145 57
q-77 0 -120.5 -40.5t-43.5 -106.5q0 -36 13 -63t45 -49t63.5 -36t89.5 -36q49 -18 83.5 -33.5t72 -40.5t60 -52.5t37.5 -67.5t15 -89q0 -108 -78 -189.5t-214 -95.5l-95 -104q129 15 215 -30t86 -132q0 -59 -34.5 -104t-98.5 -74.5t-132.5 -47t-158.5 -30.5l-10 23
q157 30 235.5 72t78.5 112q0 58 -48 86.5t-127 28.5q-61 0 -133 -21v23l176 194h-14z" />
    <glyph glyph-name="Scaron" unicode="&#x160;" horiz-adv-x="1026" 
d="M485 -29q-166 -3 -389 68l-14 323h35l65 -167q52 -93 134.5 -139t181.5 -46q126 1 203 80t77 197q0 116 -74 181t-227 118q-83 30 -142 60t-111 73.5t-78.5 103t-26.5 135.5q0 64 26.5 125.5t76 112t129.5 81.5t177 32q123 0 271 -39l84 26l4 -356h-33l-111 256
q-111 72 -223 72q-105 0 -172 -65t-67 -159q0 -57 21.5 -101t65.5 -77t89.5 -54.5t115.5 -47.5q93 -33 156.5 -66.5t117.5 -80t80.5 -108.5t26.5 -142q0 -72 -33.5 -142t-92 -127t-149 -92t-194.5 -35zM514 1372l-272 397h22l264 -225h4l263 225h22l-272 -397h-31z" />
    <glyph glyph-name="scaron" unicode="&#x161;" horiz-adv-x="759" 
d="M348 -29q-147 0 -270 47l-17 261l39 2l45 -119q38 -72 95 -113t127 -41q82 0 136 48.5t54 121.5q0 70 -56 115.5t-163 83.5q-47 18 -77 31.5t-67 37.5t-58.5 50t-36.5 65.5t-15 87.5q0 113 86 187.5t221 74.5q106 0 193 -34l65 22l10 -258l-38 -2l-91 178q-70 57 -145 57
q-77 0 -120.5 -40.5t-43.5 -106.5q0 -36 13 -63t45 -49t63.5 -36t89.5 -36q49 -18 83.5 -33.5t72 -40.5t60 -52.5t37.5 -67.5t15 -89q0 -119 -94.5 -204t-257.5 -85zM365 973l-273 397h23l264 -225h4l262 225h23l-273 -397h-30z" />
    <glyph glyph-name="Tcommaaccent" unicode="&#x162;" horiz-adv-x="1323" 
d="M539 -561l-15 16q66 18 112 69.5t46 113.5q0 73 -56.5 103t-95.5 3q-17 46 14.5 88.5t100.5 42.5q68 0 113 -44.5t45 -115.5q0 -89 -80 -170.5t-184 -105.5zM358 0l7 31l108 8q90 8 90 35v1169h-61q-75 -3 -137 -24.5t-106 -59t-75 -79.5t-57 -95l-27 -84h-41l64 379
h1091l39 -379h-39l-22 78q-56 133 -138 196.5t-231 67.5h-65v-1175q0 -13 19.5 -19t84.5 -12l94 -6l7 -31h-605z" />
    <glyph glyph-name="tcommaaccent" unicode="&#x163;" horiz-adv-x="679" 
d="M279 -561l-15 16q66 18 112 69.5t46 113.5q0 73 -56.5 103t-95.5 3q-17 46 14.5 88.5t100.5 42.5q68 0 113 -44.5t45 -115.5q0 -89 -80 -170.5t-184 -105.5zM379 -29q-106 0 -163 58.5t-56 179.5l12 579l-164 5l6 34l111 86l197 158l24 -6l-2 -182h315l-28 -86h-287
l-14 -568q-3 -147 151 -147q95 0 172 61l11 -20q-148 -152 -285 -152z" />
    <glyph glyph-name="Tcaron" unicode="&#x164;" horiz-adv-x="1323" 
d="M647 1401l-272 397h22l265 -225h4l262 225h22l-272 -397h-31zM358 0l7 31l108 8q90 8 90 35v1169h-61q-75 -3 -137 -24.5t-106 -59t-75 -79.5t-57 -95l-27 -84h-41l64 379h1091l39 -379h-39l-22 78q-56 133 -138 196.5t-231 67.5h-65v-1175q0 -13 19.5 -19t84.5 -12
l94 -6l7 -31h-605z" />
    <glyph glyph-name="tcaron" unicode="&#x165;" horiz-adv-x="702" 
d="M461 936l-19 12q58 31 98 82.5t40 104.5q0 30 -14 52.5t-33.5 34t-39 18.5t-33.5 9.5t-14 3.5q0 37 27 66t76 29q56 0 96.5 -42t40.5 -106q0 -78 -61.5 -148.5t-163.5 -115.5zM379 -29q-106 0 -163 58.5t-56 179.5l12 579l-164 5l6 34l111 86l197 158l24 -6l-2 -182h315
l-28 -86h-287l-14 -568q-3 -147 151 -147q95 0 172 61l11 -20q-148 -152 -285 -152z" />
    <glyph glyph-name="Umacron" unicode="&#x16a;" horiz-adv-x="1421" 
d="M727 -29q-264 0 -384 111t-120 362v770q0 8 -6.5 12.5t-29.5 8.5t-68 8l-82 8l-6 31h579l-6 -31l-96 -8q-90 -8 -90 -35v-719q0 -226 95 -331t286 -105q176 0 276.5 114.5t100.5 330.5l-2 567q0 99 -30.5 134t-117.5 44l-57 8l-6 31h444l-6 -31l-60 -8q-68 -8 -96 -44.5
t-28 -137.5l-5 -574q-2 -246 -119.5 -381t-365.5 -135zM504 1479l12 61h512l-8 -61h-516z" />
    <glyph glyph-name="umacron" unicode="&#x16b;" horiz-adv-x="1011" 
d="M707 -33v170h-5q-82 -74 -162.5 -120t-170.5 -46q-99 0 -164 62q-66 69 -66 213l2 571q0 15 -15.5 20t-84.5 11l-35 4l-6 31h315l-6 -586q0 -106 45 -152.5t140 -46.5q116 0 211 80v590q0 46 -18.5 60.5t-78.5 19.5l-43 4l-6 31h318v-740q0 -28 6 -39t22 -16l111 -27
l-2 -22zM219 1079l12 62h512l-8 -62h-516z" />
    <glyph glyph-name="Ubreve" unicode="&#x16c;" horiz-adv-x="1421" 
d="M727 -29q-264 0 -384 111t-120 362v770q0 8 -6.5 12.5t-29.5 8.5t-68 8l-82 8l-6 31h579l-6 -31l-96 -8q-90 -8 -90 -35v-719q0 -226 95 -331t286 -105q176 0 276.5 114.5t100.5 330.5l-2 567q0 99 -30.5 134t-117.5 44l-57 8l-6 31h444l-6 -31l-60 -8q-68 -8 -96 -44.5
t-28 -137.5l-5 -574q-2 -246 -119.5 -381t-365.5 -135zM780 1407q-44 0 -79.5 14t-61.5 43.5t-44.5 60.5t-34.5 80.5t-25 86.5t-21 94h21q47 -131 105 -197.5t142 -66.5t142.5 66.5t105.5 197.5h21q-10 -48 -17.5 -80.5t-21 -76t-27 -72t-34 -59.5t-44 -49t-56.5 -30
t-71 -12z" />
    <glyph glyph-name="ubreve" unicode="&#x16d;" horiz-adv-x="1011" 
d="M707 -33v170h-5q-82 -74 -162.5 -120t-170.5 -46q-99 0 -164 62q-66 69 -66 213l2 571q0 15 -15.5 20t-84.5 11l-35 4l-6 31h315l-6 -586q0 -106 45 -152.5t140 -46.5q116 0 211 80v590q0 46 -18.5 60.5t-78.5 19.5l-43 4l-6 31h318v-740q0 -28 6 -39t22 -16l111 -27
l-2 -22zM494 1008q-44 0 -79.5 14t-61.5 43t-45 60.5t-34.5 80t-25 86t-21.5 94.5h21q47 -131 105.5 -197.5t142.5 -66.5t142 66.5t105 197.5h21q-10 -49 -17.5 -81t-20.5 -75.5t-26.5 -72t-34 -59.5t-44.5 -49t-56.5 -29.5t-70.5 -11.5z" />
    <glyph glyph-name="Uring" unicode="&#x16e;" horiz-adv-x="1421" 
d="M774 1432q-82 0 -132 53t-50 131q0 76 50 130t132 54t132 -54t50 -130q0 -78 -50 -131t-132 -53zM774 1460q67 0 107.5 45.5t40.5 110.5q0 64 -40.5 108.5t-107.5 44.5q-68 0 -108.5 -44.5t-40.5 -108.5q0 -66 40.5 -111t108.5 -45zM727 -29q-264 0 -384 111t-120 362
v770q0 8 -6.5 12.5t-29.5 8.5t-68 8l-82 8l-6 31h579l-6 -31l-96 -8q-90 -8 -90 -35v-719q0 -226 95 -331t286 -105q176 0 276.5 114.5t100.5 330.5l-2 567q0 99 -30.5 134t-117.5 44l-57 8l-6 31h444l-6 -31l-60 -8q-68 -8 -96 -44.5t-28 -137.5l-5 -574
q-2 -246 -119.5 -381t-365.5 -135z" />
    <glyph glyph-name="uring" unicode="&#x16f;" horiz-adv-x="1011" 
d="M707 -33v170h-5q-82 -74 -162.5 -120t-170.5 -46q-99 0 -164 62q-66 69 -66 213l2 571q0 15 -15.5 20t-84.5 11l-35 4l-6 31h315l-6 -586q0 -106 45 -152.5t140 -46.5q116 0 211 80v590q0 46 -18.5 60.5t-78.5 19.5l-43 4l-6 31h318v-740q0 -28 6 -39t22 -16l111 -27
l-2 -22zM479 1032q-82 0 -132 53.5t-50 131.5q0 76 50 130t132 54t132.5 -54t50.5 -130q0 -78 -50.5 -131.5t-132.5 -53.5zM479 1061q67 0 107.5 45.5t40.5 110.5q0 64 -40.5 108.5t-107.5 44.5q-68 0 -108.5 -44.5t-40.5 -108.5q0 -66 40.5 -111t108.5 -45z" />
    <glyph glyph-name="Uhungarumlaut" unicode="&#x170;" horiz-adv-x="1421" 
d="M727 -29q-264 0 -384 111t-120 362v770q0 8 -6.5 12.5t-29.5 8.5t-68 8l-82 8l-6 31h579l-6 -31l-96 -8q-90 -8 -90 -35v-719q0 -226 95 -331t286 -105q176 0 276.5 114.5t100.5 330.5l-2 567q0 99 -30.5 134t-117.5 44l-57 8l-6 31h444l-6 -31l-60 -8q-68 -8 -96 -44.5
t-28 -137.5l-5 -574q-2 -246 -119.5 -381t-365.5 -135zM860 1417l182 383h183l-338 -383h-27zM549 1417l182 383h182l-338 -383h-26z" />
    <glyph glyph-name="uhungarumlaut" unicode="&#x171;" horiz-adv-x="1011" 
d="M707 -33v170h-5q-82 -74 -162.5 -120t-170.5 -46q-99 0 -164 62q-66 69 -66 213l2 571q0 15 -15.5 20t-84.5 11l-35 4l-6 31h315l-6 -586q0 -106 45 -152.5t140 -46.5q116 0 211 80v590q0 46 -18.5 60.5t-78.5 19.5l-43 4l-6 31h318v-740q0 -28 6 -39t22 -16l111 -27
l-2 -22zM264 1018l182 383h183l-338 -383h-27zM575 1018l183 383h182l-338 -383h-27z" />
    <glyph glyph-name="Uogonek" unicode="&#x172;" horiz-adv-x="1421" 
d="M887 -473q-80 0 -131 46t-51 122q0 81 51 162.5t127 130.5q-77 -17 -156 -17q-264 0 -384 111t-120 362v770q0 8 -6.5 12.5t-29.5 8.5t-68 8l-82 8l-6 31h579l-6 -31l-96 -8q-90 -8 -90 -35v-719q0 -226 95 -331t286 -105q176 0 276.5 114.5t100.5 330.5l-2 567
q0 99 -30.5 134t-117.5 44l-55 8l-6 31h442l-6 -31l-60 -8q-68 -8 -96 -44t-28 -136l-5 -576q-2 -174 -58 -290.5t-177 -182.5q-154 -86 -154 -258q0 -63 35 -99t98 -36q61 0 109 51l12 -12q-15 -46 -70.5 -89.5t-119.5 -43.5z" />
    <glyph glyph-name="uogonek" unicode="&#x173;" horiz-adv-x="1011" 
d="M821 -473q-80 0 -132 49t-52 127q0 95 66.5 174t162.5 127l-159 -37v170h-5q-82 -74 -162.5 -120t-170.5 -46q-99 0 -164 62q-66 69 -66 213l2 571q0 15 -15.5 20t-84.5 11l-35 4l-6 31h315l-6 -586q0 -106 45 -152.5t140 -46.5q116 0 211 80v590q0 46 -18.5 60.5
t-78.5 19.5l-43 4l-6 31h318v-740q0 -28 6 -39t22 -16l111 -27l-2 -22q-122 -40 -189 -114.5t-67 -174.5q0 -63 35.5 -96t99.5 -33q60 0 108 51l13 -12q-15 -46 -72 -89.5t-121 -43.5z" />
    <glyph glyph-name="Wcircumflex" unicode="&#x174;" horiz-adv-x="1986" 
d="M729 1401l272 397h31l273 -397h-25l-260 225h-4l-264 -225h-23zM606 -23l-387 1074q-44 123 -68.5 153.5t-91.5 36.5l-73 8l-6 31h569l-6 -31l-76 -6q-32 -2 -48 -7t-26.5 -14t-8.5 -31t9.5 -50t24.5 -78l287 -832h6l276 715l-37 105q-46 122 -71.5 153t-90.5 37l-73 8
l-6 31h565l-6 -31l-76 -6q-27 -2 -43 -4.5t-25.5 -12t-12.5 -19t1 -33t11 -46t22 -65.5l293 -827h6l231 653q28 80 42.5 127.5t21 89.5t2.5 62.5t-22.5 37.5t-44.5 23.5t-72 11.5l-54 8l-6 31h463l-6 -31l-37 -6q-42 -7 -65 -17.5t-51 -50.5t-54.5 -104t-71.5 -190
l-323 -904h-51l-332 914h-4l-353 -914h-51z" />
    <glyph glyph-name="wcircumflex" unicode="&#x175;" horiz-adv-x="1464" 
d="M459 1001l272 398h31l272 -398h-24l-260 226h-5l-264 -226h-22zM426 -20l-281 729q-32 87 -52.5 110t-69.5 27l-39 4l-7 31h449l-4 -31l-39 -4q-56 -3 -69.5 -20t5.5 -68l209 -555l185 446l-39 94q-27 62 -46.5 79.5t-72.5 23.5l-35 4l-6 31h444l-4 -31l-39 -4
q-50 -3 -62.5 -23.5t3.5 -64.5l227 -559l148 428q43 121 28 165.5t-106 53.5l-33 4l-6 31h361l-7 -31l-32 -4q-62 -4 -86 -39t-75 -182q-1 -2 -1.5 -3.5t-1.5 -3.5l-225 -638h-50l-262 620l-258 -620h-51z" />
    <glyph glyph-name="Ycircumflex" unicode="&#x176;" horiz-adv-x="1265" 
d="M334 0l6 31l109 8q90 8 90 35v487l-320 551q-40 70 -73.5 97.5t-88.5 31.5l-61 8l-6 31h559l-6 -31l-58 -4q-77 -6 -80.5 -45.5t54.5 -136.5l243 -432h5l192 356q40 74 57 117t15 73.5t-25 44.5t-72 21l-47 6l-6 31h430l-6 -31l-47 -6q-65 -10 -115.5 -58.5
t-124.5 -185.5l-225 -407v-524q0 -13 20.5 -19t86.5 -12l92 -6l6 -31h-604zM387 1401l272 397h31l273 -397h-25l-260 225h-4l-264 -225h-23z" />
    <glyph glyph-name="ycircumflex" unicode="&#x177;" horiz-adv-x="942" 
d="M199 -528q-54 0 -90.5 31t-36.5 77q0 43 29 73t73 30q87 0 121 -89q31 8 53.5 48t52.5 125l74 221h-2l-336 745q-32 71 -49.5 89t-64.5 22l-41 6l-7 31h449l-6 -31l-39 -4q-51 -3 -62 -24t11 -72l229 -531l154 426q42 122 29 157t-103 44l-37 4l-6 31h362l-6 -31l-39 -4
q-60 -6 -84 -40t-79 -183l-228 -609l-86 -268q-45 -142 -98 -208t-137 -66zM215 1001l272 398h31l273 -398h-25l-260 226h-4l-264 -226h-23z" />
    <glyph glyph-name="Ydieresis" unicode="&#x178;" horiz-adv-x="1265" 
d="M334 0l6 31l109 8q90 8 90 35v487l-320 551q-40 70 -73.5 97.5t-88.5 31.5l-61 8l-6 31h559l-6 -31l-58 -4q-77 -6 -80.5 -45.5t54.5 -136.5l243 -432h5l192 356q40 74 57 117t15 73.5t-25 44.5t-72 21l-47 6l-6 31h430l-6 -31l-47 -6q-65 -10 -115.5 -58.5
t-124.5 -185.5l-225 -407v-524q0 -13 20.5 -19t86.5 -12l92 -6l6 -31h-604zM831 1407q-53 0 -82.5 35.5t-29.5 77.5q0 43 30 80.5t82 37.5t81.5 -37.5t29.5 -80.5q0 -42 -29 -77.5t-82 -35.5zM451 1407q-53 0 -83 35.5t-30 77.5t30.5 80t82.5 38t81 -37.5t29 -80.5
q0 -42 -29 -77.5t-81 -35.5z" />
    <glyph glyph-name="Zacute" unicode="&#x179;" horiz-adv-x="1181" 
d="M504 1417l190 383h199l-367 -383h-22zM68 0v27l802 1208v6h-221q-106 0 -186 -14.5t-129 -37t-85.5 -61t-54.5 -73t-36 -86.5l-17 -66h-37l25 377h973v-31l-801 -1204v-6h250q78 0 140.5 7t108.5 18t83 32.5t61.5 42t47.5 55t37.5 64t33.5 76.5l22 72h43l-57 -406h-1003z
" />
    <glyph glyph-name="zacute" unicode="&#x17a;" horiz-adv-x="884" 
d="M373 1018l190 383h199l-367 -383h-22zM45 0v27l557 817h-94q-74 0 -126 -8.5t-87.5 -23t-61.5 -43t-42.5 -59t-36.5 -81.5l-25 -74h-39v326h719v-29l-555 -815l100 -2q119 1 198.5 27.5t123.5 69t84 116.5l43 78h37l-70 -326h-725z" />
    <glyph glyph-name="Zdotaccent" unicode="&#x17b;" horiz-adv-x="1181" 
d="M68 0v27l802 1208v6h-221q-106 0 -186 -14.5t-129 -37t-85.5 -61t-54.5 -73t-36 -86.5l-17 -66h-37l25 377h973v-31l-801 -1204v-6h250q78 0 140.5 7t108.5 18t83 32.5t61.5 42t47.5 55t37.5 64t33.5 76.5l22 72h43l-57 -406h-1003zM604 1487q-53 0 -82.5 35t-29.5 77
q0 44 29.5 81.5t82.5 37.5q52 0 81.5 -37.5t29.5 -81.5q0 -42 -29 -77t-82 -35z" />
    <glyph glyph-name="zdotaccent" unicode="&#x17c;" horiz-adv-x="884" 
d="M45 0v27l557 817h-94q-74 0 -126 -8.5t-87.5 -23t-61.5 -43t-42.5 -59t-36.5 -81.5l-25 -74h-39v326h719v-29l-555 -815l100 -2q119 1 198.5 27.5t123.5 69t84 116.5l43 78h37l-70 -326h-725zM442 1087q-53 0 -82.5 35.5t-29.5 77.5q0 44 29.5 81.5t82.5 37.5
q52 0 81.5 -37.5t29.5 -81.5q0 -42 -29 -77.5t-82 -35.5z" />
    <glyph glyph-name="Zcaron" unicode="&#x17d;" horiz-adv-x="1181" 
d="M68 0v27l802 1208v6h-221q-106 0 -186 -14.5t-129 -37t-85.5 -61t-54.5 -73t-36 -86.5l-17 -66h-37l25 377h973v-31l-801 -1204v-6h250q78 0 140.5 7t108.5 18t83 32.5t61.5 42t47.5 55t37.5 64t33.5 76.5l22 72h43l-57 -406h-1003zM588 1358l-273 397h23l264 -225h4
l262 225h23l-273 -397h-30z" />
    <glyph glyph-name="zcaron" unicode="&#x17e;" horiz-adv-x="884" 
d="M45 0v27l557 817h-94q-74 0 -126 -8.5t-87.5 -23t-61.5 -43t-42.5 -59t-36.5 -81.5l-25 -74h-39v326h719v-29l-555 -815l100 -2q119 1 198.5 27.5t123.5 69t84 116.5l43 78h37l-70 -326h-725zM424 973l-272 397h22l264 -225h4l263 225h22l-272 -397h-31z" />
    <glyph glyph-name="florin" unicode="&#x192;" horiz-adv-x="1021" 
d="M145 -111q-69 0 -115 33t-46 86q0 40 29 71.5t73 31.5q56 0 88 -51.5t6 -110.5q56 2 72 2q48 12 87 129.5t101 421.5l41 233l-213 6l23 66l213 16q63 260 182 379q46 47 111.5 75t130.5 28q79 0 125.5 -34.5t46.5 -90.5q0 -42 -33.5 -75.5t-73.5 -33.5q-64 0 -86.5 55.5
t17.5 114.5q-57 8 -80 8q-26 -5 -48.5 -31t-38.5 -60.5t-33.5 -95.5t-29 -111t-28.5 -132l247 -2l2 -80h-262l-43 -178q-49 -221 -105 -361.5t-138 -224.5q-41 -44 -101.5 -64t-120.5 -20z" />
    <glyph glyph-name="Aringacute" unicode="&#x1fa;" horiz-adv-x="1263" 
d="M506 1620l190 383h199l-367 -383h-22zM741 526h-374l-68 -198q-16 -48 -26 -79t-17.5 -62t-9 -49t2 -35.5t12.5 -26.5t25.5 -17.5t37 -12.5t51.5 -7l55 -8l6 -31h-452l6 31l39 6q32 5 50.5 10.5t41.5 24.5t38 44t40 79t49 119t63 175l275 768q-63 18 -98 66t-35 111
q0 76 50 129t132 53t132 -53t50 -129q0 -59 -31 -105t-84 -65l336 -1033q37 -118 64 -153t88 -39l72 -8l6 -31h-574l6 31l76 8q48 3 66.5 25.5t14 64t-29.5 119.5zM383 571h344l-158 516h-6zM635 1278q67 0 108 44.5t41 109.5q0 64 -41 109.5t-108 45.5q-68 0 -109 -45.5
t-41 -109.5q0 -65 41 -109.5t109 -44.5z" />
    <glyph glyph-name="aringacute" unicode="&#x1fb;" horiz-adv-x="864" 
d="M266 1419l191 383h198l-366 -383h-23zM426 1032q-82 0 -132 53.5t-50 131.5q0 76 50 130t132 54t132 -54t50 -130q0 -78 -50 -131.5t-132 -53.5zM684 -25q-129 0 -141 152l-4 2q-65 -70 -126.5 -111t-131.5 -41q-91 0 -156.5 61t-65.5 148q0 74 43 130t153 107t296 93
l2 51q5 281 -201 281q-50 0 -101.5 -21t-51.5 -36q0 -5 12.5 -21.5t25.5 -41t13 -48.5q0 -37 -28 -63.5t-72 -26.5t-73.5 25t-29.5 61q0 51 67.5 107t163.5 92t177 36q161 0 221.5 -74.5t50.5 -277.5l-18 -379q-3 -49 13.5 -74.5t49.5 -25.5q15 0 32.5 8.5t26.5 16t31 26.5
l19 -18q-104 -138 -197 -138zM426 1061q67 0 107 45.5t40 110.5q0 64 -40 108.5t-107 44.5q-68 0 -109 -44.5t-41 -108.5q0 -66 41 -111t109 -45zM369 86q89 0 170 78l12 319q-96 -22 -161 -49.5t-98.5 -59.5t-47 -63.5t-13.5 -70.5q0 -67 41.5 -110.5t96.5 -43.5z" />
    <glyph glyph-name="AEacute" unicode="&#x1fc;" horiz-adv-x="1724" 
d="M-106 0l6 31l69 10q44 7 79 33t89.5 102.5t136.5 222.5l418 738q31 49 12.5 72t-110.5 30l-72 6l-6 35h1053l18 -393h-35l-22 78q-3 11 -10 31q-20 61 -31 88.5t-37.5 65t-62.5 52.5t-97.5 27t-150.5 12h-158v-565l61 2q152 5 202 28t77 107l20 61l33 -2l-43 -436l-30 2
l-7 60q-2 31 -6.5 51t-17.5 36t-29 24.5t-48.5 14.5t-67.5 8.5t-95 4.5l-49 2v-594l156 -6q69 0 125.5 8.5t97 21t74.5 35.5t55 43t42 54.5t33 59.5t29 67l23 75l39 -2l-62 -401h-995l6 31l105 12q82 8 82 37v446h-396l-106 -190q-88 -163 -88 -224t86 -73l61 -8l6 -31h-462
zM422 571h371v648h-9zM956 1417l191 383h199l-367 -383h-23z" />
    <glyph glyph-name="aeacute" unicode="&#x1fd;" horiz-adv-x="1386" 
d="M633 1018l190 383h199l-367 -383h-22zM281 -29q-91 0 -156.5 62t-65.5 149q0 74 42 131t153 109.5t297 93.5l2 53q7 145 -47.5 212t-153.5 67q-50 0 -101.5 -21t-51.5 -36q0 -5 12.5 -21.5t25.5 -41t13 -48.5q0 -37 -28 -63.5t-72 -26.5t-73.5 25t-29.5 61q0 51 66 107
t164.5 92t187.5 36q91 0 146 -28.5t81 -94.5q126 123 305 123q152 0 240 -79t88 -209q0 -24 -6 -54q-580 4 -588 4q-4 -40 -4 -84q0 -174 89.5 -281.5t225.5 -107.5q87 0 153 32.5t120 113.5l22 -13q-145 -262 -383 -262q-117 0 -210 58t-142 153q-108 -113 -176 -162
t-145 -49zM735 606q12 0 31.5 0.5t73 1t100 0.5t95 0.5t77 1t27.5 0.5q3 113 -39 188.5t-127 75.5q-83 0 -151 -78t-87 -190zM369 80q56 0 101 28.5t116 102.5q-41 100 -41 213q0 21 4 57q-98 -25 -162.5 -53t-97.5 -60.5t-45.5 -63.5t-12.5 -71q0 -65 42 -109t96 -44z" />
    <glyph glyph-name="Oslashacute" unicode="&#x1fe;" horiz-adv-x="1505" 
d="M1116 1219q150 -87 236 -236.5t86 -339.5q0 -130 -54.5 -253.5t-146.5 -216t-222 -148.5t-272 -56q-164 0 -313 68l-106 -187h-45l116 203q-152 85 -239.5 236t-87.5 344q0 129 54.5 252t146 216.5t221 150.5t270.5 57q177 0 321 -72l101 174h45zM449 145l583 1008
q-126 117 -287 117q-206 0 -334 -171t-128 -460q0 -155 44 -282t122 -212zM1061 1124l-584 -1007q121 -109 279 -109q209 0 337 170t128 461q0 150 -42 274t-118 211zM745 1403l191 383h199l-367 -383h-23z" />
    <glyph glyph-name="oslashacute" unicode="&#x1ff;" horiz-adv-x="1032" 
d="M256 41q-99 62 -154 166t-55 231q0 198 136.5 335.5t338.5 137.5q119 0 211 -47l191 330h39l-199 -344q103 -59 162 -164t59 -233q0 -133 -61 -243t-170.5 -174.5t-243.5 -64.5q-123 0 -225 54l-166 -287h-39zM709 756l-375 -647q8 -12 22 -27q70 -74 164 -74
q79 0 140 56.5t92.5 148.5t31.5 201q0 218 -75 342zM313 141l375 645l-14 17q-71 71 -164 71q-82 0 -142.5 -57.5t-90 -146.5t-29.5 -195q0 -218 65 -334zM467 1004l190 382h199l-367 -382h-22z" />
    <glyph glyph-name="Scommaaccent" unicode="&#x218;" horiz-adv-x="1026" 
d="M395 -561l-14 16q66 18 112 69.5t46 113.5q0 73 -56.5 103t-95.5 3q-17 46 14.5 88.5t100.5 42.5q68 0 112.5 -44.5t44.5 -115.5q0 -89 -80 -170.5t-184 -105.5zM485 -29q-166 -3 -389 68l-14 323h35l65 -167q52 -93 134.5 -139t181.5 -46q126 1 203 80t77 197
q0 116 -74 181t-227 118q-83 30 -142 60t-111 73.5t-78.5 103t-26.5 135.5q0 64 26.5 125.5t76 112t129.5 81.5t177 32q123 0 271 -39l84 26l4 -356h-33l-111 256q-111 72 -223 72q-105 0 -172 -65t-67 -159q0 -57 21.5 -101t65.5 -77t89.5 -54.5t115.5 -47.5
q93 -33 156.5 -66.5t117.5 -80t80.5 -108.5t26.5 -142q0 -72 -33.5 -142t-92 -127t-149 -92t-194.5 -35z" />
    <glyph glyph-name="scommaaccent" unicode="&#x219;" horiz-adv-x="759" 
d="M258 -561l-14 16q66 18 111.5 69.5t45.5 113.5q0 73 -56 103t-95 3q-17 46 14.5 88.5t100.5 42.5q68 0 112.5 -44.5t44.5 -115.5q0 -89 -80 -170.5t-184 -105.5zM348 -29q-147 0 -270 47l-17 261l39 2l45 -119q38 -72 95 -113t127 -41q82 0 136 48.5t54 121.5
q0 70 -56 115.5t-163 83.5q-47 18 -77 31.5t-67 37.5t-58.5 50t-36.5 65.5t-15 87.5q0 113 86 187.5t221 74.5q106 0 193 -34l65 22l10 -258l-38 -2l-91 178q-70 57 -145 57q-77 0 -120.5 -40.5t-43.5 -106.5q0 -36 13 -63t45 -49t63.5 -36t89.5 -36q49 -18 83.5 -33.5
t72 -40.5t60 -52.5t37.5 -67.5t15 -89q0 -119 -94.5 -204t-257.5 -85z" />
    <glyph glyph-name="uni021A" unicode="&#x21a;" horiz-adv-x="1323" 
d="M539 -561l-15 16q66 18 112 69.5t46 113.5q0 73 -56.5 103t-95.5 3q-17 46 14.5 88.5t100.5 42.5q68 0 113 -44.5t45 -115.5q0 -89 -80 -170.5t-184 -105.5zM358 0l7 31l108 8q90 8 90 35v1169h-61q-75 -3 -137 -24.5t-106 -59t-75 -79.5t-57 -95l-27 -84h-41l64 379
h1091l39 -379h-39l-22 78q-56 133 -138 196.5t-231 67.5h-65v-1175q0 -13 19.5 -19t84.5 -12l94 -6l7 -31h-605z" />
    <glyph glyph-name="uni021B" unicode="&#x21b;" horiz-adv-x="679" 
d="M279 -561l-15 16q66 18 112 69.5t46 113.5q0 73 -56.5 103t-95.5 3q-17 46 14.5 88.5t100.5 42.5q68 0 113 -44.5t45 -115.5q0 -89 -80 -170.5t-184 -105.5zM379 -29q-106 0 -163 58.5t-56 179.5l12 579l-164 5l6 34l111 86l197 158l24 -6l-2 -182h315l-28 -86h-287
l-14 -568q-3 -147 151 -147q95 0 172 61l11 -20q-148 -152 -285 -152z" />
    <glyph glyph-name="dotlessj" unicode="&#x237;" horiz-adv-x="477" 
d="M-18 -518q-68 0 -109 31t-41 81q0 43 30.5 72t71.5 29q51 0 90 -38t60 -101q78 28 78 260v817q0 93 -15.5 121.5t-70.5 40.5l-47 10l2 22l301 80v-962q-3 -118 -58.5 -227t-135.5 -172.5t-156 -63.5z" />
    <glyph glyph-name="circumflex" unicode="&#x2c6;" horiz-adv-x="776" 
d="M100 1001l273 398h30l273 -398h-25l-260 226h-4l-264 -226h-23z" />
    <glyph glyph-name="caron" unicode="&#x2c7;" horiz-adv-x="776" 
d="M373 1001l-273 398h23l264 -225h4l262 225h23l-273 -398h-30z" />
    <glyph glyph-name="breve" unicode="&#x2d8;" horiz-adv-x="776" 
d="M389 1008q-44 0 -79.5 14t-61.5 43.5t-44.5 60t-34.5 80t-25 86.5t-21 94h20q47 -131 105.5 -197.5t142.5 -66.5t142.5 66.5t105.5 197.5h20q-10 -49 -17.5 -81t-20.5 -75.5t-26.5 -72t-34 -59.5t-44.5 -49t-56.5 -29.5t-70.5 -11.5z" />
    <glyph glyph-name="dotaccent" unicode="&#x2d9;" horiz-adv-x="776" 
d="M389 1087q-53 0 -83 35.5t-30 77.5q0 44 30 81.5t83 37.5q52 0 81.5 -37.5t29.5 -81.5q0 -42 -29 -77.5t-82 -35.5z" />
    <glyph glyph-name="ring" unicode="&#x2da;" horiz-adv-x="776" 
d="M389 1032q-82 0 -132 53.5t-50 131.5q0 76 50 130t132 54t132 -54t50 -130q0 -78 -50 -131.5t-132 -53.5zM389 1061q67 0 107.5 45.5t40.5 110.5q0 64 -40.5 108.5t-107.5 44.5q-68 0 -108.5 -44.5t-40.5 -108.5q0 -66 40.5 -111t108.5 -45z" />
    <glyph glyph-name="ogonek" unicode="&#x2db;" horiz-adv-x="776" 
d="M410 -485q-82 0 -138.5 54.5t-56.5 133.5q0 59 29.5 114t76.5 96.5t96 71t99 48.5h47q-235 -116 -235 -291q0 -67 40.5 -107.5t110.5 -40.5q37 0 63.5 13.5t55.5 42.5l10 -21q-29 -43 -84 -78.5t-114 -35.5z" />
    <glyph glyph-name="tilde" unicode="&#x2dc;" horiz-adv-x="776" 
d="M541 1032q-43 0 -95.5 21t-93.5 45.5t-84.5 45.5t-70.5 21q-42 0 -65.5 -22t-35.5 -94h-24q15 122 52 174.5t112 52.5q41 0 94 -21t94 -45.5t85 -45.5t71 -21q41 0 64 23t36 94h25q-14 -121 -51.5 -174.5t-112.5 -53.5z" />
    <glyph glyph-name="hungarumlaut" unicode="&#x2dd;" horiz-adv-x="776" 
d="M455 1018l182 383h182l-338 -383h-26zM143 1018l183 383h182l-338 -383h-27z" />
    <glyph glyph-name="Wgrave" unicode="&#x1e80;" horiz-adv-x="1986" 
d="M606 -23l-387 1074q-44 123 -68.5 153.5t-91.5 36.5l-73 8l-6 31h569l-6 -31l-76 -6q-32 -2 -48 -7t-26.5 -14t-8.5 -31t9.5 -50t24.5 -78l287 -832h6l276 715l-37 105q-46 122 -71.5 153t-90.5 37l-73 8l-6 31h565l-6 -31l-76 -6q-27 -2 -43 -4.5t-25.5 -12t-12.5 -19
t1 -33t11 -46t22 -65.5l293 -827h6l231 653q28 80 42.5 127.5t21 89.5t2.5 62.5t-22.5 37.5t-44.5 23.5t-72 11.5l-54 8l-6 31h463l-6 -31l-37 -6q-42 -7 -65 -17.5t-51 -50.5t-54.5 -104t-71.5 -190l-323 -904h-51l-332 914h-4l-353 -914h-51zM1108 1417l-367 383h197
l190 -383h-20z" />
    <glyph glyph-name="wgrave" unicode="&#x1e81;" horiz-adv-x="1464" 
d="M426 -20l-281 729q-32 87 -52.5 110t-69.5 27l-39 4l-7 31h449l-4 -31l-39 -4q-56 -3 -69.5 -20t5.5 -68l209 -555l185 446l-39 94q-27 62 -46.5 79.5t-72.5 23.5l-35 4l-6 31h444l-4 -31l-39 -4q-50 -3 -62.5 -23.5t3.5 -64.5l227 -559l148 428q43 121 28 165.5
t-106 53.5l-33 4l-6 31h361l-7 -31l-32 -4q-62 -4 -86 -39t-75 -182q-1 -2 -1.5 -3.5t-1.5 -3.5l-225 -638h-50l-262 620l-258 -620h-51zM831 1018l-366 383h197l190 -383h-21z" />
    <glyph glyph-name="Wacute" unicode="&#x1e82;" horiz-adv-x="1986" 
d="M883 1417l190 383h199l-367 -383h-22zM606 -23l-387 1074q-44 123 -68.5 153.5t-91.5 36.5l-73 8l-6 31h569l-6 -31l-76 -6q-32 -2 -48 -7t-26.5 -14t-8.5 -31t9.5 -50t24.5 -78l287 -832h6l276 715l-37 105q-46 122 -71.5 153t-90.5 37l-73 8l-6 31h565l-6 -31l-76 -6
q-27 -2 -43 -4.5t-25.5 -12t-12.5 -19t1 -33t11 -46t22 -65.5l293 -827h6l231 653q28 80 42.5 127.5t21 89.5t2.5 62.5t-22.5 37.5t-44.5 23.5t-72 11.5l-54 8l-6 31h463l-6 -31l-37 -6q-42 -7 -65 -17.5t-51 -50.5t-54.5 -104t-71.5 -190l-323 -904h-51l-332 914h-4
l-353 -914h-51z" />
    <glyph glyph-name="wacute" unicode="&#x1e83;" horiz-adv-x="1464" 
d="M641 1018l190 383h199l-366 -383h-23zM426 -20l-281 729q-32 87 -52.5 110t-69.5 27l-39 4l-7 31h449l-4 -31l-39 -4q-56 -3 -69.5 -20t5.5 -68l209 -555l185 446l-39 94q-27 62 -46.5 79.5t-72.5 23.5l-35 4l-6 31h444l-4 -31l-39 -4q-50 -3 -62.5 -23.5t3.5 -64.5
l227 -559l148 428q43 121 28 165.5t-106 53.5l-33 4l-6 31h361l-7 -31l-32 -4q-62 -4 -86 -39t-75 -182q-1 -2 -1.5 -3.5t-1.5 -3.5l-225 -638h-50l-262 620l-258 -620h-51z" />
    <glyph glyph-name="Wdieresis" unicode="&#x1e84;" horiz-adv-x="1986" 
d="M1210 1464q-53 0 -82.5 35.5t-29.5 77.5q0 43 30 81t82 38t81.5 -38t29.5 -81q0 -42 -29 -77.5t-82 -35.5zM829 1464q-53 0 -82.5 35.5t-29.5 77.5q0 43 30 81t82 38t81.5 -38t29.5 -81q0 -42 -29 -77.5t-82 -35.5zM606 -23l-387 1074q-44 123 -68.5 153.5t-91.5 36.5
l-73 8l-6 31h569l-6 -31l-76 -6q-32 -2 -48 -7t-26.5 -14t-8.5 -31t9.5 -50t24.5 -78l287 -832h6l276 715l-37 105q-46 122 -71.5 153t-90.5 37l-73 8l-6 31h565l-6 -31l-76 -6q-27 -2 -43 -4.5t-25.5 -12t-12.5 -19t1 -33t11 -46t22 -65.5l293 -827h6l231 653
q28 80 42.5 127.5t21 89.5t2.5 62.5t-22.5 37.5t-44.5 23.5t-72 11.5l-54 8l-6 31h463l-6 -31l-37 -6q-42 -7 -65 -17.5t-51 -50.5t-54.5 -104t-71.5 -190l-323 -904h-51l-332 914h-4l-353 -914h-51z" />
    <glyph glyph-name="wdieresis" unicode="&#x1e85;" horiz-adv-x="1464" 
d="M930 1065q-53 0 -83 35.5t-30 77.5t30.5 80t82.5 38t81 -37.5t29 -80.5q0 -42 -29 -77.5t-81 -35.5zM549 1065q-53 0 -83 35.5t-30 77.5t30.5 80t82.5 38t81 -37.5t29 -80.5q0 -42 -29 -77.5t-81 -35.5zM426 -20l-281 729q-32 87 -52.5 110t-69.5 27l-39 4l-7 31h449
l-4 -31l-39 -4q-56 -3 -69.5 -20t5.5 -68l209 -555l185 446l-39 94q-27 62 -46.5 79.5t-72.5 23.5l-35 4l-6 31h444l-4 -31l-39 -4q-50 -3 -62.5 -23.5t3.5 -64.5l227 -559l148 428q43 121 28 165.5t-106 53.5l-33 4l-6 31h361l-7 -31l-32 -4q-62 -4 -86 -39t-75 -182
q-1 -2 -1.5 -3.5t-1.5 -3.5l-225 -638h-50l-262 620l-258 -620h-51z" />
    <glyph glyph-name="thinspace" unicode="&#x2009;" horiz-adv-x="122" 
 />
    <glyph glyph-name="endash" unicode="&#x2013;" horiz-adv-x="899" 
d="M23 434l6 90h845l-2 -90h-849z" />
    <glyph glyph-name="emdash" unicode="&#x2014;" horiz-adv-x="1861" 
d="M23 434l6 90h1810l-2 -90h-1814z" />
    <glyph glyph-name="quoteleft" unicode="&#x2018;" horiz-adv-x="401" 
d="M223 823q-71 0 -121.5 51.5t-50.5 131.5q0 99 77 186.5t206 146.5l20 -16q-71 -39 -120.5 -104t-49.5 -132q0 -37 17.5 -65t42 -42t49 -23t42 -12.5t17.5 -4.5q0 -47 -34 -82t-95 -35z" />
    <glyph glyph-name="quoteright" unicode="&#x2019;" horiz-adv-x="401" 
d="M72 821l-23 17q71 37 120.5 101.5t49.5 131.5q0 37 -17 65t-41.5 42.5t-49 23.5t-41.5 12.5t-17 4.5q0 47 33.5 82.5t95.5 35.5q69 0 119.5 -52t50.5 -132q0 -99 -76 -187t-204 -145z" />
    <glyph glyph-name="quotesinglbase" unicode="&#x201a;" horiz-adv-x="401" 
d="M72 -274l-23 16q71 37 120.5 101.5t49.5 131.5q0 37 -17 65t-41.5 42.5t-49 23.5t-41.5 12.5t-17 4.5q0 47 33.5 83t95.5 36q69 0 119.5 -52.5t50.5 -132.5q0 -99 -76 -186.5t-204 -144.5z" />
    <glyph glyph-name="quotedblleft" unicode="&#x201c;" horiz-adv-x="776" 
d="M606 823q-71 0 -120.5 51.5t-49.5 131.5q0 99 76.5 186.5t204.5 146.5l22 -16q-72 -39 -122 -104t-50 -132q0 -37 17.5 -65t42 -42t49 -23t42 -12.5t17.5 -4.5q0 -47 -33.5 -82t-95.5 -35zM223 823q-71 0 -121.5 51.5t-50.5 131.5q0 99 77 186.5t206 146.5l20 -16
q-71 -39 -120.5 -104t-49.5 -132q0 -37 17.5 -65t42 -42t49 -23t42 -12.5t17.5 -4.5q0 -47 -34 -82t-95 -35z" />
    <glyph glyph-name="quotedblright" unicode="&#x201d;" horiz-adv-x="776" 
d="M455 821l-21 17q71 37 120.5 101.5t49.5 131.5q0 37 -17.5 65t-42 42.5t-49 23.5t-42 12.5t-17.5 4.5q0 47 34 82.5t95 35.5q71 0 121.5 -52t50.5 -132q0 -99 -76.5 -187t-205.5 -145zM72 821l-23 17q71 37 120.5 101.5t49.5 131.5q0 37 -17 65t-41.5 42.5t-49 23.5
t-41.5 12.5t-17 4.5q0 47 33.5 82.5t95.5 35.5q69 0 119.5 -52t50.5 -132q0 -99 -76 -187t-204 -145z" />
    <glyph glyph-name="quotedblbase" unicode="&#x201e;" horiz-adv-x="776" 
d="M455 -274l-21 16q71 37 120.5 101.5t49.5 131.5q0 37 -17.5 65t-42 42.5t-49 23.5t-42 12.5t-17.5 4.5q0 47 34 83t95 36q71 0 121.5 -52.5t50.5 -132.5q0 -99 -76.5 -186.5t-205.5 -144.5zM72 -274l-23 16q71 37 120.5 101.5t49.5 131.5q0 37 -17 65t-41.5 42.5
t-49 23.5t-41.5 12.5t-17 4.5q0 47 33.5 83t95.5 36q69 0 119.5 -52.5t50.5 -132.5q0 -99 -76 -186.5t-204 -144.5z" />
    <glyph glyph-name="dagger" unicode="&#x2020;" horiz-adv-x="909" 
d="M436 -319v1153h-401l-2 38h403v408h39v-408h406l-4 -38h-402v-1153h-39z" />
    <glyph glyph-name="daggerdbl" unicode="&#x2021;" horiz-adv-x="909" 
d="M436 -319v382h-403l2 41h401v750h-401l-2 41h403v385h39v-385h406l-4 -41h-402v-750h402l4 -41h-406v-382h-39z" />
    <glyph glyph-name="bullet" unicode="&#x2022;" horiz-adv-x="888" 
d="M444 80q-44 0 -145.5 42.5t-130.5 74.5q-31 33 -74 133.5t-43 144.5t43 146t74 133t133 72.5t145 41.5q44 0 146 -41.5t133 -72.5t73 -133t42 -146q0 -45 -41.5 -145.5t-73.5 -132.5q-30 -32 -133 -74.5t-148 -42.5z" />
    <glyph glyph-name="ellipsis" unicode="&#x2026;" horiz-adv-x="1292" 
d="M1094 -27q-55 0 -92 37.5t-37 89.5q0 50 37 86.5t92 36.5q54 0 90.5 -36.5t36.5 -86.5q0 -52 -36.5 -89.5t-90.5 -37.5zM647 -27q-55 0 -92 37.5t-37 89.5q0 50 37 86.5t92 36.5q56 0 91.5 -36t35.5 -87q0 -52 -35.5 -89.5t-91.5 -37.5zM203 -27q-55 0 -92 37.5t-37 89.5
q0 50 37 86.5t92 36.5t91 -36.5t36 -86.5q0 -52 -36.5 -89.5t-90.5 -37.5z" />
    <glyph glyph-name="perthousand" unicode="&#x2030;" horiz-adv-x="1892" 
d="M406 745q-121 0 -198 78t-77 195q0 123 82.5 210t208.5 87q123 0 199.5 -78.5t76.5 -196.5q0 -123 -81.5 -209t-210.5 -86zM20 -29l1225 1340h53l-1222 -1340h-56zM1548 -33q-123 0 -197.5 76.5t-74.5 194.5q0 125 80.5 212t208.5 87q121 0 197.5 -79t76.5 -196
q0 -123 -81.5 -209t-209.5 -86zM901 -33q-121 0 -196.5 77t-75.5 194q0 124 81.5 211.5t209.5 87.5q121 0 197.5 -79t76.5 -196q0 -123 -82 -209t-211 -86zM408 786q107 0 174 71.5t67 176.5q0 102 -63.5 171t-165.5 69q-106 0 -174 -75t-68 -179q0 -102 64 -168t166 -66z
M1550 8q106 0 175 73t69 179q0 100 -65 168t-166 68q-106 0 -174 -75t-68 -179q0 -102 63.5 -168t165.5 -66zM905 8q106 0 174 73t68 179q0 100 -64 168t-165 68q-106 0 -174 -75t-68 -179q0 -102 63.5 -168t165.5 -66z" />
    <glyph glyph-name="guilsinglleft" unicode="&#x2039;" horiz-adv-x="550" 
d="M485 96l-444 338v39l444 340l11 -18l-273 -340l273 -340z" />
    <glyph glyph-name="guilsinglright" unicode="&#x203a;" horiz-adv-x="550" 
d="M70 96l-13 19l273 340l-273 340l13 18l444 -340v-39z" />
    <glyph glyph-name="fraction" unicode="&#x2044;" horiz-adv-x="980" 
d="M-16 -29l958 1340h55l-958 -1340h-55z" />
    <glyph glyph-name="zerosuperior" unicode="&#x2070;" horiz-adv-x="657" 
d="M334 532q-127 0 -208 109.5t-81 286.5q0 175 82.5 290t208.5 115t207.5 -112t81.5 -287q0 -180 -79.5 -291t-211.5 -111zM340 555q73 0 112.5 89.5t39.5 270.5q0 396 -160 396q-72 0 -113 -90t-41 -267q0 -210 39.5 -304.5t122.5 -94.5z" />
    <glyph glyph-name="foursuperior" unicode="&#x2074;" horiz-adv-x="612" 
d="M350 547v219h-330l-2 18l392 553h57v-495h143l-20 -76h-123v-219h-117zM92 842h258v358h-4z" />
    <glyph glyph-name="fivesuperior" unicode="&#x2075;" horiz-adv-x="548" 
d="M195 512q-84 0 -127 25.5t-43 70.5q0 28 17.5 46t45.5 18q38 0 64.5 -36.5t31.5 -80.5q32 -12 60 -12q64 0 113 51.5t49 130.5q0 94 -89 156.5t-245 83.5l92 358h344l-19 -113h-323l-35 -145q176 -25 274.5 -98.5t98.5 -182.5q0 -110 -90.5 -191t-218.5 -81z" />
    <glyph glyph-name="sixsuperior" unicode="&#x2076;" horiz-adv-x="630" 
d="M330 530q-129 0 -208 87t-79 217q0 208 153.5 350.5t391.5 167.5l4 -21q-87 -15 -158 -51t-120 -88t-82 -111t-52 -127l2 -2q94 76 197 76q93 0 157 -64t64 -167q0 -117 -80.5 -192t-189.5 -75zM338 555q65 0 105 56t40 153q0 89 -50 150t-122 61q-82 0 -133 -51
q-3 -7 -7.5 -38t-4.5 -57q0 -117 43.5 -195.5t128.5 -78.5z" />
    <glyph glyph-name="sevensuperior" unicode="&#x2077;" horiz-adv-x="573" 
d="M125 543l371 667v7h-185q-135 0 -172.5 -12t-58.5 -70l-14 -31h-23l27 217h499l2 -18l-356 -760h-90z" />
    <glyph glyph-name="eightsuperior" unicode="&#x2078;" horiz-adv-x="614" 
d="M309 530q-112 0 -188 56.5t-76 144.5q0 69 50.5 120t137.5 71v2q-80 42 -122.5 86t-42.5 110q0 81 68 151t181 70q103 0 171.5 -56.5t68.5 -143.5q0 -55 -45 -98.5t-121 -67.5v-2q45 -22 74 -40.5t58.5 -45t44 -60.5t14.5 -75q0 -89 -77.5 -155.5t-195.5 -66.5zM367 983
q82 62 82 154q0 67 -41 123.5t-107 56.5q-61 0 -95 -41t-34 -96q-1 -68 50 -111.5t145 -85.5zM326 553q74 0 114.5 40.5t40.5 102.5q0 33 -14 61.5t-32.5 48.5t-52.5 41t-59 33t-67 31q-102 -62 -102 -176q0 -71 48.5 -126.5t123.5 -55.5z" />
    <glyph glyph-name="ninesuperior" unicode="&#x2079;" horiz-adv-x="630" 
d="M53 518l-4 21q87 16 158 52t120 88t82 111t52 128l-2 2q-92 -78 -197 -78q-93 0 -157 63.5t-64 165.5q0 120 80.5 194t189.5 74q127 0 206 -86.5t79 -216.5q0 -208 -152.5 -349.5t-390.5 -168.5zM330 895q75 0 133 51q3 7 7.5 37.5t4.5 56.5q0 76 -17 136t-57 99.5
t-98 39.5q-65 0 -105 -56t-40 -153q0 -88 50 -149.5t122 -61.5z" />
    <glyph glyph-name="plussuperior" unicode="&#x207a;" horiz-adv-x="657" 
d="M311 623v295h-291l5 32h286v293h35v-293h289l2 -32h-291v-295h-35z" />
    <glyph glyph-name="minussuperior" unicode="&#x207b;" horiz-adv-x="657" 
d="M602 915h-547l4 35h539z" />
    <glyph glyph-name="zeroinferior" unicode="&#x2080;" horiz-adv-x="657" 
d="M322 -295q-127 0 -208 109t-81 286q0 175 82.5 290.5t208.5 115.5t207 -112.5t81 -287.5q0 -180 -79 -290.5t-211 -110.5zM328 -272q151 0 151 360q0 395 -160 395q-72 0 -112.5 -89.5t-40.5 -266.5q0 -210 39.5 -304.5t122.5 -94.5z" />
    <glyph glyph-name="oneinferior" unicode="&#x2081;" horiz-adv-x="520" 
d="M84 -281l4 23l68 6q47 0 47 23v655l-142 18l5 17l262 43v-735q0 -21 57 -21l59 -6l2 -23h-362z" />
    <glyph glyph-name="twoinferior" unicode="&#x2082;" horiz-adv-x="587" 
d="M18 -281l-6 27q185 182 240 247q110 129 121 233q2 16 2 32q0 83 -45 125.5t-107 42.5q-55 0 -98 -29t-88 -90l-12 12q112 193 266 193q88 0 148.5 -55t60.5 -142q0 -26 -4.5 -51t-18.5 -53t-24.5 -48t-38 -52.5t-42 -50t-54 -56.5t-57.5 -56t-68.5 -64t-71.5 -66v-4h248
q64 0 92 22.5t59 95.5l12 23h23l-53 -236h-484z" />
    <glyph glyph-name="threeinferior" unicode="&#x2083;" horiz-adv-x="548" 
d="M186 -319q-74 0 -120 25.5t-46 66.5q0 27 19 45t47 18q39 0 65 -35t21 -80l11 -2q11 -2 24.5 -4t21.5 -2q72 0 122 53t50 128q0 90 -47.5 139t-132.5 49q-50 0 -104 -21l-11 17q26 17 64.5 40t59.5 35.5t46.5 32t38.5 35.5t22 37.5t9 46.5q0 54 -34.5 87.5t-92.5 33.5
q-111 0 -178 -102l-14 12q46 80 110.5 128t143.5 48q77 0 131.5 -45t54.5 -111q0 -19 -5.5 -36.5t-12 -31t-21.5 -28.5t-25 -24t-32 -23t-33 -20t-37.5 -21t-36.5 -20v-5q106 15 179 -42.5t73 -153.5q0 -107 -100.5 -188.5t-229.5 -81.5z" />
    <glyph glyph-name="fourinferior" unicode="&#x2084;" horiz-adv-x="612" 
d="M338 -281v220h-330l-2 18l391 553h58v-496h143l-20 -75h-123v-220h-117zM80 14h258v359h-4z" />
    <glyph glyph-name="fiveinferior" unicode="&#x2085;" horiz-adv-x="548" 
d="M182 -315q-84 0 -127 25.5t-43 70.5q0 28 18 45.5t46 17.5q38 0 64.5 -36t31.5 -80q35 -13 59 -13q64 0 113 52t49 131q0 94 -89 156t-245 83l93 359h344l-19 -113h-323l-35 -145q176 -25 274.5 -98.5t98.5 -182.5q0 -110 -91 -191t-219 -81z" />
    <glyph glyph-name="sixinferior" unicode="&#x2086;" horiz-adv-x="630" 
d="M317 -297q-129 0 -207.5 86.5t-78.5 216.5q0 208 153 350.5t391 167.5l5 -20q-87 -15 -158 -51t-120 -88t-82 -111t-52 -127l2 -2q94 76 197 76q93 0 157 -64.5t64 -167.5q0 -117 -81 -191.5t-190 -74.5zM326 -272q65 0 105 56t40 153q0 89 -50 149.5t-122 60.5
q-82 0 -133 -51q-3 -7 -7.5 -37.5t-4.5 -56.5q0 -117 43.5 -195.5t128.5 -78.5z" />
    <glyph glyph-name="seveninferior" unicode="&#x2087;" horiz-adv-x="573" 
d="M113 -285l370 668v6h-184q-135 0 -172.5 -12t-58.5 -70l-15 -31h-22l26 218h500l2 -19l-356 -760h-90z" />
    <glyph glyph-name="eightinferior" unicode="&#x2088;" horiz-adv-x="614" 
d="M297 -297q-112 0 -188 56.5t-76 144.5q0 68 50.5 119t137.5 71v2q-80 42 -123 86.5t-43 110.5q0 81 68.5 151t181.5 70q103 0 171.5 -57t68.5 -144q0 -55 -45 -98.5t-121 -67.5v-2q93 -46 141.5 -94.5t48.5 -126.5q0 -89 -77 -155t-195 -66zM354 156q82 62 82 153
q0 68 -40.5 124t-106.5 56q-61 0 -95 -41t-34 -96q-1 -36 14 -66t45 -53.5t60 -40t75 -36.5zM313 -274q74 0 115 41t41 102q0 33 -14 61.5t-32.5 48.5t-52.5 41t-59 33t-67 31q-103 -62 -103 -176q0 -71 48.5 -126.5t123.5 -55.5z" />
    <glyph glyph-name="nineinferior" unicode="&#x2089;" horiz-adv-x="630" 
d="M41 -309l-4 20q87 16 158 52t120 88t82 111t52 128l-3 2q-92 -78 -196 -78q-93 0 -157 64t-64 166q0 120 80.5 194t189.5 74q127 0 206 -86.5t79 -216.5q0 -208 -152.5 -349.5t-390.5 -168.5zM317 68q76 0 134 51q3 7 7.5 37.5t4.5 56.5q0 76 -17 136t-57 99t-98 39
q-66 0 -106 -55.5t-40 -152.5q0 -88 50 -149.5t122 -61.5z" />
    <glyph glyph-name="Euro" unicode="&#x20ac;" horiz-adv-x="1028" 
d="M621 -29q-112 0 -211.5 57t-170.5 167.5t-94 255.5h-131l6 38h119q-6 67 -6 113q0 64 8 111h-127l6 39h127q29 165 117.5 290t205.5 187.5t245 62.5q127 0 203.5 -42.5t76.5 -114.5q0 -41 -29.5 -70t-72.5 -29q-67 0 -95.5 57.5t-9.5 110.5q-1 1 -8 6.5t-10.5 8t-11.5 8
t-15 8t-16.5 6t-20 5t-22.5 1.5q-145 0 -246 -136t-121 -359h410l6 -39h-418v-70q0 -71 9 -154h403l6 -38h-399q34 -166 136.5 -259.5t227.5 -93.5q97 0 169 38t132 126l25 -14q-156 -277 -403 -277z" />
    <glyph glyph-name="trademark" unicode="&#x2122;" horiz-adv-x="1144" 
d="M522 825l4 23l25 2q26 2 33.5 17.5t7.5 76.5l8 287q-7 19 -31 22l-32 7l-2 20h172l100 -332h8l115 332h176l-2 -20l-37 -7q-27 -3 -27 -14l7 -344q1 -26 7 -33t25 -10l31 -4l2 -23h-215v23l37 4q14 3 17.5 11.5t2.5 33.5l-4 338h-8l-145 -401h-35l-129 395q-6 -2 -8 0
l-7 -289q-1 -57 6 -72t35 -18l27 -2l2 -23h-166zM145 825l5 23l43 4q24 3 24 14v391h-14q-48 -1 -77.5 -30t-53.5 -86l-9 -19h-18l14 158h412l8 -156h-20l-6 19q-25 62 -52 88t-79 26h-17v-393q0 -7 29 -12l37 -4l2 -23h-228z" />
    <glyph glyph-name="minus" unicode="&#x2212;" horiz-adv-x="917" 
d="M840 461h-762l6 45h750z" />
    <glyph glyph-name="uni2215" unicode="&#x2215;" horiz-adv-x="980" 
d="M-16 -29l958 1340h55l-958 -1340h-55z" />
    <glyph glyph-name="approxequal" unicode="&#x2248;" horiz-adv-x="917" 
d="M842 416h45q-36 -193 -217 -193q-56 0 -135 34.5t-156.5 68.5t-130.5 34q-71 0 -112 -31t-60 -116h-45q36 193 217 193q56 0 134.5 -34.5t156 -69t131.5 -34.5q72 0 112.5 31t59.5 117zM842 752h45q-36 -193 -217 -193q-56 0 -135 34.5t-156.5 68.5t-130.5 34
q-71 0 -112 -31t-60 -116h-45q36 192 217 192q56 0 134.5 -34.5t156 -68.5t131.5 -34q72 0 112.5 31t59.5 117z" />
    <glyph glyph-name="notequal" unicode="&#x2260;" horiz-adv-x="917" 
d="M59 637l-6 45h441l88 307h47l-88 -307h323l-6 -45h-330l-88 -309h418l6 -45h-436l-92 -328h-47l92 328h-328l6 45h334l88 309h-422z" />
    <glyph glyph-name="lessequal" unicode="&#x2264;" horiz-adv-x="897" 
d="M856 55h-829l6 45h817zM838 178l-811 354v29l811 354l16 -41l-750 -321v-8l750 -326z" />
    <glyph glyph-name="greaterequal" unicode="&#x2265;" horiz-adv-x="897" 
d="M870 55h-829l6 45h817zM870 532l-811 -354l-16 41l750 326v8l-750 321l16 41l811 -354v-29z" />
    <glyph glyph-name="pcircle" unicode="&#x24df;" horiz-adv-x="1460" 
d="M731 -29q-137 0 -261 53t-213.5 142.5t-142.5 213.5t-53 261q0 183 89.5 337.5t244 244.5t336.5 90t336.5 -90t244 -244.5t89.5 -337.5q0 -137 -53 -261t-142.5 -213.5t-213.5 -142.5t-261 -53zM731 4q128 0 245 50.5t201.5 136t134.5 203.5t50 247q0 128 -50 246
t-134.5 203.5t-201.5 136.5t-245 51q-129 0 -246.5 -51t-202 -136.5t-134.5 -203.5t-50 -246q0 -129 50 -247t135 -203.5t202 -136t246 -50.5zM451 256l2 29l61 6q51 6 51 22v643q0 9 -9 11.5t-50 7.5l-51 8l-4 27h333q142 0 214.5 -54t72.5 -143q0 -98 -84 -163.5
t-209 -65.5q-38 0 -96 8v-281q0 -18 57 -20l68 -6l2 -29h-358zM776 614q77 0 123.5 49t46.5 132q0 184 -190 184h-74v-352q47 -13 94 -13z" />
    <glyph glyph-name="commaaccent" unicode="&#xf6c3;" horiz-adv-x="776" 
d="M266 -561l-14 16q66 18 112 69.5t46 113.5q0 73 -56.5 103t-95.5 3q-17 46 14.5 88.5t100.5 42.5q68 0 112.5 -44.5t44.5 -115.5q0 -89 -80 -170.5t-184 -105.5z" />
    <glyph glyph-name="J.alt" horiz-adv-x="927" 
d="M332 -27q-84 0 -148 17.5t-98.5 46t-51 61t-16.5 66.5q0 52 33.5 86.5t85.5 34.5q46 0 77.5 -30.5t31.5 -72.5q0 -32 -17.5 -60t-54.5 -38q18 -31 59.5 -51.5t98.5 -20.5q115 0 164 73.5t49 246.5v874q0 9 -6 15t-28 11.5t-62 8.5l-101 10l-6 31h596l-6 -31l-109 -12
q-84 -8 -84 -39v-885q0 -83 -57.5 -162.5t-152.5 -129.5t-197 -50z" />
    <glyph glyph-name="Jcircumflex.alt" horiz-adv-x="927" 
d="M350 1401l273 397h30l273 -397h-25l-260 225h-4l-264 -225h-23zM332 -27q-84 0 -148 17.5t-98.5 46t-51 61t-16.5 66.5q0 52 33.5 86.5t85.5 34.5q46 0 77.5 -30.5t31.5 -72.5q0 -32 -17.5 -60t-54.5 -38q18 -31 59.5 -51.5t98.5 -20.5q115 0 164 73.5t49 246.5v874
q0 9 -6 15t-28 11.5t-62 8.5l-101 10l-6 31h596l-6 -31l-109 -12q-42 -4 -63 -14.5t-21 -22.5v-887q0 -83 -57.5 -162.5t-152.5 -129.5t-197 -50z" />
    <glyph glyph-name="zero.alt" horiz-adv-x="1122" 
d="M559 -25q-214 0 -353.5 141.5t-139.5 362.5t141 366.5t356 145.5q214 0 354 -144t140 -364q0 -221 -142 -364.5t-356 -143.5zM561 27q191 0 317 130t126 326q0 195 -127 327t-314 132q-190 0 -317 -132t-127 -329q0 -196 125.5 -325t316.5 -129z" />
    <glyph glyph-name="one.alt" horiz-adv-x="706" 
d="M94 0l6 31l88 8q44 3 63 11t19 26v811q0 9 -4.5 15t-24.5 11t-57 7l-86 8l-6 30h520l-6 -30l-88 -8q-82 -3 -82 -37v-811q0 -9 4.5 -15t24.5 -11t57 -7l86 -8l6 -31h-520z" />
    <glyph glyph-name="dot" horiz-adv-x="432" 
d="M215 334q-55 0 -92 37.5t-37 89.5q0 50 37 86.5t92 36.5q56 0 91.5 -36t35.5 -87q0 -52 -35.5 -89.5t-91.5 -37.5z" />
    <glyph glyph-name="ampersand.smallcap" horiz-adv-x="1204" 
d="M346 -25q-148 0 -235.5 86t-87.5 209q0 118 77.5 204.5t208.5 129.5q-73 36 -116 93.5t-43 125.5q0 101 92.5 177.5t208.5 76.5q125 0 200.5 -58.5t75.5 -139.5q0 -72 -55 -128.5t-156 -88.5q82 -39 165.5 -122t131.5 -171q119 169 119 219q1 26 -29.5 42t-85.5 19l-18 2
l-4 29h411l-6 -29l-24 -4q-66 -11 -114.5 -41.5t-107.5 -107.5l-120 -162q65 -140 116.5 -195t118.5 -55q66 0 139 66l19 -25q-66 -70 -125 -111t-125 -41q-89 0 -151.5 57t-112.5 169q-187 -226 -367 -226zM483 676q99 55 99 190q0 67 -37.5 120.5t-104.5 53.5
q-66 0 -105.5 -45t-39.5 -112q0 -70 45 -118t143 -89zM430 102q145 0 264 136q-54 121 -145 209.5t-211 138.5q-82 -49 -118 -110.5t-38 -141.5q0 -97 72 -164.5t176 -67.5z" />
    <glyph glyph-name="at.smallcap" horiz-adv-x="1337" 
d="M668 -188q-177 0 -317.5 77t-219 217t-74.5 318q4 179 95 331.5t242.5 240t326.5 85.5q251 -3 413.5 -159.5t155.5 -391.5q-2 -93 -36 -177t-87.5 -142.5t-121.5 -92.5t-138 -34q-100 0 -140.5 43t-35.5 106q0 17 14.5 74.5t24.5 85.5h-10q-97 -156 -162 -228.5
t-131 -72.5q-63 0 -110.5 47t-47.5 109q0 96 66.5 222.5t154.5 211.5q105 102 205 102q46 0 75.5 -43.5t31.5 -105.5h8l59 168l131 -4l-104 -277l-59 -225q-25 -66 -2.5 -104.5t94.5 -38.5q107 0 193.5 109t90.5 269q4 145 -64 263t-191.5 185t-278.5 69q-164 1 -306.5 -83
t-228 -229t-88.5 -315q-7 -251 157 -413.5t417 -162.5q131 0 245 61t175 154l18 -26q-69 -99 -185.5 -161t-254.5 -62zM535 186q36 0 103.5 84t133.5 207q14 26 26.5 60.5t12.5 44.5q-5 43 -46 85t-91 42q-32 0 -62 -27q-52 -50 -101.5 -178t-49.5 -219q0 -45 22 -72t52 -27
z" />
    <glyph glyph-name="a.smallcap" horiz-adv-x="980" 
d="M557 383h-281l-45 -131q-21 -59 -30 -90.5t-12 -59t9 -39t31.5 -18.5t57.5 -10l37 -4l4 -31h-340l6 31l29 4q25 3 38.5 6.5t30.5 16.5t27.5 29.5t27.5 55.5t33 83t43 122l172 486l-12 45q34 10 76 40.5t53 57.5h27l266 -795q30 -91 51.5 -116.5t67.5 -28.5l49 -6l4 -31
h-451l6 31l50 4q52 4 59 36t-20 111zM289 420h256l-119 373h-8z" />
    <glyph glyph-name="b.smallcap" horiz-adv-x="940" 
d="M51 0l4 31l62 8q61 8 61 27v823q0 10 -13.5 15t-58.5 9l-49 9l-4 30h400q378 0 378 -209q0 -85 -72 -143t-208 -78v-4q154 -10 240 -80t86 -174q0 -123 -105.5 -193.5t-314.5 -70.5h-406zM444 35h25q102 3 161.5 65.5t59.5 155.5q0 108 -72.5 173t-189.5 65q-62 0 -76 -2
v-435zM352 528l68 2q106 1 164.5 53.5t58.5 137.5q0 97 -58.5 147t-172.5 50h-60v-390z" />
    <glyph glyph-name="c.smallcap" horiz-adv-x="1060" 
d="M594 -23q-239 0 -391 135t-152 357q0 223 152.5 363.5t400.5 140.5q68 0 137.5 -16.5t110.5 -36.5l106 36l5 -315h-35l-119 244q-74 49 -203 49q-169 0 -265.5 -127.5t-96.5 -325.5q0 -210 102.5 -338.5t261.5 -128.5q99 0 166 43t127 131l51 119h35l-45 -274l-63 -2
q-47 -20 -130 -37t-155 -17z" />
    <glyph glyph-name="d.smallcap" horiz-adv-x="1060" 
d="M51 0l4 31l62 8q61 8 61 27v823q0 10 -13.5 15t-58.5 9l-49 9l-4 30q26 0 68 0.5t131.5 0.5t148.5 0.5t58 0.5q263 3 407 -124t144 -338q0 -101 -38.5 -189.5t-110 -156t-182.5 -107t-247 -39.5h-381zM455 39q118 0 203 58.5t125 151.5t40 208q0 136 -41 236.5t-132 161
t-224 60.5h-74v-849z" />
    <glyph glyph-name="e.smallcap" horiz-adv-x="970" 
d="M51 0l4 31l58 8q65 9 65 27v823q0 10 -13.5 15t-58.5 9l-49 9l-4 30h789l12 -305l-37 -2l-16 55q-20 61 -39.5 97t-54 66t-87.5 42.5t-133 12.5l-135 -3v-413l80 2q104 3 146.5 23.5t60.5 82.5l14 49h33l-37 -350l-28 2l-7 47q-6 67 -42 87.5t-150 23.5l-70 4v-434
l158 -4q82 1 140.5 16.5t96 47t60 68.5t41.5 93l16 51h39l-43 -311h-809z" />
    <glyph glyph-name="f.smallcap" horiz-adv-x="905" 
d="M51 0l4 31l66 8q57 8 57 27v823q0 10 -12 15t-55 9l-54 9l-4 30h772l15 -305l-35 -2l-17 55q-16 50 -30.5 81.5t-38 60.5t-55.5 44t-79 23.5t-112 8.5h-121v-426l70 4q103 3 145.5 22.5t61.5 81.5l14 49h33l-37 -348h-29l-6 47q-6 66 -43 87t-151 26h-58v-398q0 -7 5 -11
t21.5 -7.5t45.5 -5.5l80 -8l6 -31h-459z" />
    <glyph glyph-name="g.smallcap" horiz-adv-x="1101" 
d="M586 -25q-238 0 -386.5 136.5t-148.5 357.5q0 224 152 365t401 141q66 0 135 -16t111 -35l100 32l4 -315h-36l-113 244q-71 51 -205 51q-111 0 -193 -61t-122.5 -163t-40.5 -231q0 -213 102 -340t252 -127q109 0 178 43v314q0 17 -80 22l-65 10l-4 31h446l-6 -31l-66 -10
q-57 -5 -57 -26v-281l82 4l2 -18q-91 -39 -218 -68t-224 -29z" />
    <glyph glyph-name="h.smallcap" horiz-adv-x="1155" 
d="M51 0l4 31l62 8q61 8 61 27v823q0 10 -13.5 15t-58.5 9l-51 9l-4 30h430l-4 -30l-63 -9q-62 -8 -62 -26v-385h451v387q0 11 -12.5 15.5t-57.5 8.5l-55 9l-4 30h432l-6 -30l-62 -9q-61 -8 -61 -26v-824q0 -10 14.5 -15t59.5 -9l49 -8l4 -31h-432l6 31l65 8q60 8 60 27v397
h-451v-400q0 -10 13.5 -15t58.5 -9l51 -8l6 -31h-430z" />
    <glyph glyph-name="i.smallcap" horiz-adv-x="565" 
d="M59 0l7 31l69 8q62 9 62 27v823q0 10 -14 15t-58 9l-59 9l-5 30h443l-4 -30l-70 -9q-59 -8 -59 -26v-824q0 -10 13 -15t56 -9l60 -8l4 -31h-445z" />
    <glyph glyph-name="j.smallcap" horiz-adv-x="534" 
d="M39 -262q-63 0 -104 31t-41 77q0 40 26.5 66.5t67.5 26.5q60 0 85.5 -54.5t-5.5 -109.5q120 6 120 297v817q0 10 -13.5 15t-57.5 9l-62 9l-4 30h443l-5 -30l-67 -9q-60 -8 -60 -26v-807q0 -54 -28.5 -115t-73 -111t-104 -83t-117.5 -33z" />
    <glyph glyph-name="j.smallcap.alt" horiz-adv-x="731" 
d="M270 -20q-123 0 -184 46t-61 111q0 46 27.5 74.5t70.5 28.5q38 0 64 -26t26 -64q0 -27 -13 -50.5t-40 -33.5q13 -23 42.5 -37.5t69.5 -14.5q79 0 114.5 55t35.5 181v639q0 7 -5 11t-22 7.5t-47 5.5l-74 9l-4 30h463l-4 -30l-76 -9q-63 -6 -63 -26v-643q0 -98 -98.5 -181
t-221.5 -83z" />
    <glyph glyph-name="k.smallcap" horiz-adv-x="1050" 
d="M51 0l4 31l66 8q57 8 57 27v823q0 10 -12 15t-55 9l-54 9l-4 30h439l-5 -30l-73 -9q-62 -8 -62 -26v-455l230 232q154 155 164 204q7 35 -44 45q-15 3 -38 5l-46 4l-2 30h394l-4 -30l-29 -4q-76 -10 -127 -48t-201 -190l-67 -66l295 -467q43 -71 66.5 -89t68.5 -23l32 -4
l5 -31h-424l4 31l39 6q16 2 25 4.5t13.5 9t4.5 15.5t-6.5 25t-16 34.5t-26.5 48.5l-197 320l-113 -111v-320q0 -10 14 -15t58 -9l61 -8l4 -31h-438z" />
    <glyph glyph-name="l.smallcap" horiz-adv-x="890" 
d="M51 0l4 31l66 8q57 8 57 27v823q0 10 -12 15t-55 9l-54 9l-4 30h451l-4 -30l-86 -9q-29 -3 -45.5 -10.5t-16.5 -15.5v-848l103 -4q62 0 108.5 10.5t78 28t57.5 50.5t43.5 66.5t39.5 88.5l17 55h39l-45 -334h-742z" />
    <glyph glyph-name="m.smallcap" horiz-adv-x="1298" 
d="M33 0l4 31l45 6q63 6 80 27.5t20 97.5l19 721q-23 29 -78 32l-55 7l-5 30h330l250 -716h6l275 716h333l-4 -30l-82 -9q-59 -5 -59 -26l14 -754q1 -60 14 -74.5t62 -19.5l55 -8l5 -31h-441l6 31l74 8q34 5 44 22.5t9 73.5l-14 735h-8l-326 -860h-55l-297 836q-2 7 -10 16
l-8 8l-15 -712q-1 -74 18 -94.5t91 -26.5l43 -6l4 -31h-344z" />
    <glyph glyph-name="n.smallcap" horiz-adv-x="1107" 
d="M889 -10l-649 819h-9v-643q0 -73 23 -98.5t86 -30.5l43 -6l4 -31h-334l4 31l41 6q55 5 76 31.5t21 101.5l4 639q-43 91 -123 104l-35 9l-4 30h311l551 -702h6v536q0 74 -21 98.5t-87 30.5l-43 7l-4 30h335l-4 -30l-43 -7q-53 -3 -73.5 -31t-20.5 -104l-6 -790h-49z" />
    <glyph glyph-name="o.smallcap" horiz-adv-x="1136" 
d="M563 -23q-224 0 -368 137.5t-144 356.5q0 131 70 247t191 185.5t261 69.5q222 0 365 -139t143 -359q0 -131 -69 -246t-189 -183.5t-260 -68.5zM571 16q150 0 236 118.5t86 338.5q0 212 -91.5 336.5t-238.5 124.5q-148 0 -233.5 -119.5t-85.5 -339.5q0 -212 90 -335.5
t237 -123.5z" />
    <glyph glyph-name="p.smallcap" horiz-adv-x="919" 
d="M39 0l6 31l72 8q61 8 61 27v823q0 10 -13.5 15t-58.5 9l-61 9l-4 30h448q189 0 286 -65t97 -178q0 -124 -111 -200.5t-284 -76.5q-78 0 -125 6v-375q0 -7 5 -11t21.5 -7.5t45.5 -5.5l78 -8l6 -31h-469zM477 467q94 0 151.5 59t57.5 160q0 232 -237 232l-97 -3v-436
q47 -12 125 -12z" />
    <glyph glyph-name="q.smallcap" horiz-adv-x="1136" 
d="M944 -274q-74 0 -131.5 11t-111.5 38t-97 78t-76 127q-210 11 -343.5 147.5t-133.5 343.5q0 130 70 245.5t191 185t261 69.5q224 0 366 -139.5t142 -356.5q0 -156 -99.5 -287t-256.5 -182q48 -104 109 -157.5t140 -65.5t183 2l6 -29q-32 -12 -97 -21t-122 -9zM571 16
q150 0 236 118.5t86 338.5q0 211 -91.5 336t-238.5 125q-148 0 -233.5 -119.5t-85.5 -339.5q0 -212 90 -335.5t237 -123.5z" />
    <glyph glyph-name="r.smallcap" horiz-adv-x="1021" 
d="M39 0l6 31l72 8q61 10 61 27v823q0 10 -13.5 15t-58.5 9l-61 9l-4 30h442q192 1 289.5 -64t97.5 -186q0 -88 -64.5 -153t-174.5 -88l203 -307q45 -66 75.5 -90.5t77.5 -28.5l27 -4l4 -31h-293l-31 49l-239 400q-8 2 -50 10t-53 12v-408q0 -17 72 -24l63 -8l5 -31h-453z
M465 489q104 3 161.5 56.5t57.5 152.5q0 105 -65.5 162.5t-190.5 54.5l-76 -2v-407q71 -17 113 -17z" />
    <glyph glyph-name="s.smallcap" horiz-adv-x="804" 
d="M381 -20q-151 0 -301 47l-14 256h30l60 -138q79 -129 235 -129q96 0 153.5 54t57.5 137q0 84 -56 129t-175 86q-65 22 -110 44t-87 55t-63 78t-21 103q0 109 87.5 190t234.5 81q95 0 213 -33l65 21l2 -277h-28l-97 203q-78 49 -164 49q-78 0 -131 -46.5t-53 -111.5
q0 -40 16 -70.5t51 -53.5t68.5 -38t89.5 -34q70 -23 120 -47.5t92 -60t63.5 -83.5t21.5 -110q0 -119 -100.5 -210t-259.5 -91z" />
    <glyph glyph-name="t.smallcap" horiz-adv-x="1015" 
d="M276 0l5 31l79 8q62 6 62 27v852h-47q-173 -10 -269 -209l-22 -58h-35l45 301h842l27 -301h-33l-19 56q-45 104 -105 156t-161 55h-49v-855q0 -7 5 -11t21.5 -7.5t45.5 -5.5l67 -8l6 -31h-465z" />
    <glyph glyph-name="u.smallcap" horiz-adv-x="1075" 
d="M555 -27q-199 0 -293 83t-94 263v570q0 10 -13.5 15t-58.5 9l-59 9l-6 30h448l-4 -30l-72 -9q-61 -8 -61 -26v-525q0 -159 68 -234t204 -75q130 0 199.5 81t69.5 239v413q0 74 -22 99t-87 30l-43 7l-4 30h336l-4 -30l-43 -7q-53 -5 -73.5 -32t-20.5 -103l-4 -420
q0 -185 -89.5 -286t-273.5 -101z" />
    <glyph glyph-name="v.smallcap" horiz-adv-x="985" 
d="M463 -14l-297 788q-39 96 -57 117t-66 24l-49 7l-4 30h446l-6 -30l-57 -4q-59 -4 -63.5 -24.5t26.5 -100.5q1 -3 2 -5l219 -593h10l172 479q20 56 31 88.5t16 62.5t2 44.5t-15.5 26.5t-32.5 16.5t-54 7.5l-33 2l-4 30h344l-4 -30l-28 -4q-45 -4 -68.5 -22t-47.5 -67.5
t-71 -175.5l-248 -667h-63z" />
    <glyph glyph-name="w.smallcap" horiz-adv-x="1511" 
d="M453 -18l-295 792q-35 90 -55 114t-66 27l-51 7l-4 30h446l-4 -30l-53 -4q-54 -4 -61 -25t20 -94l215 -592h8l190 500l-24 67q-34 87 -56 112.5t-65 28.5l-51 7l-6 30h452l-4 -30l-51 -4q-54 -3 -61 -25t20 -98l205 -586h10l162 457q21 58 31.5 91t16.5 64.5t3 46
t-14.5 27t-30.5 16.5t-51 7l-39 4l-4 30h342l-4 -30l-29 -4q-33 -5 -51.5 -13.5t-39.5 -39t-39.5 -75t-51.5 -135.5l-246 -673h-57l-238 667h-8l-256 -667h-55z" />
    <glyph glyph-name="x.smallcap" horiz-adv-x="1017" 
d="M2 0l4 31l43 6q58 6 99 43.5t122 148.5l164 220l-217 319q-10 16 -24.5 38t-21 31.5t-16.5 24t-15.5 20.5t-14 13.5t-15 10.5t-15.5 5.5t-19 3.5l-53 7l-5 30h447l-2 -30l-53 -4q-25 -2 -36.5 -8t-12.5 -22t12.5 -43.5t42.5 -72.5l135 -203h2l113 158q52 75 66 113
t-2 54.5t-68 23.5l-41 4l-5 30h363l-4 -30l-39 -7q-61 -7 -100.5 -42t-124.5 -150l-140 -180l277 -408q40 -62 58.5 -79.5t49.5 -18.5l48 -6l6 -31h-443l4 31l54 4q49 3 53 24t-31 72l-190 289h-4q0 1 -34 -48l-68 -98l-34 -49q-52 -71 -65.5 -110t2.5 -56t65 -24l43 -4
l5 -31h-365z" />
    <glyph glyph-name="y.smallcap" horiz-adv-x="956" 
d="M248 0l4 31l80 8q61 5 61 27v348l-229 395q-34 60 -59 81.5t-66 24.5l-41 7l-4 30h440l-4 -30l-39 -4q-59 -6 -65 -32.5t32 -90.5l181 -328h6l133 244q34 63 49 98t14 59.5t-20 34.5t-59 15l-37 4l-4 30h331l-4 -30l-37 -7q-48 -6 -86.5 -46.5t-103.5 -159.5l-154 -279
v-367q0 -7 4.5 -11t21 -7.5t46.5 -5.5l68 -8l4 -31h-463z" />
    <glyph glyph-name="z.smallcap" horiz-adv-x="923" 
d="M59 0v29l588 882v2l-162 2q-87 0 -148.5 -14t-100.5 -44t-62 -65.5t-41 -89.5l-14 -49h-31l16 299h748v-30l-592 -881v-4h176q94 0 158 13.5t107 46t68.5 74t49.5 108.5l17 49h36l-43 -328h-770z" />
    <glyph glyph-name="fi.smallcap" horiz-adv-x="1470" 
d="M967 0l4 31l69 8q62 8 62 27v823q0 10 -14 15t-58 9l-59 9l-4 30h444l-4 -30l-70 -9q-61 -8 -61 -26v-824q0 -10 13.5 -15t58.5 -9l57 -8l4 -31h-442zM51 0l4 31l66 8q57 8 57 27v823q0 10 -12 15t-55 9l-54 9l-4 30h772l15 -305l-35 -2l-17 55q-16 50 -30.5 81.5
t-38 60.5t-55.5 44t-79 23.5t-112 8.5h-121v-426l70 4q103 3 145.5 22.5t61.5 81.5l14 49h33l-37 -348h-29l-6 47q-6 66 -43 87t-151 26h-58v-398q0 -7 5 -11t21.5 -7.5t45.5 -5.5l80 -8l6 -31h-459z" />
    <glyph glyph-name="fl.smallcap" horiz-adv-x="1796" 
d="M956 0l5 31l65 8q57 8 57 27v823q0 7 -3.5 10.5t-18 7t-45.5 6.5l-53 9l-5 30h451l-4 -30l-86 -9q-29 -3 -45.5 -10.5t-16.5 -15.5v-848l103 -4q77 0 129.5 14t89 48.5t59 73.5t50.5 108l18 55h37l-45 -334h-742zM51 0l4 31l66 8q57 8 57 27v823q0 10 -12 15t-55 9l-54 9
l-4 30h772l15 -305l-35 -2l-17 55q-16 50 -30.5 81.5t-38 60.5t-55.5 44t-79 23.5t-112 8.5h-121v-426l70 4q103 3 145.5 22.5t61.5 81.5l14 49h33l-37 -348h-29l-6 47q-6 66 -43 87t-151 26h-58v-398q0 -7 5 -11t21.5 -7.5t45.5 -5.5l80 -8l6 -31h-459z" />
    <glyph glyph-name="ff.smallcap" horiz-adv-x="1810" 
d="M956 0l5 31l65 8q57 8 57 27v823q0 7 -3.5 10.5t-18 7t-45.5 6.5l-53 9l-5 30h775l14 -305l-37 -2l-14 55q-20 62 -40 99t-54.5 66t-87.5 41t-134 12h-123v-426l70 4q104 3 146.5 22.5t60.5 81.5l14 49h33l-37 -348h-28l-7 47q-6 66 -42.5 87t-149.5 26h-60v-398
q0 -7 5 -11t21.5 -7.5t45.5 -5.5l80 -8l6 -31h-459zM51 0l4 31l66 8q57 8 57 27v823q0 10 -12 15t-55 9l-54 9l-4 30h772l15 -305l-35 -2l-17 55q-16 50 -30.5 81.5t-38 60.5t-55.5 44t-79 23.5t-112 8.5h-121v-426l70 4q103 3 145.5 22.5t61.5 81.5l14 49h33l-37 -348h-29
l-6 47q-6 66 -43 87t-151 26h-58v-398q0 -7 5 -11t21.5 -7.5t45.5 -5.5l80 -8l6 -31h-459z" />
    <glyph glyph-name="ffi.smallcap" horiz-adv-x="2375" 
d="M1872 0l6 31l68 8q61 8 61 27v823q0 10 -14 15t-58 9l-57 9l-4 30h442l-4 -30l-69 -9q-62 -8 -62 -26v-824q0 -10 13.5 -15t58.5 -9l57 -8l4 -31h-442zM956 0l5 31l65 8q57 8 57 27v823q0 7 -3.5 10.5t-18 7t-45.5 6.5l-53 9l-5 30h775l14 -305l-37 -2l-14 55
q-20 62 -40 99t-54.5 66t-87.5 41t-134 12h-123v-426l70 4q104 3 146.5 22.5t60.5 81.5l14 49h33l-37 -348h-28l-7 47q-6 66 -42.5 87t-149.5 26h-60v-398q0 -7 5 -11t21.5 -7.5t45.5 -5.5l80 -8l6 -31h-459zM51 0l4 31l66 8q57 8 57 27v823q0 10 -12 15t-55 9l-54 9l-4 30
h772l15 -305l-35 -2l-17 55q-16 50 -30.5 81.5t-38 60.5t-55.5 44t-79 23.5t-112 8.5h-121v-426l70 4q103 3 145.5 22.5t61.5 81.5l14 49h33l-37 -348h-29l-6 47q-6 66 -43 87t-151 26h-58v-398q0 -7 5 -11t21.5 -7.5t45.5 -5.5l80 -8l6 -31h-459z" />
    <glyph glyph-name="ffl.smallcap" horiz-adv-x="2701" 
d="M1862 0l4 31l65 8q58 8 58 27v823q0 7 -3.5 10.5t-18.5 7t-46 6.5l-53 9l-4 30h452l-6 -30l-86 -9q-28 -3 -44.5 -10.5t-16.5 -15.5v-848l102 -4q78 0 130.5 14t89 48.5t58.5 73.5t50 108l18 55h37l-43 -334h-743zM956 0l5 31l65 8q57 8 57 27v823q0 7 -3.5 10.5t-18 7
t-45.5 6.5l-53 9l-5 30h775l14 -305l-37 -2l-14 55q-20 62 -40 99t-54.5 66t-87.5 41t-134 12h-123v-426l70 4q104 3 146.5 22.5t60.5 81.5l14 49h33l-37 -348h-28l-7 47q-6 66 -42.5 87t-149.5 26h-60v-398q0 -7 5 -11t21.5 -7.5t45.5 -5.5l80 -8l6 -31h-459zM51 0l4 31
l66 8q57 8 57 27v823q0 10 -12 15t-55 9l-54 9l-4 30h772l15 -305l-35 -2l-17 55q-16 50 -30.5 81.5t-38 60.5t-55.5 44t-79 23.5t-112 8.5h-121v-426l70 4q103 3 145.5 22.5t61.5 81.5l14 49h33l-37 -348h-29l-6 47q-6 66 -43 87t-151 26h-58v-398q0 -7 5 -11t21.5 -7.5
t45.5 -5.5l80 -8l6 -31h-459z" />
    <glyph glyph-name="germandbls.smallcap" horiz-adv-x="1609" 
d="M1186 -20q-151 0 -301 47l-15 256h31l60 -138q79 -129 235 -129q96 0 153.5 54t57.5 137q0 84 -56 129t-175 86q-65 22 -110 44t-87 55t-63 78t-21 103q0 109 87.5 190t234.5 81q95 0 213 -33l65 21l2 -277h-29l-96 203q-78 49 -164 49q-78 0 -131 -46.5t-53 -111.5
q0 -40 16 -70.5t51 -53.5t68.5 -38t89.5 -34q70 -23 120 -47.5t92 -60t63.5 -83.5t21.5 -110q0 -119 -100.5 -210t-259.5 -91zM381 -20q-151 0 -301 47l-14 256h30l60 -138q79 -129 235 -129q96 0 153.5 54t57.5 137q0 84 -56 129t-175 86q-65 22 -110 44t-87 55t-63 78
t-21 103q0 109 87.5 190t234.5 81q95 0 213 -33l65 21l2 -277h-28l-97 203q-78 49 -164 49q-78 0 -131 -46.5t-53 -111.5q0 -40 16 -70.5t51 -53.5t68.5 -38t89.5 -34q70 -23 120 -47.5t92 -60t63.5 -83.5t21.5 -110q0 -119 -100.5 -210t-259.5 -91z" />
    <glyph glyph-name="agrave.smallcap" horiz-adv-x="980" 
d="M557 383h-281l-45 -131q-21 -59 -30 -90.5t-12 -59t9 -39t31.5 -18.5t57.5 -10l37 -4l4 -31h-340l6 31l29 4q25 3 38.5 6.5t30.5 16.5t27.5 29.5t27.5 55.5t33 83t43 122l172 486l-12 45q34 10 76 40.5t53 57.5h27l266 -795q30 -91 51.5 -116.5t67.5 -28.5l49 -6l4 -31
h-451l6 31l50 4q52 4 59 36t-20 111zM289 420h256l-119 373h-8zM520 1061l-366 383h196l191 -383h-21z" />
    <glyph glyph-name="aacute.smallcap" horiz-adv-x="980" 
d="M557 383h-281l-45 -131q-21 -59 -30 -90.5t-12 -59t9 -39t31.5 -18.5t57.5 -10l37 -4l4 -31h-340l6 31l29 4q25 3 38.5 6.5t30.5 16.5t27.5 29.5t27.5 55.5t33 83t43 122l172 486l-12 45q34 10 76 40.5t53 57.5h27l266 -795q30 -91 51.5 -116.5t67.5 -28.5l49 -6l4 -31
h-451l6 31l50 4q52 4 59 36t-20 111zM289 420h256l-119 373h-8zM414 1061l190 383h199l-367 -383h-22z" />
    <glyph glyph-name="acircumflex.smallcap" horiz-adv-x="980" 
d="M557 383h-281l-45 -131q-21 -59 -30 -90.5t-12 -59t9 -39t31.5 -18.5t57.5 -10l37 -4l4 -31h-340l6 31l29 4q25 3 38.5 6.5t30.5 16.5t27.5 29.5t27.5 55.5t33 83t43 122l172 486l-12 45q34 10 76 40.5t53 57.5h27l266 -795q30 -91 51.5 -116.5t67.5 -28.5l49 -6l4 -31
h-451l6 31l50 4q52 4 59 36t-20 111zM289 420h256l-119 373h-8zM215 1044l272 398h31l273 -398h-25l-260 226h-4l-264 -226h-23z" />
    <glyph glyph-name="atilde.smallcap" horiz-adv-x="980" 
d="M557 383h-281l-45 -131q-21 -59 -30 -90.5t-12 -59t9 -39t31.5 -18.5t57.5 -10l37 -4l4 -31h-340l6 31l29 4q25 3 38.5 6.5t30.5 16.5t27.5 29.5t27.5 55.5t33 83t43 122l172 486l-12 45q34 10 76 40.5t53 57.5h27l266 -795q30 -91 51.5 -116.5t67.5 -28.5l49 -6l4 -31
h-451l6 31l50 4q52 4 59 36t-20 111zM289 420h256l-119 373h-8zM647 1075q-43 0 -95.5 21t-93.5 45.5t-84.5 45.5t-70.5 21q-42 0 -65 -22t-35 -94h-25q15 122 52 174.5t112 52.5q52 0 121 -33.5t129.5 -66.5t93.5 -33q41 0 64 23t36 94h25q-14 -121 -51.5 -174.5
t-112.5 -53.5z" />
    <glyph glyph-name="adieresis.smallcap" horiz-adv-x="980" 
d="M557 383h-281l-45 -131q-21 -59 -30 -90.5t-12 -59t9 -39t31.5 -18.5t57.5 -10l37 -4l4 -31h-340l6 31l29 4q25 3 38.5 6.5t30.5 16.5t27.5 29.5t27.5 55.5t33 83t43 122l172 486l-12 45q34 10 76 40.5t53 57.5h27l266 -795q30 -91 51.5 -116.5t67.5 -28.5l49 -6l4 -31
h-451l6 31l50 4q52 4 59 36t-20 111zM289 420h256l-119 373h-8zM682 1108q-53 0 -83 35.5t-30 77.5t30.5 80t82.5 38t81.5 -37.5t29.5 -80.5q0 -42 -29 -77.5t-82 -35.5zM301 1108q-53 0 -83 35.5t-30 77.5t30.5 80t82.5 38t81.5 -37.5t29.5 -80.5q0 -42 -29 -77.5
t-82 -35.5z" />
    <glyph glyph-name="aring.smallcap" horiz-adv-x="980" 
d="M557 383h-281l-45 -131q-21 -59 -30 -90.5t-12 -59t9 -39t31.5 -18.5t57.5 -10l37 -4l4 -31h-340l6 31l29 4q48 5 72 25t51 79.5t77 208.5l207 584q-59 17 -92 65t-33 111q0 76 50 130t132 54t132.5 -54t50.5 -130q0 -60 -32 -106.5t-87 -65.5q0 1 63.5 -187.5
t127.5 -377.5l63 -189q30 -91 51.5 -116.5t67.5 -28.5l49 -6l4 -31h-451l6 31l50 4q52 4 59 36t-20 111zM487 952q67 0 108.5 45.5t41.5 110.5q0 64 -41.5 110t-108.5 46q-68 0 -108.5 -46t-40.5 -110q0 -66 40.5 -111t108.5 -45zM289 420h256l-119 373h-8z" />
    <glyph glyph-name="aringacute.smallcap" horiz-adv-x="962" 
d="M319 1274l191 383h199l-367 -383h-23zM557 383h-281l-45 -131q-21 -59 -30 -90.5t-12 -59t9 -39t31.5 -18.5t57.5 -10l37 -4l4 -31h-340l6 31l29 4q48 5 72 25t51 79.5t77 208.5l207 584q-59 17 -92 65t-33 111q0 76 50 130t132 54t132.5 -54t50.5 -130q0 -60 -32 -106.5
t-87 -65.5q0 1 63.5 -187.5t127.5 -377.5l63 -189q30 -91 51.5 -116.5t67.5 -28.5l49 -6l4 -31h-451l6 31l50 4q52 4 59 36t-20 111zM487 952q67 0 108.5 45.5t41.5 110.5q0 64 -41.5 110t-108.5 46q-68 0 -108.5 -46t-40.5 -110q0 -66 40.5 -111t108.5 -45zM289 420h256
l-119 373h-8z" />
    <glyph glyph-name="amacron.smallcap" horiz-adv-x="980" 
d="M557 383h-281l-45 -131q-21 -59 -30 -90.5t-12 -59t9 -39t31.5 -18.5t57.5 -10l37 -4l4 -31h-340l6 31l29 4q25 3 38.5 6.5t30.5 16.5t27.5 29.5t27.5 55.5t33 83t43 122l172 486l-12 45q34 10 76 40.5t53 57.5h27l266 -795q30 -91 51.5 -116.5t67.5 -28.5l49 -6l4 -31
h-451l6 31l50 4q52 4 59 36t-20 111zM289 420h256l-119 373h-8zM215 1079l12 62h512l-8 -62h-516z" />
    <glyph glyph-name="abreve.smallcap" horiz-adv-x="980" 
d="M557 383h-281l-45 -131q-21 -59 -30 -90.5t-12 -59t9 -39t31.5 -18.5t57.5 -10l37 -4l4 -31h-340l6 31l29 4q25 3 38.5 6.5t30.5 16.5t27.5 29.5t27.5 55.5t33 83t43 122l172 486l-12 45q34 10 76 40.5t53 57.5h27l266 -795q30 -91 51.5 -116.5t67.5 -28.5l49 -6l4 -31
h-451l6 31l50 4q52 4 59 36t-20 111zM289 420h256l-119 373h-8zM487 1022q-44 0 -79.5 14t-61.5 43.5t-44.5 60.5t-34.5 80.5t-25 86.5t-21 94h21q47 -131 105 -197.5t142 -66.5t142.5 66.5t105.5 197.5h21q-10 -48 -17.5 -80.5t-21 -76t-27 -72t-34 -59.5t-44 -49
t-56.5 -30t-71 -12z" />
    <glyph glyph-name="aogonek.smallcap" horiz-adv-x="980" 
d="M784 -473q-80 0 -131 50.5t-51 129.5q0 96 76 176.5t174 116.5h-326l6 31l50 4q52 4 59 36t-20 111l-66 201h-279l-45 -131q-21 -59 -30 -90.5t-12 -59t9 -39t31.5 -18.5t57.5 -10l37 -4l4 -31h-340l6 31l29 4q30 3 46.5 10t33.5 21t34 53t35 86.5t51 142.5l172 486
l-12 45q36 10 83 40.5t58 57.5h15l266 -795q30 -91 51.5 -116.5t67.5 -28.5l49 -6l6 -31q-121 -20 -189.5 -85.5t-68.5 -162.5q0 -62 35.5 -96.5t97.5 -34.5q60 0 111 51l10 -12q-15 -46 -71 -89.5t-120 -43.5zM289 420h254l-117 373h-8z" />
    <glyph glyph-name="ae.smallcap" horiz-adv-x="1341" 
d="M600 387h-291q1 0 -17.5 -33.5t-37.5 -67.5l-18 -34q-61 -116 -59 -161.5t67 -53.5l43 -6l4 -31h-352l6 31l51 6q47 8 92.5 59t128.5 203l301 543q23 33 10.5 50t-79.5 23l-56 7l-6 30h823l15 -305h-35l-14 53q-13 37 -21.5 58.5t-22 48.5t-28 41t-36 30t-48 23t-63 12
t-83.5 5l-104 -3v-413l55 2q99 3 133.5 22.5t53.5 83.5l16 49h31l-37 -348h-29l-4 47q-4 48 -16 68.5t-46.5 31t-111.5 13.5l-45 2v-434l127 -4q67 1 116.5 12.5t80.5 28t56.5 48t39 59.5t31.5 75l16 53l39 -2l-43 -309h-774l4 31l76 8q61 5 61 27v321zM330 422h270v483h-4z
" />
    <glyph glyph-name="aeacute.smallcap" horiz-adv-x="1341" 
d="M680 1018l190 383h199l-367 -383h-22zM600 387h-291q1 0 -17.5 -33.5t-37.5 -67.5l-18 -34q-61 -116 -59 -161.5t67 -53.5l43 -6l4 -31h-352l6 31l51 6q47 8 92.5 59t128.5 203l301 543q23 33 10.5 50t-79.5 23l-56 7l-6 30h823l15 -305h-35l-14 53q-13 37 -21.5 58.5
t-22 48.5t-28 41t-36 30t-48 23t-63 12t-83.5 5l-104 -3v-413l55 2q99 3 133.5 22.5t53.5 83.5l16 49h31l-37 -348h-29l-4 47q-4 48 -16 68.5t-46.5 31t-111.5 13.5l-45 2v-434l127 -4q67 1 116.5 12.5t80.5 28t56.5 48t39 59.5t31.5 75l16 53l39 -2l-43 -309h-774l4 31
l76 8q61 5 61 27v321zM330 422h270v483h-4z" />
    <glyph glyph-name="ccedilla.smallcap" horiz-adv-x="1060" 
d="M575 -23q-232 6 -378 140.5t-146 351.5q0 223 152.5 363.5t400.5 140.5q68 0 137.5 -16.5t110.5 -36.5l106 36l5 -315h-35l-119 244q-74 49 -203 49q-169 0 -265.5 -127.5t-96.5 -325.5q0 -210 102.5 -338.5t261.5 -128.5q99 0 166 43t127 131l51 119h35l-45 -274l-63 -2
q-45 -18 -119.5 -34.5t-141.5 -19.5l-98 -106q129 15 215 -30t86 -132q0 -59 -34.5 -104t-98.5 -74.5t-132.5 -47t-158.5 -30.5l-10 23q157 30 235 72t78 112q0 59 -47.5 87t-126.5 28q-61 0 -133 -21v23z" />
    <glyph glyph-name="cacute.smallcap" horiz-adv-x="1060" 
d="M500 1018l190 383h199l-367 -383h-22zM594 -23q-239 0 -391 135t-152 357q0 223 152.5 363.5t400.5 140.5q68 0 137.5 -16.5t110.5 -36.5l106 36l5 -315h-35l-119 244q-74 49 -203 49q-169 0 -265.5 -127.5t-96.5 -325.5q0 -210 102.5 -338.5t261.5 -128.5q99 0 166 43
t127 131l51 119h35l-45 -274l-63 -2q-47 -20 -130 -37t-155 -17z" />
    <glyph glyph-name="ccircumflex.smallcap" horiz-adv-x="1060" 
d="M283 1001l272 398h31l272 -398h-24l-261 226h-4l-264 -226h-22zM594 -23q-239 0 -391 135t-152 357q0 223 152.5 363.5t400.5 140.5q68 0 137.5 -16.5t110.5 -36.5l106 36l5 -315h-35l-119 244q-74 49 -203 49q-169 0 -265.5 -127.5t-96.5 -325.5q0 -210 102.5 -338.5
t261.5 -128.5q99 0 166 43t127 131l51 119h35l-45 -274l-63 -2q-47 -20 -130 -37t-155 -17z" />
    <glyph glyph-name="cdotaccent.smallcap" horiz-adv-x="1060" 
d="M594 -23q-239 0 -391 135t-152 357q0 223 152.5 363.5t400.5 140.5q68 0 137.5 -16.5t110.5 -36.5l106 36l5 -315h-35l-119 244q-74 49 -203 49q-169 0 -265.5 -127.5t-96.5 -325.5q0 -210 102.5 -338.5t261.5 -128.5q99 0 166 43t127 131l51 119h35l-45 -274l-63 -2
q-47 -20 -130 -37t-155 -17zM584 1087q-53 0 -83 35.5t-30 77.5q0 44 30 81.5t83 37.5q52 0 81 -37.5t29 -81.5q0 -42 -29 -77.5t-81 -35.5z" />
    <glyph glyph-name="ccaron.smallcap" horiz-adv-x="1060" 
d="M590 1030l-273 397h23l264 -225h4l262 225h23l-272 -397h-31zM594 -23q-239 0 -391 135t-152 357q0 223 152.5 363.5t400.5 140.5q68 0 137.5 -16.5t110.5 -36.5l106 36l5 -315h-35l-119 244q-74 49 -203 49q-169 0 -265.5 -127.5t-96.5 -325.5q0 -210 102.5 -338.5
t261.5 -128.5q99 0 166 43t127 131l51 119h35l-45 -274l-63 -2q-47 -20 -130 -37t-155 -17z" />
    <glyph glyph-name="dcaron.smallcap" horiz-adv-x="1069" 
d="M465 1032l-272 398h22l264 -226h4l262 226h23l-272 -398h-31zM51 0l4 31l62 8q61 8 61 27v823q0 10 -13.5 15t-58.5 9l-49 9l-4 30q26 0 68 0.5t131.5 0.5t148.5 0.5t58 0.5q263 3 407 -124t144 -338q0 -101 -38.5 -189.5t-110 -156t-182.5 -107t-247 -39.5h-381zM455 39
q118 0 203 58.5t125 151.5t40 208q0 136 -41 236.5t-132 161t-224 60.5h-74v-849z" />
    <glyph glyph-name="eth.smallcap" horiz-adv-x="1073" 
d="M190 461h-147l4 39h143v389q0 17 -71 24l-62 9l-4 30q27 0 70 0.5t135 0.5t153 0.5t60 0.5q263 3 407 -124t144 -338q0 -101 -38.5 -189.5t-110 -156t-182.5 -107t-247 -39.5h-393l6 31l72 8q61 8 61 27v395zM365 500h215l6 -39h-221v-395l102 -27q175 0 272 120t97 298
q0 101 -24 183.5t-72 144.5t-125 96t-177 34h-73v-415z" />
    <glyph glyph-name="dcroat.smallcap" horiz-adv-x="1073" 
d="M190 461h-147l4 39h143v389q0 17 -71 24l-62 9l-4 30q27 0 70 0.5t135 0.5t153 0.5t60 0.5q263 3 407 -124t144 -338q0 -101 -38.5 -189.5t-110 -156t-182.5 -107t-247 -39.5h-393l6 31l72 8q61 8 61 27v395zM365 500h215l6 -39h-221v-395l102 -27q175 0 272 120t97 298
q0 101 -24 183.5t-72 144.5t-125 96t-177 34h-73v-415z" />
    <glyph glyph-name="egrave.smallcap" horiz-adv-x="970" 
d="M51 0l4 31l58 8q65 9 65 27v823q0 10 -13.5 15t-58.5 9l-49 9l-4 30h789l12 -305l-37 -2l-16 55q-20 61 -39.5 97t-54 66t-87.5 42.5t-133 12.5l-135 -3v-413l80 2q104 3 146.5 23.5t60.5 82.5l14 49h33l-37 -350l-28 2l-7 47q-6 67 -42 87.5t-150 23.5l-70 4v-434
l158 -4q82 1 140.5 16.5t96 47t60 68.5t41.5 93l16 51h39l-43 -311h-809zM539 1061l-367 383h197l190 -383h-20z" />
    <glyph glyph-name="eacute.smallcap" horiz-adv-x="970" 
d="M51 0l4 31l58 8q65 9 65 27v823q0 10 -13.5 15t-58.5 9l-49 9l-4 30h789l12 -305l-37 -2l-16 55q-20 61 -39.5 97t-54 66t-87.5 42.5t-133 12.5l-135 -3v-413l80 2q104 3 146.5 23.5t60.5 82.5l14 49h33l-37 -350l-28 2l-7 47q-6 67 -42 87.5t-150 23.5l-70 4v-434
l158 -4q82 1 140.5 16.5t96 47t60 68.5t41.5 93l16 51h39l-43 -311h-809zM414 1061l190 383h199l-367 -383h-22z" />
    <glyph glyph-name="ecircumflex.smallcap" horiz-adv-x="970" 
d="M51 0l4 31l58 8q65 9 65 27v823q0 10 -13.5 15t-58.5 9l-49 9l-4 30h789l12 -305l-37 -2l-16 55q-20 61 -39.5 97t-54 66t-87.5 42.5t-133 12.5l-135 -3v-413l80 2q104 3 146.5 23.5t60.5 82.5l14 49h33l-37 -350l-28 2l-7 47q-6 67 -42 87.5t-150 23.5l-70 4v-434
l158 -4q82 1 140.5 16.5t96 47t60 68.5t41.5 93l16 51h39l-43 -311h-809zM184 1044l273 398h30l273 -398h-25l-260 226h-4l-264 -226h-23z" />
    <glyph glyph-name="edieresis.smallcap" horiz-adv-x="970" 
d="M51 0l4 31l58 8q65 9 65 27v823q0 10 -13.5 15t-58.5 9l-49 9l-4 30h789l12 -305l-37 -2l-16 55q-20 61 -39.5 97t-54 66t-87.5 42.5t-133 12.5l-135 -3v-413l80 2q104 3 146.5 23.5t60.5 82.5l14 49h33l-37 -350l-28 2l-7 47q-6 67 -42 87.5t-150 23.5l-70 4v-434
l158 -4q82 1 140.5 16.5t96 47t60 68.5t41.5 93l16 51h39l-43 -311h-809zM668 1108q-53 0 -83 35.5t-30 77.5t30.5 80t82.5 38t81 -37.5t29 -80.5q0 -42 -29 -77.5t-81 -35.5zM287 1108q-53 0 -83 35.5t-30 77.5t30.5 80t82.5 38t81 -37.5t29 -80.5q0 -42 -29 -77.5
t-81 -35.5z" />
    <glyph glyph-name="emacron.smallcap" horiz-adv-x="970" 
d="M51 0l4 31l58 8q65 9 65 27v823q0 10 -13.5 15t-58.5 9l-49 9l-4 30h789l12 -305l-37 -2l-16 55q-20 61 -39.5 97t-54 66t-87.5 42.5t-133 12.5l-135 -3v-413l80 2q104 3 146.5 23.5t60.5 82.5l14 49h33l-37 -350l-28 2l-7 47q-6 67 -42 87.5t-150 23.5l-70 4v-434
l158 -4q82 1 140.5 16.5t96 47t60 68.5t41.5 93l16 51h39l-43 -311h-809zM225 1079l13 62h512l-9 -62h-516z" />
    <glyph glyph-name="ebreve.smallcap" horiz-adv-x="970" 
d="M51 0l4 31l58 8q65 9 65 27v823q0 10 -13.5 15t-58.5 9l-49 9l-4 30h789l12 -305l-37 -2l-16 55q-20 61 -39.5 97t-54 66t-87.5 42.5t-133 12.5l-135 -3v-413l80 2q104 3 146.5 23.5t60.5 82.5l14 49h33l-37 -350l-28 2l-7 47q-6 67 -42 87.5t-150 23.5l-70 4v-434
l158 -4q82 1 140.5 16.5t96 47t60 68.5t41.5 93l16 51h39l-43 -311h-809zM496 1008q-44 0 -79.5 14t-61.5 43t-45 60.5t-34.5 80t-25 86t-21.5 94.5h21q47 -131 105.5 -197.5t142.5 -66.5t142 66.5t105 197.5h21q-10 -49 -17.5 -81t-20.5 -75.5t-26.5 -72t-34 -59.5
t-44.5 -49t-56.5 -29.5t-70.5 -11.5z" />
    <glyph glyph-name="edotaccent.smallcap" horiz-adv-x="970" 
d="M51 0l4 31l58 8q65 9 65 27v823q0 10 -13.5 15t-58.5 9l-49 9l-4 30h789l12 -305l-37 -2l-16 55q-20 61 -39.5 97t-54 66t-87.5 42.5t-133 12.5l-135 -3v-413l80 2q104 3 146.5 23.5t60.5 82.5l14 49h33l-37 -350l-28 2l-7 47q-6 67 -42 87.5t-150 23.5l-70 4v-434
l158 -4q82 1 140.5 16.5t96 47t60 68.5t41.5 93l16 51h39l-43 -311h-809zM483 1087q-53 0 -82.5 35.5t-29.5 77.5q0 44 29.5 81.5t82.5 37.5q52 0 81.5 -37.5t29.5 -81.5q0 -42 -29 -77.5t-82 -35.5z" />
    <glyph glyph-name="eogonek.smallcap" horiz-adv-x="970" 
d="M694 -473q-79 0 -129.5 50.5t-50.5 131.5q0 89 64.5 163.5t156.5 127.5h-684l4 31l58 8q65 9 65 27v823q0 10 -13.5 15t-58.5 11l-49 7l-4 30h789l12 -305l-37 -2l-14 55q-17 49 -32 79.5t-38.5 60t-55 45t-78.5 24.5t-112 9l-135 -3v-413l80 2q104 3 146.5 23.5
t60.5 82.5l14 49h33l-37 -348h-28l-7 47q-6 67 -42 87.5t-150 23.5l-70 4v-434l158 -4q82 1 140.5 16.5t96.5 47t61 69t42 92.5l14 51h39l-43 -311h-76q-151 -101 -151 -244q0 -63 35 -99t98 -36q60 0 108 51l13 -12q-15 -46 -72 -89.5t-121 -43.5z" />
    <glyph glyph-name="ecaron.smallcap" horiz-adv-x="970" 
d="M473 1001l-272 398h22l264 -225h5l262 225h22l-272 -398h-31zM51 0l4 31l58 8q65 9 65 27v823q0 10 -13.5 15t-58.5 9l-49 9l-4 30h789l12 -305l-37 -2l-16 55q-20 61 -39.5 97t-54 66t-87.5 42.5t-133 12.5l-135 -3v-413l80 2q104 3 146.5 23.5t60.5 82.5l14 49h33
l-37 -350l-28 2l-7 47q-6 67 -42 87.5t-150 23.5l-70 4v-434l158 -4q82 1 140.5 16.5t96 47t60 68.5t41.5 93l16 51h39l-43 -311h-809z" />
    <glyph glyph-name="gcircumflex.smallcap" horiz-adv-x="1101" 
d="M586 -25q-238 0 -386.5 136.5t-148.5 357.5q0 224 152 365t401 141q66 0 135 -16t111 -35l100 32l4 -315h-36l-113 244q-71 51 -205 51q-111 0 -193 -61t-122.5 -163t-40.5 -231q0 -213 102 -340t252 -127q109 0 178 43v314q0 17 -80 22l-65 10l-4 31h446l-6 -31l-66 -10
q-57 -5 -57 -26v-281l82 4l2 -18q-91 -39 -218 -68t-224 -29zM285 1001l272 398h31l272 -398h-24l-261 226h-4l-264 -226h-22z" />
    <glyph glyph-name="gbreve.smallcap" horiz-adv-x="1101" 
d="M586 -25q-238 0 -386.5 136.5t-148.5 357.5q0 224 152 365t401 141q66 0 135 -16t111 -35l100 32l4 -315h-36l-113 244q-71 51 -205 51q-111 0 -193 -61t-122.5 -163t-40.5 -231q0 -213 102 -340t252 -127q109 0 178 43v314q0 17 -80 22l-65 10l-4 31h446l-6 -31l-66 -10
q-57 -5 -57 -26v-281l82 4l2 -18q-91 -39 -218 -68t-224 -29zM588 1010q-44 0 -79.5 14t-61.5 43.5t-44.5 60.5t-34.5 80.5t-25 86.5t-21 94h20q47 -131 105.5 -198t142.5 -67t142.5 67t105.5 198h20q-12 -57 -21 -94t-25 -86.5t-35 -80.5t-45.5 -60.5t-62.5 -43.5t-81 -14z
" />
    <glyph glyph-name="gdotaccent.smallcap" horiz-adv-x="1101" 
d="M586 -25q-238 0 -386.5 136.5t-148.5 357.5q0 224 152 365t401 141q66 0 135 -16t111 -35l100 32l4 -315h-36l-113 244q-71 51 -205 51q-111 0 -193 -61t-122.5 -163t-40.5 -231q0 -213 102 -340t252 -127q109 0 178 43v314q0 17 -80 22l-65 10l-4 31h446l-6 -31l-66 -10
q-57 -5 -57 -26v-281l82 4l2 -18q-91 -39 -218 -68t-224 -29zM592 1087q-53 0 -83 35.5t-30 77.5q0 44 30 81.5t83 37.5q52 0 81 -37.5t29 -81.5q0 -42 -29 -77.5t-81 -35.5z" />
    <glyph glyph-name="gcommaaccent.smallcap" horiz-adv-x="1101" 
d="M475 -561l-14 16q66 18 111.5 69.5t45.5 113.5q0 73 -56 103t-95 3q-17 46 14.5 88.5t100.5 42.5q68 0 112.5 -44.5t44.5 -115.5q0 -89 -80 -170.5t-184 -105.5zM586 -25q-238 0 -386.5 136.5t-148.5 357.5q0 224 152 365t401 141q66 0 135 -16t111 -35l100 32l4 -315
h-36l-113 244q-71 51 -205 51q-111 0 -193 -61t-122.5 -163t-40.5 -231q0 -213 102 -340t252 -127q109 0 178 43v314q0 17 -80 22l-65 10l-4 31h446l-6 -31l-66 -10q-57 -5 -57 -26v-281l82 4l2 -18q-91 -39 -218 -68t-224 -29z" />
    <glyph glyph-name="hcircumflex.smallcap" horiz-adv-x="1155" 
d="M289 1018l272 397h31l272 -397h-24l-260 225h-5l-264 -225h-22zM51 0l4 31l62 8q61 8 61 27v823q0 10 -13.5 15t-58.5 9l-51 9l-4 30h430l-4 -30l-63 -9q-62 -8 -62 -26v-385h451v387q0 11 -12.5 15.5t-57.5 8.5l-55 9l-4 30h432l-6 -30l-62 -9q-61 -8 -61 -26v-824
q0 -10 14.5 -15t59.5 -9l49 -8l4 -31h-432l6 31l65 8q60 8 60 27v397h-451v-400q0 -10 13.5 -15t58.5 -9l51 -8l6 -31h-430z" />
    <glyph glyph-name="hbar.smallcap" horiz-adv-x="1155" 
d="M8 657l12 58h158v174q0 10 -13.5 15t-58.5 11l-51 7l-4 30h430l-4 -30l-63 -9q-62 -8 -62 -26v-172h451v174q0 11 -12.5 15.5t-57.5 10.5l-55 7l-4 30h432l-6 -30l-62 -9q-61 -8 -61 -26v-172h168l-8 -58h-160v-594q0 -10 14.5 -15t59.5 -9l49 -8l4 -31h-432l6 31l65 8
q60 8 60 27v397h-451v-400q0 -10 13.5 -15t58.5 -9l51 -8l6 -31h-430l4 31l62 8q61 8 61 27v591h-170zM352 502h451v155h-451v-155z" />
    <glyph glyph-name="igrave.smallcap" horiz-adv-x="565" 
d="M59 0l7 31l69 8q62 9 62 27v823q0 10 -14 15t-58 9l-59 9l-5 30h443l-4 -30l-70 -9q-59 -8 -59 -26v-824q0 -10 13 -15t56 -9l60 -8l4 -31h-445zM334 1061l-367 383h197l190 -383h-20z" />
    <glyph glyph-name="iacute.smallcap" horiz-adv-x="565" 
d="M59 0l7 31l69 8q62 9 62 27v823q0 10 -14 15t-58 9l-59 9l-5 30h443l-4 -30l-70 -9q-59 -8 -59 -26v-824q0 -10 13 -15t56 -9l60 -8l4 -31h-445zM201 1061l190 383h199l-367 -383h-22z" />
    <glyph glyph-name="icircumflex.smallcap" horiz-adv-x="565" 
d="M59 0l7 31l69 8q62 9 62 27v823q0 10 -14 15t-58 9l-59 9l-5 30h443l-4 -30l-70 -9q-59 -8 -59 -26v-824q0 -10 13 -15t56 -9l60 -8l4 -31h-445zM-4 1044l272 398h31l272 -398h-24l-260 226h-4l-265 -226h-22z" />
    <glyph glyph-name="idieresis.smallcap" horiz-adv-x="565" 
d="M59 0l7 31l69 8q62 9 62 27v823q0 10 -14 15t-58 9l-59 9l-5 30h443l-4 -30l-70 -9q-59 -8 -59 -26v-824q0 -10 13 -15t56 -9l60 -8l4 -31h-445zM477 1108q-53 0 -82.5 35.5t-29.5 77.5q0 43 30 80.5t82 37.5t81.5 -37.5t29.5 -80.5q0 -42 -29 -77.5t-82 -35.5zM96 1108
q-53 0 -82.5 35.5t-29.5 77.5q0 43 30 80.5t82 37.5t81.5 -37.5t29.5 -80.5q0 -42 -29 -77.5t-82 -35.5z" />
    <glyph glyph-name="imacron.smallcap" horiz-adv-x="565" 
d="M59 0l7 31l69 8q62 9 62 27v823q0 10 -14 15t-58 9l-59 9l-5 30h443l-4 -30l-70 -9q-59 -8 -59 -26v-824q0 -10 13 -15t56 -9l60 -8l4 -31h-445zM20 1079l13 62h512l-8 -62h-517z" />
    <glyph glyph-name="ibreve.smallcap" horiz-adv-x="565" 
d="M59 0l7 31l69 8q62 9 62 27v823q0 10 -14 15t-58 9l-59 9l-5 30h443l-4 -30l-70 -9q-59 -8 -59 -26v-824q0 -10 13 -15t56 -9l60 -8l4 -31h-445zM281 1008q-44 0 -79.5 14t-61.5 43t-45 60.5t-34.5 80t-25 86t-21.5 94.5h21q47 -131 105.5 -197.5t142.5 -66.5t142 66.5
t105 197.5h21q-10 -49 -17.5 -81t-20.5 -75.5t-26.5 -72t-34 -59.5t-44.5 -49t-56.5 -29.5t-70.5 -11.5z" />
    <glyph glyph-name="iogonek.smallcap" horiz-adv-x="565" 
d="M311 -473q-79 0 -129.5 50.5t-50.5 131.5q0 90 66.5 166.5t158.5 124.5h-297l7 31l69 8q62 9 62 27v823q0 9 -14 14.5t-58 11.5l-59 7l-5 30h443l-4 -30l-70 -9q-59 -8 -59 -26v-824q0 -10 13 -15t56 -9l60 -8l4 -31q-118 -20 -186 -84.5t-68 -159.5q0 -63 35 -99t98 -36
q61 0 109 51l12 -12q-15 -46 -71.5 -89.5t-121.5 -43.5z" />
    <glyph glyph-name="idotaccent.smallcap" horiz-adv-x="565" 
d="M59 0l7 31l69 8q62 9 62 27v823q0 10 -14 15t-58 9l-59 9l-5 30h443l-4 -30l-70 -9q-59 -8 -59 -26v-824q0 -10 13 -15t56 -9l60 -8l4 -31h-445zM285 1087q-53 0 -83 35.5t-30 77.5q0 44 30 81.5t83 37.5q52 0 81 -37.5t29 -81.5q0 -42 -29 -77.5t-81 -35.5z" />
    <glyph glyph-name="dotlessi.smallcap" horiz-adv-x="565" 
d="M59 0l7 31l69 8q62 9 62 27v823q0 10 -14 15t-58 9l-59 9l-5 30h443l-4 -30l-70 -9q-59 -8 -59 -26v-824q0 -10 13 -15t56 -9l60 -8l4 -31h-445z" />
    <glyph glyph-name="jcircumflex.smallcap" horiz-adv-x="559" 
d="M63 -190q-63 0 -104 31t-41 77q0 40 26.5 66t67.5 26q63 0 88 -56.5t-10 -107.5h2q121 6 121 297v746q0 9 -14 14.5t-58 11.5l-61 7l-4 30h442l-4 -30l-68 -9q-59 -8 -59 -26v-735q0 -72 -47 -152t-123.5 -135t-153.5 -55zM12 1001l273 398h30l273 -398h-25l-260 226h-4
l-264 -226h-23z" />
    <glyph glyph-name="jcircumflex.smallcap.alt" horiz-adv-x="731" 
d="M270 -20q-123 0 -184 46t-61 111q0 46 27.5 74.5t70.5 28.5q38 0 64 -26t26 -64q0 -27 -13 -50.5t-40 -33.5q13 -23 42.5 -37.5t69.5 -14.5q79 0 114.5 55t35.5 181v639q0 7 -5 11t-22 7.5t-47 5.5l-74 9l-4 30h463l-4 -30l-76 -9q-63 -6 -63 -26v-643q0 -98 -98.5 -181
t-221.5 -83zM207 1001l272 398h31l272 -398h-24l-260 226h-4l-265 -226h-22z" />
    <glyph glyph-name="dotlessj.smallcap" horiz-adv-x="559" 
d="M63 -190q-63 0 -104 31t-41 77q0 40 26.5 66t67.5 26q63 0 88 -56.5t-10 -107.5h2q121 6 121 297v746q0 9 -14 14.5t-58 11.5l-61 7l-4 30h442l-4 -30l-68 -9q-59 -8 -59 -26v-735q0 -72 -47 -152t-123.5 -135t-153.5 -55z" />
    <glyph glyph-name="kcommaaccent.smallcap" horiz-adv-x="1050" 
d="M418 -561l-15 16q66 18 112 69.5t46 113.5q0 73 -56 103t-95 3q-17 46 14 88.5t100 42.5q68 0 113 -44.5t45 -115.5q0 -89 -80 -170.5t-184 -105.5zM51 0l4 31l66 8q57 8 57 27v823q0 10 -12 15t-55 9l-54 9l-4 30h439l-5 -30l-73 -9q-62 -8 -62 -26v-455l230 232
q154 155 164 204q7 35 -44 45q-15 3 -38 5l-46 4l-2 30h394l-4 -30l-29 -4q-76 -10 -127 -48t-201 -190l-67 -66l295 -467q43 -71 66.5 -89t68.5 -23l32 -4l5 -31h-424l4 31l39 6q16 2 25 4.5t13.5 9t4.5 15.5t-6.5 25t-16 34.5t-26.5 48.5l-197 320l-113 -111v-320
q0 -10 14 -15t58 -9l61 -8l4 -31h-438z" />
    <glyph glyph-name="lacute.smallcap" horiz-adv-x="890" 
d="M176 1004l191 382h198l-366 -382h-23zM51 0l4 31l66 8q57 8 57 27v823q0 10 -12 15t-55 9l-54 9l-4 30h451l-4 -30l-86 -9q-29 -3 -45.5 -10.5t-16.5 -15.5v-848l103 -4q62 0 108.5 10.5t78 28t57.5 50.5t43.5 66.5t39.5 88.5l17 55h39l-45 -334h-742z" />
    </font>
</defs>
</svg>
