<?xml version="1.0" standalone="no"?>
<!DOCTYPE svg PUBLIC "-//W3C//DTD SVG 1.1//EN" "http://www.w3.org/Graphics/SVG/1.1/DTD/svg11.dtd" >
<svg xmlns="http://www.w3.org/2000/svg" xmlns:xlink="http://www.w3.org/1999/xlink" version="1.1">
<metadata>
Created by FontForge 20170731 at Wed Dec  8 17:00:25 2021
 By Aleksey,,,
Copyright (c) 2005-2009, Joshua Darden &#38; Phil's Fonts, Inc. All rights reserved. Published by Garagefonts USA 301-879-9222 www.garagefonts.com
</metadata>
<defs>
<font id="FreightBigProBold-Regular" horiz-adv-x="1536" >
  <font-face 
    font-family="FreightBig Pro Bold"
    font-weight="700"
    font-stretch="normal"
    units-per-em="2048"
    panose-1="2 0 8 3 9 0 0 2 0 4"
    ascent="1638"
    descent="-410"
    x-height="874"
    cap-height="1280"
    bbox="-420 -612 2728 1997"
    underline-thickness="40"
    underline-position="-312"
    unicode-range="U+0020-FB04"
  />
<missing-glyph horiz-adv-x="1024" 
 />
    <glyph glyph-name="ff" unicode="ff" horiz-adv-x="1175" 
d="M41 0l6 12l37 2q50 3 68 9t18 24v731l-170 2l49 84h119l4 39q19 111 67 196.5t113.5 136t138.5 76t150 25.5q78 0 132 -34t54 -91v-6q62 74 149 112t177 38q79 0 116.5 -30.5t37.5 -74.5q0 -43 -32.5 -75.5t-78.5 -32.5q-51 0 -94 44.5t-53 108.5l-2 11l-25 4
q-66 -29 -84 -101t-18 -239v-107h262l-45 -86h-217v-735q0 -27 108 -29l72 -2l2 -12h-514l6 12l37 2q53 3 68.5 9t15.5 24v733h-344v-737q0 -27 106 -29l62 -2l6 -12h-504zM721 934q6 96 45 176q-24 -12 -53 -12q-72 0 -115 56t-35 130l-61 16q-74 -38 -102.5 -121.5
t-28.5 -230.5v-84h344z" />
    <glyph glyph-name="fi" unicode="fi" horiz-adv-x="1114" 
d="M43 0l6 12l37 2q50 3 68 9t18 24v729l-162 2l47 96l115 -2l6 101q6 90 54.5 166.5t120.5 125.5t157.5 76t169.5 27q89 0 141.5 -38.5t52.5 -98.5q0 -48 -34.5 -83.5t-83.5 -35.5q-69 0 -113.5 60t-50.5 143l-51 14q-71 -23 -104.5 -94t-33.5 -223v-138h431l124 25v-856
q0 -12 19 -17.5t86 -11.5l22 -2l7 -12h-484l4 12l37 2q52 3 65 8.5t13 24.5v733h-324v-737q0 -9 5.5 -14t25 -9t58.5 -6l45 -2l6 -12h-500z" />
    <glyph glyph-name="fl" unicode="fl" horiz-adv-x="1105" 
d="M805 1323l153 53v-1333q0 -12 17.5 -16.5t87.5 -12.5l22 -2l7 -12h-484l6 12l27 2q29 3 40 4.5t24.5 5t17.5 9t4 14.5v733h-324v-737q0 -9 5.5 -14t25 -9t58.5 -6l45 -2l6 -12h-500l6 12l37 2q50 3 68 9t18 24v729l-162 2l47 96l115 -2l6 101q6 90 53 166.5t116.5 125.5
t152 76t164.5 27q93 0 141 -45zM727 874v271q-66 4 -110 56t-44 114l-43 14q-69 -22 -98 -92t-29 -225v-138h324z" />
    <glyph glyph-name="ffi" unicode="ffi" horiz-adv-x="1624" 
d="M41 0l6 12l37 2q50 3 68 9t18 24v731l-170 2l49 84h119l4 39q19 111 67 196.5t113.5 136t138.5 76t150 25.5q78 0 132 -34t54 -91q0 -4 -1 -11t-1 -11q68 81 167.5 124.5t199.5 43.5q78 0 131 -33.5t53 -87.5q0 -45 -32 -78t-78 -33q-72 0 -116 55.5t-38 123.5l-61 14
q-78 -37 -104.5 -119t-26.5 -233v-103h364l180 25v-846q0 -13 19.5 -19t85.5 -10l28 -2l7 -12h-465l6 16l37 2q50 3 65 8t15 23v731h-342v-737q0 -27 106 -29l64 -2l4 -12h-506l6 12l37 2q53 3 68.5 9t15.5 24v733h-344v-737q0 -27 106 -29l62 -2l6 -12h-504zM721 928
q5 96 51 186q-26 -16 -59 -16q-71 0 -114.5 58t-35.5 128l-61 16q-74 -38 -102.5 -121.5t-28.5 -230.5v-84h344z" />
    <glyph glyph-name="ffl" unicode="ffl" horiz-adv-x="1611" 
d="M1282 1343l182 35v-1335q0 -12 17.5 -16.5t87.5 -12.5l24 -2l6 -12h-460l6 12l35 2q48 3 65 9t17 24v733h-342v-737q0 -27 106 -29l64 -2l4 -12h-506l6 12l37 2q53 3 68.5 9t15.5 24v733h-344v-737q0 -27 106 -29l62 -2l6 -12h-504l6 12l37 2q50 3 68 9t18 24v731l-170 2
l49 84h119l4 39q19 111 67 196.5t113.5 136t138.5 76t150 25.5q78 0 132 -34t54 -91q0 -14 -2 -20q69 81 167 123.5t198 42.5q38 0 92 -15zM1262 864v269h-5q-72 0 -116 55t-35 119l-53 12q-81 -37 -107 -118t-26 -234v-103h342zM721 928q6 103 51 186q-29 -16 -59 -16
q-72 0 -115 55.5t-35 130.5l-61 16q-74 -38 -102.5 -121.5t-28.5 -230.5v-84h344z" />
    <glyph glyph-name=".notdef" horiz-adv-x="1024" 
 />
    <glyph glyph-name=".null" horiz-adv-x="0" 
 />
    <glyph glyph-name="nonmarkingreturn" horiz-adv-x="682" 
 />
    <glyph glyph-name="space" unicode=" " horiz-adv-x="368" 
 />
    <glyph glyph-name="exclam" unicode="!" horiz-adv-x="550" 
d="M268 395l-123 779q-11 61 14.5 98t114.5 37h7q47 0 77 -11.5t40.5 -30.5t13.5 -43t-4 -50l-121 -779q-1 -6 -5 -8.5t-8.5 -0.5t-5.5 9zM276 -27q-57 0 -97 40.5t-40 97.5q0 53 40 92t97 39t97.5 -39.5t40.5 -91.5q0 -56 -40 -97t-98 -41z" />
    <glyph glyph-name="quotedbl" unicode="&#x22;" horiz-adv-x="688" 
d="M348 825l215 496h2l146 -64l-351 -432h-12zM-4 825l215 496h4l145 -64l-354 -432h-10z" />
    <glyph glyph-name="numbersign" unicode="#" horiz-adv-x="1011" 
d="M147 -10l107 405h-285v17h289l119 452h-285v17h289l108 413h23l-109 -413h334l109 413h22l-108 -413h282v-17h-286l-119 -452h283v-17h-287l-107 -405h-22l106 405h-334l-106 -405h-23zM281 412h333l119 452h-334z" />
    <glyph glyph-name="dollar" unicode="$" horiz-adv-x="985" 
d="M317 -14q-131 15 -241 57l-23 330h15l122 -226q62 -74 142 -112l135 514l-29 10q-65 24 -111.5 45t-95.5 53t-79 68t-49 87t-19 112q0 156 124 268.5t308 112.5q56 0 148 -15l59 223h20q-59 -227 -61 -227q71 -16 119 -33l84 29l6 -354h-10l-174 295q-13 11 -35 20
q1 1 -28 -108.5t-58.5 -219.5t-30.5 -110l16 -6q59 -21 103 -39.5t92.5 -45t82 -57t62 -69t42.5 -88.5t14 -109q0 -106 -62 -201.5t-174.5 -155t-247.5 -59.5q-75 0 -145 9q1 0 -20 -80.5t-42 -161.5l-22 -80h-21q5 20 14 54t28 105t31 118t11 47zM350 27q72 -29 142 -29
q121 0 197.5 70t76.5 188q0 56 -20.5 101t-62 78.5t-86.5 57t-110 48.5zM653 1251q-71 33 -143 33q-99 0 -165 -62.5t-66 -152.5q0 -51 19 -91.5t57 -70.5t79.5 -51.5t102.5 -44.5q7 28 19 73.5t37.5 142.5t42.5 161t17 63z" />
    <glyph glyph-name="percent" unicode="%" horiz-adv-x="1083" 
d="M270 791q-115 0 -184.5 75t-69.5 183q0 109 69.5 185.5t184.5 76.5q116 0 186 -76.5t70 -185.5q0 -108 -70 -183t-186 -75zM88 -29l877 1340h24l-876 -1340h-25zM811 -27q-115 0 -184.5 74.5t-69.5 181.5q0 110 69.5 187.5t184.5 77.5q116 0 186 -77.5t70 -187.5
q0 -107 -70 -181.5t-186 -74.5zM270 811q104 0 168 68t64 170q0 101 -64.5 171t-167.5 70t-166 -70t-63 -171q0 -102 63 -170t166 -68zM811 -6q104 0 167.5 67.5t63.5 169.5q0 101 -64 171.5t-167 70.5t-166 -70t-63 -172t62.5 -169.5t166.5 -67.5z" />
    <glyph glyph-name="ampersand" unicode="&#x26;" horiz-adv-x="1490" 
d="M416 -25q-180 0 -288 104.5t-108 258.5q0 150 103 256t276 154q-87 39 -142.5 109t-55.5 155q0 78 56.5 146.5t142 106.5t171.5 38q151 0 249 -64.5t98 -159.5q0 -87 -75.5 -146t-187.5 -79q95 -42 208.5 -161t174.5 -228q82 113 121 184.5t39 116.5q0 79 -178 94l-23 2
l-6 12h537l-6 -12l-25 -2q-87 -6 -141.5 -45.5t-147.5 -161.5l-159 -211q89 -194 156.5 -266t152.5 -72q84 0 160 84l14 -8q-30 -32 -49.5 -52t-57 -52.5t-69.5 -51.5t-74.5 -34t-83.5 -15q-120 0 -196.5 68t-137.5 211q-119 -135 -225.5 -207t-222.5 -72zM635 862
q82 53 82 203q0 86 -42 152.5t-116 66.5q-68 0 -108.5 -53.5t-40.5 -134.5q0 -148 225 -234zM551 135q165 0 305 137q-65 158 -178 283.5t-258 183.5q-97 -59 -135.5 -134t-38.5 -171q0 -125 88 -212t217 -87z" />
    <glyph glyph-name="quotesingle" unicode="'" horiz-adv-x="342" 
d="M-4 825l215 496h4l145 -64l-354 -432h-10z" />
    <glyph glyph-name="parenleft" unicode="(" horiz-adv-x="647" 
d="M639 -571q-69 39 -139 97.5t-142 147t-127 191t-90 236.5t-35 276q0 143 35 278t90 237.5t127 191t142 146.5t139 95l10 -16q-68 -38 -137 -96.5t-139 -146t-123.5 -189t-87 -232.5t-33.5 -268q0 -139 33.5 -270.5t87 -232t124 -187.5t139 -145.5t136.5 -96.5z" />
    <glyph glyph-name="parenright" unicode=")" horiz-adv-x="647" 
d="M8 -571l-10 16q68 38 136.5 96.5t139 145.5t124 187.5t87 232t33.5 270.5q0 137 -33.5 268t-87 232.5t-123.5 189t-139 146t-137 96.5l10 16q69 -37 139 -95t142 -146.5t127 -191t90 -237.5t35 -278q0 -142 -35 -276t-90 -236.5t-127 -191t-142 -147t-139 -97.5z" />
    <glyph glyph-name="asterisk" unicode="*" horiz-adv-x="638" 
d="M414 633l-119 63l10 260q0 9 -7 10l-3 -1l-129 -222l-139 11q-9 0 -9 6l23 137l248 70q6 6 0 14l-248 74l-25 137q0 4 9 4l141 12l127 -221q1 -4 3.5 -4.5t4.5 1t2 3.5l-8 266l123 62q4 3 5 0q0 -1 1 -2l57 -119l-170 -207q-2 -2 -1.5 -5t3 -5.5t4.5 -1.5l246 96l99 -94
q8 -8 0 -8l-99 -92l-246 96q-2 1 -4 -1.5t-3 -6.5t1 -7l168 -204l-57 -117q-4 -8 -8 -4z" />
    <glyph glyph-name="plus" unicode="+" horiz-adv-x="886" 
d="M432 49v424h-418l4 25h414v415h25v-415h411l4 -25h-415v-424h-25z" />
    <glyph glyph-name="comma" unicode="," horiz-adv-x="405" 
d="M70 -258l-9 8q87 43 132 106.5t45 131.5q0 42 -18 72.5t-45.5 43t-60 11.5t-61.5 -17q-27 54 13 116t124 62q83 0 133 -52.5t50 -131.5q0 -98 -85 -200t-218 -150z" />
    <glyph glyph-name="hyphen" unicode="-" horiz-adv-x="573" 
d="M37 438l6 82h494l-7 -82h-493z" />
    <glyph glyph-name="period" unicode="." horiz-adv-x="436" 
d="M219 -23q-58 0 -98.5 41.5t-40.5 98.5q0 53 40.5 93t98.5 40q56 0 96.5 -40.5t40.5 -92.5q0 -57 -40 -98.5t-97 -41.5z" />
    <glyph glyph-name="slash" unicode="/" horiz-adv-x="509" 
d="M33 -506l430 1796h20l-430 -1796h-20z" />
    <glyph glyph-name="zero" unicode="0" horiz-adv-x="1173" 
d="M580 -25q-222 0 -370.5 142.5t-148.5 371.5q0 150 72.5 270t194 185.5t266.5 65.5q108 0 203 -37.5t164.5 -104t110 -163t40.5 -209.5q0 -151 -72 -271t-193 -185t-267 -65zM586 -4q119 0 194.5 139.5t75.5 345.5q0 238 -70 374t-200 136q-78 0 -140 -65t-95.5 -175
t-33.5 -243q0 -247 68.5 -379.5t200.5 -132.5z" />
    <glyph glyph-name="one" unicode="1" horiz-adv-x="718" 
d="M96 0l6 12l54 2q53 2 73.5 7.5t20.5 23.5v852l-193 23l6 14l429 63v-956q0 -22 112 -27l45 -2l6 -12h-559z" />
    <glyph glyph-name="two" unicode="2" horiz-adv-x="962" 
d="M43 0l-10 55q112 85 176 135.5t130 107.5t98 93.5t60 79.5t37 81.5t9 84.5q0 97 -62.5 159t-154.5 62q-87 0 -150 -41.5t-110 -132.5l-15 6q68 150 174.5 233t245.5 83q128 0 213.5 -76t85.5 -187q0 -50 -18 -96t-52 -88.5t-88 -89.5t-121 -98t-157 -116q-64 -46 -98 -71
v-4l526 -2q27 0 63 58.5t95 199.5l10 23l16 -4l-102 -455h-801z" />
    <glyph glyph-name="three" unicode="3" horiz-adv-x="880" 
d="M305 -412q-130 0 -209.5 48t-79.5 118q0 49 32.5 81t82.5 32q77 0 121.5 -72t32.5 -164q5 -3 29 -7.5t44 -4.5q107 0 181.5 94t74.5 232q0 149 -83 241.5t-218 92.5q-84 0 -174 -41l-6 18q197 112 250 149q103 73 128 152q11 35 11 76q0 101 -61 163t-158 62
q-179 0 -254 -172l-14 6q60 149 162.5 231.5t240.5 82.5q135 0 220 -74t85 -184q0 -48 -18 -91t-43 -73t-68 -62t-77.5 -51.5t-87.5 -46.5v-2q178 -4 280 -109.5t102 -259.5q0 -88 -40.5 -172.5t-109.5 -149t-168 -104t-208 -39.5z" />
    <glyph glyph-name="four" unicode="4" horiz-adv-x="1030" 
d="M547 -377v387h-522l-2 19l651 954h96v-819h242l-51 -154h-191v-387h-223zM143 166h404v586h-2z" />
    <glyph glyph-name="five" unicode="5" horiz-adv-x="837" 
d="M238 -410q-279 0 -279 166q0 50 34 83.5t85 33.5q74 0 113.5 -72.5t25.5 -152.5q52 -25 100 -25q100 0 173 87.5t73 221.5q0 170 -131 269t-371 118l168 654h562l-48 -215h-546l-58 -232q322 -28 471.5 -149.5t149.5 -310.5q0 -125 -74 -235.5t-195 -175.5t-253 -65z" />
    <glyph glyph-name="six" unicode="6" horiz-adv-x="1075" 
d="M547 -27q-217 0 -354.5 146t-137.5 366q0 227 126 418.5t344.5 309.5t486.5 139l4 -15q-114 -17 -214.5 -63.5t-174.5 -110t-133 -143.5t-96.5 -162t-59.5 -168l2 -4q150 123 311 123q162 0 266.5 -103t104.5 -278q0 -194 -138 -324.5t-337 -130.5zM563 -6
q101 0 158 99.5t57 277.5q0 166 -73.5 260t-192.5 94q-104 0 -174 -70q-25 -52 -25 -182q0 -225 62 -352t188 -127z" />
    <glyph glyph-name="seven" unicode="7" horiz-adv-x="917" 
d="M154 -377l643 1141v8h-357q-85 0 -139.5 -4t-97 -14.5t-67 -31t-40.5 -49.5t-26 -75l-4 -18l-21 2l47 393h803l2 -14l-539 -1338h-204z" />
    <glyph glyph-name="eight" unicode="8" horiz-adv-x="1019" 
d="M516 -31q-200 0 -329.5 96t-129.5 246q0 102 89 180.5t223 108.5v4q-65 30 -112.5 60.5t-87.5 69.5t-60.5 88.5t-20.5 107.5q0 153 113 267t299 114q189 0 310.5 -87.5t121.5 -228.5q0 -91 -81.5 -160.5t-207.5 -105.5v-2q73 -31 127.5 -64.5t100 -76.5t69 -98.5
t23.5 -120.5q0 -163 -128 -280.5t-319 -117.5zM618 735q49 37 74 101t25 141q0 81 -26 152.5t-78 118t-119 46.5q-95 0 -149 -70t-54 -167q0 -106 81.5 -181.5t245.5 -140.5zM526 -4q107 0 172.5 69.5t65.5 172.5q0 114 -97 198.5t-274 155.5q-117 -75 -117 -268
q0 -80 30 -154t88.5 -124t131.5 -50z" />
    <glyph glyph-name="nine" unicode="9" horiz-adv-x="1075" 
d="M61 -367l-4 15q114 17 214.5 63.5t174.5 110t133 143.5t96.5 162t59.5 168l-4 2q-68 -57 -148.5 -90t-160.5 -33q-162 0 -267.5 103t-105.5 282q0 130 66.5 234.5t175.5 160.5t237 56q145 0 257.5 -68t172.5 -184t60 -258q0 -170 -74 -323t-201.5 -266.5t-304 -187
t-377.5 -90.5zM561 262q103 0 174 68q23 48 23 186q0 94 -12.5 175t-40 150t-77 108.5t-116.5 39.5q-95 0 -156 -97t-61 -276q0 -159 73 -256.5t193 -97.5z" />
    <glyph glyph-name="colon" unicode=":" horiz-adv-x="432" 
d="M219 584q-58 0 -98.5 41t-40.5 98q0 54 40.5 93.5t98.5 39.5q57 0 97 -39.5t40 -93.5q0 -56 -40.5 -97.5t-96.5 -41.5zM219 -23q-58 0 -98.5 40.5t-40.5 95.5q0 54 40.5 93.5t98.5 39.5q57 0 97 -39.5t40 -93.5q0 -55 -40.5 -95.5t-96.5 -40.5z" />
    <glyph glyph-name="semicolon" unicode=";" horiz-adv-x="405" 
d="M207 584q-57 0 -97 41t-40 98q0 53 40.5 93t96.5 40q57 0 97 -40.5t40 -92.5q0 -58 -39.5 -98.5t-97.5 -40.5zM70 -256l-9 10q87 43 132 104.5t45 129.5q0 42 -18 72t-45.5 42.5t-60 11.5t-61.5 -16q-27 51 13.5 114.5t123.5 63.5q82 0 132.5 -53.5t50.5 -130.5
q0 -99 -84.5 -198.5t-218.5 -149.5z" />
    <glyph glyph-name="less" unicode="&#x3c;" horiz-adv-x="860" 
d="M825 68l-815 403v23l815 401l11 -23l-793 -387v-4l793 -391z" />
    <glyph glyph-name="equal" unicode="=" horiz-adv-x="876" 
d="M37 647l-6 25h815l-6 -25h-803zM31 293l6 24h803l6 -24h-815z" />
    <glyph glyph-name="greater" unicode="&#x3e;" horiz-adv-x="860" 
d="M35 68l-10 22l792 391v4l-792 387l10 23l815 -401v-23z" />
    <glyph glyph-name="question" unicode="?" horiz-adv-x="657" 
d="M313 367q-69 50 -124.5 123.5t-55.5 123.5q0 39 15.5 68t50 52.5t70.5 39.5t96 37q117 40 158.5 68t41.5 67q0 67 -79.5 114.5t-227.5 47.5q-74 0 -168 -23q-48 41 -51 111q-3 54 32 83.5t115 29.5q91 0 169.5 -38.5t129.5 -100.5t80 -140.5t29 -159.5
q0 -105 -33.5 -153.5t-128.5 -87.5q-130 -50 -159 -70q-32 -25 -33 -57q0 -35 20 -62t68 -69zM313 -25q-56 0 -96.5 40.5t-40.5 95.5q0 54 40 93.5t97 39.5q58 0 98 -39t40 -94t-40 -95.5t-98 -40.5z" />
    <glyph glyph-name="at" unicode="@" horiz-adv-x="1566" 
d="M795 -211q-162 0 -300.5 52t-236 143.5t-152.5 221.5t-55 283q0 167 63.5 320t170 263.5t253.5 176.5t308 66q192 0 345.5 -81t240 -225.5t86.5 -324.5q0 -149 -68 -280.5t-178 -209t-230 -77.5q-100 0 -158.5 49t-58.5 127q0 74 43 172h-4q-114 -185 -192.5 -266.5
t-165.5 -81.5q-76 0 -132 54t-57 134q0 114 82 253t201 251q146 143 270 143q56 0 84 -63.5t17 -145.5h2l92 258l201 -8l-136 -340l-92 -239q-71 -203 121 -203q57 0 117 36t109 97t80.5 151t31.5 189q0 264 -184.5 438t-466.5 174q-157 0 -300.5 -64.5t-247 -173.5
t-165 -258t-61.5 -311q0 -197 91.5 -352.5t256.5 -242.5t375 -87q217 0 398 111t263 279l19 -9q-84 -172 -270.5 -285.5t-409.5 -113.5zM604 240q53 0 126 78t149 229q59 111 59 147q0 60 -43 115t-96 55q-35 0 -70 -35q-68 -64 -135.5 -214t-67.5 -259q0 -54 21.5 -85
t56.5 -31z" />
    <glyph glyph-name="A" unicode="A" horiz-adv-x="1343" 
d="M705 551h-336l-74 -207q-60 -178 -66 -222q-8 -59 31 -80q30 -17 123 -26l41 -4l6 -12h-450l6 12l34 4q27 3 44.5 6.5t37 13.5t31.5 19.5t29 35t28.5 49t31 71.5t36.5 92.5t45 122.5l229 643l-22 66q64 19 103 62.5t71 117.5h37l352 -1034q39 -113 67.5 -167t57 -74.5
t76.5 -23.5l57 -4l4 -12h-641l6 12l56 4q74 4 86 47t-23 140zM377 571h321l-153 467h-2z" />
    <glyph glyph-name="B" unicode="B" horiz-adv-x="1245" 
d="M35 0l6 12l76 8q96 11 96 35v1176q0 11 -20.5 16.5t-96.5 12.5l-53 6l-6 14h543q146 0 251 -19.5t166.5 -58t90 -89.5t28.5 -118q0 -106 -95 -176.5t-284 -99.5v-6q209 -13 328 -108t119 -238q0 -170 -144.5 -268.5t-427.5 -98.5h-577zM584 20q-1 0 26 7
q132 9 214.5 101.5t82.5 225.5q0 149 -99 242.5t-249 93.5q-52 0 -82 -6v-629zM477 709h49q145 -2 231.5 70.5t86.5 203.5q0 136 -82.5 203t-231.5 67l-53 -2v-542z" />
    <glyph glyph-name="C" unicode="C" horiz-adv-x="1402" 
d="M795 -25q-164 0 -303 50t-234.5 137t-149 208t-53.5 261q0 142 52 265t148 215t241 145t321 53q89 0 181 -23.5t149 -54.5l131 43l12 -412h-12l-207 363q-34 25 -105.5 42t-152.5 17q-147 0 -255.5 -86t-162 -229.5t-53.5 -325.5q0 -145 36.5 -267t99 -204t147 -128
t180.5 -46q163 0 268.5 76t186.5 231l63 121h12l-69 -363l-68 -10q-62 -28 -183 -53t-220 -25z" />
    <glyph glyph-name="D" unicode="D" horiz-adv-x="1409" 
d="M35 0l6 12l76 8q96 11 96 35v1176q0 8 -8 12.5t-33.5 9t-75.5 9.5l-53 6l-6 12h47t110.5 0.5t150.5 0.5t142 0.5t113 0.5t37 0q353 3 537 -164.5t184 -464.5q0 -134 -54.5 -253t-151 -207.5t-240 -140.5t-312.5 -52h-565zM614 23q89 1 164 32t129 86t91.5 129t56 160.5
t18.5 181.5q0 147 -29 263.5t-87.5 202.5t-152.5 132.5t-218 46.5h-109v-1198z" />
    <glyph glyph-name="E" unicode="E" horiz-adv-x="1247" 
d="M35 0l6 12l72 8q100 11 100 35v1176q0 8 -7.5 12.5t-33 9t-76.5 9.5l-53 6l-6 12h1044l21 -418h-12l-9 23q-59 206 -160 291t-286 81l-158 -2v-587h88q136 8 203.5 49.5t99.5 140.5l13 37l14 -2l-53 -490l-15 3l-2 36q-9 112 -65 152t-213 49l-70 4v-618l201 -9
q186 3 300.5 103.5t180.5 282.5l10 22h13l-58 -428h-1089z" />
    <glyph glyph-name="F" unicode="F" horiz-adv-x="1177" 
d="M35 0l6 12l80 8q92 10 92 35v1176q0 8 -6.5 12.5t-31 9t-75.5 9.5l-57 6l-6 12h1053l20 -393h-12l-11 22q-49 131 -102 204t-135 110t-205 37l-168 -5v-598l88 5q137 5 204 44.5t99 139.5l13 39l14 -2l-53 -490l-15 2l-2 35q-9 115 -66.5 158.5t-211.5 44.5l-70 2v-586
q0 -8 6.5 -12.5t32.5 -9.5t76 -9l88 -6l6 -12h-651z" />
    <glyph glyph-name="G" unicode="G" horiz-adv-x="1466" 
d="M778 -33q-163 0 -299.5 51t-229 140t-143.5 211t-51 262q0 142 50.5 265t144.5 215t239 145t324 53q94 0 192 -22.5t150 -51.5l129 39l8 -412h-12l-201 359q-39 30 -112.5 47.5t-157.5 17.5q-112 0 -202 -49.5t-147 -137t-87.5 -204t-30.5 -252.5q0 -126 26 -233.5
t70.5 -183.5t103 -130t124 -80t133.5 -26t131.5 20t93.5 43v455q0 23 -139 31l-70 6l-6 12h643l-6 -12l-86 -8q-84 -7 -84 -29v-406l117 23l2 -8q-125 -62 -302.5 -106t-314.5 -44z" />
    <glyph glyph-name="H" unicode="H" horiz-adv-x="1531" 
d="M35 0l6 12l76 8q96 11 96 35v1176q0 8 -7.5 12.5t-33 9t-76.5 9.5l-53 6l-6 12h620l-6 -12l-78 -8q-96 -11 -96 -35v-563h578v569q0 8 -7.5 12.5t-33 9t-76.5 9.5l-55 6l-6 12h620l-6 -12l-76 -8q-96 -11 -96 -35v-1176q0 -8 7.5 -12.5t33 -9t76.5 -9.5l53 -6l6 -12h-621
l7 12l77 8q97 11 97 35v586h-578v-592q0 -8 7.5 -12.5t33 -9t76.5 -9.5l55 -6l6 -12h-620z" />
    <glyph glyph-name="I" unicode="I" horiz-adv-x="739" 
d="M55 0l6 12l80 8q33 3 56 9t32 13t9 13v1176q0 8 -7.5 12.5t-33 9t-76.5 9.5l-60 6l-6 12h629l-6 -12l-80 -8q-33 -3 -55.5 -9t-31.5 -12.5t-9 -13.5v-1176q0 -8 7 -12.5t32.5 -9t76.5 -9.5l58 -6l6 -12h-627z" />
    <glyph glyph-name="J" unicode="J" horiz-adv-x="716" 
d="M4 -356q-86 0 -139 41t-53 106q0 57 39 96t100 39q65 0 102.5 -43.5t32.5 -103t-53 -103.5q96 -9 145 103.5t49 316.5v1135q0 8 -7 12.5t-33 9.5t-76 9l-58 6l-6 12h627l-6 -12l-80 -8q-96 -11 -96 -35v-1135q0 -44 -47 -119t-116 -148t-159 -126t-166 -53z" />
    <glyph glyph-name="K" unicode="K" horiz-adv-x="1427" 
d="M35 0l6 12l80 8q92 11 92 35v1176q0 8 -6.5 12.5t-31 9t-75.5 9.5l-57 6l-6 12h633l-6 -12l-91 -8q-33 -3 -55.5 -9t-31.5 -12.5t-9 -13.5v-650l307 318q204 207 228 281q18 54 -43 74q-32 9 -90 14l-64 6l-4 12h547l-6 -12l-45 -4q-27 -2 -48.5 -5.5t-45 -13.5t-39 -17
t-42.5 -28.5t-43.5 -35t-53 -49.5t-60 -60t-76.5 -78t-90 -92l-10 -11l397 -665q53 -90 82.5 -127.5t54.5 -50t72 -15.5l35 -4l6 -12h-617l5 12l38 4q42 3 60.5 13t17.5 39t-22.5 75.5t-69.5 130.5l-240 414l-141 -143v-496q0 -8 7.5 -12.5t33 -9t76.5 -9.5l68 -6l6 -12
h-633z" />
    <glyph glyph-name="L" unicode="L" horiz-adv-x="1179" 
d="M35 0l6 12l80 8q92 10 92 35v1176q0 8 -6.5 12.5t-31 9t-75.5 9.5l-57 6l-6 12h653l-6 -12l-111 -8q-44 -3 -70 -13t-26 -22v-1194l150 -13q86 0 152 24.5t122 80.5t101 130t98 189l12 27h12l-65 -469h-1024z" />
    <glyph glyph-name="M" unicode="M" horiz-adv-x="1722" 
d="M27 0l6 12l39 2q94 5 126.5 31t32.5 64l27 1095q-50 50 -141 60l-58 4l-6 12h459l346 -930h2l357 930h469l-7 -12l-102 -8q-32 -3 -54.5 -9t-32 -13t-9.5 -13l24 -1176q0 -8 7.5 -12.5t32.5 -9t75 -9.5l59 -6l7 -12h-639l6 12l98 8q84 7 84 35l-27 1135h-2l-456 -1190
h-21l-432 1137q-3 8 -11.5 21.5t-9.5 15.5l-18 -1080q0 -70 197 -80l37 -2l6 -12h-471z" />
    <glyph glyph-name="N" unicode="N" horiz-adv-x="1431" 
d="M1190 -12l-930 1108h-2l2 -1006q0 -63 184 -76l39 -2l6 -12h-452l6 12l41 2q80 6 114.5 31.5t34.5 60.5l7 1012q-99 133 -222 148l-22 2l-4 12h471l729 -874h2l-2 782q0 65 -184 78l-37 2l-6 12h450l-6 -12l-41 -2q-78 -6 -113.5 -33t-35.5 -62l-9 -1183h-20z" />
    <glyph glyph-name="O" unicode="O" horiz-adv-x="1513" 
d="M745 -25q-198 0 -355 82.5t-246 234.5t-89 347q0 130 57 252.5t153 214t228 146.5t275 55q198 0 355 -84t246 -237.5t89 -348.5q0 -130 -57 -251.5t-152.5 -211.5t-228 -144.5t-275.5 -54.5zM764 -2q405 0 405 643q0 303 -111 472t-306 169q-202 0 -306 -161t-104 -482
q0 -306 111.5 -473.5t310.5 -167.5z" />
    <glyph glyph-name="P" unicode="P" horiz-adv-x="1204" 
d="M20 0l7 12l90 8q96 11 96 35v1176q0 8 -7.5 12.5t-33 9t-76.5 9.5l-67 6l-6 12h591q274 0 407.5 -76t133.5 -233q0 -161 -151 -257t-406 -96q-60 0 -121 11v-580q0 -8 6.5 -12.5t32.5 -9.5t76 -9l88 -6l6 -12h-666zM592 641q125 0 203.5 83t78.5 220q0 158 -71.5 236.5
t-224.5 79.5l-101 -5v-598q7 -1 22.5 -4.5t26 -5.5t28.5 -4t38 -2z" />
    <glyph glyph-name="Q" unicode="Q" horiz-adv-x="1509" 
d="M1227 -371q-98 0 -173.5 15t-146 53t-127.5 108t-102 175q-278 22 -450.5 206.5t-172.5 452.5q0 128 57.5 250t153 213t228 147t274.5 56q152 0 282 -51.5t219 -141t139 -212.5t50 -263q0 -198 -133.5 -369t-341.5 -243q66 -160 138.5 -238t178 -101t254.5 3l5 -13
q-57 -17 -151.5 -32t-180.5 -15zM764 -4q200 0 302.5 162t102.5 483q0 300 -111.5 470.5t-305.5 170.5q-202 0 -306 -163.5t-104 -483.5q0 -305 111.5 -472t310.5 -167z" />
    <glyph glyph-name="R" unicode="R" horiz-adv-x="1396" 
d="M20 0l7 12l90 8q40 4 68 15t28 20v1176q0 8 -7.5 12.5t-33 9t-76.5 9.5l-67 6l-6 12l612 2q532 0 532 -328q0 -114 -86.5 -199.5t-228.5 -111.5l266 -420q76 -122 122 -162t124 -47l22 -2l9 -12h-445l-16 33l-344 608q-60 13 -113 33v-625q0 -22 115 -31l78 -6l6 -12
h-656zM580 676q147 0 228 75t81 214t-87 217t-247 75h-78v-565q74 -16 103 -16z" />
    <glyph glyph-name="S" unicode="S" horiz-adv-x="1052" 
d="M502 -25q-225 0 -408 72l-22 328h12l82 -158q59 -113 142.5 -167t201.5 -54q127 0 200.5 71.5t73.5 192.5q0 51 -17 93t-43 71.5t-70 56.5t-85.5 44.5t-101.5 39.5q-65 24 -111.5 45t-95.5 53t-79 68t-49 87t-19 112q0 158 119 267.5t303 109.5q132 0 286 -52l82 29
l6 -356h-10l-172 301q-78 57 -197 57q-100 0 -165.5 -60t-65.5 -151q0 -44 17 -81t41.5 -62.5t68 -50t80.5 -40t96 -36.5q69 -24 120.5 -47.5t101.5 -58.5t81.5 -75.5t50.5 -97.5t19 -127q0 -81 -35 -157.5t-96 -135.5t-150.5 -95t-191.5 -36z" />
    <glyph glyph-name="T" unicode="T" horiz-adv-x="1378" 
d="M365 0l6 12l92 8q33 3 55.5 9t31.5 12.5t9 13.5v1207h-67q-71 -5 -136 -39t-115 -86.5t-85.5 -103.5t-63.5 -107l-14 -27h-15l60 381h1149l39 -379h-13l-12 27q-28 62 -65 116.5t-86 105t-112 81t-130 31.5h-70v-1213q0 -8 7.5 -12.5t33 -9t76.5 -9.5l70 -6l6 -12h-651z
" />
    <glyph glyph-name="U" unicode="U" horiz-adv-x="1427" 
d="M739 -33q-279 0 -405.5 107t-126.5 342v819q0 8 -7 12t-31.5 7.5t-76.5 7.5l-69 6l-7 12h648l-7 -12l-90 -8q-96 -8 -96 -31v-754q0 -208 91 -308.5t274 -100.5q374 0 374 442l-2 680q0 67 -184 80h-39l-6 12h451l-7 -12h-39q-78 -6 -113.5 -33.5t-35.5 -63.5l-4 -667
q-3 -266 -119.5 -401.5t-372.5 -135.5z" />
    <glyph glyph-name="V" unicode="V" horiz-adv-x="1347" 
d="M674 -18l-422 1032l-31.5 75t-25 57t-22 44.5t-20 30t-20.5 22t-22 11.5t-27 8t-33 2l-57 4l-4 12h628l-4 -12l-67 -2q-33 -1 -52.5 -3.5t-31.5 -11t-15.5 -17t1 -31t12 -42.5t24.5 -61l316 -776h4l233 614q64 177 70 222q8 59 -32 79q-32 16 -122 25l-39 4l-6 12h449
l-6 -12l-35 -4q-34 -3 -55 -7.5t-43.5 -19.5t-37.5 -34.5t-36.5 -61t-41 -90.5t-50.5 -131l-359 -938h-20z" />
    <glyph glyph-name="W" unicode="W" horiz-adv-x="2039" 
d="M647 -33l-411 1047q-34 88 -52 128.5t-41 71t-45 39t-61 11.5l-49 4l-6 12h628l-6 -12l-65 -2q-81 -3 -93.5 -28t17.5 -101l317 -828h4l246 623l-31 84q-26 66 -41 101.5t-32.5 68t-34 46.5t-37 22t-49.5 10l-60 4l-6 12h641l-6 -12l-61 -2q-85 -3 -99.5 -28.5
t19.5 -111.5l293 -802h4l223 604q23 63 32.5 90.5t22 69.5t13.5 58t-1 40.5t-13.5 32.5t-31.5 20t-47.5 16.5t-68.5 8.5l-43 4l-6 12h454l-6 -12l-33 -4q-93 -10 -127.5 -57t-111.5 -254q-8 -20 -12 -31l-357 -955h-24l-351 938h-2l-368 -938h-25z" />
    <glyph glyph-name="X" unicode="X" horiz-adv-x="1351" 
d="M-10 0l6 12l57 4q38 3 69.5 16t58 31.5t64.5 64t71 89.5t96 133l159 230l-278 440q-18 28 -44 69t-37 57.5t-28.5 41.5t-27 34t-24.5 20t-29 15t-33 5l-64 6l-8 12h641l-4 -12l-66 -2q-48 -2 -66 -17t-7 -54.5t57 -111.5l188 -299h2l111 162q48 70 76 114.5t43.5 80.5
t16 55.5t-15.5 34t-42 20.5t-72 11l-51 6l-6 12h489l-6 -12l-47 -4q-68 -6 -114.5 -34t-98.5 -90t-158 -212l-114 -162l362 -569q73 -116 102 -147t78 -34l47 -4l9 -12h-625l4 12l66 2q71 3 84 32t-25 87l-272 428h-2q1 0 -37.5 -55.5t-77.5 -111.5l-39 -56
q-54 -78 -83 -129.5t-40.5 -88t1 -56.5t39.5 -30.5t77 -15.5l51 -6l6 -12h-489z" />
    <glyph glyph-name="Y" unicode="Y" horiz-adv-x="1325" 
d="M338 0l6 12l90 8q33 3 55.5 9t31.5 12.5t9 13.5v531l-274 485q-66 115 -101 150.5t-102 42.5l-43 4l-6 12h635l-6 -12l-35 -2q-96 -9 -112.5 -38.5t22.5 -92.5l270 -484h4l154 287q29 55 46.5 90.5t32.5 70.5t20 55t3.5 39.5t-10.5 29t-27 18.5t-42 13t-60 8l-45 6l-6 12
h467l-6 -12l-58 -6q-56 -6 -91.5 -30t-81 -90.5t-122.5 -211.5l-161 -299v-582q0 -8 7 -12.5t32.5 -9t76.5 -9.5l68 -6l6 -12h-647z" />
    <glyph glyph-name="Z" unicode="Z" horiz-adv-x="1230" 
d="M61 0v8l770 1243v4l-182 2q-144 0 -246.5 -44.5t-164 -120.5t-103.5 -193l-8 -22h-14l26 403h1004v-10l-785 -1237v-6l195 -4q101 -3 178.5 12t137.5 45.5t110 85.5t89 122t81 165l12 28h15l-68 -481h-1047z" />
    <glyph glyph-name="bracketleft" unicode="[" horiz-adv-x="626" 
d="M109 -506v1786h499v-20h-477v-1745h477v-21h-499z" />
    <glyph glyph-name="backslash" unicode="\" horiz-adv-x="475" 
d="M418 -506l-430 1796h20l430 -1796h-20z" />
    <glyph glyph-name="bracketright" unicode="]" horiz-adv-x="626" 
d="M18 -506v21h478v1745h-478v20h500v-1786h-500z" />
    <glyph glyph-name="asciicircum" unicode="^" horiz-adv-x="757" 
d="M78 983l297 403h8l297 -403h-12l-287 197h-4l-287 -197h-12z" />
    <glyph glyph-name="underscore" unicode="_" horiz-adv-x="913" 
d="M39 -59l6 59h823l6 -59h-835z" />
    <glyph glyph-name="grave" unicode="`" horiz-adv-x="819" 
d="M516 1004l-436 382h237l209 -382h-10z" />
    <glyph glyph-name="a" unicode="a" horiz-adv-x="919" 
d="M707 -23q-71 0 -113 46t-53 131l-2 2q-75 -84 -141.5 -130t-139.5 -46q-88 0 -149.5 58.5t-61.5 135.5q0 75 43.5 131.5t155.5 109t303 99.5l2 70q4 128 -51 198t-154 70q-54 0 -90.5 -17t-36.5 -36q0 -6 15.5 -25.5t31 -46t15.5 -49.5q0 -45 -33.5 -76t-85.5 -31
q-49 0 -82 27t-33 72q0 62 76.5 118t179 86.5t189.5 30.5q167 0 233.5 -72t58.5 -245l-18 -383q-3 -55 18 -84t58 -29q34 0 86 60l12 -7q-28 -35 -43 -52.5t-49 -50.5t-69 -49t-72 -16zM399 111q74 0 138 67l14 314q-155 -36 -216 -93t-61 -141q0 -64 35.5 -105.5
t89.5 -41.5z" />
    <glyph glyph-name="b" unicode="b" horiz-adv-x="1054" 
d="M94 -43v1188q0 65 -15.5 87t-68.5 36l-47 12l2 8l359 90v-663l6 -6q150 186 321 186q154 0 259.5 -123t105.5 -309q0 -97 -30 -179.5t-79.5 -139t-113 -96.5t-131 -58.5t-134.5 -18.5q-127 0 -278 64h-2l-142 -78h-12zM557 -6q96 0 150.5 115.5t54.5 287.5q0 159 -68 264
t-182 105q-96 0 -188 -88v-483q39 -85 104.5 -143t128.5 -58z" />
    <glyph glyph-name="c" unicode="c" horiz-adv-x="878" 
d="M463 -31q-184 0 -304 126.5t-120 316.5q0 210 135.5 351.5t347.5 141.5q138 0 232 -55.5t94 -144.5q0 -53 -35 -89t-86 -36q-52 0 -87.5 34t-35.5 82q0 28 13 55t25.5 45t12.5 23q0 22 -36.5 43t-81.5 21q-109 0 -177.5 -105t-68.5 -280q0 -182 81.5 -283.5t221.5 -101.5
q89 0 149.5 36.5t106.5 122.5l14 -6q-139 -297 -401 -297z" />
    <glyph glyph-name="d" unicode="d" horiz-adv-x="1079" 
d="M729 -31v191l-4 4q-152 -193 -322 -193q-152 0 -258 126t-106 313q0 97 30 178.5t79 137t113 94.5t131 57t134 18q126 0 199 -37h4v287q0 66 -15.5 90t-66.5 33l-67 12l2 8l379 90v-1206q0 -61 10.5 -79t46.5 -27l74 -17l-2 -8zM543 104q101 0 186 89v485
q-37 83 -101 138.5t-124 55.5q-100 0 -155.5 -114t-55.5 -287q0 -159 68.5 -263t181.5 -104z" />
    <glyph glyph-name="e" unicode="e" horiz-adv-x="911" 
d="M465 -31q-183 0 -304.5 129.5t-121.5 321.5q0 206 135.5 346.5t337.5 140.5q167 0 258.5 -85.5t91.5 -203.5q0 -10 -4 -34q-510 4 -567 6q-4 -27 -4 -98q0 -170 86.5 -274.5t224.5 -104.5q91 0 154.5 37t109.5 122l15 -6q-139 -297 -412 -297zM295 610l340 2
q0 51 -7 96.5t-23 86t-46 64.5t-70 24q-69 0 -124 -77.5t-70 -195.5z" />
    <glyph glyph-name="f" unicode="f" horiz-adv-x="663" 
d="M41 0l6 12l39 2q52 3 69 8.5t17 22.5v725l-164 2l49 102l115 -2l6 117q7 111 74 197t161.5 128t194.5 42q93 0 134.5 -31.5t41.5 -81.5q0 -42 -33.5 -74t-82.5 -32q-103 0 -138 153l-4 17l-34 10q-53 -20 -71 -81.5t-18 -211.5v-150h254l-34 -100h-220v-731
q0 -9 6.5 -14.5t30 -9.5t66.5 -5l69 -2l7 -12h-541z" />
    <glyph glyph-name="g" unicode="g" horiz-adv-x="976" 
d="M387 -483q-362 0 -362 202q0 130 256 226v2q-101 6 -170.5 58.5t-69.5 123.5q0 53 37 99.5t89 74t114 43.5v2q-86 31 -138.5 96t-52.5 156q0 124 109.5 213.5t261.5 89.5q138 0 244 -69l268 47l-21 -105l-204 29l-3 -6q86 -73 86 -185q0 -124 -107.5 -208t-268.5 -84
q-63 0 -140 14q-54 -11 -86 -39t-32 -66q0 -40 41.5 -57.5t128.5 -17.5q26 0 124.5 3t137.5 3q144 0 224.5 -64t80.5 -178q0 -172 -154 -287.5t-393 -115.5zM463 340q71 0 109 66.5t38 193.5q0 283 -151 283q-68 0 -104 -69t-36 -200q0 -134 37.5 -204t106.5 -70zM496 -446
q131 0 215 67.5t84 165.5q0 84 -65 123.5t-208 44.5q-83 3 -211 -12q-54 -21 -83 -69t-29 -110q0 -93 82.5 -151.5t214.5 -58.5z" />
    <glyph glyph-name="h" unicode="h" horiz-adv-x="1079" 
d="M14 0l6 12l29 2q51 3 68.5 9t17.5 24v1094q0 67 -14.5 89t-67.5 36l-47 12l2 8l361 90v-651l2 -4q46 40 75 62.5t78.5 55t98.5 48.5t98 16q97 0 162 -65t65 -226v-567q0 -7 5 -11.5t29 -9.5t71 -10l22 -2l6 -12h-483l6 12l37 2q34 2 51.5 7t21 10.5t3.5 15.5v539
q0 91 -42.5 131.5t-125.5 40.5q-100 0 -182 -64v-651q0 -13 17 -19t75 -10l28 -2l7 -12h-480z" />
    <glyph glyph-name="i" unicode="i" horiz-adv-x="538" 
d="M258 1040q-67 0 -106 43.5t-39 98.5t39 98t106 43t106 -43t39 -98t-39 -98.5t-106 -43.5zM33 0l6 12l31 2q51 3 68.5 9t17.5 24v574q0 93 -15 121t-69 40l-47 11l2 8l360 98v-856q0 -12 19 -17.5t86 -11.5l22 -2l6 -12h-487z" />
    <glyph glyph-name="j" unicode="j" horiz-adv-x="518" 
d="M254 1040q-68 0 -108 44t-40 98t40 97.5t108 43.5q66 0 104.5 -43.5t38.5 -97.5q0 -55 -38.5 -98.5t-104.5 -43.5zM-37 -516q-78 0 -123 35t-45 92q0 49 33.5 82t83.5 33q48 0 82 -32.5t40.5 -76.5t-9.5 -90q47 3 75 45.5t39 113t11 179.5v756q0 93 -15 121t-69 40
l-48 11l2 8l363 98v-960q0 -81 -65 -188.5t-166 -187t-189 -79.5z" />
    <glyph glyph-name="k" unicode="k" horiz-adv-x="1048" 
d="M18 0l7 12l26 2q29 3 40 4.5t24 5t16.5 9t3.5 14.5v1094q0 67 -14.5 89t-67.5 36l-47 12l2 8l361 90v-962l159 147q179 167 179 230q0 32 -26.5 47.5t-105.5 21.5l-26 2l-6 12h458l-6 -12l-34 -4q-76 -9 -138.5 -50.5t-189.5 -168.5l-4.5 -4.5l-8.5 -8.5t-9.5 -10
t-2.5 -4l252 -450q52 -91 79.5 -117.5t80.5 -30.5l27 -2l6 -12h-375l-14 31l-228 418l-67 -60v-346q0 -13 19 -19t83 -10l31 -2l4 -12h-488z" />
    <glyph glyph-name="l" unicode="l" horiz-adv-x="524" 
d="M29 0l6 12l31 2q49 3 64 9t15 24v1059q0 92 -15 119t-69 41l-45 12l2 8l361 90v-1333q0 -13 18 -19t76 -10l27 -2l6 -12h-477z" />
    <glyph glyph-name="m" unicode="m" horiz-adv-x="1632" 
d="M33 0l6 12l31 2q51 3 68.5 9t17.5 24v574q0 93 -15 121t-69 40l-47 11l2 8l364 98l-6 -176l4 -2q37 37 67 62.5t73.5 56.5t92 47t97.5 16q94 0 162 -65q44 -47 55 -117l6 -4q39 39 69.5 65.5t75 57.5t92.5 47t97 16q97 0 162 -65t65 -269v-524q0 -8 4 -11.5t27.5 -9
t71.5 -10.5l22 -2l6 -12h-481l6 12l37 2q34 2 51.5 7t21 10.5t3.5 15.5v537q0 94 -40 134t-126 40q-53 0 -100.5 -22t-57.5 -52l-2 -86v-557q0 -8 4 -11.5t24 -7.5t64 -8l29 -2l6 -12h-477l6 12l37 2q45 3 60.5 11t15.5 22v537q0 93 -40.5 133.5t-125.5 40.5q-78 0 -162 -58
v-657q0 -13 16.5 -19t75.5 -10l31 -2l4 -12h-481z" />
    <glyph glyph-name="n" unicode="n" horiz-adv-x="1099" 
d="M33 0l6 12l31 2q51 3 68.5 9t17.5 24v574q0 93 -15 121t-69 40l-47 11l2 8l364 98l-6 -176l4 -2q45 39 75 62.5t79.5 55.5t99 48t98.5 16q97 0 162 -65q66 -66 66 -226v-567q0 -7 4.5 -11.5t28.5 -9.5t71 -10l23 -2l6 -12h-484l7 12l37 2q34 2 51.5 7t20.5 10.5t3 15.5
v537q0 92 -43.5 133t-126.5 41q-98 0 -180 -64v-651q0 -13 16.5 -19t73.5 -10l31 -2l4 -12h-479z" />
    <glyph glyph-name="o" unicode="o" horiz-adv-x="1056" 
d="M524 -29q-144 0 -255.5 63t-170.5 169t-59 235q0 128 62 234.5t175.5 169.5t255.5 63q108 0 199.5 -36t154 -98.5t97.5 -147t35 -179.5q0 -201 -138.5 -337t-355.5 -136zM526 -10q109 0 170.5 124t61.5 314q0 303 -105 408q-54 51 -125 51q-76 0 -129.5 -60t-77.5 -155
t-24 -217q0 -307 102 -414q51 -51 127 -51z" />
    <glyph glyph-name="p" unicode="p" horiz-adv-x="1083" 
d="M-6 -518l6 12l37 2q50 3 68 9t18 22v1094q0 93 -15 121t-69 40l-47 11l2 8l362 98l-4 -184l6 -6q150 186 322 186q154 0 259 -123t105 -309q0 -120 -45 -217.5t-117 -155.5t-155.5 -88.5t-167.5 -30.5q-114 0 -201 37h-4v-485q0 -8 6 -13t29.5 -9t67.5 -5l71 -2l7 -12
h-541zM586 -6q96 0 151.5 115.5t55.5 287.5q0 158 -69 261.5t-183 103.5q-103 0 -187 -84v-485q39 -86 104.5 -142.5t127.5 -56.5z" />
    <glyph glyph-name="q" unicode="q" horiz-adv-x="1071" 
d="M549 -518l6 12l72 2q44 1 67.5 5t29 9t5.5 13v637l-4 4q-152 -193 -322 -193q-152 0 -258 126t-106 313q0 98 30 180.5t79 137.5t113 93.5t131 56t134 17.5q148 0 283 -64h2l137 82h13v-1386q0 -16 18 -22t68 -9l36 -2l7 -12h-541zM543 104q101 0 186 89v483
q-37 83 -101.5 139.5t-123.5 56.5q-100 0 -155.5 -113t-55.5 -284q0 -158 68.5 -264.5t181.5 -106.5z" />
    <glyph glyph-name="r" unicode="r" horiz-adv-x="823" 
d="M33 0l6 12l31 2q51 3 68.5 9t17.5 24v574q0 93 -15 121t-69 40l-47 11l2 8l364 98l-6 -324h4q45 163 113 245.5t164 82.5q63 0 105 -37.5t42 -99.5q0 -48 -36 -87.5t-89 -39.5q-56 0 -94 37t-47 98q-51 -7 -86.5 -71.5t-73.5 -208.5v-449q0 -9 7.5 -14.5t32.5 -10
t69 -6.5l45 -2l6 -12h-514z" />
    <glyph glyph-name="s" unicode="s" horiz-adv-x="770" 
d="M354 -29q-153 0 -295 54l-12 256h10l49 -88q55 -104 114 -153.5t145 -49.5q80 0 127 45t47 117q0 69 -54.5 113t-160.5 85q-48 18 -81 33.5t-70 39.5t-59 50.5t-36.5 65t-14.5 84.5q0 127 91.5 203.5t236.5 76.5q102 0 195 -35l80 21l10 -264l-10 -4l-152 217
q-67 47 -127 47q-73 0 -113.5 -41t-40.5 -111q0 -28 11.5 -51.5t28 -40t48.5 -34t57.5 -28.5t70.5 -28q43 -17 68.5 -28.5t62 -31t58 -39.5t43 -47t31 -61.5t9.5 -75.5q0 -123 -95.5 -210t-271.5 -87z" />
    <glyph glyph-name="t" unicode="t" horiz-adv-x="712" 
d="M399 -23q-123 0 -181.5 62t-57.5 192l10 537l-166 2l41 68l344 254l8 -2l-2 -213l307 -3l-34 -98h-275l-10 -518q-2 -87 34 -127.5t115 -40.5q99 0 170 64l9 -9q-78 -80 -153 -124t-159 -44z" />
    <glyph glyph-name="u" unicode="u" horiz-adv-x="1052" 
d="M700 -33l5 189h-5q-86 -82 -171.5 -133.5t-178.5 -51.5q-49 0 -84 17t-71 53q-67 67 -64 225l4 570q0 6 -5 9t-29 7t-74 8l-29 2l-6 12h375l-5 -583q-1 -91 42.5 -131.5t130.5 -40.5q88 0 165 59v619q0 36 -18.5 47t-85.5 16l-29 2l-6 12h371v-669q0 -60 10 -79t45 -28
l76 -16l-2 -8z" />
    <glyph glyph-name="v" unicode="v" horiz-adv-x="978" 
d="M463 -20l-326 763q-32 73 -50.5 93t-66.5 24l-32 2l-6 12h516l-4 -12l-35 -2q-62 -5 -77.5 -25t5.5 -71l211 -510l133 346q25 65 36 107t11 70.5t-16.5 45t-41 24.5t-67.5 13l-28 2l-7 12h361l-6 -12l-29 -4q-67 -8 -94 -45.5t-91 -202.5l-9 -24l-236 -606h-51z" />
    <glyph glyph-name="w" unicode="w" horiz-adv-x="1521" 
d="M444 -20l-301 743q-35 90 -54.5 112t-70.5 25l-32 2l-4 12h497l-4 -12l-35 -2q-54 -3 -66.5 -20.5t7.5 -71.5l205 -522l164 395l-43 109q-26 66 -50.5 86.5t-68.5 23.5l-29 2l-6 12h500l-4 -12l-35 -2q-58 -4 -68.5 -23.5t8.5 -68.5l207 -512l119 332q54 151 37 204.5
t-123 65.5l-29 4l-6 12h363l-6 -12l-31 -4q-30 -2 -47.5 -8.5t-33 -20.5t-29 -43.5t-29 -70.5t-38.5 -109q-5 -16 -8 -24l-217 -602h-55l-266 638l-262 -638h-56z" />
    <glyph glyph-name="x" unicode="x" horiz-adv-x="991" 
d="M2 0l6 12l41 6q69 12 115.5 54t152.5 182l93 123l-209 328q-60 86 -95.5 119t-76.5 36l-27 2l-6 12h514l-6 -12l-41 -4q-25 -3 -37 -12t-11 -26t11 -37.5t29 -49.5l123 -192h2l73 104q64 89 81 132t-2.5 60t-84.5 21l-37 4l-6 12h371l-6 -12l-43 -6q-67 -12 -116.5 -56
t-152.5 -179l-67 -95l231 -356q55 -83 91 -118t71 -38l27 -2l8 -12h-506l4 12l37 4q26 1 39 10t12.5 25.5t-10.5 37.5t-29 50l-143 223h-2l-96 -135q-38 -52 -59 -87t-29 -59t1.5 -37.5t29.5 -19.5t57 -8l41 -4l6 -12h-369z" />
    <glyph glyph-name="y" unicode="y" horiz-adv-x="978" 
d="M195 -524q-55 0 -97.5 33.5t-42.5 91.5q0 47 34.5 81.5t84.5 34.5q58 0 92.5 -34t42.5 -82q38 7 63.5 45.5t55.5 122.5l76 213h-27l-340 759q-33 74 -53 94.5t-68 24.5l-32 2l-7 12h515l-7 -12l-34 -2q-61 -4 -74.5 -25t10.5 -73l217 -504l125 348q23 64 33 103.5
t10.5 68.5t-15.5 44t-40.5 23t-69.5 13l-29 4l-6 12h363l-6 -12l-33 -4q-16 -1 -28 -4t-23 -5.5t-20 -11.5t-16.5 -15t-16.5 -25t-16 -31.5t-18.5 -44t-20 -53.5t-25.5 -69q-1 -2 -1.5 -3.5t-1 -3.5t-1.5 -4l-218 -588l-84 -250q-45 -140 -105 -207t-146 -67z" />
    <glyph glyph-name="z" unicode="z" horiz-adv-x="897" 
d="M39 0v8l518 846l-92 -2q-74 -1 -128 -16t-93 -46t-65.5 -70t-51.5 -97l-39 -84h-10v335h753v-8l-530 -843l92 -3q281 8 416 265l29 55h10l-62 -340h-747z" />
    <glyph glyph-name="braceleft" unicode="{" horiz-adv-x="655" 
d="M631 -547q-192 15 -326.5 112t-134.5 230q0 64 25 146.5t50 156.5t25 119q0 80 -63.5 115t-214.5 47l-4 10l4 12q141 13 209.5 48.5t68.5 113.5q0 45 -25 119t-50 156.5t-25 146.5q0 133 134.5 230t326.5 112l6 -12q-140 -20 -211.5 -73t-71.5 -132q0 -63 50.5 -216
t50.5 -230q0 -119 -96 -185t-306 -86v-4q211 -23 306.5 -87.5t95.5 -182.5q0 -77 -50.5 -230.5t-50.5 -216.5q0 -81 71 -134t212 -73z" />
    <glyph glyph-name="bar" unicode="|" horiz-adv-x="313" 
d="M147 -424v1796h19v-1796h-19z" />
    <glyph glyph-name="braceright" unicode="}" horiz-adv-x="655" 
d="M-8 -547l-6 12q140 20 211 73t71 134q0 63 -50 216.5t-50 230.5q0 118 95 182.5t306 87.5v4q-210 20 -305.5 86t-95.5 185q0 77 50 230t50 216q0 79 -71 132t-211 73l6 12q192 -15 326.5 -112t134.5 -230q0 -64 -25 -146.5t-50.5 -156.5t-25.5 -119q0 -78 69 -113.5
t210 -48.5l4 -12l-4 -10q-150 -12 -214.5 -47.5t-64.5 -114.5q0 -45 25 -119t50.5 -156.5t25.5 -146.5q0 -133 -134.5 -230t-326.5 -112z" />
    <glyph glyph-name="asciitilde" unicode="~" horiz-adv-x="798" 
d="M561 299q-54 0 -131 32.5t-147.5 64.5t-106.5 32q-20 0 -31 -2.5t-25 -12t-21.5 -33.5t-10.5 -63h-12q11 144 45 198t117 54q53 0 130 -31.5t147 -63.5t106 -32q20 0 32 2.5t26 12.5t22 33.5t12 60.5h10q-11 -141 -45.5 -196.5t-116.5 -55.5z" />
    <glyph glyph-name="nbspace" unicode="&#xa0;" horiz-adv-x="266" 
 />
    <glyph glyph-name="exclamdown" unicode="&#xa1;" horiz-adv-x="550" 
d="M274 1032q-56 0 -95.5 39t-39.5 94t39.5 96.5t95.5 41.5q58 0 99 -41.5t41 -96.5q0 -54 -41 -93.5t-99 -39.5zM272 -33q-86 0 -110 36.5t-15 98.5l117 779q2 9 10.5 9.5t10.5 -9.5l116 -779q9 -62 -15 -98.5t-110 -36.5h-4z" />
    <glyph glyph-name="cent" unicode="&#xa2;" horiz-adv-x="878" 
d="M330 -319l78 292q-161 20 -265 143.5t-104 295.5q0 210 135.5 352.5t347.5 142.5q59 0 131 -14l90 342h21l-94 -348q80 -24 129 -72.5t49 -109.5q0 -53 -35 -89t-86 -36q-42 0 -73 24.5t-42 63.5l-141 -525q53 -30 123 -30q89 0 149.5 36.5t106.5 122.5l16 -4
q-140 -299 -403 -299q-25 0 -37 2l-78 -290h-18zM453 150l188 698q-51 37 -104 37q-109 0 -177.5 -106t-68.5 -281q0 -126 43.5 -216t118.5 -132z" />
    <glyph glyph-name="sterling" unicode="&#xa3;" horiz-adv-x="1132" 
d="M346 612h-217l6 21h203q-47 115 -47 203q0 194 152.5 325t375.5 131q123 0 189.5 -46.5t66.5 -133.5q0 -47 -38.5 -86t-92.5 -39q-60 0 -95 43t-34 100.5t35 100.5q-9 11 -35.5 23t-58.5 12q-93 0 -155 -69t-62 -198q0 -49 22.5 -168.5t26.5 -197.5h256l6 -21h-260v-41
q0 -139 -88 -309q18 -6 76 -24.5t84.5 -26.5t72 -19.5t81 -16.5t69.5 -5q91 0 131 50t57 198h19q-4 -116 -44 -216t-113.5 -163.5t-164.5 -63.5q-71 0 -143.5 22t-117.5 45.5t-110 63.5q-114 -131 -241 -131q-70 0 -113 40t-43 102q0 82 68.5 138t183.5 56q76 0 199 -35
q2 10 2 31q0 34 -11.5 76t-23 68.5t-38.5 83.5t-36 77zM381 119q-59 38 -86 54t-70.5 33t-79.5 17q-55 0 -88.5 -29.5t-33.5 -82.5q0 -52 38.5 -83.5t96.5 -31.5q56 0 117 34t106 89z" />
    <glyph glyph-name="currency" unicode="&#xa4;" horiz-adv-x="886" 
d="M758 436l-17 -16l-116 115q-78 -71 -182.5 -71t-182.5 71l-117 -115l-16 16l115 117q-70 77 -70 182t70 183l-115 116l16 17l117 -115q77 70 182.5 70t182.5 -70l116 115l17 -17l-115 -116q71 -78 71 -183t-71 -182zM268 561q72 -72 174 -72t174 72t72 174t-72 174
t-174 72t-174 -72t-72 -174t72 -174z" />
    <glyph glyph-name="yen" unicode="&#xa5;" horiz-adv-x="1280" 
d="M311 0l6 14l93 9q98 8 98 30v283h-383l6 20h377v246h-377l-6 21h369q1 0 -62.5 112.5t-127.5 224.5l-64 113q-67 111 -108 148t-112 41l-43 4l-8 14h662l-6 -14l-50 -2q-85 -1 -100 -37.5t31 -114.5l258 -477h2l102 203q47 92 74.5 152t42 109t13 76t-19.5 47t-48 28.5
t-80 13.5l-45 6l-8 10h493l-6 -10l-45 -6q-73 -11 -133 -69.5t-137 -209.5q-187 -362 -189 -362h385l-6 -21h-381v-246h381l6 -20h-387v-289q0 -6 3.5 -9t16.5 -6.5t36 -6t63 -5.5l70 -6l6 -14h-662z" />
    <glyph glyph-name="brokenbar" unicode="&#xa6;" horiz-adv-x="313" 
d="M147 598v686h19v-686h-19zM147 -315v686h19v-686h-19z" />
    <glyph glyph-name="section" unicode="&#xa7;" horiz-adv-x="833" 
d="M367 -90q-121 0 -194 41.5t-73 116.5q0 42 28.5 75t72.5 33q54 0 84 -31.5t30 -78.5t-24 -101q46 -33 106 -33q69 0 117.5 48t48.5 102q0 26 -8 48.5t-29 44t-37.5 35.5t-55 35.5t-58 31.5t-68.5 34q-53 27 -87.5 46t-79 50t-70 60.5t-44 70.5t-18.5 87q0 140 187 237
q-70 70 -70 162q0 82 50.5 148.5t127.5 101.5t160 35q121 0 191.5 -39.5t70.5 -114.5q0 -42 -31 -75t-76 -33q-53 0 -83.5 32.5t-31.5 79.5t15 98q-17 12 -25.5 17.5t-25 10.5t-35.5 5q-69 0 -114.5 -47t-45.5 -102q0 -26 8.5 -49t28 -44t38 -37t54 -36t59 -32t68.5 -34
q55 -27 88 -44.5t78.5 -48t70.5 -59t43.5 -69t18.5 -86.5q0 -143 -186 -244q70 -67 70 -161q0 -80 -52 -147t-130.5 -103.5t-161.5 -36.5zM629 367q65 55 65 116q0 73 -56.5 121t-184.5 109l-47 23.5t-47.5 23.5t-41 21.5t-42 24t-34.5 22.5t-34 26q-66 -52 -66 -113
q0 -40 15.5 -71.5t52 -59.5t72.5 -48.5t100 -51.5q65 -30 98.5 -47t77 -43.5t72.5 -52.5z" />
    <glyph glyph-name="dieresis" unicode="&#xa8;" horiz-adv-x="802" 
d="M600 1032q-56 0 -88.5 37.5t-32.5 83.5t32.5 85.5t88.5 39.5q57 0 90 -39t33 -86q0 -46 -33 -83.5t-90 -37.5zM203 1032q-56 0 -89.5 37.5t-33.5 83.5t33.5 85.5t89.5 39.5q57 0 90 -39t33 -86q0 -46 -33 -83.5t-90 -37.5z" />
    <glyph glyph-name="copyright" unicode="&#xa9;" horiz-adv-x="1441" 
d="M721 -29q-137 0 -261 53t-213.5 142.5t-142.5 213.5t-53 261q0 183 89.5 337.5t244 244.5t336.5 90t336.5 -90t244 -244.5t89.5 -337.5q0 -137 -53 -261t-142.5 -213.5t-213.5 -142.5t-261 -53zM721 -10q176 0 325.5 87.5t236.5 237.5t87 326t-87 326.5t-236.5 238.5
t-325.5 88t-325.5 -88t-236.5 -238.5t-87 -326.5t87 -326t236.5 -237.5t325.5 -87.5zM748 238q-198 0 -321.5 112.5t-123.5 282.5q0 174 123 289.5t332 115.5q58 0 113 -13t85 -32l80 25l8 -246h-6l-127 209q-52 45 -153 45q-133 0 -208 -108.5t-75 -276.5q0 -175 80.5 -283
t198.5 -108q97 0 160 47.5t112 142.5l39 70h6l-41 -217l-41 -8q-37 -17 -109.5 -32t-131.5 -15z" />
    <glyph glyph-name="ordfeminine" unicode="&#xaa;" horiz-adv-x="718" 
d="M195 575q-66 0 -112 44t-46 104q0 79 92.5 145t308.5 123v58q0 100 -46 152t-124 52q-32 0 -53.5 -8t-28 -16t-6.5 -15q0 -4 18.5 -38.5t18.5 -55.5q0 -36 -27.5 -61t-68.5 -25q-39 0 -66.5 22.5t-27.5 57.5q0 50 64.5 95t150.5 69.5t159 24.5q120 0 177 -59t51 -187
l-13 -287q-3 -94 54 -94q40 0 73 41l9 -4q-94 -138 -189 -138q-113 0 -131 148h-2q-119 -148 -235 -148zM317 684q52 0 111 59l10 228q-121 -31 -168 -75.5t-47 -102.5q0 -49 27 -79t67 -30z" />
    <glyph glyph-name="guillemotleft" unicode="&#xab;" horiz-adv-x="917" 
d="M885 80l-459 362v27l461 360l6 -6l-240 -370l238 -367zM473 100l-448 342v27l448 338l6 -4l-225 -350l225 -347z" />
    <glyph glyph-name="logicalnot" unicode="&#xac;" horiz-adv-x="886" 
d="M831 629v-348h-24v323h-793l6 25h811z" />
    <glyph glyph-name="uni00AD" unicode="&#xad;" horiz-adv-x="573" 
d="M37 438l6 82h494l-7 -82h-493z" />
    <glyph glyph-name="registered" unicode="&#xae;" horiz-adv-x="1441" 
d="M721 -29q-137 0 -261 53t-213.5 142.5t-142.5 213.5t-53 261q0 183 89.5 337.5t244 244.5t336.5 90t336.5 -90t244 -244.5t89.5 -337.5q0 -137 -53 -261t-142.5 -213.5t-213.5 -142.5t-261 -53zM721 -10q176 0 325.5 87.5t236.5 237.5t87 326t-87 326.5t-236.5 238.5
t-325.5 88t-325.5 -88t-236.5 -238.5t-87 -326.5t87 -326t236.5 -237.5t325.5 -87.5zM324 256l4 12l53 4q17 2 31 6t21 8t7 7v698q0 3 -2 5t-10 4t-21.5 4t-37.5 4l-39 4l-4 12h352q350 0 350 -199q0 -66 -52.5 -119t-137.5 -73l153 -240q42 -70 72 -91.5t88 -31.5l14 -2
l4 -12h-282l-10 23l-205 358q-55 14 -74 22v-370q0 -8 70 -17l45 -4l4 -12h-393zM694 655q79 0 123.5 47.5t44.5 133.5q0 87 -57 132t-156 40l-51 -2v-330q53 -18 96 -21z" />
    <glyph glyph-name="macron" unicode="&#xaf;" horiz-adv-x="755" 
d="M106 1067l27 88h516l-26 -88h-517z" />
    <glyph glyph-name="degree" unicode="&#xb0;" horiz-adv-x="581" 
d="M291 793q-114 0 -184 75t-70 183q0 109 69.5 185.5t184.5 76.5t184.5 -76.5t69.5 -185.5t-69 -183.5t-185 -74.5zM291 813q104 0 168.5 68t64.5 170q0 101 -65 171t-168 70t-166.5 -70t-63.5 -171q0 -102 63 -170t167 -68z" />
    <glyph glyph-name="plusminus" unicode="&#xb1;" horiz-adv-x="886" 
d="M432 172v342h-418l4 25h414v354h25v-354h411l4 -25h-415v-342h-25zM852 76h-817l4 24h809z" />
    <glyph glyph-name="twosuperior" unicode="&#xb2;" horiz-adv-x="632" 
d="M33 518l-6 43q173 167 216 215q98 109 114 199q5 25 5 51q0 78 -41 123t-110 45q-119 0 -168 -129l-12 2q37 118 109.5 181t176.5 63q100 0 163 -57t63 -146q0 -43 -17.5 -85.5t-42.5 -75.5t-69.5 -74.5t-81 -70.5t-96.5 -75.5t-97 -77.5v-2h348q35 0 105 164l6 16l6 -2
l-69 -307h-502z" />
    <glyph glyph-name="threesuperior" unicode="&#xb3;" horiz-adv-x="577" 
d="M209 475q-89 0 -141 31t-52 84q0 35 22.5 56.5t59.5 21.5q56 0 80 -48t0 -116q33 -10 58 -10q64 0 105.5 54t41.5 132q0 89 -45.5 145t-130.5 56q-65 0 -119 -21l-4 10q143 66 194.5 105t51.5 100q0 60 -33.5 91.5t-93.5 31.5q-59 0 -101.5 -32.5t-60.5 -84.5l-12 2
q32 101 103.5 164.5t168.5 63.5q89 0 147 -45.5t58 -116.5q0 -123 -193 -174v-4q115 6 180.5 -54.5t65.5 -154.5q0 -114 -105.5 -200.5t-244.5 -86.5z" />
    <glyph glyph-name="acute" unicode="&#xb4;" horiz-adv-x="819" 
d="M293 1004l209 382h237l-436 -382h-10z" />
    <glyph glyph-name="mu" unicode="&#xb5;" horiz-adv-x="1050" 
d="M489 -518h-489l6 12l37 2q50 3 68 9t18 22v1309q0 6 -3.5 9t-27 7t-73.5 8l-29 2l-6 12h375l-5 -653q0 -33 11 -55.5t25.5 -34t42 -17.5t46.5 -7t52 -1q85 0 161 58v633q0 36 -18.5 47t-85.5 16l-29 2l-6 12h371v-669q0 -60 10 -79t45 -28l76 -16l-2 -8l-361 -107l4 166
h-4q-62 -194 -178 -194q-52 0 -85 37t-70 112h-5v-561q0 -16 18 -22t68 -9l37 -2z" />
    <glyph glyph-name="mu" unicode="&#x3bc;" horiz-adv-x="1050" 
d="M489 -518h-489l6 12l37 2q50 3 68 9t18 22v1309q0 6 -3.5 9t-27 7t-73.5 8l-29 2l-6 12h375l-5 -653q0 -33 11 -55.5t25.5 -34t42 -17.5t46.5 -7t52 -1q85 0 161 58v633q0 36 -18.5 47t-85.5 16l-29 2l-6 12h371v-669q0 -60 10 -79t45 -28l76 -16l-2 -8l-361 -107l4 166
h-4q-62 -194 -178 -194q-52 0 -85 37t-70 112h-5v-561q0 -16 18 -22t68 -9l37 -2z" />
    <glyph glyph-name="paragraph" unicode="&#xb6;" horiz-adv-x="884" 
d="M762 -66v574q-78 -8 -180 -8q-157 0 -275.5 43.5t-187 132t-68.5 211.5q0 393 561 393h170v-1346h-20z" />
    <glyph glyph-name="periodcentered" unicode="&#xb7;" horiz-adv-x="442" 
d="M219 340q-58 0 -98.5 41t-40.5 98q0 53 40.5 93t98.5 40q56 0 96.5 -40.5t40.5 -92.5q0 -57 -40 -98t-97 -41z" />
    <glyph glyph-name="cedilla" unicode="&#xb8;" horiz-adv-x="794" 
d="M199 -555l-4 10q161 30 237 71.5t76 115.5q0 58 -50 85t-124 27q-85 0 -152 -24v12l230 248h20l-115 -127q92 16 166 2t120 -57t46 -101q0 -39 -15.5 -71.5t-38.5 -56t-62.5 -44t-73.5 -33t-86.5 -24.5t-86.5 -18.5t-87 -14.5z" />
    <glyph glyph-name="onesuperior" unicode="&#xb9;" horiz-adv-x="473" 
d="M61 518l5 8h22q70 0 70 21v686l-119 14l4 8l293 48v-758q0 -8 21 -13.5t53 -5.5h20l4 -8h-373z" />
    <glyph glyph-name="ordmasculine" unicode="&#xba;" horiz-adv-x="829" 
d="M410 565q-171 0 -279 105t-108 258q0 156 112 264t283 108t278 -105t107 -257q0 -158 -109.5 -265.5t-283.5 -107.5zM410 582q55 0 95.5 48.5t59.5 125.5t19 172q0 240 -72 315q-39 41 -96 41q-60 0 -101 -48.5t-59 -124.5t-18 -173q0 -242 75 -317q39 -39 97 -39z" />
    <glyph glyph-name="guillemotright" unicode="&#xbb;" horiz-adv-x="915" 
d="M444 100l-4 6l224 347l-222 348l2 6l449 -338v-27zM33 80l-6 6l237 367l-237 370l6 6l461 -360v-27z" />
    <glyph glyph-name="onequarter" unicode="&#xbc;" horiz-adv-x="1331" 
d="M995 -252v186h-325l-2 15l413 592h88v-496h150l-31 -111h-119v-186h-174zM754 45h243v344h-2zM61 518l5 8h22q70 0 70 21v686l-119 14l4 8l293 48v-758q0 -8 21 -13.5t53 -5.5h20l4 -8h-373zM33 -252l1229 1546h28l-1229 -1546h-28z" />
    <glyph glyph-name="onehalf" unicode="&#xbd;" horiz-adv-x="1359" 
d="M760 -252l-6 43q173 167 215 213q99 109 116 199q5 26 5 53q0 78 -41.5 123t-110.5 45q-119 0 -168 -129l-12 2q37 118 109.5 181t176.5 63q100 0 163 -57t63 -146q0 -43 -17.5 -85.5t-42.5 -75.5t-69.5 -74.5t-81 -70.5t-96.5 -75.5t-97 -77.5v-2h348q35 0 105 164l6 16
l6 -2l-69 -307h-502zM61 518l5 8h22q70 0 70 21v686l-119 14l4 8l293 48v-758q0 -8 21 -13.5t53 -5.5h20l4 -8h-373zM12 -252l1229 1546h29l-1229 -1546h-29z" />
    <glyph glyph-name="threequarters" unicode="&#xbe;" horiz-adv-x="1355" 
d="M1018 -252v186h-326l-2 15l414 592h88v-496h149l-30 -111h-119v-186h-174zM776 45h244v344h-2zM209 475q-89 0 -141 31t-52 84q0 35 22.5 56.5t59.5 21.5q56 0 80 -48t0 -116q33 -10 58 -10q64 0 105.5 54t41.5 132q0 89 -45.5 145t-130.5 56q-65 0 -119 -21l-4 10
q143 66 194.5 105t51.5 100q0 60 -33.5 91.5t-93.5 31.5q-59 0 -101.5 -32.5t-60.5 -84.5l-12 2q32 101 103.5 164.5t168.5 63.5q89 0 147 -45.5t58 -116.5q0 -123 -193 -174v-4q115 6 180.5 -54.5t65.5 -154.5q0 -114 -105.5 -200.5t-244.5 -86.5zM55 -252l1229 1546h29
l-1229 -1546h-29z" />
    <glyph glyph-name="questiondown" unicode="&#xbf;" horiz-adv-x="657" 
d="M344 1038q-58 0 -97.5 40t-39.5 93q0 55 39.5 95.5t97.5 40.5q57 0 97 -40t40 -96q0 -54 -40 -93.5t-97 -39.5zM469 -27q-123 0 -218 66t-141.5 165.5t-46.5 209.5q0 103 33.5 151.5t126.5 87.5q116 44 155.5 67t39.5 60t-20 64t-68 67l12 9q71 -53 126.5 -127t55.5 -125
q0 -31 -11.5 -56.5t-29 -43.5t-50 -36t-62.5 -30t-78 -29q-116 -40 -158.5 -68.5t-42.5 -66.5q0 -68 79.5 -116t227.5 -48q83 0 168 25q45 -42 51 -113q3 -52 -33 -82.5t-116 -30.5z" />
    <glyph glyph-name="Agrave" unicode="&#xc0;" horiz-adv-x="1343" 
d="M705 551h-336l-74 -207q-60 -178 -66 -222q-8 -59 31 -80q30 -17 123 -26l41 -4l6 -12h-450l6 12l34 4q27 3 44.5 6.5t37 13.5t31.5 19.5t29 35t28.5 49t31 71.5t36.5 92.5t45 122.5l229 643l-22 66q64 19 103 62.5t71 117.5h37l352 -1034q39 -113 67.5 -167t57 -74.5
t76.5 -23.5l57 -4l4 -12h-641l6 12l56 4q74 4 86 47t-23 140zM377 571h321l-153 467h-2zM725 1346l-436 383h237l209 -383h-10z" />
    <glyph glyph-name="Aacute" unicode="&#xc1;" horiz-adv-x="1343" 
d="M705 551h-336l-74 -207q-60 -178 -66 -222q-8 -59 31 -80q30 -17 123 -26l41 -4l6 -12h-450l6 12l34 4q27 3 44.5 6.5t37 13.5t31.5 19.5t29 35t28.5 49t31 71.5t36.5 92.5t45 122.5l229 643l-22 66q64 19 103 62.5t71 117.5h37l352 -1034q39 -113 67.5 -167t57 -74.5
t76.5 -23.5l57 -4l4 -12h-641l6 12l56 4q74 4 86 47t-23 140zM377 571h321l-153 467h-2zM563 1346l209 383h238l-437 -383h-10z" />
    <glyph glyph-name="Acircumflex" unicode="&#xc2;" horiz-adv-x="1343" 
d="M705 551h-336l-74 -207q-60 -178 -66 -222q-8 -59 31 -80q30 -17 123 -26l41 -4l6 -12h-450l6 12l34 4q27 3 44.5 6.5t37 13.5t31.5 19.5t29 35t28.5 49t31 71.5t36.5 92.5t45 122.5l229 643l-22 66q64 19 103 62.5t71 117.5h37l352 -1034q39 -113 67.5 -167t57 -74.5
t76.5 -23.5l57 -4l4 -12h-641l6 12l56 4q74 4 86 47t-23 140zM377 571h321l-153 467h-2zM381 1325l297 404h8l297 -404h-12l-287 197h-4l-287 -197h-12z" />
    <glyph glyph-name="Atilde" unicode="&#xc3;" horiz-adv-x="1343" 
d="M705 551h-336l-74 -207q-60 -178 -66 -222q-8 -59 31 -80q30 -17 123 -26l41 -4l6 -12h-450l6 12l34 4q27 3 44.5 6.5t37 13.5t31.5 19.5t29 35t28.5 49t31 71.5t36.5 92.5t45 122.5l229 643l-22 66q64 19 103 62.5t71 117.5h37l352 -1034q39 -113 67.5 -167t57 -74.5
t76.5 -23.5l57 -4l4 -12h-641l6 12l56 4q74 4 86 47t-23 140zM377 571h321l-153 467h-2zM836 1360q-54 0 -131 32t-147.5 64.5t-106.5 32.5q-20 0 -31 -2.5t-25 -12t-22 -33.5t-11 -63h-12q11 144 45 198t117 54q53 0 130 -32t147 -63.5t106 -31.5q20 0 32 2.5t26 12.5
t22 33.5t12 60.5h10q-11 -142 -45 -197t-116 -55z" />
    <glyph glyph-name="Adieresis" unicode="&#xc4;" horiz-adv-x="1343" 
d="M705 551h-336l-74 -207q-60 -178 -66 -222q-8 -59 31 -80q30 -17 123 -26l41 -4l6 -12h-450l6 12l34 4q27 3 44.5 6.5t37 13.5t31.5 19.5t29 35t28.5 49t31 71.5t36.5 92.5t45 122.5l229 643l-22 66q64 19 103 62.5t71 117.5h37l352 -1034q39 -113 67.5 -167t57 -74.5
t76.5 -23.5l57 -4l4 -12h-641l6 12l56 4q74 4 86 47t-23 140zM377 571h321l-153 467h-2zM872 1374q-56 0 -88 37.5t-32 83.5q0 47 32 86t88 39q57 0 90 -39t33 -86q0 -46 -33 -83.5t-90 -37.5zM475 1374q-56 0 -89.5 37.5t-33.5 83.5t33.5 85.5t89.5 39.5q57 0 90 -39
t33 -86q0 -46 -33 -83.5t-90 -37.5z" />
    <glyph glyph-name="Aring" unicode="&#xc5;" horiz-adv-x="1343" 
d="M707 547h-338l-74 -203q-60 -178 -66 -222q-8 -59 31 -80q30 -17 123 -26l41 -4l6 -12h-450l6 12l34 4q37 4 58 9.5t45.5 23.5t39 39.5t38.5 72.5t45 107t57 158l301 844q-56 18 -87.5 65t-31.5 105q0 76 50.5 130t132.5 54t132 -54t50 -130q0 -58 -30 -104t-83 -66
q0 1 84 -246.5t168 -495.5l84 -247q39 -113 67.5 -167t57 -74.5t76.5 -23.5l57 -4l4 -12h-641l6 12l56 4q74 4 86 47t-23 140zM668 1274q73 0 117 48t44 118q0 69 -44 117.5t-117 48.5t-117.5 -48.5t-44.5 -117.5q0 -70 44.5 -118t117.5 -48zM377 571h321l-153 467h-2z" />
    <glyph glyph-name="AE" unicode="&#xc6;" horiz-adv-x="1773" 
d="M-113 0l7 12l75 8q40 4 78 31t93 103t124 206l438 805q17 30 17.5 50.5t-30 31.5t-101.5 15l-80 4l-6 14h1104l20 -418h-12l-8 23q-60 209 -152 292t-274 80l-148 -2v-587h68q134 7 197.5 48.5t95.5 141.5l12 37l14 -2l-53 -490l-14 3l-2 36q-9 113 -61 152.5t-208 48.5
l-49 4v-618l170 -9q186 3 300.5 103.5t180.5 282.5l11 22h12l-57 -428h-1088l6 12l103 8q34 3 57 9t32 12.5t9 13.5v488h-377l-112 -209q-88 -167 -79 -235.5t113 -80.5l52 -6l6 -12h-484zM406 569h362v662h-4z" />
    <glyph glyph-name="Ccedilla" unicode="&#xc7;" horiz-adv-x="1402" 
d="M797 -25h-2q-164 0 -303 50t-234.5 137t-149 208t-53.5 261q0 142 52 265t148 215t241 145t321 53q89 0 181 -23.5t149 -54.5l131 43l12 -412h-12l-207 363q-34 25 -105.5 42t-152.5 17q-147 0 -255.5 -86t-162 -229.5t-53.5 -325.5q0 -145 36.5 -267t99 -204t147 -128
t180.5 -46q163 0 268.5 76t186.5 231l63 121h12l-69 -363l-68 -10q-58 -26 -171.5 -50.5t-209.5 -27.5l-102 -112q92 16 166 2t120 -57t46 -101q0 -39 -15.5 -71.5t-38.5 -56t-63 -44t-74 -33t-86.5 -24.5t-86.5 -18.5t-87 -14.5l-4 10q161 30 237 71.5t76 115.5
q0 58 -49.5 85t-124.5 27q-83 0 -151 -24v12z" />
    <glyph glyph-name="Egrave" unicode="&#xc8;" horiz-adv-x="1247" 
d="M35 0l6 12l72 8q100 11 100 35v1176q0 8 -7.5 12.5t-33 9t-76.5 9.5l-53 6l-6 12h1044l21 -418h-12l-9 23q-59 206 -160 291t-286 81l-158 -2v-587h88q136 8 203.5 49.5t99.5 140.5l13 37l14 -2l-53 -490l-15 3l-2 36q-9 112 -65 152t-213 49l-70 4v-618l201 -9
q186 3 300.5 103.5t180.5 282.5l10 22h13l-58 -428h-1089zM723 1346l-436 383h237l209 -383h-10z" />
    <glyph glyph-name="Eacute" unicode="&#xc9;" horiz-adv-x="1247" 
d="M35 0l6 12l72 8q100 11 100 35v1176q0 8 -7.5 12.5t-33 9t-76.5 9.5l-53 6l-6 12h1044l21 -418h-12l-9 23q-59 206 -160 291t-286 81l-158 -2v-587h88q136 8 203.5 49.5t99.5 140.5l13 37l14 -2l-53 -490l-15 3l-2 36q-9 112 -65 152t-213 49l-70 4v-618l201 -9
q186 3 300.5 103.5t180.5 282.5l10 22h13l-58 -428h-1089zM520 1346l209 383h238l-437 -383h-10z" />
    <glyph glyph-name="Ecircumflex" unicode="&#xca;" horiz-adv-x="1247" 
d="M35 0l6 12l72 8q100 11 100 35v1176q0 8 -7.5 12.5t-33 9t-76.5 9.5l-53 6l-6 12h1044l21 -418h-12l-9 23q-59 206 -160 291t-286 81l-158 -2v-587h88q136 8 203.5 49.5t99.5 140.5l13 37l14 -2l-53 -490l-15 3l-2 36q-9 112 -65 152t-213 49l-70 4v-618l201 -9
q186 3 300.5 103.5t180.5 282.5l10 22h13l-58 -428h-1089zM336 1325l297 404h8l297 -404h-12l-287 197h-4l-287 -197h-12z" />
    <glyph glyph-name="Edieresis" unicode="&#xcb;" horiz-adv-x="1247" 
d="M35 0l6 12l72 8q100 11 100 35v1176q0 8 -7.5 12.5t-33 9t-76.5 9.5l-53 6l-6 12h1044l21 -418h-12l-9 23q-59 206 -160 291t-286 81l-158 -2v-587h88q136 8 203.5 49.5t99.5 140.5l13 37l14 -2l-53 -490l-15 3l-2 36q-9 112 -65 152t-213 49l-70 4v-618l201 -9
q186 3 300.5 103.5t180.5 282.5l10 22h13l-58 -428h-1089zM829 1374q-56 0 -88 37.5t-32 83.5q0 47 32 86t88 39q57 0 90 -39t33 -86q0 -46 -33 -83.5t-90 -37.5zM432 1374q-56 0 -89.5 37.5t-33.5 83.5t33.5 85.5t89.5 39.5q57 0 90 -39t33 -86q0 -46 -33 -83.5t-90 -37.5z
" />
    <glyph glyph-name="Igrave" unicode="&#xcc;" horiz-adv-x="739" 
d="M55 0l6 12l80 8q33 3 56 9t32 13t9 13v1176q0 8 -7.5 12.5t-33 9t-76.5 9.5l-60 6l-6 12h629l-6 -12l-80 -8q-33 -3 -55.5 -9t-31.5 -12.5t-9 -13.5v-1176q0 -8 7 -12.5t32.5 -9t76.5 -9.5l58 -6l6 -12h-627zM463 1346l-436 383h237l209 -383h-10z" />
    <glyph glyph-name="Iacute" unicode="&#xcd;" horiz-adv-x="739" 
d="M55 0l6 12l80 8q33 3 56 9t32 13t9 13v1176q0 8 -7.5 12.5t-33 9t-76.5 9.5l-60 6l-6 12h629l-6 -12l-80 -8q-33 -3 -55.5 -9t-31.5 -12.5t-9 -13.5v-1176q0 -8 7 -12.5t32.5 -9t76.5 -9.5l58 -6l6 -12h-627zM270 1346l209 383h238l-436 -383h-11z" />
    <glyph glyph-name="Icircumflex" unicode="&#xce;" horiz-adv-x="739" 
d="M55 0l6 12l80 8q33 3 56 9t32 13t9 13v1176q0 8 -7.5 12.5t-33 9t-76.5 9.5l-60 6l-6 12h629l-6 -12l-80 -8q-33 -3 -55.5 -9t-31.5 -12.5t-9 -13.5v-1176q0 -8 7 -12.5t32.5 -9t76.5 -9.5l58 -6l6 -12h-627zM70 1325l297 404h8l297 -404h-13l-286 197h-4l-287 -197h-12z
" />
    <glyph glyph-name="Idieresis" unicode="&#xcf;" horiz-adv-x="739" 
d="M55 0l6 12l80 8q33 3 56 9t32 13t9 13v1176q0 8 -7.5 12.5t-33 9t-76.5 9.5l-60 6l-6 12h629l-6 -12l-80 -8q-33 -3 -55.5 -9t-31.5 -12.5t-9 -13.5v-1176q0 -8 7 -12.5t32.5 -9t76.5 -9.5l58 -6l6 -12h-627zM569 1374q-56 0 -88 37.5t-32 83.5q0 47 32 86t88 39
q57 0 90 -39t33 -86q0 -46 -33 -83.5t-90 -37.5zM172 1374q-56 0 -89.5 37.5t-33.5 83.5t33.5 85.5t89.5 39.5q57 0 90 -39t33 -86q0 -46 -33 -83.5t-90 -37.5z" />
    <glyph glyph-name="Eth" unicode="&#xd0;" horiz-adv-x="1409" 
d="M213 629h-182l6 28h176v574q0 18 -117 31l-67 6l-6 12h48.5t112.5 0.5t153.5 0.5t145.5 0.5t116 0.5t38 0q353 3 537 -164.5t184 -464.5q0 -134 -54.5 -253t-151 -207.5t-240 -140.5t-312.5 -52h-580l7 12l90 8q96 11 96 35v574zM477 657h260l6 -28h-266v-570l137 -36
q89 1 164 32t129 86t91.5 129t56 160.5t18.5 181.5q0 147 -29 263.5t-87.5 202.5t-152.5 132.5t-218 46.5h-109v-600z" />
    <glyph glyph-name="Ntilde" unicode="&#xd1;" horiz-adv-x="1431" 
d="M1190 -12l-930 1108h-2l2 -1006q0 -63 184 -76l39 -2l6 -12h-452l6 12l41 2q80 6 114.5 31.5t34.5 60.5l7 1012q-99 133 -222 148l-22 2l-4 12h471l729 -874h2l-2 782q0 65 -184 78l-37 2l-6 12h450l-6 -12l-41 -2q-78 -6 -113.5 -33t-35.5 -62l-9 -1183h-20zM922 1360
q-54 0 -131 32t-147.5 64.5t-106.5 32.5q-20 0 -31 -2.5t-25 -12t-21.5 -33.5t-10.5 -63h-13q11 144 45 198t117 54q53 0 130 -32t147 -63.5t106 -31.5q20 0 32 2.5t26 12.5t22 33.5t12 60.5h10q-11 -142 -45 -197t-116 -55z" />
    <glyph glyph-name="Ograve" unicode="&#xd2;" horiz-adv-x="1513" 
d="M745 -25q-198 0 -355 82.5t-246 234.5t-89 347q0 130 57 252.5t153 214t228 146.5t275 55q198 0 355 -84t246 -237.5t89 -348.5q0 -130 -57 -251.5t-152.5 -211.5t-228 -144.5t-275.5 -54.5zM764 -2q405 0 405 643q0 303 -111 472t-306 169q-202 0 -306 -161t-104 -482
q0 -306 111.5 -473.5t310.5 -167.5zM827 1346l-436 383h238l209 -383h-11z" />
    <glyph glyph-name="Oacute" unicode="&#xd3;" horiz-adv-x="1513" 
d="M745 -25q-198 0 -355 82.5t-246 234.5t-89 347q0 130 57 252.5t153 214t228 146.5t275 55q198 0 355 -84t246 -237.5t89 -348.5q0 -130 -57 -251.5t-152.5 -211.5t-228 -144.5t-275.5 -54.5zM764 -2q405 0 405 643q0 303 -111 472t-306 169q-202 0 -306 -161t-104 -482
q0 -306 111.5 -473.5t310.5 -167.5zM676 1346l209 383h237l-436 -383h-10z" />
    <glyph glyph-name="Ocircumflex" unicode="&#xd4;" horiz-adv-x="1513" 
d="M745 -25q-198 0 -355 82.5t-246 234.5t-89 347q0 130 57 252.5t153 214t228 146.5t275 55q198 0 355 -84t246 -237.5t89 -348.5q0 -130 -57 -251.5t-152.5 -211.5t-228 -144.5t-275.5 -54.5zM764 -2q405 0 405 643q0 303 -111 472t-306 169q-202 0 -306 -161t-104 -482
q0 -306 111.5 -473.5t310.5 -167.5zM459 1325l297 404h8l297 -404h-12l-287 197h-4l-287 -197h-12z" />
    <glyph glyph-name="Otilde" unicode="&#xd5;" horiz-adv-x="1513" 
d="M745 -25q-198 0 -355 82.5t-246 234.5t-89 347q0 130 57 252.5t153 214t228 146.5t275 55q198 0 355 -84t246 -237.5t89 -348.5q0 -130 -57 -251.5t-152.5 -211.5t-228 -144.5t-275.5 -54.5zM764 -2q405 0 405 643q0 303 -111 472t-306 169q-202 0 -306 -161t-104 -482
q0 -306 111.5 -473.5t310.5 -167.5zM936 1360q-54 0 -131 32t-147.5 64.5t-106.5 32.5q-20 0 -31 -2.5t-25 -12t-21.5 -33.5t-10.5 -63h-12q11 144 44.5 198t116.5 54q53 0 130 -32t147 -63.5t106 -31.5q20 0 32 2.5t26 12.5t22 33.5t12 60.5h11q-11 -141 -45.5 -196.5
t-116.5 -55.5z" />
    <glyph glyph-name="Odieresis" unicode="&#xd6;" horiz-adv-x="1513" 
d="M745 -25q-198 0 -355 82.5t-246 234.5t-89 347q0 130 57 252.5t153 214t228 146.5t275 55q198 0 355 -84t246 -237.5t89 -348.5q0 -130 -57 -251.5t-152.5 -211.5t-228 -144.5t-275.5 -54.5zM764 -2q405 0 405 643q0 303 -111 472t-306 169q-202 0 -306 -161t-104 -482
q0 -306 111.5 -473.5t310.5 -167.5zM954 1374q-56 0 -88 37.5t-32 83.5q0 47 32 86t88 39q57 0 90 -39t33 -86q0 -46 -33 -83.5t-90 -37.5zM557 1374q-56 0 -89.5 37.5t-33.5 83.5t33.5 85.5t89.5 39.5q57 0 90 -39t33 -86q0 -46 -33 -83.5t-90 -37.5z" />
    <glyph glyph-name="multiply" unicode="&#xd7;" horiz-adv-x="886" 
d="M799 115l-355 354l-354 -354l-16 16l354 354l-354 355l16 16l354 -354l355 354l16 -16l-354 -355l354 -354z" />
    <glyph glyph-name="Oslash" unicode="&#xd8;" horiz-adv-x="1513" 
d="M1114 1227q161 -85 252.5 -238.5t91.5 -351.5q0 -130 -57 -251.5t-152.5 -211.5t-228 -144.5t-275.5 -54.5q-171 0 -315 64l-111 -191h-22l115 199q-167 81 -262 235.5t-95 356.5q0 130 57 252.5t153 214t228 146.5t275 55q183 0 330 -72l100 174h23zM467 145l573 992
q-111 145 -288 145q-202 0 -306 -161.5t-104 -481.5q0 -324 125 -494zM1053 1118l-572 -989q110 -131 283 -131q405 0 405 643q0 311 -116 477z" />
    <glyph glyph-name="Ugrave" unicode="&#xd9;" horiz-adv-x="1427" 
d="M739 -33q-279 0 -405.5 107t-126.5 342v819q0 8 -7 12t-31.5 7.5t-76.5 7.5l-69 6l-7 12h648l-7 -12l-90 -8q-96 -8 -96 -31v-754q0 -208 91 -308.5t274 -100.5q374 0 374 442l-2 680q0 67 -184 80h-39l-6 12h451l-7 -12h-39q-78 -6 -113.5 -33.5t-35.5 -63.5l-4 -667
q-3 -266 -119.5 -401.5t-372.5 -135.5zM834 1346l-437 383h238l209 -383h-10z" />
    <glyph glyph-name="Uacute" unicode="&#xda;" horiz-adv-x="1427" 
d="M739 -33q-279 0 -405.5 107t-126.5 342v819q0 8 -7 12t-31.5 7.5t-76.5 7.5l-69 6l-7 12h648l-7 -12l-90 -8q-96 -8 -96 -31v-754q0 -208 91 -308.5t274 -100.5q374 0 374 442l-2 680q0 67 -184 80h-39l-6 12h451l-7 -12h-39q-78 -6 -113.5 -33.5t-35.5 -63.5l-4 -667
q-3 -266 -119.5 -401.5t-372.5 -135.5zM692 1346l209 383h238l-437 -383h-10z" />
    <glyph glyph-name="Ucircumflex" unicode="&#xdb;" horiz-adv-x="1427" 
d="M739 -33q-279 0 -405.5 107t-126.5 342v819q0 8 -7 12t-31.5 7.5t-76.5 7.5l-69 6l-7 12h648l-7 -12l-90 -8q-96 -8 -96 -31v-754q0 -208 91 -308.5t274 -100.5q374 0 374 442l-2 680q0 67 -184 80h-39l-6 12h451l-7 -12h-39q-78 -6 -113.5 -33.5t-35.5 -63.5l-4 -667
q-3 -266 -119.5 -401.5t-372.5 -135.5zM477 1325l297 404h8l297 -404h-12l-287 197h-4l-287 -197h-12z" />
    <glyph glyph-name="Udieresis" unicode="&#xdc;" horiz-adv-x="1427" 
d="M739 -33q-279 0 -405.5 107t-126.5 342v819q0 8 -7 12t-31.5 7.5t-76.5 7.5l-69 6l-7 12h648l-7 -12l-90 -8q-96 -8 -96 -31v-754q0 -208 91 -308.5t274 -100.5q374 0 374 442l-2 680q0 67 -184 80h-39l-6 12h451l-7 -12h-39q-78 -6 -113.5 -33.5t-35.5 -63.5l-4 -667
q-3 -266 -119.5 -401.5t-372.5 -135.5zM600 1374q-56 0 -89.5 37.5t-33.5 83.5t33.5 85.5t89.5 39.5q57 0 90 -39t33 -86q0 -46 -33 -83.5t-90 -37.5zM997 1374q-56 0 -88 37.5t-32 83.5q0 47 32 86t88 39q57 0 90 -39t33 -86q0 -46 -33 -83.5t-90 -37.5z" />
    <glyph glyph-name="Yacute" unicode="&#xdd;" horiz-adv-x="1325" 
d="M338 0l6 12l90 8q33 3 55.5 9t31.5 12.5t9 13.5v531l-274 485q-66 115 -101 150.5t-102 42.5l-43 4l-6 12h635l-6 -12l-35 -2q-96 -9 -112.5 -38.5t22.5 -92.5l270 -484h4l154 287q29 55 46.5 90.5t32.5 70.5t20 55t3.5 39.5t-10.5 29t-27 18.5t-42 13t-60 8l-45 6l-6 12
h467l-6 -12l-58 -6q-56 -6 -91.5 -30t-81 -90.5t-122.5 -211.5l-161 -299v-582q0 -8 7 -12.5t32.5 -9t76.5 -9.5l68 -6l6 -12h-647zM631 1346l209 383h237l-436 -383h-10z" />
    <glyph glyph-name="Thorn" unicode="&#xde;" horiz-adv-x="1214" 
d="M31 0l6 16l90 9q96 8 96 32v1172q0 11 -20 16t-97 12l-67 7l-6 16h645l-6 -16l-88 -9q-97 -8 -97 -32v-217h127q271 0 406 -82.5t135 -239.5q0 -161 -151.5 -260.5t-401.5 -99.5q-82 0 -115 10v-283q0 -8 7 -12.5t33.5 -8.5t76.5 -7l88 -7l6 -16h-667zM596 350
q122 0 200 86.5t78 225.5q0 320 -296 323l-91 -4v-619q40 -12 109 -12z" />
    <glyph glyph-name="germandbls" unicode="&#xdf;" horiz-adv-x="1136" 
d="M731 860q151 -75 256 -211t105 -284q0 -99 -49.5 -189t-133.5 -144.5t-178 -54.5q-104 0 -166.5 45t-62.5 115q0 54 35 89.5t86 35.5t80 -29.5t30.5 -66.5t-19 -71.5t-57.5 -43.5q3 -20 28.5 -36.5t64.5 -16.5q67 0 107 52.5t40 152.5q0 167 -101.5 330t-295.5 276v12
q135 34 194.5 95.5t59.5 189.5q0 99 -48.5 164t-123.5 65q-99 0 -139 -65t-40 -234v-1036h-360l6 18l37 2q68 4 78 12q8 6 8 17v721l-162 2l47 102l115 -2l6 115q10 167 131.5 269t284.5 102q181 0 282 -71t101 -193q0 -95 -67 -153.5t-179 -80.5z" />
    <glyph glyph-name="agrave" unicode="&#xe0;" horiz-adv-x="919" 
d="M707 -23q-71 0 -113 46t-53 131l-2 2q-75 -84 -141.5 -130t-139.5 -46q-88 0 -149.5 58.5t-61.5 135.5q0 75 43.5 131.5t155.5 109t303 99.5l2 70q4 128 -51 198t-154 70q-54 0 -90.5 -17t-36.5 -36q0 -6 15.5 -25.5t31 -46t15.5 -49.5q0 -45 -33.5 -76t-85.5 -31
q-49 0 -82 27t-33 72q0 62 76.5 118t179 86.5t189.5 30.5q167 0 233.5 -72t58.5 -245l-18 -383q-3 -55 18 -84t58 -29q34 0 86 60l12 -7q-28 -35 -43 -52.5t-49 -50.5t-69 -49t-72 -16zM399 111q74 0 138 67l14 314q-155 -36 -216 -93t-61 -141q0 -64 35.5 -105.5
t89.5 -41.5zM563 1004l-436 382h238l208 -382h-10z" />
    <glyph glyph-name="aacute" unicode="&#xe1;" horiz-adv-x="919" 
d="M707 -23q-71 0 -113 46t-53 131l-2 2q-75 -84 -141.5 -130t-139.5 -46q-88 0 -149.5 58.5t-61.5 135.5q0 75 43.5 131.5t155.5 109t303 99.5l2 70q4 128 -51 198t-154 70q-54 0 -90.5 -17t-36.5 -36q0 -6 15.5 -25.5t31 -46t15.5 -49.5q0 -45 -33.5 -76t-85.5 -31
q-49 0 -82 27t-33 72q0 62 76.5 118t179 86.5t189.5 30.5q167 0 233.5 -72t58.5 -245l-18 -383q-3 -55 18 -84t58 -29q34 0 86 60l12 -7q-28 -35 -43 -52.5t-49 -50.5t-69 -49t-72 -16zM399 111q74 0 138 67l14 314q-155 -36 -216 -93t-61 -141q0 -64 35.5 -105.5
t89.5 -41.5zM360 1004l209 382h238l-436 -382h-11z" />
    <glyph glyph-name="acircumflex" unicode="&#xe2;" horiz-adv-x="919" 
d="M707 -23q-71 0 -113 46t-53 131l-2 2q-75 -84 -141.5 -130t-139.5 -46q-88 0 -149.5 58.5t-61.5 135.5q0 75 43.5 131.5t155.5 109t303 99.5l2 70q4 128 -51 198t-154 70q-54 0 -90.5 -17t-36.5 -36q0 -6 15.5 -25.5t31 -46t15.5 -49.5q0 -45 -33.5 -76t-85.5 -31
q-49 0 -82 27t-33 72q0 62 76.5 118t179 86.5t189.5 30.5q167 0 233.5 -72t58.5 -245l-18 -383q-3 -55 18 -84t58 -29q34 0 86 60l12 -7q-28 -35 -43 -52.5t-49 -50.5t-69 -49t-72 -16zM399 111q74 0 138 67l14 314q-155 -36 -216 -93t-61 -141q0 -64 35.5 -105.5
t89.5 -41.5zM145 983l297 403h9l297 -403h-13l-286 197h-5l-286 -197h-13z" />
    <glyph glyph-name="atilde" unicode="&#xe3;" horiz-adv-x="919" 
d="M707 -23q-71 0 -113 46t-53 131l-2 2q-75 -84 -141.5 -130t-139.5 -46q-88 0 -149.5 58.5t-61.5 135.5q0 75 43.5 131.5t155.5 109t303 99.5l2 70q4 128 -51 198t-154 70q-54 0 -90.5 -17t-36.5 -36q0 -6 15.5 -25.5t31 -46t15.5 -49.5q0 -45 -33.5 -76t-85.5 -31
q-49 0 -82 27t-33 72q0 62 76.5 118t179 86.5t189.5 30.5q167 0 233.5 -72t58.5 -245l-18 -383q-3 -55 18 -84t58 -29q34 0 86 60l12 -7q-28 -35 -43 -52.5t-49 -50.5t-69 -49t-72 -16zM399 111q74 0 138 67l14 314q-155 -36 -216 -93t-61 -141q0 -64 35.5 -105.5
t89.5 -41.5zM608 1018q-54 0 -131 32t-147.5 64.5t-106.5 32.5q-20 0 -31 -2.5t-25 -12t-21.5 -33.5t-10.5 -63h-12q11 144 45 198t117 54q53 0 130 -32t147 -63.5t106 -31.5q20 0 32 2.5t26 12.5t22 33.5t12 60.5h10q-11 -141 -45.5 -196.5t-116.5 -55.5z" />
    <glyph glyph-name="adieresis" unicode="&#xe4;" horiz-adv-x="919" 
d="M707 -23q-71 0 -113 46t-53 131l-2 2q-75 -84 -141.5 -130t-139.5 -46q-88 0 -149.5 58.5t-61.5 135.5q0 75 43.5 131.5t155.5 109t303 99.5l2 70q4 128 -51 198t-154 70q-54 0 -90.5 -17t-36.5 -36q0 -6 15.5 -25.5t31 -46t15.5 -49.5q0 -45 -33.5 -76t-85.5 -31
q-49 0 -82 27t-33 72q0 62 76.5 118t179 86.5t189.5 30.5q167 0 233.5 -72t58.5 -245l-18 -383q-3 -55 18 -84t58 -29q34 0 86 60l12 -7q-28 -35 -43 -52.5t-49 -50.5t-69 -49t-72 -16zM399 111q74 0 138 67l14 314q-155 -36 -216 -93t-61 -141q0 -64 35.5 -105.5
t89.5 -41.5zM635 1032q-56 0 -88.5 37.5t-32.5 83.5t32.5 85.5t88.5 39.5q57 0 90 -39t33 -86q0 -46 -33 -83.5t-90 -37.5zM238 1032q-56 0 -89.5 37.5t-33.5 83.5t33.5 85.5t89.5 39.5q57 0 89.5 -39t32.5 -86q0 -46 -32.5 -83.5t-89.5 -37.5z" />
    <glyph glyph-name="aring" unicode="&#xe5;" horiz-adv-x="919" 
d="M428 1020q-82 0 -132 53t-50 131q0 77 50 131t132 54t132 -54t50 -131q0 -78 -50 -131t-132 -53zM707 -23q-71 0 -113 46t-53 131l-2 2q-75 -84 -141.5 -130t-139.5 -46q-88 0 -149.5 58.5t-61.5 135.5q0 75 43.5 131.5t155.5 109t303 99.5l2 70q4 128 -51 198t-154 70
q-54 0 -90.5 -17t-36.5 -36q0 -6 15.5 -25.5t31 -46t15.5 -49.5q0 -45 -33.5 -76t-85.5 -31q-49 0 -82 27t-33 72q0 62 76.5 118t179 86.5t189.5 30.5q167 0 233.5 -72t58.5 -245l-18 -383q-3 -55 18 -84t58 -29q34 0 86 60l12 -7q-28 -35 -43 -52.5t-49 -50.5t-69 -49
t-72 -16zM428 1038q73 0 117.5 48t44.5 118q0 69 -44.5 117.5t-117.5 48.5t-117.5 -48.5t-44.5 -117.5q0 -70 44.5 -118t117.5 -48zM399 111q74 0 138 67l14 314q-155 -36 -216 -93t-61 -141q0 -64 35.5 -105.5t89.5 -41.5z" />
    <glyph glyph-name="ae" unicode="&#xe6;" horiz-adv-x="1409" 
d="M256 -23q-86 0 -147.5 59t-61.5 136q0 75 42.5 131.5t155 110t304.5 100.5l2 70q4 128 -51 198t-154 70q-54 0 -90.5 -17t-36.5 -36q0 -6 15.5 -25.5t31 -46t15.5 -49.5q0 -45 -33.5 -76t-85.5 -31q-49 0 -82 27t-33 72q0 62 74 118t177 86.5t198 30.5q80 0 131.5 -24.5
t81.5 -81.5q119 108 301 108q167 0 258.5 -85.5t91.5 -203.5q0 -10 -4 -34q-504 4 -570 6q-2 -14 -2 -98q0 -169 86.5 -272t225.5 -103q91 0 154.5 37.5t109.5 124.5l14 -9q-137 -293 -413 -293q-131 0 -228 61.5t-141 164.5q-98 -114 -178.5 -170t-157.5 -56zM791 610
l342 4q0 50 -7 95t-23 85.5t-46 64.5t-70 24q-69 0 -124 -77t-72 -196zM391 106q45 0 88 25.5t101 87.5q-33 75 -33 238q0 22 2 32q-158 -40 -216.5 -96.5t-58.5 -142.5q0 -60 36.5 -102t80.5 -42z" />
    <glyph glyph-name="ccedilla" unicode="&#xe7;" horiz-adv-x="878" 
d="M483 -31h-20q-184 0 -304 126.5t-120 316.5q0 210 135.5 351.5t347.5 141.5q138 0 232 -55.5t94 -144.5q0 -53 -35 -89t-86 -36q-52 0 -87.5 34t-35.5 82q0 28 13 55t25.5 45t12.5 23q0 22 -36.5 43t-81.5 21q-109 0 -177.5 -105t-68.5 -280q0 -182 81.5 -283.5
t221.5 -101.5q89 0 149.5 36.5t106.5 122.5l14 -6q-128 -272 -358 -295l-98 -108q92 16 165.5 2t119.5 -57t46 -101q0 -39 -15.5 -71.5t-38.5 -56t-62.5 -44t-73.5 -33t-86.5 -24.5t-86.5 -18.5t-87 -14.5l-4 10q161 30 237 71.5t76 115.5q0 58 -50 85t-124 27
q-84 0 -152 -24v12z" />
    <glyph glyph-name="egrave" unicode="&#xe8;" horiz-adv-x="911" 
d="M465 -31q-183 0 -304.5 129.5t-121.5 321.5q0 206 135.5 346.5t337.5 140.5q167 0 258.5 -85.5t91.5 -203.5q0 -10 -4 -34q-510 4 -567 6q-4 -27 -4 -98q0 -170 86.5 -274.5t224.5 -104.5q91 0 154.5 37t109.5 122l15 -6q-139 -297 -412 -297zM295 610l340 2
q0 51 -7 96.5t-23 86t-46 64.5t-70 24q-69 0 -124 -77.5t-70 -195.5zM582 1004l-437 382h238l209 -382h-10z" />
    <glyph glyph-name="eacute" unicode="&#xe9;" horiz-adv-x="911" 
d="M465 -31q-183 0 -304.5 129.5t-121.5 321.5q0 206 135.5 346.5t337.5 140.5q167 0 258.5 -85.5t91.5 -203.5q0 -10 -4 -34q-510 4 -567 6q-4 -27 -4 -98q0 -170 86.5 -274.5t224.5 -104.5q91 0 154.5 37t109.5 122l15 -6q-139 -297 -412 -297zM295 610l340 2
q0 51 -7 96.5t-23 86t-46 64.5t-70 24q-69 0 -124 -77.5t-70 -195.5zM397 1004l209 382h238l-436 -382h-11z" />
    <glyph glyph-name="ecircumflex" unicode="&#xea;" horiz-adv-x="911" 
d="M465 -31q-183 0 -304.5 129.5t-121.5 321.5q0 206 135.5 346.5t337.5 140.5q167 0 258.5 -85.5t91.5 -203.5q0 -10 -4 -34q-510 4 -567 6q-4 -27 -4 -98q0 -170 86.5 -274.5t224.5 -104.5q91 0 154.5 37t109.5 122l15 -6q-139 -297 -412 -297zM295 610l340 2
q0 51 -7 96.5t-23 86t-46 64.5t-70 24q-69 0 -124 -77.5t-70 -195.5zM193 983l296 403h9l297 -403h-13l-286 197h-4l-287 -197h-12z" />
    <glyph glyph-name="edieresis" unicode="&#xeb;" horiz-adv-x="911" 
d="M465 -31q-183 0 -304.5 129.5t-121.5 321.5q0 206 135.5 346.5t337.5 140.5q167 0 258.5 -85.5t91.5 -203.5q0 -10 -4 -34q-510 4 -567 6q-4 -27 -4 -98q0 -170 86.5 -274.5t224.5 -104.5q91 0 154.5 37t109.5 122l15 -6q-139 -297 -412 -297zM295 610l340 2
q0 51 -7 96.5t-23 86t-46 64.5t-70 24q-69 0 -124 -77.5t-70 -195.5zM684 1032q-56 0 -88.5 37.5t-32.5 83.5t32.5 85.5t88.5 39.5q57 0 90 -39t33 -86q0 -46 -33 -83.5t-90 -37.5zM287 1032q-56 0 -89.5 37.5t-33.5 83.5t33.5 85.5t89.5 39.5q57 0 90 -39t33 -86
q0 -46 -33 -83.5t-90 -37.5z" />
    <glyph glyph-name="igrave" unicode="&#xec;" horiz-adv-x="538" 
d="M33 0l6 12l31 2q51 3 68.5 9t17.5 24v574q0 93 -15 121t-69 40l-47 11l2 8l360 98v-856q0 -12 19 -17.5t86 -11.5l22 -2l6 -12h-487zM375 1004l-436 382h237l209 -382h-10z" />
    <glyph glyph-name="iacute" unicode="&#xed;" horiz-adv-x="538" 
d="M33 0l6 12l31 2q51 3 68.5 9t17.5 24v574q0 93 -15 121t-69 40l-47 11l2 8l360 98v-856q0 -12 19 -17.5t86 -11.5l22 -2l6 -12h-487zM162 1004l209 382h237l-436 -382h-10z" />
    <glyph glyph-name="icircumflex" unicode="&#xee;" horiz-adv-x="538" 
d="M-2 983l276 403h9l276 -403h-12l-266 195h-5l-268 -195h-10zM33 0l6 12l31 2q51 3 68.5 9t17.5 24v574q0 93 -15 121t-69 40l-47 11l2 8l360 98v-856q0 -12 19 -17.5t86 -11.5l22 -2l6 -12h-487z" />
    <glyph glyph-name="idieresis" unicode="&#xef;" horiz-adv-x="538" 
d="M33 0l6 12l31 2q51 3 68.5 9t17.5 24v574q0 93 -15 121t-69 40l-47 11l2 8l360 98v-856q0 -12 19 -17.5t86 -11.5l22 -2l6 -12h-487zM477 1032q-56 0 -88.5 37.5t-32.5 83.5t32.5 85.5t88.5 39.5q57 0 90 -39t33 -86q0 -46 -33 -83.5t-90 -37.5zM80 1032
q-56 0 -89.5 37.5t-33.5 83.5t33.5 85.5t89.5 39.5q57 0 90 -39t33 -86q0 -46 -33 -83.5t-90 -37.5z" />
    <glyph glyph-name="eth" unicode="&#xf0;" horiz-adv-x="1038" 
d="M432 1128l-264 -84l4 25l236 76q-123 82 -289 108l2 15q207 -14 383 -90l239 77l5 -24l-211 -68q221 -105 341.5 -285.5t120.5 -375.5q0 -234 -133.5 -379.5t-349.5 -145.5q-214 0 -345.5 132t-131.5 331q0 200 135 335.5t344 135.5q45 0 115 -8q-82 139 -201 225z
M518 -6q223 0 223 440q0 209 -61 335t-166 126q-103 0 -160 -118t-57 -316q0 -243 54 -355t167 -112z" />
    <glyph glyph-name="ntilde" unicode="&#xf1;" horiz-adv-x="1099" 
d="M33 0l6 12l31 2q51 3 68.5 9t17.5 24v574q0 93 -15 121t-69 40l-47 11l2 8l364 98l-6 -176l4 -2q45 39 75 62.5t79.5 55.5t99 48t98.5 16q97 0 162 -65q66 -66 66 -226v-567q0 -7 4.5 -11.5t28.5 -9.5t71 -10l23 -2l6 -12h-484l7 12l37 2q34 2 51.5 7t20.5 10.5t3 15.5
v537q0 92 -43.5 133t-126.5 41q-98 0 -180 -64v-651q0 -13 16.5 -19t73.5 -10l31 -2l4 -12h-479zM721 1018q-54 0 -131 32t-147.5 64.5t-106.5 32.5q-20 0 -31 -2.5t-25 -12t-21.5 -33.5t-10.5 -63h-12q11 144 44.5 198t116.5 54q53 0 130 -32t147 -63.5t106 -31.5
q20 0 32 2.5t26 12.5t22 33.5t12 60.5h11q-11 -141 -45.5 -196.5t-116.5 -55.5z" />
    <glyph glyph-name="ograve" unicode="&#xf2;" horiz-adv-x="1056" 
d="M524 -29q-144 0 -255.5 63t-170.5 169t-59 235q0 128 62 234.5t175.5 169.5t255.5 63q108 0 199.5 -36t154 -98.5t97.5 -147t35 -179.5q0 -201 -138.5 -337t-355.5 -136zM526 -10q109 0 170.5 124t61.5 314q0 303 -105 408q-54 51 -125 51q-76 0 -129.5 -60t-77.5 -155
t-24 -217q0 -307 102 -414q51 -51 127 -51zM604 1004l-436 382h238l208 -382h-10z" />
    <glyph glyph-name="oacute" unicode="&#xf3;" horiz-adv-x="1056" 
d="M524 -29q-144 0 -255.5 63t-170.5 169t-59 235q0 128 62 234.5t175.5 169.5t255.5 63q108 0 199.5 -36t154 -98.5t97.5 -147t35 -179.5q0 -201 -138.5 -337t-355.5 -136zM526 -10q109 0 170.5 124t61.5 314q0 303 -105 408q-54 51 -125 51q-76 0 -129.5 -60t-77.5 -155
t-24 -217q0 -307 102 -414q51 -51 127 -51zM442 1004l209 382h238l-436 -382h-11z" />
    <glyph glyph-name="ocircumflex" unicode="&#xf4;" horiz-adv-x="1056" 
d="M524 -29q-144 0 -255.5 63t-170.5 169t-59 235q0 128 62 234.5t175.5 169.5t255.5 63q108 0 199.5 -36t154 -98.5t97.5 -147t35 -179.5q0 -201 -138.5 -337t-355.5 -136zM526 -10q109 0 170.5 124t61.5 314q0 303 -105 408q-54 51 -125 51q-76 0 -129.5 -60t-77.5 -155
t-24 -217q0 -307 102 -414q51 -51 127 -51zM227 983l297 403h8l297 -403h-12l-287 197h-4l-286 -197h-13z" />
    <glyph glyph-name="otilde" unicode="&#xf5;" horiz-adv-x="1056" 
d="M524 -29q-144 0 -255.5 63t-170.5 169t-59 235q0 128 62 234.5t175.5 169.5t255.5 63q108 0 199.5 -36t154 -98.5t97.5 -147t35 -179.5q0 -201 -138.5 -337t-355.5 -136zM526 -10q109 0 170.5 124t61.5 314q0 303 -105 408q-54 51 -125 51q-76 0 -129.5 -60t-77.5 -155
t-24 -217q0 -307 102 -414q51 -51 127 -51zM690 1018q-54 0 -131 32t-147.5 64.5t-106.5 32.5q-20 0 -31 -2.5t-25 -12t-21.5 -33.5t-10.5 -63h-12q11 144 45 198t117 54q53 0 130 -32t147 -63.5t106 -31.5q20 0 32 2.5t26 12.5t22 33.5t12 60.5h10q-11 -141 -45.5 -196.5
t-116.5 -55.5z" />
    <glyph glyph-name="odieresis" unicode="&#xf6;" horiz-adv-x="1056" 
d="M524 -29q-144 0 -255.5 63t-170.5 169t-59 235q0 128 62 234.5t175.5 169.5t255.5 63q108 0 199.5 -36t154 -98.5t97.5 -147t35 -179.5q0 -201 -138.5 -337t-355.5 -136zM526 -10q109 0 170.5 124t61.5 314q0 303 -105 408q-54 51 -125 51q-76 0 -129.5 -60t-77.5 -155
t-24 -217q0 -307 102 -414q51 -51 127 -51zM727 1032q-56 0 -88.5 37.5t-32.5 83.5t32.5 85.5t88.5 39.5q57 0 90 -39t33 -86q0 -46 -33 -83.5t-90 -37.5zM330 1032q-56 0 -89.5 37.5t-33.5 83.5t33.5 85.5t89.5 39.5q57 0 90 -39t33 -86q0 -46 -33 -83.5t-90 -37.5z" />
    <glyph glyph-name="divide" unicode="&#xf7;" horiz-adv-x="886" 
d="M541 774q0 -39 -28.5 -69.5t-70.5 -30.5t-71 30.5t-29 69.5q0 38 29 66t71 28t70.5 -28t28.5 -66zM852 473h-817l4 25h809zM541 195q0 -39 -28.5 -69t-70.5 -30t-71 30t-29 69q0 38 29 66t71 28t70.5 -28t28.5 -66z" />
    <glyph glyph-name="oslash" unicode="&#xf8;" horiz-adv-x="1056" 
d="M270 33q-109 62 -170 168.5t-61 236.5q0 128 62 234.5t175.5 169.5t255.5 63q118 0 218 -43l186 324h22l-192 -332q118 -57 185 -166.5t67 -243.5q0 -201 -138.5 -337t-355.5 -136q-132 0 -237 54l-166 -289h-23q102 176 172 297zM336 150l362 622q-20 39 -45 64
q-56 53 -125 53q-76 0 -129.5 -60.5t-77.5 -156t-24 -217.5q0 -193 39 -305zM707 752q-361 -627 -363 -627q20 -44 55 -84q49 -49 127 -49q109 0 170.5 123t61.5 313q0 210 -51 324z" />
    <glyph glyph-name="ugrave" unicode="&#xf9;" horiz-adv-x="1052" 
d="M700 -33l5 189h-5q-86 -82 -171.5 -133.5t-178.5 -51.5q-49 0 -84 17t-71 53q-67 67 -64 225l4 570q0 6 -5 9t-29 7t-74 8l-29 2l-6 12h375l-5 -583q-1 -91 42.5 -131.5t130.5 -40.5q88 0 165 59v619q0 36 -18.5 47t-85.5 16l-29 2l-6 12h371v-669q0 -60 10 -79t45 -28
l76 -16l-2 -8zM602 1004l-436 382h237l209 -382h-10z" />
    <glyph glyph-name="uacute" unicode="&#xfa;" horiz-adv-x="1052" 
d="M700 -33l5 189h-5q-86 -82 -171.5 -133.5t-178.5 -51.5q-49 0 -84 17t-71 53q-67 67 -64 225l4 570q0 6 -5 9t-29 7t-74 8l-29 2l-6 12h375l-5 -583q-1 -91 42.5 -131.5t130.5 -40.5q88 0 165 59v619q0 36 -18.5 47t-85.5 16l-29 2l-6 12h371v-669q0 -60 10 -79t45 -28
l76 -16l-2 -8zM440 1004l209 382h238l-436 -382h-11z" />
    <glyph glyph-name="ucircumflex" unicode="&#xfb;" horiz-adv-x="1052" 
d="M700 -33l5 189h-5q-86 -82 -171.5 -133.5t-178.5 -51.5q-49 0 -84 17t-71 53q-67 67 -64 225l4 570q0 6 -5 9t-29 7t-74 8l-29 2l-6 12h375l-5 -583q-1 -91 42.5 -131.5t130.5 -40.5q88 0 165 59v619q0 36 -18.5 47t-85.5 16l-29 2l-6 12h371v-669q0 -60 10 -79t45 -28
l76 -16l-2 -8zM225 983l297 403h8l297 -403h-12l-287 197h-4l-286 -197h-13z" />
    <glyph glyph-name="udieresis" unicode="&#xfc;" horiz-adv-x="1052" 
d="M700 -33l5 189h-5q-86 -82 -171.5 -133.5t-178.5 -51.5q-49 0 -84 17t-71 53q-67 67 -64 225l4 570q0 6 -5 9t-29 7t-74 8l-29 2l-6 12h375l-5 -583q-1 -91 42.5 -131.5t130.5 -40.5q88 0 165 59v619q0 36 -18.5 47t-85.5 16l-29 2l-6 12h371v-669q0 -60 10 -79t45 -28
l76 -16l-2 -8zM352 1032q-56 0 -89.5 37.5t-33.5 83.5t33.5 85.5t89.5 39.5q57 0 90 -39t33 -86q0 -46 -33 -83.5t-90 -37.5zM750 1032q-56 0 -88.5 37.5t-32.5 83.5t32.5 85.5t88.5 39.5q57 0 89.5 -39t32.5 -86q0 -46 -32.5 -83.5t-89.5 -37.5z" />
    <glyph glyph-name="yacute" unicode="&#xfd;" horiz-adv-x="978" 
d="M195 -524q-55 0 -97.5 33.5t-42.5 91.5q0 47 34.5 81.5t84.5 34.5q58 0 92.5 -34t42.5 -82q38 7 63.5 45.5t55.5 122.5l76 213h-27l-340 759q-33 74 -53 94.5t-68 24.5l-32 2l-7 12h515l-7 -12l-34 -2q-61 -4 -74.5 -25t10.5 -73l217 -504l125 348q23 64 33 103.5
t10.5 68.5t-15.5 44t-40.5 23t-69.5 13l-29 4l-6 12h363l-6 -12l-33 -4q-16 -1 -28 -4t-23 -5.5t-20 -11.5t-16.5 -15t-16.5 -25t-16 -31.5t-18.5 -44t-20 -53.5t-25.5 -69q-1 -2 -1.5 -3.5t-1 -3.5t-1.5 -4l-218 -588l-84 -250q-45 -140 -105 -207t-146 -67zM426 952
l199 365h225l-414 -365h-10z" />
    <glyph glyph-name="thorn" unicode="&#xfe;" horiz-adv-x="1054" 
d="M-35 -518l6 16l37 2q52 3 69 8.5t17 22.5v1610q0 67 -15.5 89t-68.5 36l-47 12l2 8l359 90v-661l6 -6q150 186 321 186q154 0 259.5 -123.5t105.5 -312.5q0 -96 -30 -178t-79.5 -138t-113 -95.5t-131 -58t-134.5 -18.5q-111 0 -198 37h-6v-483q0 -8 6.5 -12.5t30 -8
t67.5 -4.5l72 -2l6 -16h-541zM557 -6q96 0 150.5 115.5t54.5 287.5q0 159 -68 263t-182 104q-98 0 -188 -86v-485q39 -86 104 -142.5t129 -56.5z" />
    <glyph glyph-name="ydieresis" unicode="&#xff;" horiz-adv-x="978" 
d="M195 -524q-55 0 -97.5 33.5t-42.5 91.5q0 47 34.5 81.5t84.5 34.5q58 0 92.5 -34t42.5 -82q38 7 63.5 45.5t55.5 122.5l76 213h-27l-340 759q-33 74 -53 94.5t-68 24.5l-32 2l-7 12h515l-7 -12l-34 -2q-61 -4 -74.5 -25t10.5 -73l217 -504l125 348q23 64 33 103.5
t10.5 68.5t-15.5 44t-40.5 23t-69.5 13l-29 4l-6 12h363l-6 -12l-33 -4q-16 -1 -28 -4t-23 -5.5t-20 -11.5t-16.5 -15t-16.5 -25t-16 -31.5t-18.5 -44t-20 -53.5t-25.5 -69q-1 -2 -1.5 -3.5t-1 -3.5t-1.5 -4l-218 -588l-84 -250q-45 -140 -105 -207t-146 -67zM698 1032
q-56 0 -88 37.5t-32 83.5q0 47 32 86t88 39q57 0 90 -39t33 -86q0 -46 -33 -83.5t-90 -37.5zM301 1032q-56 0 -89.5 37.5t-33.5 83.5t33.5 85.5t89.5 39.5q57 0 90 -39t33 -86q0 -46 -33 -83.5t-90 -37.5z" />
    <glyph glyph-name="Amacron" unicode="&#x100;" horiz-adv-x="1343" 
d="M705 551h-336l-74 -207q-60 -178 -66 -222q-8 -59 31 -80q30 -17 123 -26l41 -4l6 -12h-450l6 12l34 4q27 3 44.5 6.5t37 13.5t31.5 19.5t29 35t28.5 49t31 71.5t36.5 92.5t45 122.5l229 643l-22 66q64 19 103 62.5t71 117.5h37l352 -1034q39 -113 67.5 -167t57 -74.5
t76.5 -23.5l57 -4l4 -12h-641l6 12l56 4q74 4 86 47t-23 140zM377 571h321l-153 467h-2zM391 1473l27 88h516l-27 -88h-516z" />
    <glyph glyph-name="amacron" unicode="&#x101;" horiz-adv-x="919" 
d="M707 -23q-71 0 -113 46t-53 131l-2 2q-75 -84 -141.5 -130t-139.5 -46q-88 0 -149.5 58.5t-61.5 135.5q0 75 43.5 131.5t155.5 109t303 99.5l2 70q4 128 -51 198t-154 70q-54 0 -90.5 -17t-36.5 -36q0 -6 15.5 -25.5t31 -46t15.5 -49.5q0 -45 -33.5 -76t-85.5 -31
q-49 0 -82 27t-33 72q0 62 76.5 118t179 86.5t189.5 30.5q167 0 233.5 -72t58.5 -245l-18 -383q-3 -55 18 -84t58 -29q34 0 86 60l12 -7q-28 -35 -43 -52.5t-49 -50.5t-69 -49t-72 -16zM399 111q74 0 138 67l14 314q-155 -36 -216 -93t-61 -141q0 -64 35.5 -105.5
t89.5 -41.5zM180 1067l27 88h516l-27 -88h-516z" />
    <glyph glyph-name="Abreve" unicode="&#x102;" horiz-adv-x="1343" 
d="M705 551h-336l-74 -207q-60 -178 -66 -222q-8 -59 31 -80q30 -17 123 -26l41 -4l6 -12h-450l6 12l34 4q27 3 44.5 6.5t37 13.5t31.5 19.5t29 35t28.5 49t31 71.5t36.5 92.5t45 122.5l229 643l-22 66q64 19 103 62.5t71 117.5h37l352 -1034q39 -113 67.5 -167t57 -74.5
t76.5 -23.5l57 -4l4 -12h-641l6 12l56 4q74 4 86 47t-23 140zM377 571h321l-153 467h-2zM647 1399q-48 0 -88 19t-68.5 51t-52.5 81t-40.5 102t-30.5 120h10q38 -112 109.5 -165t164.5 -53t165 53t110 165h10q-17 -86 -39 -148.5t-55 -116t-82 -81t-113 -27.5z" />
    <glyph glyph-name="abreve" unicode="&#x103;" horiz-adv-x="919" 
d="M707 -23q-71 0 -113 46t-53 131l-2 2q-75 -84 -141.5 -130t-139.5 -46q-88 0 -149.5 58.5t-61.5 135.5q0 75 43.5 131.5t155.5 109t303 99.5l2 70q4 128 -51 198t-154 70q-54 0 -90.5 -17t-36.5 -36q0 -6 15.5 -25.5t31 -46t15.5 -49.5q0 -45 -33.5 -76t-85.5 -31
q-49 0 -82 27t-33 72q0 62 76.5 118t179 86.5t189.5 30.5q167 0 233.5 -72t58.5 -245l-18 -383q-3 -55 18 -84t58 -29q34 0 86 60l12 -7q-28 -35 -43 -52.5t-49 -50.5t-69 -49t-72 -16zM399 111q74 0 138 67l14 314q-155 -36 -216 -93t-61 -141q0 -64 35.5 -105.5
t89.5 -41.5zM449 993q-48 0 -88 19t-69 51t-53 81t-40.5 102t-30.5 120h10q38 -112 110 -164.5t165 -52.5q200 0 274 217h10q-18 -86 -39 -148.5t-54.5 -116t-82 -81t-112.5 -27.5z" />
    <glyph glyph-name="Aogonek" unicode="&#x104;" horiz-adv-x="1343" 
d="M1110 -498q-86 0 -145.5 50.5t-59.5 134.5q0 56 31.5 110t81 94.5t107.5 69t114 39.5h-545l6 12l56 4q74 4 86 47.5t-23 141.5l-114 346h-336l-74 -207q-60 -178 -66 -222q-8 -59 31 -80q30 -17 123 -26l41 -4l6 -12h-450l6 12l34 4q27 3 44.5 6.5t37 13.5t31.5 19.5
t29 35t28.5 49t31 71.5t36.5 92.5t45 122.5l232 645l-25 64q64 21 103 64t71 116h37l352 -1034q39 -113 67.5 -167t57 -74.5t76.5 -23.5l57 -4l4 -12q-141 -23 -220 -85.5t-79 -166.5q0 -145 156 -145q42 0 72.5 17.5t64.5 51.5l8 -8q-30 -60 -90 -111t-137 -51zM377 571
h321l-151 467h-4z" />
    <glyph glyph-name="aogonek" unicode="&#x105;" horiz-adv-x="878" 
d="M678 -510q-84 0 -138.5 56.5t-54.5 136.5q0 93 59.5 169t145.5 125h-2q-74 0 -110.5 39.5t-47.5 124.5q-62 -73 -123 -117t-135 -44q-88 0 -152.5 59t-64.5 141q0 41 12 75t44 70t85.5 66.5t141 60t205.5 54.5v35q6 299 -207 299q-47 0 -92 -17t-45 -30q0 -2 27.5 -46
t27.5 -77q0 -38 -30.5 -67.5t-78.5 -29.5q-46 0 -77 27t-31 62q0 55 73 111t175 90t188 34q114 0 174.5 -29t86.5 -104.5t18 -216.5l-21 -340q-3 -56 17 -89.5t59 -33.5q12 0 24 5t18 9t21 16.5t17 14.5l10 -6l-15 -18q-15 -18 -19.5 -23.5t-18.5 -21t-23.5 -24t-23.5 -19.5
t-27 -19q-168 -92 -168 -258q0 -75 44 -116.5t122 -41.5q54 0 104 45l9 -10q-14 -35 -80 -81t-123 -46zM381 96q32 0 47 2t42.5 17.5t57.5 48.5l15 321q-163 -33 -226 -91t-63 -142q0 -62 42.5 -109t84.5 -47z" />
    <glyph glyph-name="Cacute" unicode="&#x106;" horiz-adv-x="1402" 
d="M635 1409l209 383h237l-436 -383h-10zM795 -25q-164 0 -303 50t-234.5 137t-149 208t-53.5 261q0 142 52 265t148 215t241 145t321 53q89 0 181 -23.5t149 -54.5l131 43l12 -412h-12l-207 363q-34 25 -105.5 42t-152.5 17q-147 0 -255.5 -86t-162 -229.5t-53.5 -325.5
q0 -145 36.5 -267t99 -204t147 -128t180.5 -46q163 0 268.5 76t186.5 231l63 121h12l-69 -363l-68 -10q-62 -28 -183 -53t-220 -25z" />
    <glyph glyph-name="cacute" unicode="&#x107;" horiz-adv-x="878" 
d="M373 1004l209 382h237l-436 -382h-10zM463 -31q-184 0 -304 126.5t-120 316.5q0 210 135.5 351.5t347.5 141.5q138 0 232 -55.5t94 -144.5q0 -53 -35 -89t-86 -36q-52 0 -87.5 34t-35.5 82q0 28 13 55t25.5 45t12.5 23q0 22 -36.5 43t-81.5 21q-109 0 -177.5 -105
t-68.5 -280q0 -182 81.5 -283.5t221.5 -101.5q89 0 149.5 36.5t106.5 122.5l14 -6q-139 -297 -401 -297z" />
    <glyph glyph-name="Ccircumflex" unicode="&#x108;" horiz-adv-x="1402" 
d="M483 1389l297 403h8l297 -403h-12l-287 196h-4l-286 -196h-13zM795 -25q-164 0 -303 50t-234.5 137t-149 208t-53.5 261q0 142 52 265t148 215t241 145t321 53q89 0 181 -23.5t149 -54.5l131 43l12 -412h-12l-207 363q-34 25 -105.5 42t-152.5 17q-147 0 -255.5 -86
t-162 -229.5t-53.5 -325.5q0 -145 36.5 -267t99 -204t147 -128t180.5 -46q163 0 268.5 76t186.5 231l63 121h12l-69 -363l-68 -10q-62 -28 -183 -53t-220 -25z" />
    <glyph glyph-name="ccircumflex" unicode="&#x109;" horiz-adv-x="878" 
d="M197 983l297 403h8l297 -403h-13l-286 197h-4l-287 -197h-12zM463 -31q-184 0 -304 126.5t-120 316.5q0 210 135.5 351.5t347.5 141.5q138 0 232 -55.5t94 -144.5q0 -53 -35 -89t-86 -36q-52 0 -87.5 34t-35.5 82q0 28 13 55t25.5 45t12.5 23q0 22 -36.5 43t-81.5 21
q-109 0 -177.5 -105t-68.5 -280q0 -182 81.5 -283.5t221.5 -101.5q89 0 149.5 36.5t106.5 122.5l14 -6q-139 -297 -401 -297z" />
    <glyph glyph-name="Cdotaccent" unicode="&#x10a;" horiz-adv-x="1402" 
d="M795 -25q-164 0 -303 50t-234.5 137t-149 208t-53.5 261q0 142 52 265t148 215t241 145t321 53q89 0 181 -23.5t149 -54.5l131 43l12 -412h-12l-207 363q-34 25 -105.5 42t-152.5 17q-147 0 -255.5 -86t-162 -229.5t-53.5 -325.5q0 -145 36.5 -267t99 -204t147 -128
t180.5 -46q163 0 268.5 76t186.5 231l63 121h12l-69 -363l-68 -10q-62 -28 -183 -53t-220 -25zM788 1464q-62 0 -99.5 42.5t-37.5 92.5q0 54 37.5 97t99.5 43q65 0 101.5 -42.5t36.5 -97.5q0 -51 -37 -93t-101 -42z" />
    <glyph glyph-name="cdotaccent" unicode="&#x10b;" horiz-adv-x="878" 
d="M463 -31q-184 0 -304 126.5t-120 316.5q0 210 135.5 351.5t347.5 141.5q138 0 232 -55.5t94 -144.5q0 -53 -35 -89t-86 -36q-52 0 -87.5 34t-35.5 82q0 28 13 55t25.5 45t12.5 23q0 22 -36.5 43t-81.5 21q-109 0 -177.5 -105t-68.5 -280q0 -182 81.5 -283.5t221.5 -101.5
q89 0 149.5 36.5t106.5 122.5l14 -6q-139 -297 -401 -297zM498 1059q-62 0 -100 42.5t-38 92.5q0 54 38 96.5t100 42.5q65 0 101 -42t36 -97q0 -51 -36.5 -93t-100.5 -42z" />
    <glyph glyph-name="Ccaron" unicode="&#x10c;" horiz-adv-x="1402" 
d="M764 1389l-297 403h12l287 -197h4l287 197h12l-297 -403h-8zM795 -25q-164 0 -303 50t-234.5 137t-149 208t-53.5 261q0 142 52 265t148 215t241 145t321 53q89 0 181 -23.5t149 -54.5l131 43l12 -412h-12l-207 363q-34 25 -105.5 42t-152.5 17q-147 0 -255.5 -86
t-162 -229.5t-53.5 -325.5q0 -145 36.5 -267t99 -204t147 -128t180.5 -46q163 0 268.5 76t186.5 231l63 121h12l-69 -363l-68 -10q-62 -28 -183 -53t-220 -25z" />
    <glyph glyph-name="ccaron" unicode="&#x10d;" horiz-adv-x="878" 
d="M485 983l-297 403h13l286 -196h5l286 196h13l-297 -403h-9zM463 -31q-184 0 -304 126.5t-120 316.5q0 210 135.5 351.5t347.5 141.5q138 0 232 -55.5t94 -144.5q0 -53 -35 -89t-86 -36q-52 0 -87.5 34t-35.5 82q0 28 13 55t25.5 45t12.5 23q0 22 -36.5 43t-81.5 21
q-109 0 -177.5 -105t-68.5 -280q0 -182 81.5 -283.5t221.5 -101.5q89 0 149.5 36.5t106.5 122.5l14 -6q-139 -297 -401 -297z" />
    <glyph glyph-name="Dcaron" unicode="&#x10e;" horiz-adv-x="1409" 
d="M606 1389l-297 403h13l286 -197h4l287 197h12l-297 -403h-8zM35 0l6 12l76 8q96 11 96 35v1176q0 8 -8 12.5t-33.5 9t-75.5 9.5l-53 6l-6 12h47t110.5 0.5t150.5 0.5t142 0.5t113 0.5t37 0q353 3 537 -164.5t184 -464.5q0 -134 -54.5 -253t-151 -207.5t-240 -140.5
t-312.5 -52h-565zM614 23q89 1 164 32t129 86t91.5 129t56 160.5t18.5 181.5q0 147 -29 263.5t-87.5 202.5t-152.5 132.5t-218 46.5h-109v-1198z" />
    <glyph glyph-name="dcaron" unicode="&#x10f;" horiz-adv-x="1480" 
d="M729 -31v191l-4 4q-152 -193 -322 -193q-152 0 -258 126t-106 313q0 97 30 178.5t79 137t113 94.5t131 57t134 18q126 0 199 -37h4v287q0 66 -15.5 90t-66.5 33l-67 12l2 8l379 90v-1206q0 -61 10.5 -79t46.5 -27l74 -17l-2 -8zM543 104q101 0 186 89v485
q-37 83 -101 138.5t-124 55.5q-100 0 -155.5 -114t-55.5 -287q0 -159 68.5 -263t181.5 -104zM1122 848l-8 10q87 45 131.5 105.5t44.5 128.5q0 42 -18.5 72t-45 44t-53 21.5t-45 10t-18.5 3.5q0 50 36.5 94.5t102.5 44.5q87 0 137 -57t50 -137q0 -100 -83.5 -193.5
t-230.5 -146.5z" />
    <glyph glyph-name="Dcroat" unicode="&#x110;" horiz-adv-x="1409" 
d="M213 629h-182l6 28h176v574q0 18 -117 31l-67 6l-6 12h48.5t112.5 0.5t153.5 0.5t145.5 0.5t116 0.5t38 0q353 3 537 -164.5t184 -464.5q0 -134 -54.5 -253t-151 -207.5t-240 -140.5t-312.5 -52h-580l7 12l90 8q96 11 96 35v574zM477 657h260l6 -28h-266v-570l137 -36
q89 1 164 32t129 86t91.5 129t56 160.5t18.5 181.5q0 147 -29 263.5t-87.5 202.5t-152.5 132.5t-218 46.5h-109v-600z" />
    <glyph glyph-name="dcroat" unicode="&#x111;" horiz-adv-x="1079" 
d="M520 1067l27 88h182q-1 58 -18 81t-64 32l-67 12l2 8l379 90v-223h102l-27 -88h-75v-895q0 -61 10.5 -79t46.5 -27l74 -17l-2 -8l-361 -72v191l-4 4q-152 -193 -322 -193q-152 0 -258 126t-106 313q0 97 30 178.5t79 137t113 94.5t131 57t134 18q126 0 199 -37h4v209
h-209zM543 104q101 0 186 89v485q-37 83 -101 138.5t-124 55.5q-100 0 -155.5 -114t-55.5 -287q0 -159 68.5 -263t181.5 -104z" />
    <glyph glyph-name="Emacron" unicode="&#x112;" horiz-adv-x="1247" 
d="M35 0l6 12l72 8q100 11 100 35v1176q0 8 -7.5 12.5t-33 9t-76.5 9.5l-53 6l-6 12h1044l21 -418h-12l-9 23q-59 206 -160 291t-286 81l-158 -2v-587h88q136 8 203.5 49.5t99.5 140.5l13 37l14 -2l-53 -490l-15 3l-2 36q-9 112 -65 152t-213 49l-70 4v-618l201 -9
q186 3 300.5 103.5t180.5 282.5l10 22h13l-58 -428h-1089zM340 1473l27 88h516l-27 -88h-516z" />
    <glyph glyph-name="emacron" unicode="&#x113;" horiz-adv-x="911" 
d="M465 -31q-183 0 -304.5 129.5t-121.5 321.5q0 206 135.5 346.5t337.5 140.5q167 0 258.5 -85.5t91.5 -203.5q0 -10 -4 -34q-510 4 -567 6q-4 -27 -4 -98q0 -170 86.5 -274.5t224.5 -104.5q91 0 154.5 37t109.5 122l15 -6q-139 -297 -412 -297zM295 610l340 2
q0 51 -7 96.5t-23 86t-46 64.5t-70 24q-69 0 -124 -77.5t-70 -195.5zM229 1067l27 88h516l-27 -88h-516z" />
    <glyph glyph-name="Ebreve" unicode="&#x114;" horiz-adv-x="1247" 
d="M35 0l6 12l72 8q100 11 100 35v1176q0 8 -7.5 12.5t-33 9t-76.5 9.5l-53 6l-6 12h1044l21 -418h-12l-9 23q-59 206 -160 291t-286 81l-158 -2v-587h88q136 8 203.5 49.5t99.5 140.5l13 37l14 -2l-53 -490l-15 3l-2 36q-9 112 -65 152t-213 49l-70 4v-618l201 -9
q186 3 300.5 103.5t180.5 282.5l10 22h13l-58 -428h-1089zM614 1399q-48 0 -88 19t-68.5 51t-52.5 81t-40.5 102t-30.5 120h10q38 -112 109.5 -165t164.5 -53t165 53t110 165h10q-17 -86 -39 -148.5t-55 -116t-82 -81t-113 -27.5z" />
    <glyph glyph-name="ebreve" unicode="&#x115;" horiz-adv-x="911" 
d="M465 -31q-183 0 -304.5 129.5t-121.5 321.5q0 206 135.5 346.5t337.5 140.5q167 0 258.5 -85.5t91.5 -203.5q0 -10 -4 -34q-510 4 -567 6q-4 -27 -4 -98q0 -170 86.5 -274.5t224.5 -104.5q91 0 154.5 37t109.5 122l15 -6q-139 -297 -412 -297zM295 610l340 2
q0 51 -7 96.5t-23 86t-46 64.5t-70 24q-69 0 -124 -77.5t-70 -195.5zM487 993q-48 0 -88 19t-68.5 51t-52.5 81t-40.5 102t-30.5 120h10q38 -112 110 -164.5t165 -52.5q200 0 274 217h10q-17 -86 -39 -148.5t-55 -116t-82 -81t-113 -27.5z" />
    <glyph glyph-name="Edotaccent" unicode="&#x116;" horiz-adv-x="1247" 
d="M35 0l6 12l72 8q100 11 100 35v1176q0 8 -7.5 12.5t-33 9t-76.5 9.5l-53 6l-6 12h1044l21 -418h-12l-9 23q-59 206 -160 291t-286 81l-158 -2v-587h88q136 8 203.5 49.5t99.5 140.5l13 37l14 -2l-53 -490l-15 3l-2 36q-9 112 -65 152t-213 49l-70 4v-618l201 -9
q186 3 300.5 103.5t180.5 282.5l10 22h13l-58 -428h-1089zM616 1464q-62 0 -99.5 42.5t-37.5 92.5q0 54 37.5 97t99.5 43q65 0 101.5 -42.5t36.5 -97.5q0 -51 -37 -93t-101 -42z" />
    <glyph glyph-name="edotaccent" unicode="&#x117;" horiz-adv-x="911" 
d="M465 -31q-183 0 -304.5 129.5t-121.5 321.5q0 206 135.5 346.5t337.5 140.5q167 0 258.5 -85.5t91.5 -203.5q0 -10 -4 -34q-510 4 -567 6q-4 -27 -4 -98q0 -170 86.5 -274.5t224.5 -104.5q91 0 154.5 37t109.5 122l15 -6q-139 -297 -412 -297zM295 610l340 2
q0 51 -7 96.5t-23 86t-46 64.5t-70 24q-69 0 -124 -77.5t-70 -195.5zM498 1059q-62 0 -100 42.5t-38 92.5q0 54 38 96.5t100 42.5q65 0 101 -42t36 -97q0 -51 -36.5 -93t-100.5 -42z" />
    <glyph glyph-name="Eogonek" unicode="&#x118;" horiz-adv-x="1247" 
d="M899 -498q-84 0 -141.5 55t-57.5 138q0 180 256 305h-921l6 12l72 8q100 11 100 35v1178q0 11 -20.5 16.5t-96.5 12.5l-53 6l-6 12h1044l21 -416l-12 -2l-9 25q-59 204 -160.5 290t-285.5 83l-158 -3v-589l88 2q137 8 204 48.5t99 139.5l13 37l14 -2l-53 -487l-15 2
l-2 34q-9 113 -64.5 153.5t-213.5 49.5l-70 4v-618l201 -11q96 1 173.5 29.5t135 82t99 120t73.5 154.5l10 22h13l-58 -428h-125q-168 -99 -168 -244q0 -73 39 -113t111 -40q42 0 72.5 17.5t64.5 51.5l8 -8q-30 -60 -90 -111t-137 -51z" />
    <glyph glyph-name="eogonek" unicode="&#x119;" horiz-adv-x="911" 
d="M516 -498q-84 0 -141.5 55t-57.5 138q0 87 67 159t165 121q-27 -6 -84 -6q-183 0 -304.5 129.5t-121.5 321.5q0 206 135.5 346.5t337.5 140.5q167 0 258.5 -85t91.5 -204q0 -6 -4 -34q-510 4 -567 6q-4 -27 -4 -98q0 -170 86.5 -274.5t224.5 -104.5q91 0 154.5 37
t109.5 122l15 -6q-49 -106 -107.5 -168.5t-144.5 -103.5q-83 -38 -129.5 -105t-46.5 -133q0 -73 39 -113t110 -40q42 0 72 17t67 52l6 -8q-30 -60 -90 -111t-137 -51zM295 610l340 2q0 51 -7 96.5t-23 86t-46 64.5t-70 24q-69 0 -124 -77.5t-70 -195.5z" />
    <glyph glyph-name="Ecaron" unicode="&#x11a;" horiz-adv-x="1247" 
d="M606 1389l-297 403h13l286 -197h4l287 197h12l-297 -403h-8zM35 0l6 12l72 8q100 11 100 35v1176q0 8 -7.5 12.5t-33 9t-76.5 9.5l-53 6l-6 12h1044l21 -418h-12l-9 23q-59 206 -160 291t-286 81l-158 -2v-587h88q136 8 203.5 49.5t99.5 140.5l13 37l14 -2l-53 -490
l-15 3l-2 36q-9 112 -65 152t-213 49l-70 4v-618l201 -9q186 3 300.5 103.5t180.5 282.5l10 22h13l-58 -428h-1089z" />
    <glyph glyph-name="ecaron" unicode="&#x11b;" horiz-adv-x="911" 
d="M496 983l-297 403h12l287 -196h4l286 196h13l-297 -403h-8zM465 -31q-183 0 -304.5 129.5t-121.5 321.5q0 206 135.5 346.5t337.5 140.5q167 0 258.5 -85.5t91.5 -203.5q0 -10 -4 -34q-510 4 -567 6q-4 -27 -4 -98q0 -170 86.5 -274.5t224.5 -104.5q91 0 154.5 37
t109.5 122l15 -6q-139 -297 -412 -297zM295 610l340 2q0 51 -7 96.5t-23 86t-46 64.5t-70 24q-69 0 -124 -77.5t-70 -195.5z" />
    <glyph glyph-name="Gcircumflex" unicode="&#x11c;" horiz-adv-x="1466" 
d="M469 1389l297 403h8l297 -403h-12l-287 196h-4l-287 -196h-12zM778 -33q-163 0 -299.5 51t-229 140t-143.5 211t-51 262q0 142 50.5 265t144.5 215t239 145t324 53q94 0 192 -22.5t150 -51.5l129 39l8 -412h-12l-201 359q-39 30 -112.5 47.5t-157.5 17.5
q-112 0 -202 -49.5t-147 -137t-87.5 -204t-30.5 -252.5q0 -126 26 -233.5t70.5 -183.5t103 -130t124 -80t133.5 -26t131.5 20t93.5 43v455q0 23 -139 31l-70 6l-6 12h643l-6 -12l-86 -8q-84 -7 -84 -29v-406l117 23l2 -8q-125 -62 -302.5 -106t-314.5 -44z" />
    <glyph glyph-name="gcircumflex" unicode="&#x11d;" horiz-adv-x="976" 
d="M164 983l297 403h8l297 -403h-12l-287 197h-4l-287 -197h-12zM387 -483q-362 0 -362 202q0 130 256 226v2q-101 6 -170.5 58.5t-69.5 123.5q0 53 37 99.5t89 74t114 43.5v2q-86 31 -138.5 96t-52.5 156q0 124 109.5 213.5t261.5 89.5q138 0 244 -69l268 47l-21 -105
l-204 29l-3 -6q86 -73 86 -185q0 -124 -107.5 -208t-268.5 -84q-63 0 -140 14q-54 -11 -86 -39t-32 -66q0 -40 41.5 -57.5t128.5 -17.5q26 0 124.5 3t137.5 3q144 0 224.5 -64t80.5 -178q0 -172 -154 -287.5t-393 -115.5zM463 340q71 0 109 66.5t38 193.5q0 283 -151 283
q-68 0 -104 -69t-36 -200q0 -134 37.5 -204t106.5 -70zM496 -446q131 0 215 67.5t84 165.5q0 84 -65 123.5t-208 44.5q-83 3 -211 -12q-54 -21 -83 -69t-29 -110q0 -93 82.5 -151.5t214.5 -58.5z" />
    <glyph glyph-name="Gbreve" unicode="&#x11e;" horiz-adv-x="1466" 
d="M778 -33q-163 0 -299.5 51t-229 140t-143.5 211t-51 262q0 142 50.5 265t144.5 215t239 145t324 53q94 0 192 -22.5t150 -51.5l129 39l8 -412h-12l-201 359q-39 30 -112.5 47.5t-157.5 17.5q-112 0 -202 -49.5t-147 -137t-87.5 -204t-30.5 -252.5q0 -126 26 -233.5
t70.5 -183.5t103 -130t124 -80t133.5 -26t131.5 20t93.5 43v455q0 23 -139 31l-70 6l-6 12h643l-6 -12l-86 -8q-84 -7 -84 -29v-406l117 23l2 -8q-125 -62 -302.5 -106t-314.5 -44zM776 1399q-48 0 -88 19t-68.5 51t-52.5 81t-40.5 102t-30.5 120h10q38 -112 109.5 -165
t164.5 -53t165 53t110 165h10q-17 -86 -39 -148.5t-55 -116t-82 -81t-113 -27.5z" />
    <glyph glyph-name="gbreve" unicode="&#x11f;" horiz-adv-x="976" 
d="M387 -483q-362 0 -362 202q0 130 256 226v2q-101 6 -170.5 58.5t-69.5 123.5q0 53 37 99.5t89 74t114 43.5v2q-86 31 -138.5 96t-52.5 156q0 124 109.5 213.5t261.5 89.5q138 0 244 -69l268 47l-21 -105l-204 29l-3 -6q86 -73 86 -185q0 -124 -107.5 -208t-268.5 -84
q-63 0 -140 14q-54 -11 -86 -39t-32 -66q0 -40 41.5 -57.5t128.5 -17.5q26 0 124.5 3t137.5 3q144 0 224.5 -64t80.5 -178q0 -172 -154 -287.5t-393 -115.5zM463 340q71 0 109 66.5t38 193.5q0 283 -151 283q-68 0 -104 -69t-36 -200q0 -134 37.5 -204t106.5 -70zM496 -446
q131 0 215 67.5t84 165.5q0 84 -65 123.5t-208 44.5q-83 3 -211 -12q-54 -21 -83 -69t-29 -110q0 -93 82.5 -151.5t214.5 -58.5zM446 993q-48 0 -88 19t-68.5 51t-52.5 81t-40.5 102t-30.5 120h10q38 -112 110 -164.5t165 -52.5q200 0 274 217h10q-17 -86 -39 -148.5
t-55 -116t-82 -81t-113 -27.5z" />
    <glyph glyph-name="Gdotaccent" unicode="&#x120;" horiz-adv-x="1466" 
d="M778 -33q-163 0 -299.5 51t-229 140t-143.5 211t-51 262q0 142 50.5 265t144.5 215t239 145t324 53q94 0 192 -22.5t150 -51.5l129 39l8 -412h-12l-201 359q-39 30 -112.5 47.5t-157.5 17.5q-112 0 -202 -49.5t-147 -137t-87.5 -204t-30.5 -252.5q0 -126 26 -233.5
t70.5 -183.5t103 -130t124 -80t133.5 -26t131.5 20t93.5 43v455q0 23 -139 31l-70 6l-6 12h643l-6 -12l-86 -8q-84 -7 -84 -29v-406l117 23l2 -8q-125 -62 -302.5 -106t-314.5 -44zM782 1464q-62 0 -99.5 42.5t-37.5 92.5q0 54 37.5 97t99.5 43q65 0 101.5 -42.5t36.5 -97.5
q0 -51 -37 -93t-101 -42z" />
    <glyph glyph-name="gdotaccent" unicode="&#x121;" horiz-adv-x="976" 
d="M387 -483q-362 0 -362 202q0 130 256 226v2q-101 6 -170.5 58.5t-69.5 123.5q0 53 37 99.5t89 74t114 43.5v2q-86 31 -138.5 96t-52.5 156q0 124 109.5 213.5t261.5 89.5q138 0 244 -69l268 47l-21 -105l-204 29l-3 -6q86 -73 86 -185q0 -124 -107.5 -208t-268.5 -84
q-63 0 -140 14q-54 -11 -86 -39t-32 -66q0 -40 41.5 -57.5t128.5 -17.5q26 0 124.5 3t137.5 3q144 0 224.5 -64t80.5 -178q0 -172 -154 -287.5t-393 -115.5zM463 340q71 0 109 66.5t38 193.5q0 283 -151 283q-68 0 -104 -69t-36 -200q0 -134 37.5 -204t106.5 -70zM496 -446
q131 0 215 67.5t84 165.5q0 84 -65 123.5t-208 44.5q-83 3 -211 -12q-54 -21 -83 -69t-29 -110q0 -93 82.5 -151.5t214.5 -58.5zM463 1059q-62 0 -99.5 42.5t-37.5 92.5q0 54 37.5 96.5t99.5 42.5q65 0 101 -42t36 -97q0 -51 -36.5 -93t-100.5 -42z" />
    <glyph glyph-name="Gcommaaccent" unicode="&#x122;" horiz-adv-x="1466" 
d="M668 -573l-6 10q86 19 130 67.5t44 110.5q0 70 -63 97t-122 -11q-25 64 15 120t125 56q83 0 131.5 -49.5t48.5 -126.5q0 -88 -84 -170t-219 -104zM778 -33q-163 0 -299.5 51t-229 140t-143.5 211t-51 262q0 142 50.5 265t144.5 215t239 145t324 53q94 0 192 -22.5
t150 -51.5l129 39l8 -412h-12l-201 359q-39 30 -112.5 47.5t-157.5 17.5q-112 0 -202 -49.5t-147 -137t-87.5 -204t-30.5 -252.5q0 -126 26 -233.5t70.5 -183.5t103 -130t124 -80t133.5 -26t131.5 20t93.5 43v455q0 23 -139 31l-70 6l-6 12h643l-6 -12l-86 -8
q-84 -7 -84 -29v-406l117 23l2 -8q-125 -62 -302.5 -106t-314.5 -44z" />
    <glyph glyph-name="gcommaaccent" unicode="&#x123;" horiz-adv-x="976" 
d="M606 1442l6 -10q-85 -19 -129.5 -68t-44.5 -111q0 -70 63 -97t122 11q25 -64 -15 -120t-125 -56q-83 0 -131.5 49.5t-48.5 126.5q0 88 84 170.5t219 104.5zM387 -483q-362 0 -362 202q0 130 256 226v2q-101 6 -170.5 58.5t-69.5 123.5q0 53 37 99.5t89 74t114 43.5v2
q-86 31 -138.5 96t-52.5 156q0 124 109.5 213.5t261.5 89.5q138 0 244 -69l268 47l-21 -105l-204 29l-3 -6q86 -73 86 -185q0 -124 -107.5 -208t-268.5 -84q-63 0 -140 14q-54 -11 -86 -39t-32 -66q0 -40 41.5 -57.5t128.5 -17.5q26 0 124.5 3t137.5 3q144 0 224.5 -64
t80.5 -178q0 -172 -154 -287.5t-393 -115.5zM463 340q71 0 109 66.5t38 193.5q0 283 -151 283q-68 0 -104 -69t-36 -200q0 -134 37.5 -204t106.5 -70zM496 -446q131 0 215 67.5t84 165.5q0 84 -65 123.5t-208 44.5q-83 3 -211 -12q-54 -21 -83 -69t-29 -110
q0 -93 82.5 -151.5t214.5 -58.5z" />
    <glyph glyph-name="Hcircumflex" unicode="&#x124;" horiz-adv-x="1531" 
d="M465 1389l297 403h8l297 -403h-12l-287 196h-4l-287 -196h-12zM35 0l6 12l76 8q96 11 96 35v1176q0 8 -7.5 12.5t-33 9t-76.5 9.5l-53 6l-6 12h620l-6 -12l-78 -8q-96 -11 -96 -35v-563h578v569q0 8 -7.5 12.5t-33 9t-76.5 9.5l-55 6l-6 12h620l-6 -12l-76 -8
q-96 -11 -96 -35v-1176q0 -8 7.5 -12.5t33 -9t76.5 -9.5l53 -6l6 -12h-621l7 12l77 8q97 11 97 35v586h-578v-592q0 -8 7.5 -12.5t33 -9t76.5 -9.5l55 -6l6 -12h-620z" />
    <glyph glyph-name="hcircumflex" unicode="&#x125;" horiz-adv-x="1079" 
d="M14 0l6 12l29 2q51 3 68.5 9t17.5 24v1094q0 67 -14.5 89t-67.5 36l-47 12l2 8l361 90v-651l2 -4q46 40 75 62.5t78.5 55t98.5 48.5t98 16q97 0 162 -65t65 -226v-567q0 -7 5 -11.5t29 -9.5t71 -10l22 -2l6 -12h-483l6 12l37 2q34 2 51.5 7t21 10.5t3.5 15.5v539
q0 91 -42.5 131.5t-125.5 40.5q-100 0 -182 -64v-651q0 -13 17 -19t75 -10l28 -2l7 -12h-480zM-61 1389l297 403h8l297 -403h-13l-286 196h-4l-287 -196h-12z" />
    <glyph glyph-name="Hbar" unicode="&#x126;" horiz-adv-x="1531" 
d="M27 895l26 76h160v262q0 11 -20.5 16.5t-96.5 12.5l-53 6l-6 12h620l-6 -12l-78 -8q-96 -11 -96 -33v-256h580v262q0 11 -20.5 16.5t-96.5 12.5l-55 6l-6 12h618l-6 -12l-76 -8q-96 -11 -96 -33v-256h197l-27 -76h-170v-846q0 -8 7.5 -12.5t33 -9t76.5 -9.5l53 -6l6 -12
h-618l6 12l78 8q96 11 96 35v586h-580v-592q0 -8 7.5 -12.5t33 -9t76.5 -9.5l55 -6l6 -12h-620l6 12l76 8q96 11 96 35v840h-186zM477 662h580v233h-580v-233z" />
    <glyph glyph-name="hbar" unicode="&#x127;" horiz-adv-x="1079" 
d="M12 1067l27 88h96q-1 57 -16.5 77t-65.5 34l-47 12l2 8l361 90v-221h186l-27 -88h-159v-342l2 -4q46 40 75 62.5t78.5 55t98.5 48.5t98 16q97 0 162 -65t65 -226v-567q0 -7 5 -11.5t29 -9.5t71 -10l22 -2l6 -12h-483l6 12l37 2q34 2 51.5 7t21 10.5t3.5 15.5v539
q0 91 -42.5 131.5t-125.5 40.5q-100 0 -182 -64v-651q0 -13 17 -19t75 -10l28 -2l7 -12h-480l6 12l29 2q51 3 68.5 9t17.5 24v1020h-123z" />
    <glyph glyph-name="Imacron" unicode="&#x12a;" horiz-adv-x="739" 
d="M55 0l6 12l80 8q33 3 56 9t32 13t9 13v1176q0 8 -7.5 12.5t-33 9t-76.5 9.5l-60 6l-6 12h629l-6 -12l-80 -8q-33 -3 -55.5 -9t-31.5 -12.5t-9 -13.5v-1176q0 -8 7 -12.5t32.5 -9t76.5 -9.5l58 -6l6 -12h-627zM98 1473l27 88h516l-27 -88h-516z" />
    <glyph glyph-name="imacron" unicode="&#x12b;" horiz-adv-x="538" 
d="M33 0l6 12l31 2q51 3 68.5 9t17.5 24v574q0 93 -15 121t-69 40l-47 11l2 8l360 98v-856q0 -12 19 -17.5t86 -11.5l22 -2l6 -12h-487zM-10 1067l26 88h516l-26 -88h-516z" />
    <glyph glyph-name="Ibreve" unicode="&#x12c;" horiz-adv-x="739" 
d="M55 0l6 12l80 8q33 3 56 9t32 13t9 13v1176q0 8 -7.5 12.5t-33 9t-76.5 9.5l-60 6l-6 12h629l-6 -12l-80 -8q-33 -3 -55.5 -9t-31.5 -12.5t-9 -13.5v-1176q0 -8 7 -12.5t32.5 -9t76.5 -9.5l58 -6l6 -12h-627zM377 1399q-48 0 -88 19t-69 51t-53 81t-40.5 102t-30.5 120
h10q38 -112 110 -165t165 -53t164.5 53t109.5 165h11q-17 -86 -39 -148.5t-55 -116t-82 -81t-113 -27.5z" />
    <glyph glyph-name="ibreve" unicode="&#x12d;" horiz-adv-x="538" 
d="M33 0l6 12l31 2q51 3 68.5 9t17.5 24v574q0 93 -15 121t-69 40l-47 11l2 8l360 98v-856q0 -12 19 -17.5t86 -11.5l22 -2l6 -12h-487zM260 993q-48 0 -88 19t-68.5 51t-52.5 81t-40.5 102t-30.5 120h10q74 -217 274 -217q93 0 165 52.5t110 164.5h10q-17 -86 -39 -148.5
t-55 -116t-82 -81t-113 -27.5z" />
    <glyph glyph-name="Iogonek" unicode="&#x12e;" horiz-adv-x="739" 
d="M457 -498q-87 0 -147 49.5t-60 135.5q0 108 101.5 195.5t236.5 117.5h-533l6 12l80 8q33 3 56.5 9t33 13t9.5 13v1178q0 11 -21.5 16.5t-97.5 12.5l-60 6l-6 12h629l-6 -12l-80 -8q-96 -8 -96 -33v-1178q0 -8 7 -12.5t32.5 -9t76.5 -9.5l58 -6l6 -12
q-144 -28 -222.5 -94.5t-78.5 -157.5q0 -145 158 -145q42 0 72.5 17.5t64.5 51.5l8 -8q-30 -60 -90 -111t-137 -51z" />
    <glyph glyph-name="iogonek" unicode="&#x12f;" horiz-adv-x="538" 
d="M295 -498q-89 0 -147 46.5t-58 134.5q0 112 97 200t233 117h-387l6 12l31 2q51 3 68.5 9t17.5 24v576q0 92 -15 119.5t-69 39.5l-47 11l2 8l360 98v-856q0 -12 19 -17.5t86 -11.5l22 -2l6 -12q-138 -26 -218.5 -91t-80.5 -165q0 -141 156 -141q42 0 72.5 17.5t64.5 51.5
l8 -8q-30 -60 -90 -111t-137 -51zM258 1040q-67 0 -106 44.5t-39 97.5q0 55 39 98t106 43t106 -43t39 -98q0 -53 -39 -97.5t-106 -44.5z" />
    <glyph glyph-name="Idotaccent" unicode="&#x130;" horiz-adv-x="739" 
d="M55 0l6 12l80 8q33 3 56 9t32 13t9 13v1176q0 8 -7.5 12.5t-33 9t-76.5 9.5l-60 6l-6 12h629l-6 -12l-80 -8q-33 -3 -55.5 -9t-31.5 -12.5t-9 -13.5v-1176q0 -8 7 -12.5t32.5 -9t76.5 -9.5l58 -6l6 -12h-627zM375 1464q-62 0 -99.5 42.5t-37.5 92.5q0 54 37.5 97t99.5 43
q65 0 101 -42.5t36 -97.5q0 -51 -36.5 -93t-100.5 -42z" />
    <glyph glyph-name="dotlessi" unicode="&#x131;" horiz-adv-x="538" 
d="M33 0l6 12l31 2q51 3 68.5 9t17.5 24v574q0 93 -15 121t-69 40l-47 11l2 8l360 98v-856q0 -12 19 -17.5t86 -11.5l22 -2l6 -12h-487z" />
    <glyph glyph-name="Jcircumflex" unicode="&#x134;" horiz-adv-x="716" 
d="M70 1389l297 403h8l297 -403h-13l-286 196h-4l-287 -196h-12zM4 -356q-86 0 -139 41t-53 106q0 57 39 96t100 39q65 0 102.5 -43.5t32.5 -103t-53 -103.5q96 -9 145 103.5t49 316.5v1135q0 8 -7 12.5t-33 9.5t-76 9l-58 6l-6 12h627l-6 -12l-80 -8q-96 -11 -96 -35v-1135
q0 -44 -47 -119t-116 -148t-159 -126t-166 -53z" />
    <glyph glyph-name="jcircumflex" unicode="&#x135;" horiz-adv-x="518" 
d="M-37 -516q-78 0 -123 35t-45 92q0 47 34 80t83 33q73 0 107.5 -65t5.5 -132q69 4 97 88t28 250v758q0 92 -15 119.5t-69 39.5l-48 11l2 8l363 98v-960q0 -61 -40 -141t-100 -149t-136.5 -117t-143.5 -48zM-53 983l297 403h8l297 -403h-12l-287 197h-4l-287 -197h-12z" />
    <glyph glyph-name="Kcommaaccent" unicode="&#x136;" horiz-adv-x="1427" 
d="M606 -573l-6 10q86 19 130 67.5t44 110.5q0 70 -63 97t-121 -11q-25 64 14.5 120t124.5 56q83 0 131.5 -49.5t48.5 -126.5q0 -88 -84 -170t-219 -104zM35 0l6 12l80 8q92 11 92 35v1176q0 8 -6.5 12.5t-31 9t-75.5 9.5l-57 6l-6 12h633l-6 -12l-91 -8q-33 -3 -55.5 -9
t-31.5 -12.5t-9 -13.5v-650l307 318q204 207 228 281q18 54 -43 74q-32 9 -90 14l-64 6l-4 12h547l-6 -12l-45 -4q-27 -2 -48.5 -5.5t-45 -13.5t-39 -17t-42.5 -28.5t-43.5 -35t-53 -49.5t-60 -60t-76.5 -78t-90 -92l-10 -11l397 -665q53 -90 82.5 -127.5t54.5 -50t72 -15.5
l35 -4l6 -12h-617l5 12l38 4q42 3 60.5 13t17.5 39t-22.5 75.5t-69.5 130.5l-240 414l-141 -143v-496q0 -8 7.5 -12.5t33 -9t76.5 -9.5l68 -6l6 -12h-633z" />
    <glyph glyph-name="kcommaaccent" unicode="&#x137;" horiz-adv-x="1048" 
d="M397 -573l-6 10q86 19 130 67.5t44 110.5q0 70 -62.5 97t-121.5 -11q-25 64 14.5 120t124.5 56q83 0 131.5 -49.5t48.5 -126.5q0 -88 -84 -170t-219 -104zM18 0l7 12l26 2q29 3 40 4.5t24 5t16.5 9t3.5 14.5v1094q0 67 -14.5 89t-67.5 36l-47 12l2 8l361 90v-962l159 147
q179 167 179 230q0 32 -26.5 47.5t-105.5 21.5l-26 2l-6 12h458l-6 -12l-34 -4q-76 -9 -138.5 -50.5t-189.5 -168.5l-4.5 -4.5l-8.5 -8.5t-9.5 -10t-2.5 -4l252 -450q52 -91 79.5 -117.5t80.5 -30.5l27 -2l6 -12h-375l-14 31l-228 418l-67 -60v-346q0 -13 19 -19t83 -10
l31 -2l4 -12h-488z" />
    <glyph glyph-name="Lacute" unicode="&#x139;" horiz-adv-x="1179" 
d="M264 1409l209 383h238l-437 -383h-10zM35 0l6 12l80 8q92 10 92 35v1176q0 8 -6.5 12.5t-31 9t-75.5 9.5l-57 6l-6 12h653l-6 -12l-111 -8q-44 -3 -70 -13t-26 -22v-1194l150 -13q86 0 152 24.5t122 80.5t101 130t98 189l12 27h12l-65 -469h-1024z" />
    <glyph glyph-name="lacute" unicode="&#x13a;" horiz-adv-x="524" 
d="M117 1403l209 383h237l-436 -383h-10zM29 0l6 12l31 2q49 3 64 9t15 24v1059q0 92 -15 119t-69 41l-45 12l2 8l361 90v-1333q0 -13 18 -19t76 -10l27 -2l6 -12h-477z" />
    <glyph glyph-name="Lcommaaccent" unicode="&#x13b;" horiz-adv-x="1179" 
d="M455 -573l-6 10q86 19 130 67.5t44 110.5q0 70 -63.5 97t-121.5 -11q-25 64 15 120t125 56q83 0 131.5 -49.5t48.5 -126.5q0 -88 -84 -170t-219 -104zM35 0l6 12l80 8q92 10 92 35v1176q0 8 -6.5 12.5t-31 9t-75.5 9.5l-57 6l-6 12h653l-6 -12l-111 -8q-44 -3 -70 -13
t-26 -22v-1194l150 -13q86 0 152 24.5t122 80.5t101 130t98 189l12 27h12l-65 -469h-1024z" />
    <glyph glyph-name="lcommaaccent" unicode="&#x13c;" horiz-adv-x="524" 
d="M129 -573l-6 10q86 19 130 67.5t44 110.5q0 70 -62.5 97t-121.5 -11q-25 64 14.5 120t124.5 56q83 0 131.5 -49.5t48.5 -126.5q0 -88 -84 -170t-219 -104zM29 0l6 12l31 2q49 3 64 9t15 24v1059q0 92 -15 119t-69 41l-45 12l2 8l361 90v-1333q0 -13 18 -19t76 -10l27 -2
l6 -12h-477z" />
    <glyph glyph-name="Lcaron" unicode="&#x13d;" horiz-adv-x="1380" 
d="M1065 766l-8 10q87 45 131.5 105.5t44.5 128.5q0 42 -18.5 72t-45 44t-53 21.5t-45 10t-18.5 3.5q0 50 36.5 94.5t102.5 44.5q87 0 136.5 -57t49.5 -137q0 -100 -83 -193.5t-230 -146.5zM35 0l6 12l80 8q92 10 92 35v1176q0 8 -6.5 12.5t-31 9t-75.5 9.5l-57 6l-6 12h653
l-6 -12l-111 -8q-44 -3 -70 -13t-26 -22v-1194l150 -13q86 0 152 24.5t122 80.5t101 130t98 189l12 27h12l-65 -469h-1024z" />
    <glyph glyph-name="lcaron" unicode="&#x13e;" horiz-adv-x="894" 
d="M539 850l-9 10q87 45 132 105.5t45 128.5q0 42 -18.5 72t-45.5 44t-53.5 21.5t-45 10t-18.5 3.5q0 50 37 94.5t103 44.5q87 0 136.5 -57t49.5 -137q0 -100 -83 -193.5t-230 -146.5zM29 0l6 12l31 2q49 3 64 9t15 24v1059q0 92 -15 119t-69 41l-45 12l2 8l361 90v-1333
q0 -13 18 -19t76 -10l27 -2l6 -12h-477z" />
    <glyph glyph-name="Ldot" unicode="&#x13f;" horiz-adv-x="1343" 
d="M35 0l6 12l80 8q92 10 92 35v1176q0 8 -6.5 12.5t-31 9t-75.5 9.5l-57 6l-6 12h653l-6 -12l-111 -8q-44 -3 -70 -13t-26 -22v-1194l150 -13q86 0 152 24.5t122 80.5t101 130t98 189l12 27h12l-65 -469h-1024zM1346 504q-58 0 -99 41t-41 98q0 53 41 93t99 40
q56 0 96.5 -40.5t40.5 -92.5q0 -57 -40 -98t-97 -41z" />
    <glyph glyph-name="ldotaccent" unicode="&#x140;" horiz-adv-x="886" 
d="M29 0l6 12l31 2q49 3 64 9t15 24v1059q0 92 -15 119t-69 41l-45 12l2 8l361 90v-1333q0 -13 18 -19t76 -10l27 -2l6 -12h-477zM725 463q-58 0 -98.5 41t-40.5 98q0 53 40.5 93t98.5 40q56 0 96.5 -40.5t40.5 -92.5q0 -57 -40 -98t-97 -41z" />
    <glyph glyph-name="Lslash" unicode="&#x141;" horiz-adv-x="1185" 
d="M217 575l-205 -65l4 25l201 65v629q0 11 -20 16t-97 12l-65 7l-6 16h665l-6 -16l-110 -9q-41 -4 -69 -13.5t-28 -18.5v-535l207 68l4 -25l-211 -69v-631l152 -13q85 0 150 24.5t120.5 80.5t100 129.5t98.5 189.5l12 27h16l-65 -469h-1038l6 16l88 9q96 8 96 32v518z" />
    <glyph glyph-name="lslash" unicode="&#x142;" horiz-adv-x="524" 
d="M145 530l-143 -47l4 27l139 45v549q0 65 -7 95.5t-23 43.5t-54 23l-45 12l2 8l361 92v-747l141 47l4 -23l-145 -47v-563q0 -10 10.5 -13.5t58.5 -10.5l10.5 -1.5t10 -1.5t12.5 -2l19 -2l6 -14h-477l6 14l24 2q29 3 41 4.5t25 5t16.5 9t3.5 14.5v481z" />
    <glyph glyph-name="Nacute" unicode="&#x143;" horiz-adv-x="1431" 
d="M662 1409l208 383h238l-436 -383h-10zM1190 -12l-930 1108h-2l2 -1006q0 -63 184 -76l39 -2l6 -12h-452l6 12l41 2q80 6 114.5 31.5t34.5 60.5l7 1012q-99 133 -222 148l-22 2l-4 12h471l729 -874h2l-2 782q0 65 -184 78l-37 2l-6 12h450l-6 -12l-41 -2
q-78 -6 -113.5 -33t-35.5 -62l-9 -1183h-20z" />
    <glyph glyph-name="nacute" unicode="&#x144;" horiz-adv-x="1099" 
d="M432 1004l209 382h238l-437 -382h-10zM33 0l6 12l31 2q51 3 68.5 9t17.5 24v574q0 93 -15 121t-69 40l-47 11l2 8l364 98l-6 -176l4 -2q45 39 75 62.5t79.5 55.5t99 48t98.5 16q97 0 162 -65q66 -66 66 -226v-567q0 -7 4.5 -11.5t28.5 -9.5t71 -10l23 -2l6 -12h-484l7 12
l37 2q34 2 51.5 7t20.5 10.5t3 15.5v537q0 92 -43.5 133t-126.5 41q-98 0 -180 -64v-651q0 -13 16.5 -19t73.5 -10l31 -2l4 -12h-479z" />
    <glyph glyph-name="Ncommaaccent" unicode="&#x145;" horiz-adv-x="1431" 
d="M559 -573l-6 10q86 19 130 67.5t44 110.5q0 70 -62.5 97t-121.5 -11q-25 64 14.5 120t124.5 56q83 0 131.5 -49.5t48.5 -126.5q0 -88 -84 -170t-219 -104zM1190 -12l-930 1108h-2l2 -1006q0 -63 184 -76l39 -2l6 -12h-452l6 12l41 2q80 6 114.5 31.5t34.5 60.5l7 1012
q-99 133 -222 148l-22 2l-4 12h471l729 -874h2l-2 782q0 65 -184 78l-37 2l-6 12h450l-6 -12l-41 -2q-78 -6 -113.5 -33t-35.5 -62l-9 -1183h-20z" />
    <glyph glyph-name="ncommaaccent" unicode="&#x146;" horiz-adv-x="1099" 
d="M33 0l6 12l31 2q51 3 68.5 9t17.5 24v574q0 93 -15 121t-69 40l-47 11l2 8l364 98l-6 -176l4 -2q45 39 75 62.5t79.5 55.5t99 48t98.5 16q97 0 162 -65q66 -66 66 -226v-567q0 -7 4.5 -11.5t28.5 -9.5t71 -10l23 -2l6 -12h-484l7 12l37 2q34 2 51.5 7t20.5 10.5t3 15.5
v537q0 92 -43.5 133t-126.5 41q-98 0 -180 -64v-651q0 -13 16.5 -19t73.5 -10l31 -2l4 -12h-479zM422 -573l-6 10q86 19 130 67.5t44 110.5q0 70 -63 97t-121 -11q-25 64 14.5 120t124.5 56q83 0 131.5 -49.5t48.5 -126.5q0 -88 -84 -170t-219 -104z" />
    <glyph glyph-name="Ncaron" unicode="&#x147;" horiz-adv-x="1431" 
d="M756 1389l-297 403h12l287 -197h4l287 197h12l-297 -403h-8zM1190 -12l-930 1108h-2l2 -1006q0 -63 184 -76l39 -2l6 -12h-452l6 12l41 2q80 6 114.5 31.5t34.5 60.5l7 1012q-99 133 -222 148l-22 2l-4 12h471l729 -874h2l-2 782q0 65 -184 78l-37 2l-6 12h450l-6 -12
l-41 -2q-78 -6 -113.5 -33t-35.5 -62l-9 -1183h-20z" />
    <glyph glyph-name="ncaron" unicode="&#x148;" horiz-adv-x="1099" 
d="M535 983l-297 403h12l287 -196h4l286 196h13l-297 -403h-8zM33 0l6 12l31 2q51 3 68.5 9t17.5 24v574q0 93 -15 121t-69 40l-47 11l2 8l364 98l-6 -176l4 -2q45 39 75 62.5t79.5 55.5t99 48t98.5 16q97 0 162 -65q66 -66 66 -226v-567q0 -7 4.5 -11.5t28.5 -9.5t71 -10
l23 -2l6 -12h-484l7 12l37 2q34 2 51.5 7t20.5 10.5t3 15.5v537q0 92 -43.5 133t-126.5 41q-98 0 -180 -64v-651q0 -13 16.5 -19t73.5 -10l31 -2l4 -12h-479z" />
    <glyph glyph-name="Omacron" unicode="&#x14c;" horiz-adv-x="1513" 
d="M526 1473l27 88h516l-27 -88h-516zM745 -25q-198 0 -355 82.5t-246 234.5t-89 347q0 130 57 252.5t153 214t228 146.5t275 55q198 0 355 -84t246 -237.5t89 -348.5q0 -130 -57 -251.5t-152.5 -211.5t-228 -144.5t-275.5 -54.5zM764 -2q405 0 405 643q0 303 -111 472
t-306 169q-202 0 -306 -161t-104 -482q0 -306 111.5 -473.5t310.5 -167.5z" />
    <glyph glyph-name="omacron" unicode="&#x14d;" horiz-adv-x="1056" 
d="M250 1067l26 88h517l-27 -88h-516zM524 -29q-144 0 -255.5 63t-170.5 169t-59 235q0 128 62 234.5t175.5 169.5t255.5 63q108 0 199.5 -36t154 -98.5t97.5 -147t35 -179.5q0 -201 -138.5 -337t-355.5 -136zM526 -10q109 0 170.5 124t61.5 314q0 303 -105 408
q-54 51 -125 51q-76 0 -129.5 -60t-77.5 -155t-24 -217q0 -307 102 -414q51 -51 127 -51z" />
    <glyph glyph-name="Obreve" unicode="&#x14e;" horiz-adv-x="1513" 
d="M745 -25q-198 0 -355 82.5t-246 234.5t-89 347q0 130 57 252.5t153 214t228 146.5t275 55q198 0 355 -84t246 -237.5t89 -348.5q0 -130 -57 -251.5t-152.5 -211.5t-228 -144.5t-275.5 -54.5zM764 -2q405 0 405 643q0 303 -111 472t-306 169q-202 0 -306 -161t-104 -482
q0 -306 111.5 -473.5t310.5 -167.5zM788 1399q-48 0 -88 19t-68.5 51t-52.5 81t-40.5 102t-30.5 120h10q38 -112 110 -165t165 -53t164.5 53t109.5 165h10q-17 -86 -39 -148.5t-55 -116t-82 -81t-113 -27.5z" />
    <glyph glyph-name="obreve" unicode="&#x14f;" horiz-adv-x="1056" 
d="M524 -29q-144 0 -255.5 63t-170.5 169t-59 235q0 128 62 234.5t175.5 169.5t255.5 63q108 0 199.5 -36t154 -98.5t97.5 -147t35 -179.5q0 -201 -138.5 -337t-355.5 -136zM526 -10q109 0 170.5 124t61.5 314q0 303 -105 408q-54 51 -125 51q-76 0 -129.5 -60t-77.5 -155
t-24 -217q0 -307 102 -414q51 -51 127 -51zM518 993q-48 0 -88 19t-68.5 51t-52.5 81t-40.5 102t-30.5 120h10q74 -217 274 -217q93 0 165 52.5t110 164.5h10q-17 -86 -39 -148.5t-55 -116t-82 -81t-113 -27.5z" />
    <glyph glyph-name="Ohungarumlaut" unicode="&#x150;" horiz-adv-x="1513" 
d="M862 1409l209 383h229l-421 -383h-17zM504 1409l209 383h227l-422 -383h-14zM745 -25q-198 0 -355 82.5t-246 234.5t-89 347q0 130 57 252.5t153 214t228 146.5t275 55q198 0 355 -84t246 -237.5t89 -348.5q0 -130 -57 -251.5t-152.5 -211.5t-228 -144.5t-275.5 -54.5z
M764 -2q405 0 405 643q0 303 -111 472t-306 169q-202 0 -306 -161t-104 -482q0 -306 111.5 -473.5t310.5 -167.5z" />
    <glyph glyph-name="ohungarumlaut" unicode="&#x151;" horiz-adv-x="1056" 
d="M598 1004l209 382h229l-422 -382h-16zM240 1004l209 382h227l-422 -382h-14zM524 -29q-144 0 -255.5 63t-170.5 169t-59 235q0 128 62 234.5t175.5 169.5t255.5 63q108 0 199.5 -36t154 -98.5t97.5 -147t35 -179.5q0 -201 -138.5 -337t-355.5 -136zM526 -10
q109 0 170.5 124t61.5 314q0 303 -105 408q-54 51 -125 51q-76 0 -129.5 -60t-77.5 -155t-24 -217q0 -307 102 -414q51 -51 127 -51z" />
    <glyph glyph-name="OE" unicode="&#x152;" horiz-adv-x="1949" 
d="M776 0q-354 -1 -537.5 165.5t-183.5 463.5q0 134 54.5 253t151 207t240 139.5t312.5 51.5h971l20 -418h-12l-8 23q-58 203 -164 289t-293 83l-127 -2v-587h68q136 8 203.5 49.5t99.5 140.5l12 37l14 -2l-53 -490l-14 3l-2 36q-9 112 -65 152t-214 49l-49 4v-618l180 -9
q186 3 301 103.5t181 282.5l10 22h12l-57 -428h-1051zM827 25h109v1204l-137 28q-89 -1 -164 -32t-129 -85.5t-91.5 -128.5t-56 -160t-18.5 -181q0 -147 29 -263.5t87.5 -202.5t152.5 -132.5t218 -46.5z" />
    <glyph glyph-name="oe" unicode="&#x153;" horiz-adv-x="1628" 
d="M526 -33q-145 0 -257 63t-171 168.5t-59 233.5q0 97 36.5 184t101 151t158 102t200.5 38q222 0 356 -147q134 147 340 147q165 0 257.5 -85.5t92.5 -203.5q0 -10 -4 -34q-504 4 -567 6q-4 -27 -4 -98q0 -170 86.5 -274.5t224.5 -104.5q91 0 154.5 37t109.5 122l14 -6
q-68 -146 -169 -221.5t-244 -75.5q-175 0 -305 140q-139 -142 -351 -142zM1014 610l338 4q0 51 -7 95.5t-22.5 85t-45 64.5t-69.5 24q-69 0 -124 -77.5t-70 -195.5zM526 -16q73 0 126 60t78.5 159t25.5 225q0 300 -101 408q-53 53 -127 53q-75 0 -128 -60.5t-77 -158.5
t-24 -224q0 -300 100 -407q52 -55 127 -55z" />
    <glyph glyph-name="Racute" unicode="&#x154;" horiz-adv-x="1396" 
d="M510 1409l209 383h237l-436 -383h-10zM20 0l7 12l90 8q40 4 68 15t28 20v1176q0 8 -7.5 12.5t-33 9t-76.5 9.5l-67 6l-6 12l612 2q532 0 532 -328q0 -114 -86.5 -199.5t-228.5 -111.5l266 -420q76 -122 122 -162t124 -47l22 -2l9 -12h-445l-16 33l-344 608
q-60 13 -113 33v-625q0 -22 115 -31l78 -6l6 -12h-656zM580 676q147 0 228 75t81 214t-87 217t-247 75h-78v-565q74 -16 103 -16z" />
    <glyph glyph-name="racute" unicode="&#x155;" horiz-adv-x="823" 
d="M33 0l6 12l31 2q51 3 68.5 9t17.5 24v574q0 93 -15 121t-69 40l-47 11l2 8l364 98l-6 -324h4q45 163 113 245.5t164 82.5q63 0 105 -37.5t42 -99.5q0 -48 -36 -87.5t-89 -39.5q-56 0 -94 37t-47 98q-51 -7 -86.5 -71.5t-73.5 -208.5v-449q0 -9 7.5 -14.5t32.5 -10
t69 -6.5l45 -2l6 -12h-514zM317 1004l209 382h238l-436 -382h-11z" />
    <glyph glyph-name="Rcommaaccent" unicode="&#x156;" horiz-adv-x="1396" 
d="M614 -573l-6 10q86 19 130 67.5t44 110.5q0 70 -63 97t-121 -11q-25 64 14.5 120t124.5 56q83 0 132 -49.5t49 -126.5q0 -88 -84.5 -170t-219.5 -104zM20 0l7 12l90 8q40 4 68 15t28 20v1176q0 8 -7.5 12.5t-33 9t-76.5 9.5l-67 6l-6 12l612 2q532 0 532 -328
q0 -114 -86.5 -199.5t-228.5 -111.5l266 -420q76 -122 122 -162t124 -47l22 -2l9 -12h-445l-16 33l-344 608q-60 13 -113 33v-625q0 -22 115 -31l78 -6l6 -12h-656zM580 676q147 0 228 75t81 214t-87 217t-247 75h-78v-565q74 -16 103 -16z" />
    <glyph glyph-name="rcommaaccent" unicode="&#x157;" horiz-adv-x="823" 
d="M158 -573l-6 10q86 19 130 67.5t44 110.5q0 70 -63 97t-122 -11q-25 64 15 120t125 56q83 0 131.5 -49.5t48.5 -126.5q0 -88 -84 -170t-219 -104zM33 0l6 12l31 2q51 3 68.5 9t17.5 24v574q0 93 -15 121t-69 40l-47 11l2 8l364 98l-6 -324h4q45 163 113 245.5t164 82.5
q63 0 105 -37.5t42 -99.5q0 -48 -36 -87.5t-89 -39.5q-56 0 -94 37t-47 98q-51 -7 -86.5 -71.5t-73.5 -208.5v-449q0 -9 7.5 -14.5t32.5 -10t69 -6.5l45 -2l6 -12h-514z" />
    <glyph glyph-name="Rcaron" unicode="&#x158;" horiz-adv-x="1396" 
d="M606 1389l-297 403h13l286 -197h4l287 197h12l-297 -403h-8zM20 0l7 12l90 8q40 4 68 15t28 20v1176q0 8 -7.5 12.5t-33 9t-76.5 9.5l-67 6l-6 12l612 2q532 0 532 -328q0 -114 -86.5 -199.5t-228.5 -111.5l266 -420q76 -122 122 -162t124 -47l22 -2l9 -12h-445l-16 33
l-344 608q-60 13 -113 33v-625q0 -22 115 -31l78 -6l6 -12h-656zM580 676q147 0 228 75t81 214t-87 217t-247 75h-78v-565q74 -16 103 -16z" />
    <glyph glyph-name="rcaron" unicode="&#x159;" horiz-adv-x="823" 
d="M33 0l6 12l31 2q51 3 68.5 9t17.5 24v574q0 93 -15 121t-69 40l-47 11l2 8l364 98l-6 -324h4q45 163 113 245.5t164 82.5q63 0 105 -37.5t42 -99.5q0 -48 -36 -87.5t-89 -39.5q-56 0 -94 37t-47 98q-51 -7 -86.5 -71.5t-73.5 -208.5v-449q0 -9 7.5 -14.5t32.5 -10
t69 -6.5l45 -2l6 -12h-514zM426 983l-297 403h12l287 -196h4l287 196h12l-297 -403h-8z" />
    <glyph glyph-name="Sacute" unicode="&#x15a;" horiz-adv-x="1052" 
d="M393 1409l209 383h238l-437 -383h-10zM502 -25q-225 0 -408 72l-22 328h12l82 -158q59 -113 142.5 -167t201.5 -54q127 0 200.5 71.5t73.5 192.5q0 51 -17 93t-43 71.5t-70 56.5t-85.5 44.5t-101.5 39.5q-65 24 -111.5 45t-95.5 53t-79 68t-49 87t-19 112
q0 158 119 267.5t303 109.5q132 0 286 -52l82 29l6 -356h-10l-172 301q-78 57 -197 57q-100 0 -165.5 -60t-65.5 -151q0 -44 17 -81t41.5 -62.5t68 -50t80.5 -40t96 -36.5q69 -24 120.5 -47.5t101.5 -58.5t81.5 -75.5t50.5 -97.5t19 -127q0 -81 -35 -157.5t-96 -135.5
t-150.5 -95t-191.5 -36z" />
    <glyph glyph-name="sacute" unicode="&#x15b;" horiz-adv-x="770" 
d="M262 1004l209 382h238l-437 -382h-10zM354 -29q-153 0 -295 54l-12 256h10l49 -88q55 -104 114 -153.5t145 -49.5q80 0 127 45t47 117q0 69 -54.5 113t-160.5 85q-48 18 -81 33.5t-70 39.5t-59 50.5t-36.5 65t-14.5 84.5q0 127 91.5 203.5t236.5 76.5q102 0 195 -35
l80 21l10 -264l-10 -4l-152 217q-67 47 -127 47q-73 0 -113.5 -41t-40.5 -111q0 -28 11.5 -51.5t28 -40t48.5 -34t57.5 -28.5t70.5 -28q43 -17 68.5 -28.5t62 -31t58 -39.5t43 -47t31 -61.5t9.5 -75.5q0 -123 -95.5 -210t-271.5 -87z" />
    <glyph glyph-name="Scircumflex" unicode="&#x15c;" horiz-adv-x="1052" 
d="M225 1389l297 403h8l297 -403h-12l-287 196h-4l-286 -196h-13zM502 -25q-225 0 -408 72l-22 328h12l82 -158q59 -113 142.5 -167t201.5 -54q127 0 200.5 71.5t73.5 192.5q0 51 -17 93t-43 71.5t-70 56.5t-85.5 44.5t-101.5 39.5q-65 24 -111.5 45t-95.5 53t-79 68t-49 87
t-19 112q0 158 119 267.5t303 109.5q132 0 286 -52l82 29l6 -356h-10l-172 301q-78 57 -197 57q-100 0 -165.5 -60t-65.5 -151q0 -44 17 -81t41.5 -62.5t68 -50t80.5 -40t96 -36.5q69 -24 120.5 -47.5t101.5 -58.5t81.5 -75.5t50.5 -97.5t19 -127q0 -81 -35 -157.5
t-96 -135.5t-150.5 -95t-191.5 -36z" />
    <glyph glyph-name="scircumflex" unicode="&#x15d;" horiz-adv-x="770" 
d="M92 983l297 403h8l297 -403h-12l-287 197h-4l-287 -197h-12zM354 -29q-153 0 -295 54l-12 256h10l49 -88q55 -104 114 -153.5t145 -49.5q80 0 127 45t47 117q0 69 -54.5 113t-160.5 85q-48 18 -81 33.5t-70 39.5t-59 50.5t-36.5 65t-14.5 84.5q0 127 91.5 203.5
t236.5 76.5q102 0 195 -35l80 21l10 -264l-10 -4l-152 217q-67 47 -127 47q-73 0 -113.5 -41t-40.5 -111q0 -28 11.5 -51.5t28 -40t48.5 -34t57.5 -28.5t70.5 -28q43 -17 68.5 -28.5t62 -31t58 -39.5t43 -47t31 -61.5t9.5 -75.5q0 -123 -95.5 -210t-271.5 -87z" />
    <glyph glyph-name="Scedilla" unicode="&#x15e;" horiz-adv-x="1052" 
d="M328 -555l-4 10q161 30 237 71.5t76 115.5q0 58 -49.5 85t-124.5 27q-85 0 -152 -24v12l215 233h-24q-225 0 -408 72l-22 328h12l82 -158q59 -113 142.5 -167t201.5 -54q127 0 200.5 71.5t73.5 192.5q0 51 -17 93t-43 71.5t-70 56.5t-85.5 44.5t-101.5 39.5
q-65 24 -111.5 45t-95.5 53t-79 68t-49 87t-19 112q0 158 119 267.5t303 109.5q132 0 286 -52l82 29l6 -356h-10l-172 301q-78 57 -197 57q-100 0 -165.5 -60t-65.5 -151q0 -44 17 -81t41.5 -62.5t68 -50t80.5 -40t96 -36.5q69 -24 120.5 -47.5t101.5 -58.5t81.5 -75.5
t50.5 -97.5t19 -127q0 -158 -120 -281.5t-306 -140.5l-103 -114q92 16 166 2t120 -57t46 -101q0 -39 -15.5 -71.5t-38.5 -56t-62.5 -44t-73.5 -33t-86.5 -24.5t-86.5 -18.5t-87 -14.5z" />
    <glyph glyph-name="scedilla" unicode="&#x15f;" horiz-adv-x="770" 
d="M354 -29q-153 0 -295 54l-12 256h10l49 -88q55 -104 114 -153.5t145 -49.5q80 0 127 45t47 117q0 69 -54.5 113t-160.5 85q-48 18 -81 33.5t-70 39.5t-59 50.5t-36.5 65t-14.5 84.5q0 127 91.5 203.5t236.5 76.5q102 0 195 -35l80 21l10 -264l-10 -4l-152 217
q-67 47 -127 47q-73 0 -113.5 -41t-40.5 -111q0 -28 11.5 -51.5t28 -40t48.5 -34t57.5 -28.5t70.5 -28q43 -17 68.5 -28.5t62 -31t58 -39.5t43 -47t31 -61.5t9.5 -75.5q0 -118 -89 -204t-253 -93l-98 -108q92 16 165.5 2t119.5 -57t46 -101q0 -39 -15.5 -71.5t-38.5 -56
t-62.5 -44t-73.5 -33t-86.5 -24.5t-86.5 -18.5t-87 -14.5l-4 10q161 30 237 71.5t76 115.5q0 58 -49.5 85t-124.5 27q-85 0 -152 -24v12l211 229h-2z" />
    <glyph glyph-name="Scaron" unicode="&#x160;" horiz-adv-x="1052" 
d="M502 -25q-225 0 -408 72l-22 328h12l82 -158q59 -113 142.5 -167t201.5 -54q127 0 200.5 71.5t73.5 192.5q0 51 -17 93t-43 71.5t-70 56.5t-85.5 44.5t-101.5 39.5q-65 24 -111.5 45t-95.5 53t-79 68t-49 87t-19 112q0 158 119 267.5t303 109.5q132 0 286 -52l82 29
l6 -356h-10l-172 301q-78 57 -197 57q-100 0 -165.5 -60t-65.5 -151q0 -44 17 -81t41.5 -62.5t68 -50t80.5 -40t96 -36.5q69 -24 120.5 -47.5t101.5 -58.5t81.5 -75.5t50.5 -97.5t19 -127q0 -81 -35 -157.5t-96 -135.5t-150.5 -95t-191.5 -36zM539 1356l-297 403h12
l287 -196h4l286 196h13l-297 -403h-8z" />
    <glyph glyph-name="scaron" unicode="&#x161;" horiz-adv-x="770" 
d="M354 -29q-153 0 -295 54l-12 256h10l49 -88q55 -104 114 -153.5t145 -49.5q80 0 127 45t47 117q0 69 -54.5 113t-160.5 85q-48 18 -81 33.5t-70 39.5t-59 50.5t-36.5 65t-14.5 84.5q0 127 91.5 203.5t236.5 76.5q102 0 195 -35l80 21l10 -264l-10 -4l-152 217
q-67 47 -127 47q-73 0 -113.5 -41t-40.5 -111q0 -28 11.5 -51.5t28 -40t48.5 -34t57.5 -28.5t70.5 -28q43 -17 68.5 -28.5t62 -31t58 -39.5t43 -47t31 -61.5t9.5 -75.5q0 -123 -95.5 -210t-271.5 -87zM377 952l-297 404h12l287 -197h4l287 197h12l-297 -404h-8z" />
    <glyph glyph-name="Tcommaaccent" unicode="&#x162;" horiz-adv-x="1378" 
d="M559 -573l-6 10q86 19 130 67.5t44 110.5q0 70 -62.5 97t-121.5 -11q-25 64 14.5 120t124.5 56q83 0 131.5 -49.5t48.5 -126.5q0 -88 -84 -170t-219 -104zM365 0l6 12l92 8q33 3 55.5 9t31.5 12.5t9 13.5v1207h-67q-71 -5 -136 -39t-115 -86.5t-85.5 -103.5t-63.5 -107
l-14 -27h-15l60 381h1149l39 -379h-13l-12 27q-28 62 -65 116.5t-86 105t-112 81t-130 31.5h-70v-1213q0 -8 7.5 -12.5t33 -9t76.5 -9.5l70 -6l6 -12h-651z" />
    <glyph glyph-name="tcommaaccent" unicode="&#x163;" horiz-adv-x="712" 
d="M258 -573l-6 10q86 19 130 67.5t44 110.5q0 70 -63 97t-121 -11q-25 64 14.5 120t124.5 56q83 0 131.5 -49.5t48.5 -126.5q0 -88 -84 -170t-219 -104zM399 -23q-123 0 -181.5 62t-57.5 192l10 537l-166 2l41 68l344 254l8 -2l-2 -213l307 -3l-34 -98h-275l-10 -518
q-2 -87 34 -127.5t115 -40.5q99 0 170 64l9 -9q-78 -80 -153 -124t-159 -44z" />
    <glyph glyph-name="Tcaron" unicode="&#x164;" horiz-adv-x="1378" 
d="M686 1389l-297 403h12l287 -197h4l287 197h12l-297 -403h-8zM365 0l6 12l92 8q33 3 55.5 9t31.5 12.5t9 13.5v1207h-67q-71 -5 -136 -39t-115 -86.5t-85.5 -103.5t-63.5 -107l-14 -27h-15l60 381h1149l39 -379h-13l-12 27q-28 62 -65 116.5t-86 105t-112 81t-130 31.5
h-70v-1213q0 -8 7.5 -12.5t33 -9t76.5 -9.5l70 -6l6 -12h-651z" />
    <glyph glyph-name="tcaron" unicode="&#x165;" horiz-adv-x="757" 
d="M504 932l-6 8q141 74 141 188q0 33 -15 57t-36.5 35.5t-42.5 17.5t-36 8t-15 3q0 40 29.5 75.5t82.5 35.5q69 0 108.5 -46t39.5 -110q0 -79 -67 -155t-183 -117zM399 -23q-123 0 -181.5 62t-57.5 192l10 537l-166 2l41 68l344 254l8 -2l-2 -213l307 -3l-34 -98h-275
l-10 -518q-2 -87 34 -127.5t115 -40.5q99 0 170 64l9 -9q-78 -80 -153 -124t-159 -44z" />
    <glyph glyph-name="Umacron" unicode="&#x16a;" horiz-adv-x="1427" 
d="M739 -33q-279 0 -405.5 107t-126.5 342v819q0 8 -7 12t-31.5 7.5t-76.5 7.5l-69 6l-7 12h648l-7 -12l-90 -8q-96 -8 -96 -31v-754q0 -208 91 -308.5t274 -100.5q374 0 374 442l-2 680q0 67 -184 80h-39l-6 12h451l-7 -12h-39q-78 -6 -113.5 -33.5t-35.5 -63.5l-4 -667
q-3 -266 -119.5 -401.5t-372.5 -135.5zM535 1473l26 88h516l-26 -88h-516z" />
    <glyph glyph-name="umacron" unicode="&#x16b;" horiz-adv-x="1052" 
d="M700 -33l5 189h-5q-86 -82 -171.5 -133.5t-178.5 -51.5q-49 0 -84 17t-71 53q-67 67 -64 225l4 570q0 6 -5 9t-29 7t-74 8l-29 2l-6 12h375l-5 -583q-1 -91 42.5 -131.5t130.5 -40.5q88 0 165 59v619q0 36 -18.5 47t-85.5 16l-29 2l-6 12h371v-669q0 -60 10 -79t45 -28
l76 -16l-2 -8zM236 1067l26 88h516l-26 -88h-516z" />
    <glyph glyph-name="Ubreve" unicode="&#x16c;" horiz-adv-x="1427" 
d="M739 -33q-279 0 -405.5 107t-126.5 342v819q0 8 -7 12t-31.5 7.5t-76.5 7.5l-69 6l-7 12h648l-7 -12l-90 -8q-96 -8 -96 -31v-754q0 -208 91 -308.5t274 -100.5q374 0 374 442l-2 680q0 67 -184 80h-39l-6 12h451l-7 -12h-39q-78 -6 -113.5 -33.5t-35.5 -63.5l-4 -667
q-3 -266 -119.5 -401.5t-372.5 -135.5zM809 1399q-48 0 -88 19t-69 51t-53 81t-40.5 102t-30.5 120h11q38 -112 109.5 -165t164.5 -53t164.5 53t109.5 165h11q-17 -86 -39 -148.5t-55 -116t-82 -81t-113 -27.5z" />
    <glyph glyph-name="ubreve" unicode="&#x16d;" horiz-adv-x="1052" 
d="M700 -33l5 189h-5q-86 -82 -171.5 -133.5t-178.5 -51.5q-49 0 -84 17t-71 53q-67 67 -64 225l4 570q0 6 -5 9t-29 7t-74 8l-29 2l-6 12h375l-5 -583q-1 -91 42.5 -131.5t130.5 -40.5q88 0 165 59v619q0 36 -18.5 47t-85.5 16l-29 2l-6 12h371v-669q0 -60 10 -79t45 -28
l76 -16l-2 -8zM514 993q-48 0 -88 19t-69 51t-53 81t-40.5 102t-30.5 120h11q74 -217 274 -217q93 0 165 52.5t110 164.5h10q-17 -86 -39 -148.5t-55 -116t-82 -81t-113 -27.5z" />
    <glyph glyph-name="Uring" unicode="&#x16e;" horiz-adv-x="1427" 
d="M739 -33q-279 0 -405.5 107t-126.5 342v819q0 8 -7 12t-31.5 7.5t-76.5 7.5l-69 6l-7 12h648l-7 -12l-90 -8q-96 -8 -96 -31v-754q0 -208 91 -308.5t274 -100.5q374 0 374 442l-2 680q0 67 -184 80h-39l-6 12h451l-7 -12h-39q-78 -6 -113.5 -33.5t-35.5 -63.5l-4 -667
q-3 -266 -119.5 -401.5t-372.5 -135.5zM803 1425q-82 0 -132 53.5t-50 131.5q0 76 50 130t132 54t132 -54t50 -130q0 -78 -50 -131.5t-132 -53.5zM803 1444q73 0 117.5 48t44.5 118q0 69 -44.5 117.5t-117.5 48.5t-117.5 -48.5t-44.5 -117.5q0 -70 44.5 -118t117.5 -48z" />
    <glyph glyph-name="uring" unicode="&#x16f;" horiz-adv-x="1052" 
d="M700 -33l5 189h-5q-86 -82 -171.5 -133.5t-178.5 -51.5q-49 0 -84 17t-71 53q-67 67 -64 225l4 570q0 6 -5 9t-29 7t-74 8l-29 2l-6 12h375l-5 -583q-1 -91 42.5 -131.5t130.5 -40.5q88 0 165 59v619q0 36 -18.5 47t-85.5 16l-29 2l-6 12h371v-669q0 -60 10 -79t45 -28
l76 -16l-2 -8zM506 1020q-82 0 -132 53t-50 131q0 77 50 131t132 54t132 -54t50 -131q0 -78 -50 -131t-132 -53zM506 1038q73 0 117.5 48t44.5 118q0 69 -44.5 117.5t-117.5 48.5t-117.5 -48.5t-44.5 -117.5q0 -70 44.5 -118t117.5 -48z" />
    <glyph glyph-name="Uhungarumlaut" unicode="&#x170;" horiz-adv-x="1427" 
d="M739 -33q-279 0 -405.5 107t-126.5 342v819q0 8 -7 12t-31.5 7.5t-76.5 7.5l-69 6l-7 12h648l-7 -12l-90 -8q-96 -8 -96 -31v-754q0 -208 91 -308.5t274 -100.5q374 0 374 442l-2 680q0 67 -184 80h-39l-6 12h451l-7 -12h-39q-78 -6 -113.5 -33.5t-35.5 -63.5l-4 -667
q-3 -266 -119.5 -401.5t-372.5 -135.5zM893 1409l209 383h229l-422 -383h-16zM535 1409l208 383h228l-422 -383h-14z" />
    <glyph glyph-name="uhungarumlaut" unicode="&#x171;" horiz-adv-x="1052" 
d="M700 -33l5 189h-5q-86 -82 -171.5 -133.5t-178.5 -51.5q-49 0 -84 17t-71 53q-67 67 -64 225l4 570q0 6 -5 9t-29 7t-74 8l-29 2l-6 12h375l-5 -583q-1 -91 42.5 -131.5t130.5 -40.5q88 0 165 59v619q0 36 -18.5 47t-85.5 16l-29 2l-6 12h371v-669q0 -60 10 -79t45 -28
l76 -16l-2 -8zM598 1004l209 382h229l-422 -382h-16zM240 1004l209 382h227l-422 -382h-14z" />
    <glyph glyph-name="Uogonek" unicode="&#x172;" horiz-adv-x="1427" 
d="M870 -498q-87 0 -144.5 47t-57.5 129q0 91 64.5 173.5t160.5 130.5q-73 -15 -154 -15q-279 0 -405.5 108t-126.5 343v817q0 8 -7 12.5t-32 8.5t-76 8l-69 6l-7 12h648l-7 -12l-90 -8q-96 -8 -96 -33v-752q0 -209 91 -310t274 -101q374 0 374 444l-2 678q0 67 -184 80
l-39 2l-6 12h451l-7 -12l-39 -2q-78 -6 -113.5 -32.5t-35.5 -61.5l-4 -668q-3 -203 -63.5 -322.5t-202.5 -185.5q-166 -78 -166 -248q0 -72 40 -109.5t113 -37.5q42 0 73 17.5t65 51.5l8 -8q-30 -60 -90.5 -111t-137.5 -51z" />
    <glyph glyph-name="uogonek" unicode="&#x173;" horiz-adv-x="1052" 
d="M829 -498q-86 0 -143 51t-57 136q0 108 84.5 197t199.5 143l-213 -62l5 189h-5q-89 -83 -173 -134t-177 -51q-49 0 -84.5 16.5t-70.5 53.5q-67 67 -64 225l4 570q0 6 -5 9t-29 7t-74 8l-29 2l-6 12h375l-5 -583q-1 -91 42.5 -131.5t130.5 -40.5q88 0 165 59v619
q0 36 -18.5 47t-85.5 16l-29 2l-6 12h371v-669q0 -60 10 -79t45 -28l76 -16l-2 -8q-139 -53 -220 -135t-81 -189q0 -72 39.5 -109.5t111.5 -37.5q42 0 73 17t67 52l6 -8q-30 -60 -90.5 -111t-137.5 -51z" />
    <glyph glyph-name="Wcircumflex" unicode="&#x174;" horiz-adv-x="2039" 
d="M772 1389l297 403h8l297 -403h-12l-287 196h-4l-287 -196h-12zM647 -33l-411 1047q-34 88 -52 128.5t-41 71t-45 39t-61 11.5l-49 4l-6 12h628l-6 -12l-65 -2q-81 -3 -93.5 -28t17.5 -101l317 -828h4l246 623l-31 84q-26 66 -41 101.5t-32.5 68t-34 46.5t-37 22t-49.5 10
l-60 4l-6 12h641l-6 -12l-61 -2q-85 -3 -99.5 -28.5t19.5 -111.5l293 -802h4l223 604q23 63 32.5 90.5t22 69.5t13.5 58t-1 40.5t-13.5 32.5t-31.5 20t-47.5 16.5t-68.5 8.5l-43 4l-6 12h454l-6 -12l-33 -4q-93 -10 -127.5 -57t-111.5 -254q-8 -20 -12 -31l-357 -955h-24
l-351 938h-2l-368 -938h-25z" />
    <glyph glyph-name="wcircumflex" unicode="&#x175;" horiz-adv-x="1521" 
d="M500 983l297 403h8l297 -403h-12l-287 197h-4l-287 -197h-12zM444 -20l-301 743q-35 90 -54.5 112t-70.5 25l-32 2l-4 12h497l-4 -12l-35 -2q-54 -3 -66.5 -20.5t7.5 -71.5l205 -522l164 395l-43 109q-26 66 -50.5 86.5t-68.5 23.5l-29 2l-6 12h500l-4 -12l-35 -2
q-58 -4 -68.5 -23.5t8.5 -68.5l207 -512l119 332q54 151 37 204.5t-123 65.5l-29 4l-6 12h363l-6 -12l-31 -4q-30 -2 -47.5 -8.5t-33 -20.5t-29 -43.5t-29 -70.5t-38.5 -109q-5 -16 -8 -24l-217 -602h-55l-266 638l-262 -638h-56z" />
    <glyph glyph-name="Ycircumflex" unicode="&#x176;" horiz-adv-x="1325" 
d="M338 0l6 12l90 8q33 3 55.5 9t31.5 12.5t9 13.5v531l-274 485q-66 115 -101 150.5t-102 42.5l-43 4l-6 12h635l-6 -12l-35 -2q-96 -9 -112.5 -38.5t22.5 -92.5l270 -484h4l154 287q29 55 46.5 90.5t32.5 70.5t20 55t3.5 39.5t-10.5 29t-27 18.5t-42 13t-60 8l-45 6l-6 12
h467l-6 -12l-58 -6q-56 -6 -91.5 -30t-81 -90.5t-122.5 -211.5l-161 -299v-582q0 -8 7 -12.5t32.5 -9t76.5 -9.5l68 -6l6 -12h-647zM436 1389l297 403h8l297 -403h-12l-287 196h-4l-286 -196h-13z" />
    <glyph glyph-name="ycircumflex" unicode="&#x177;" horiz-adv-x="978" 
d="M195 -524q-55 0 -97.5 33.5t-42.5 91.5q0 47 34.5 81.5t84.5 34.5q58 0 92.5 -34t42.5 -82q38 7 63.5 45.5t55.5 122.5l76 213h-27l-340 759q-33 74 -53 94.5t-68 24.5l-32 2l-7 12h515l-7 -12l-34 -2q-61 -4 -74.5 -25t10.5 -73l217 -504l125 348q23 64 33 103.5
t10.5 68.5t-15.5 44t-40.5 23t-69.5 13l-29 4l-6 12h363l-6 -12l-33 -4q-16 -1 -28 -4t-23 -5.5t-20 -11.5t-16.5 -15t-16.5 -25t-16 -31.5t-18.5 -44t-20 -53.5t-25.5 -69q-1 -2 -1.5 -3.5t-1 -3.5t-1.5 -4l-218 -588l-84 -250q-45 -140 -105 -207t-146 -67zM209 983
l297 403h8l297 -403h-12l-287 197h-4l-287 -197h-12z" />
    <glyph glyph-name="Ydieresis" unicode="&#x178;" horiz-adv-x="1325" 
d="M338 0l6 12l90 8q33 3 55.5 9t31.5 12.5t9 13.5v531l-274 485q-66 115 -101 150.5t-102 42.5l-43 4l-6 12h635l-6 -12l-35 -2q-96 -9 -112.5 -38.5t22.5 -92.5l270 -484h4l154 287q29 55 46.5 90.5t32.5 70.5t20 55t3.5 39.5t-10.5 29t-27 18.5t-42 13t-60 8l-45 6l-6 12
h467l-6 -12l-58 -6q-56 -6 -91.5 -30t-81 -90.5t-122.5 -211.5l-161 -299v-582q0 -8 7 -12.5t32.5 -9t76.5 -9.5l68 -6l6 -12h-647zM879 1374q-56 0 -88.5 37.5t-32.5 83.5t32.5 85.5t88.5 39.5q57 0 89.5 -39t32.5 -86q0 -46 -32.5 -83.5t-89.5 -37.5zM481 1374
q-56 0 -89.5 37.5t-33.5 83.5t33.5 85.5t89.5 39.5q57 0 90 -39t33 -86q0 -46 -33 -83.5t-90 -37.5z" />
    <glyph glyph-name="Zacute" unicode="&#x179;" horiz-adv-x="1230" 
d="M514 1409l209 383h238l-437 -383h-10zM61 0v8l770 1243v4l-182 2q-144 0 -246.5 -44.5t-164 -120.5t-103.5 -193l-8 -22h-14l26 403h1004v-10l-785 -1237v-6l195 -4q101 -3 178.5 12t137.5 45.5t110 85.5t89 122t81 165l12 28h15l-68 -481h-1047z" />
    <glyph glyph-name="zacute" unicode="&#x17a;" horiz-adv-x="897" 
d="M373 1004l209 382h237l-436 -382h-10zM39 0v8l518 846l-92 -2q-74 -1 -128 -16t-93 -46t-65.5 -70t-51.5 -97l-39 -84h-10v335h753v-8l-530 -843l92 -3q281 8 416 265l29 55h10l-62 -340h-747z" />
    <glyph glyph-name="Zdotaccent" unicode="&#x17b;" horiz-adv-x="1230" 
d="M61 0v8l770 1243v4l-182 2q-144 0 -246.5 -44.5t-164 -120.5t-103.5 -193l-8 -22h-14l26 403h1004v-10l-785 -1237v-6l195 -4q101 -3 178.5 12t137.5 45.5t110 85.5t89 122t81 165l12 28h15l-68 -481h-1047zM639 1464q-62 0 -99.5 42.5t-37.5 92.5q0 54 37.5 97t99.5 43
q65 0 101 -42.5t36 -97.5q0 -51 -36.5 -93t-100.5 -42z" />
    <glyph glyph-name="zdotaccent" unicode="&#x17c;" horiz-adv-x="897" 
d="M39 0v8l518 846l-92 -2q-74 -1 -128 -16t-93 -46t-65.5 -70t-51.5 -97l-39 -84h-10v335h753v-8l-530 -843l92 -3q281 8 416 265l29 55h10l-62 -340h-747zM457 1059q-62 0 -100 42.5t-38 92.5q0 54 38 96.5t100 42.5q65 0 101 -42t36 -97q0 -51 -36.5 -93t-100.5 -42z" />
    <glyph glyph-name="Zcaron" unicode="&#x17d;" horiz-adv-x="1230" 
d="M61 0v8l770 1243v4l-182 2q-144 0 -246.5 -44.5t-164 -120.5t-103.5 -193l-8 -22h-14l26 403h1004v-10l-785 -1237v-6l195 -4q101 -3 178.5 12t137.5 45.5t110 85.5t89 122t81 165l12 28h15l-68 -481h-1047zM623 1335l-297 404h12l287 -197h4l286 197h13l-297 -404h-8z
" />
    <glyph glyph-name="zcaron" unicode="&#x17e;" horiz-adv-x="897" 
d="M39 0v8l518 846l-92 -2q-74 -1 -128 -16t-93 -46t-65.5 -70t-51.5 -97l-39 -84h-10v335h753v-8l-530 -843l92 -3q281 8 416 265l29 55h10l-62 -340h-747zM453 942l-297 404h12l287 -197h4l286 197h13l-297 -404h-8z" />
    <glyph glyph-name="florin" unicode="&#x192;" horiz-adv-x="1128" 
d="M211 -147q-100 0 -160.5 40.5t-60.5 106.5q0 47 34.5 84t92.5 37q47 0 82.5 -33.5t38 -82.5t-44.5 -103q40 -27 65 -27q21 0 38 11.5t34 42.5t32 73.5t34 118t37.5 162.5t45.5 219l43 231l-227 4l43 94l211 3q79 278 170 372q106 101 289 101q97 0 155 -42t58 -108
q0 -51 -37 -86t-86 -35q-47 0 -77.5 24.5t-37.5 58.5t12.5 73t65.5 65q-39 31 -72 31q-25 0 -47 -14.5t-40 -47t-32 -67t-29.5 -93.5t-26 -106.5t-26.5 -125.5l246 -3l-16 -94h-250l-68 -280q-86 -349 -239 -502q-99 -102 -250 -102z" />
    <glyph glyph-name="Aringacute" unicode="&#x1fa;" horiz-adv-x="1343" 
d="M506 1614l209 383h237l-436 -383h-10zM707 547h-338l-74 -203q-60 -178 -66 -222q-8 -59 31 -80q30 -17 123 -26l41 -4l6 -12h-450l6 12l34 4q37 4 58 9.5t45.5 23.5t39 39.5t38.5 72.5t45 107t57 158l301 844q-56 18 -87.5 65t-31.5 105q0 76 50.5 130t132.5 54t132 -54
t50 -130q0 -58 -30 -104t-83 -66q0 1 84 -246.5t168 -495.5l84 -247q39 -113 67.5 -167t57 -74.5t76.5 -23.5l57 -4l4 -12h-641l6 12l56 4q74 4 86 47t-23 140zM668 1274q73 0 117 48t44 118q0 69 -44 117.5t-117 48.5t-117.5 -48.5t-44.5 -117.5q0 -70 44.5 -118t117.5 -48
zM377 571h321l-153 467h-2z" />
    <glyph glyph-name="aringacute" unicode="&#x1fb;" horiz-adv-x="919" 
d="M203 1350l209 383h237l-436 -383h-10zM428 1020q-82 0 -132 53t-50 131q0 77 50 131t132 54t132 -54t50 -131q0 -78 -50 -131t-132 -53zM707 -23q-71 0 -113 46t-53 131l-2 2q-75 -84 -141.5 -130t-139.5 -46q-88 0 -149.5 58.5t-61.5 135.5q0 75 43.5 131.5t155.5 109
t303 99.5l2 70q4 128 -51 198t-154 70q-54 0 -90.5 -17t-36.5 -36q0 -6 15.5 -25.5t31 -46t15.5 -49.5q0 -45 -33.5 -76t-85.5 -31q-49 0 -82 27t-33 72q0 62 76.5 118t179 86.5t189.5 30.5q167 0 233.5 -72t58.5 -245l-18 -383q-3 -55 18 -84t58 -29q34 0 86 60l12 -7
q-28 -35 -43 -52.5t-49 -50.5t-69 -49t-72 -16zM428 1038q73 0 117.5 48t44.5 118q0 69 -44.5 117.5t-117.5 48.5t-117.5 -48.5t-44.5 -117.5q0 -70 44.5 -118t117.5 -48zM399 111q74 0 138 67l14 314q-155 -36 -216 -93t-61 -141q0 -64 35.5 -105.5t89.5 -41.5z" />
    <glyph glyph-name="AEacute" unicode="&#x1fc;" horiz-adv-x="1773" 
d="M-113 0l7 12l75 8q40 4 78 31t93 103t124 206l438 805q17 30 17.5 50.5t-30 31.5t-101.5 15l-80 4l-6 14h1104l20 -418h-12l-8 23q-60 209 -152 292t-274 80l-148 -2v-587h68q134 7 197.5 48.5t95.5 141.5l12 37l14 -2l-53 -490l-14 3l-2 36q-9 113 -61 152.5t-208 48.5
l-49 4v-618l170 -9q186 3 300.5 103.5t180.5 282.5l11 22h12l-57 -428h-1088l6 12l103 8q34 3 57 9t32 12.5t9 13.5v488h-377l-112 -209q-88 -167 -79 -235.5t113 -80.5l52 -6l6 -12h-484zM406 569h362v662h-4zM950 1409l209 383h238l-436 -383h-11z" />
    <glyph glyph-name="aeacute" unicode="&#x1fd;" horiz-adv-x="1409" 
d="M610 1004l209 382h238l-436 -382h-11zM256 -23q-86 0 -147.5 59t-61.5 136q0 75 42.5 131.5t155 110t304.5 100.5l2 70q4 128 -51 198t-154 70q-54 0 -90.5 -17t-36.5 -36q0 -6 15.5 -25.5t31 -46t15.5 -49.5q0 -45 -33.5 -76t-85.5 -31q-49 0 -82 27t-33 72q0 62 74 118
t177 86.5t198 30.5q80 0 131.5 -24.5t81.5 -81.5q119 108 301 108q167 0 258.5 -85.5t91.5 -203.5q0 -10 -4 -34q-504 4 -570 6q-2 -14 -2 -98q0 -169 86.5 -272t225.5 -103q91 0 154.5 37.5t109.5 124.5l14 -9q-137 -293 -413 -293q-131 0 -228 61.5t-141 164.5
q-98 -114 -178.5 -170t-157.5 -56zM791 610l342 4q0 50 -7 95t-23 85.5t-46 64.5t-70 24q-69 0 -124 -77t-72 -196zM391 106q45 0 88 25.5t101 87.5q-33 75 -33 238q0 22 2 32q-158 -40 -216.5 -96.5t-58.5 -142.5q0 -60 36.5 -102t80.5 -42z" />
    <glyph glyph-name="Oslashacute" unicode="&#x1fe;" horiz-adv-x="1513" 
d="M1114 1227q161 -85 252.5 -238.5t91.5 -351.5q0 -130 -57 -251.5t-152.5 -211.5t-228 -144.5t-275.5 -54.5q-171 0 -315 64l-111 -191h-22l115 199q-167 81 -262 235.5t-95 356.5q0 130 57 252.5t153 214t228 146.5t275 55q183 0 330 -72l100 174h23zM467 145l573 992
q-111 145 -288 145q-202 0 -306 -161.5t-104 -481.5q0 -324 125 -494zM1053 1118l-572 -989q110 -131 283 -131q405 0 405 643q0 311 -116 477zM745 1399l209 383h238l-436 -383h-11z" />
    <glyph glyph-name="oslashacute" unicode="&#x1ff;" horiz-adv-x="1056" 
d="M270 33q-109 62 -170 168.5t-61 236.5q0 128 62 234.5t175.5 169.5t255.5 63q118 0 218 -43l186 324h22l-192 -332q118 -57 185 -166.5t67 -243.5q0 -201 -138.5 -337t-355.5 -136q-132 0 -237 54l-166 -289h-23q102 176 172 297zM336 150l362 622q-20 39 -45 64
q-56 53 -125 53q-76 0 -129.5 -60.5t-77.5 -156t-24 -217.5q0 -193 39 -305zM707 752q-361 -627 -363 -627q20 -44 55 -84q49 -49 127 -49q109 0 170.5 123t61.5 313q0 210 -51 324zM494 963l208 383h238l-436 -383h-10z" />
    <glyph glyph-name="Scommaaccent" unicode="&#x218;" horiz-adv-x="1052" 
d="M393 -573l-6 10q86 19 130 67.5t44 110.5q0 70 -62.5 97t-121.5 -11q-25 64 14.5 120t124.5 56q83 0 131.5 -49.5t48.5 -126.5q0 -88 -84 -170t-219 -104zM502 -25q-225 0 -408 72l-22 328h12l82 -158q59 -113 142.5 -167t201.5 -54q127 0 200.5 71.5t73.5 192.5
q0 51 -17 93t-43 71.5t-70 56.5t-85.5 44.5t-101.5 39.5q-65 24 -111.5 45t-95.5 53t-79 68t-49 87t-19 112q0 158 119 267.5t303 109.5q132 0 286 -52l82 29l6 -356h-10l-172 301q-78 57 -197 57q-100 0 -165.5 -60t-65.5 -151q0 -44 17 -81t41.5 -62.5t68 -50t80.5 -40
t96 -36.5q69 -24 120.5 -47.5t101.5 -58.5t81.5 -75.5t50.5 -97.5t19 -127q0 -81 -35 -157.5t-96 -135.5t-150.5 -95t-191.5 -36z" />
    <glyph glyph-name="scommaaccent" unicode="&#x219;" horiz-adv-x="770" 
d="M252 -573l-6 10q86 19 130 67.5t44 110.5q0 70 -63 97t-121 -11q-25 64 14.5 120t124.5 56q83 0 131.5 -49.5t48.5 -126.5q0 -88 -84 -170t-219 -104zM354 -29q-153 0 -295 54l-12 256h10l49 -88q55 -104 114 -153.5t145 -49.5q80 0 127 45t47 117q0 69 -54.5 113
t-160.5 85q-48 18 -81 33.5t-70 39.5t-59 50.5t-36.5 65t-14.5 84.5q0 127 91.5 203.5t236.5 76.5q102 0 195 -35l80 21l10 -264l-10 -4l-152 217q-67 47 -127 47q-73 0 -113.5 -41t-40.5 -111q0 -28 11.5 -51.5t28 -40t48.5 -34t57.5 -28.5t70.5 -28q43 -17 68.5 -28.5
t62 -31t58 -39.5t43 -47t31 -61.5t9.5 -75.5q0 -123 -95.5 -210t-271.5 -87z" />
    <glyph glyph-name="uni021A" unicode="&#x21a;" horiz-adv-x="1378" 
d="M559 -573l-6 10q86 19 130 67.5t44 110.5q0 70 -62.5 97t-121.5 -11q-25 64 14.5 120t124.5 56q83 0 131.5 -49.5t48.5 -126.5q0 -88 -84 -170t-219 -104zM365 0l6 12l92 8q33 3 55.5 9t31.5 12.5t9 13.5v1207h-67q-71 -5 -136 -39t-115 -86.5t-85.5 -103.5t-63.5 -107
l-14 -27h-15l60 381h1149l39 -379h-13l-12 27q-28 62 -65 116.5t-86 105t-112 81t-130 31.5h-70v-1213q0 -8 7.5 -12.5t33 -9t76.5 -9.5l70 -6l6 -12h-651z" />
    <glyph glyph-name="uni021B" unicode="&#x21b;" horiz-adv-x="712" 
d="M258 -573l-6 10q86 19 130 67.5t44 110.5q0 70 -63 97t-121 -11q-25 64 14.5 120t124.5 56q83 0 131.5 -49.5t48.5 -126.5q0 -88 -84 -170t-219 -104zM399 -23q-123 0 -181.5 62t-57.5 192l10 537l-166 2l41 68l344 254l8 -2l-2 -213l307 -3l-34 -98h-275l-10 -518
q-2 -87 34 -127.5t115 -40.5q99 0 170 64l9 -9q-78 -80 -153 -124t-159 -44z" />
    <glyph glyph-name="dotlessj" unicode="&#x237;" horiz-adv-x="518" 
d="M-37 -516q-78 0 -123 35t-45 92q0 47 34 80t83 33q73 0 107.5 -65t5.5 -132q69 4 97 88t28 250v758q0 92 -15 119.5t-69 39.5l-48 11l2 8l363 98v-960q0 -61 -40 -141t-100 -149t-136.5 -117t-143.5 -48z" />
    <glyph glyph-name="circumflex" unicode="&#x2c6;" horiz-adv-x="757" 
d="M78 983l297 403h8l297 -403h-12l-287 197h-4l-287 -197h-12z" />
    <glyph glyph-name="caron" unicode="&#x2c7;" horiz-adv-x="757" 
d="M375 983l-297 403h12l287 -196h4l287 196h12l-297 -403h-8z" />
    <glyph glyph-name="breve" unicode="&#x2d8;" horiz-adv-x="798" 
d="M399 993q-48 0 -88 19t-68.5 51t-52.5 81t-40.5 102t-30.5 120h10q74 -217 274 -217q93 0 165 52.5t110 164.5h10q-17 -86 -39 -148.5t-55 -116t-82 -81t-113 -27.5z" />
    <glyph glyph-name="dotaccent" unicode="&#x2d9;" horiz-adv-x="815" 
d="M408 1059q-62 0 -100 42.5t-38 92.5q0 54 38 96.5t100 42.5q65 0 101 -42t36 -97q0 -51 -36.5 -93t-100.5 -42z" />
    <glyph glyph-name="ring" unicode="&#x2da;" horiz-adv-x="757" 
d="M379 1020q-82 0 -132 53t-50 131q0 77 50 131t132 54t132 -54t50 -131q0 -78 -50 -131t-132 -53zM379 1038q73 0 117.5 48t44.5 118q0 69 -44.5 117.5t-117.5 48.5t-117.5 -48.5t-44.5 -117.5q0 -70 44.5 -118t117.5 -48z" />
    <glyph glyph-name="ogonek" unicode="&#x2db;" horiz-adv-x="811" 
d="M422 -498q-84 0 -141.5 55.5t-57.5 139.5q0 204 344 342h33q-124 -53 -185 -127.5t-61 -153.5q0 -73 39.5 -113t110.5 -40q41 0 71 16.5t68 50.5l6 -6q-31 -60 -90.5 -112t-136.5 -52z" />
    <glyph glyph-name="tilde" unicode="&#x2dc;" horiz-adv-x="798" 
d="M561 1018q-54 0 -131 32t-147.5 64.5t-106.5 32.5q-20 0 -31 -2.5t-25 -12t-21.5 -33.5t-10.5 -63h-12q11 144 45 198t117 54q53 0 130 -32t147 -63.5t106 -31.5q20 0 32 2.5t26 12.5t22 33.5t12 60.5h10q-11 -141 -45.5 -196.5t-116.5 -55.5z" />
    <glyph glyph-name="hungarumlaut" unicode="&#x2dd;" horiz-adv-x="876" 
d="M494 1004l208 382h230l-422 -382h-16zM135 1004l209 382h227l-421 -382h-15z" />
    <glyph glyph-name="Wgrave" unicode="&#x1e80;" horiz-adv-x="2039" 
d="M647 -33l-411 1047q-34 88 -52 128.5t-41 71t-45 39t-61 11.5l-49 4l-6 12h628l-6 -12l-65 -2q-81 -3 -93.5 -28t17.5 -101l317 -828h4l246 623l-31 84q-26 66 -41 101.5t-32.5 68t-34 46.5t-37 22t-49.5 10l-60 4l-6 12h641l-6 -12l-61 -2q-85 -3 -99.5 -28.5
t19.5 -111.5l293 -802h4l223 604q23 63 32.5 90.5t22 69.5t13.5 58t-1 40.5t-13.5 32.5t-31.5 20t-47.5 16.5t-68.5 8.5l-43 4l-6 12h454l-6 -12l-33 -4q-93 -10 -127.5 -57t-111.5 -254q-8 -20 -12 -31l-357 -955h-24l-351 938h-2l-368 -938h-25zM1184 1409l-436 383h237
l209 -383h-10z" />
    <glyph glyph-name="wgrave" unicode="&#x1e81;" horiz-adv-x="1521" 
d="M444 -20l-301 743q-35 90 -54.5 112t-70.5 25l-32 2l-4 12h497l-4 -12l-35 -2q-54 -3 -66.5 -20.5t7.5 -71.5l205 -522l164 395l-43 109q-26 66 -50.5 86.5t-68.5 23.5l-29 2l-6 12h500l-4 -12l-35 -2q-58 -4 -68.5 -23.5t8.5 -68.5l207 -512l119 332q54 151 37 204.5
t-123 65.5l-29 4l-6 12h363l-6 -12l-31 -4q-30 -2 -47.5 -8.5t-33 -20.5t-29 -43.5t-29 -70.5t-38.5 -109q-5 -16 -8 -24l-217 -602h-55l-266 638l-262 -638h-56zM905 1004l-436 382h238l208 -382h-10z" />
    <glyph glyph-name="Wacute" unicode="&#x1e82;" horiz-adv-x="2039" 
d="M952 1409l209 383h238l-436 -383h-11zM647 -33l-411 1047q-34 88 -52 128.5t-41 71t-45 39t-61 11.5l-49 4l-6 12h628l-6 -12l-65 -2q-81 -3 -93.5 -28t17.5 -101l317 -828h4l246 623l-31 84q-26 66 -41 101.5t-32.5 68t-34 46.5t-37 22t-49.5 10l-60 4l-6 12h641l-6 -12
l-61 -2q-85 -3 -99.5 -28.5t19.5 -111.5l293 -802h4l223 604q23 63 32.5 90.5t22 69.5t13.5 58t-1 40.5t-13.5 32.5t-31.5 20t-47.5 16.5t-68.5 8.5l-43 4l-6 12h454l-6 -12l-33 -4q-93 -10 -127.5 -57t-111.5 -254q-8 -20 -12 -31l-357 -955h-24l-351 938h-2l-368 -938h-25
z" />
    <glyph glyph-name="wacute" unicode="&#x1e83;" horiz-adv-x="1521" 
d="M662 1004l208 382h238l-436 -382h-10zM444 -20l-301 743q-35 90 -54.5 112t-70.5 25l-32 2l-4 12h497l-4 -12l-35 -2q-54 -3 -66.5 -20.5t7.5 -71.5l205 -522l164 395l-43 109q-26 66 -50.5 86.5t-68.5 23.5l-29 2l-6 12h500l-4 -12l-35 -2q-58 -4 -68.5 -23.5t8.5 -68.5
l207 -512l119 332q54 151 37 204.5t-123 65.5l-29 4l-6 12h363l-6 -12l-31 -4q-30 -2 -47.5 -8.5t-33 -20.5t-29 -43.5t-29 -70.5t-38.5 -109q-5 -16 -8 -24l-217 -602h-55l-266 638l-262 -638h-56z" />
    <glyph glyph-name="Wdieresis" unicode="&#x1e84;" horiz-adv-x="2039" 
d="M1278 1438q-56 0 -88.5 37.5t-32.5 83.5t32.5 85t88.5 39q57 0 90 -39t33 -85t-33 -83.5t-90 -37.5zM881 1438q-56 0 -89.5 37.5t-33.5 83.5t33.5 85t89.5 39q57 0 90 -39t33 -85t-33 -83.5t-90 -37.5zM647 -33l-411 1047q-34 88 -52 128.5t-41 71t-45 39t-61 11.5l-49 4
l-6 12h628l-6 -12l-65 -2q-81 -3 -93.5 -28t17.5 -101l317 -828h4l246 623l-31 84q-26 66 -41 101.5t-32.5 68t-34 46.5t-37 22t-49.5 10l-60 4l-6 12h641l-6 -12l-61 -2q-85 -3 -99.5 -28.5t19.5 -111.5l293 -802h4l223 604q23 63 32.5 90.5t22 69.5t13.5 58t-1 40.5
t-13.5 32.5t-31.5 20t-47.5 16.5t-68.5 8.5l-43 4l-6 12h454l-6 -12l-33 -4q-93 -10 -127.5 -57t-111.5 -254q-8 -20 -12 -31l-357 -955h-24l-351 938h-2l-368 -938h-25z" />
    <glyph glyph-name="wdieresis" unicode="&#x1e85;" horiz-adv-x="1521" 
d="M999 1032q-56 0 -88 37.5t-32 83.5q0 47 32 86t88 39q57 0 90 -39t33 -86q0 -46 -33 -83.5t-90 -37.5zM602 1032q-56 0 -89.5 37.5t-33.5 83.5t33.5 85.5t89.5 39.5q57 0 90 -39t33 -86q0 -46 -33 -83.5t-90 -37.5zM444 -20l-301 743q-35 90 -54.5 112t-70.5 25l-32 2
l-4 12h497l-4 -12l-35 -2q-54 -3 -66.5 -20.5t7.5 -71.5l205 -522l164 395l-43 109q-26 66 -50.5 86.5t-68.5 23.5l-29 2l-6 12h500l-4 -12l-35 -2q-58 -4 -68.5 -23.5t8.5 -68.5l207 -512l119 332q54 151 37 204.5t-123 65.5l-29 4l-6 12h363l-6 -12l-31 -4
q-30 -2 -47.5 -8.5t-33 -20.5t-29 -43.5t-29 -70.5t-38.5 -109q-5 -16 -8 -24l-217 -602h-55l-266 638l-262 -638h-56z" />
    <glyph glyph-name="thinspace" unicode="&#x2009;" horiz-adv-x="122" 
 />
    <glyph glyph-name="endash" unicode="&#x2013;" horiz-adv-x="872" 
d="M8 444l6 70h846v-70h-852z" />
    <glyph glyph-name="emdash" unicode="&#x2014;" horiz-adv-x="1835" 
d="M8 444l6 70h1809l2 -70h-1817z" />
    <glyph glyph-name="quoteleft" unicode="&#x2018;" horiz-adv-x="399" 
d="M221 791q-88 0 -137 57t-49 137q0 100 83 193.5t230 146.5l8 -8q-87 -46 -131.5 -107t-44.5 -129q0 -42 18.5 -72t45 -44t53 -21.5t45 -10t18.5 -3.5q0 -50 -36.5 -94.5t-102.5 -44.5z" />
    <glyph glyph-name="quoteright" unicode="&#x2019;" horiz-adv-x="399" 
d="M51 795l-8 10q87 45 131.5 105t44.5 128q0 42 -18.5 72.5t-45 44t-53 21t-45 10.5t-18.5 4q0 50 36.5 94.5t102.5 44.5q87 0 137 -57t50 -137q0 -100 -83.5 -193.5t-230.5 -146.5z" />
    <glyph glyph-name="quotesinglbase" unicode="&#x201a;" horiz-adv-x="399" 
d="M51 -258l-8 10q87 45 131.5 105.5t44.5 128.5q0 42 -18.5 72t-45 44t-53 21.5t-45 10t-18.5 3.5q0 50 36.5 94.5t102.5 44.5q87 0 137 -57t50 -137q0 -100 -83.5 -193.5t-230.5 -146.5z" />
    <glyph glyph-name="quotedblleft" unicode="&#x201c;" horiz-adv-x="782" 
d="M604 791q-87 0 -136.5 57t-49.5 137q0 100 83 193.5t230 146.5l8 -8q-87 -46 -131.5 -107t-44.5 -129q0 -42 18.5 -72t45 -44t53 -21.5t45 -10t18.5 -3.5q0 -50 -36.5 -94.5t-102.5 -44.5zM221 791q-88 0 -137 57t-49 137q0 100 83 193.5t230 146.5l8 -8
q-87 -46 -131.5 -107t-44.5 -129q0 -42 18.5 -72t45 -44t53 -21.5t45 -10t18.5 -3.5q0 -50 -36.5 -94.5t-102.5 -44.5z" />
    <glyph glyph-name="quotedblright" unicode="&#x201d;" horiz-adv-x="782" 
d="M434 795l-8 10q87 45 131.5 105t44.5 128q0 42 -18.5 72.5t-45 44t-53 21t-45 10.5t-18.5 4q0 50 36.5 94.5t102.5 44.5q88 0 137.5 -57t49.5 -137q0 -100 -83.5 -193.5t-230.5 -146.5zM51 795l-8 10q87 45 131.5 105t44.5 128q0 42 -18.5 72.5t-45 44t-53 21t-45 10.5
t-18.5 4q0 50 36.5 94.5t102.5 44.5q87 0 137 -57t50 -137q0 -100 -83.5 -193.5t-230.5 -146.5z" />
    <glyph glyph-name="quotedblbase" unicode="&#x201e;" horiz-adv-x="782" 
d="M434 -258l-8 10q87 45 131.5 105.5t44.5 128.5q0 42 -18.5 72t-45 44t-53 21.5t-45 10t-18.5 3.5q0 50 36.5 94.5t102.5 44.5q88 0 137.5 -57t49.5 -137q0 -100 -83.5 -193.5t-230.5 -146.5zM51 -258l-8 10q87 45 131.5 105.5t44.5 128.5q0 42 -18.5 72t-45 44t-53 21.5
t-45 10t-18.5 3.5q0 50 36.5 94.5t102.5 44.5q87 0 137 -57t50 -137q0 -100 -83.5 -193.5t-230.5 -146.5z" />
    <glyph glyph-name="dagger" unicode="&#x2020;" horiz-adv-x="886" 
d="M432 -319v1167h-414l-2 20h416v412h23v-412h415l-2 -20h-413v-1167h-23z" />
    <glyph glyph-name="daggerdbl" unicode="&#x2021;" horiz-adv-x="886" 
d="M432 -319v393h-416l2 20h414v770h-414l-2 21h416v395h23v-395h415l-2 -21h-413v-770h413l2 -20h-415v-393h-23z" />
    <glyph glyph-name="bullet" unicode="&#x2022;" horiz-adv-x="870" 
d="M434 80q-43 0 -145 42t-131 73q-31 33 -74 134.5t-43 145.5t43 146t74 133t133 72.5t145 41.5q44 0 146 -41.5t133 -72.5t72.5 -133t41.5 -146q0 -45 -41 -146.5t-73 -133.5q-31 -31 -134 -73t-147 -42z" />
    <glyph glyph-name="ellipsis" unicode="&#x2026;" horiz-adv-x="1312" 
d="M1104 -23q-57 0 -97 41.5t-40 98.5q0 53 40.5 93t96.5 40q57 0 97 -40.5t40 -92.5q0 -58 -39.5 -99t-97.5 -41zM657 -23q-58 0 -98.5 41.5t-40.5 98.5q0 53 40.5 93t98.5 40q56 0 97 -40.5t41 -92.5q0 -57 -40.5 -98.5t-97.5 -41.5zM211 -23q-58 0 -98.5 41.5t-40.5 98.5
q0 53 40.5 93t96.5 40q57 0 97 -40.5t40 -92.5q0 -57 -39 -98.5t-96 -41.5z" />
    <glyph glyph-name="perthousand" unicode="&#x2030;" horiz-adv-x="1673" 
d="M270 791q-115 0 -184.5 75t-69.5 183q0 109 69.5 185.5t184.5 76.5q116 0 186 -76.5t70 -185.5q0 -108 -70 -183t-186 -75zM88 -29l877 1340h24l-876 -1340h-25zM1401 -27q-115 0 -184.5 74.5t-69.5 181.5q0 110 69.5 187.5t184.5 77.5q116 0 186 -77.5t70 -187.5
q0 -107 -70 -181.5t-186 -74.5zM811 -27q-115 0 -184.5 74.5t-69.5 181.5q0 110 69.5 187.5t184.5 77.5q116 0 186 -77.5t70 -187.5q0 -107 -70 -181.5t-186 -74.5zM270 809q104 0 168 69t64 171q0 101 -64.5 172t-167.5 71t-166 -70.5t-63 -172.5t63 -171t166 -69zM1401 -8
q104 0 167.5 67.5t63.5 169.5t-64 174t-167 72t-166.5 -72t-63.5 -174t63 -169.5t167 -67.5zM811 -8q104 0 167.5 67.5t63.5 169.5t-64 174t-167 72t-166 -72t-63 -174t62.5 -169.5t166.5 -67.5z" />
    <glyph glyph-name="guilsinglleft" unicode="&#x2039;" horiz-adv-x="550" 
d="M506 80l-481 362v27l481 360l6 -6l-246 -370l246 -367z" />
    <glyph glyph-name="guilsinglright" unicode="&#x203a;" horiz-adv-x="552" 
d="M41 80l-4 6l246 367l-248 370l6 6l483 -360v-27z" />
    <glyph glyph-name="fraction" unicode="&#x2044;" horiz-adv-x="940" 
d="M-25 -27l961 1340h29l-961 -1340h-29z" />
    <glyph glyph-name="zerosuperior" unicode="&#x2070;" horiz-adv-x="720" 
d="M352 504q-140 0 -226.5 111.5t-86.5 287.5q0 173 93.5 287.5t238.5 114.5q140 0 225.5 -109.5t85.5 -284.5q0 -176 -93 -291.5t-237 -115.5zM356 514q64 0 102 104.5t38 284.5q0 149 -14 233.5t-42.5 120t-77.5 35.5q-66 0 -101.5 -96.5t-35.5 -280.5q0 -151 13.5 -238.5
t41.5 -125t76 -37.5z" />
    <glyph glyph-name="foursuperior" unicode="&#x2074;" horiz-adv-x="677" 
d="M340 518v187h-326l-2 14l414 592h88v-496h150l-31 -110h-119v-187h-174zM98 815h244v344h-2z" />
    <glyph glyph-name="fivesuperior" unicode="&#x2075;" horiz-adv-x="550" 
d="M197 473q-101 0 -147 33.5t-46 87.5q0 35 24.5 58.5t59.5 23.5q58 0 82 -53t-10 -109q29 -20 78 -20q61 0 109 49t48 125q0 97 -96 153t-256 58l107 413h370l-28 -155h-365l-27 -105q426 -13 426 -268q0 -81 -51.5 -149.5t-126.5 -105t-151 -36.5z" />
    <glyph glyph-name="sixsuperior" unicode="&#x2076;" horiz-adv-x="698" 
d="M356 502q-140 0 -229.5 88.5t-89.5 230.5q0 216 170 361t440 164l2 -13q-161 -27 -266 -130t-145 -257l2 -2q100 70 190 70q100 0 168 -64t68 -168q0 -118 -86.5 -199t-223.5 -81zM362 514q55 0 90 59t35 168q0 102 -46 161t-113 59q-49 0 -92 -31q-17 -57 -17 -127
q0 -143 37.5 -216t105.5 -73z" />
    <glyph glyph-name="sevensuperior" unicode="&#x2077;" horiz-adv-x="598" 
d="M90 518l426 619v6h-250q-87 0 -128.5 -10.5t-57.5 -31.5t-29 -69l-2 -12h-12l35 272h520l2 -6l-338 -768h-166z" />
    <glyph glyph-name="eightsuperior" unicode="&#x2078;" horiz-adv-x="645" 
d="M322 500q-132 0 -209.5 52t-77.5 140q0 64 53 109.5t129 64.5v4q-82 43 -127 91t-45 116q0 96 76 165t201 69q130 0 203 -48.5t73 -132.5q0 -56 -52.5 -98t-129.5 -61v-4q94 -45 144 -95t50 -133q0 -101 -81.5 -170t-206.5 -69zM395 977q26 33 38.5 61.5t12.5 69.5
q0 77 -37 132.5t-96 55.5q-56 0 -87 -37.5t-31 -93.5q0 -28 12 -53t28 -42t46.5 -36t52.5 -29.5t61 -27.5zM334 512q57 0 94 41t37 98q0 29 -14.5 56t-32.5 45.5t-54.5 40.5t-59.5 33t-68 32q-58 -64 -58 -149q0 -87 42 -142t114 -55z" />
    <glyph glyph-name="ninesuperior" unicode="&#x2079;" horiz-adv-x="698" 
d="M51 467l-2 12q158 27 263.5 127.5t146.5 249.5h-2q-104 -70 -189 -70q-100 0 -167.5 68t-67.5 172q0 119 86.5 202t222.5 83q140 0 230 -90.5t90 -239.5q0 -208 -170.5 -351t-440.5 -163zM373 842q49 0 88 28q18 52 18 129q0 150 -37.5 223.5t-105.5 73.5q-55 0 -91 -61
t-36 -170q0 -103 48 -163t116 -60z" />
    <glyph glyph-name="plussuperior" unicode="&#x207a;" horiz-adv-x="720" 
d="M352 553v346h-340l2 16h338v340h17v-340h338l2 -16h-338l-2 -346h-17z" />
    <glyph glyph-name="minussuperior" unicode="&#x207b;" horiz-adv-x="720" 
d="M659 895h-598l5 16h589z" />
    <glyph glyph-name="zeroinferior" unicode="&#x2080;" horiz-adv-x="720" 
d="M352 -266q-140 0 -226.5 111.5t-86.5 287.5q0 173 93.5 287.5t238.5 114.5q140 0 225.5 -109.5t85.5 -284.5q0 -176 -93 -291.5t-237 -115.5zM356 -256q64 0 102 104.5t38 284.5q0 149 -14 233.5t-42.5 120t-77.5 35.5q-66 0 -101.5 -96.5t-35.5 -280.5
q0 -151 13.5 -238.5t41.5 -125t76 -37.5z" />
    <glyph glyph-name="oneinferior" unicode="&#x2081;" horiz-adv-x="473" 
d="M61 -252l5 8h22q70 0 70 21v686l-119 14l4 8l293 47v-757q0 -8 21 -13.5t53 -5.5h20l4 -8h-373z" />
    <glyph glyph-name="twoinferior" unicode="&#x2082;" horiz-adv-x="632" 
d="M33 -252l-6 43q173 167 216 215q98 109 114 199q5 25 5 51q0 78 -41 123t-110 45q-119 0 -168 -129l-12 2q37 118 109.5 181t176.5 63q100 0 163 -57t63 -146q0 -43 -17.5 -85.5t-42.5 -75.5t-69.5 -74.5t-81 -70.5t-96.5 -75.5t-97 -77.5v-2h348q35 0 105 164l6 16l6 -2
l-69 -307h-502z" />
    <glyph glyph-name="threeinferior" unicode="&#x2083;" horiz-adv-x="577" 
d="M209 -295q-89 0 -141 31t-52 84q0 35 22.5 56.5t59.5 21.5q56 0 80 -48t0 -116q33 -10 58 -10q64 0 105.5 54t41.5 132q0 89 -45.5 145t-130.5 56q-65 0 -119 -21l-4 10q143 66 194.5 105t51.5 100q0 60 -33.5 91.5t-93.5 31.5q-59 0 -101.5 -32.5t-60.5 -84.5l-12 2
q32 101 103.5 164.5t168.5 63.5q89 0 147 -45.5t58 -116.5q0 -123 -193 -174v-4q115 6 180.5 -54.5t65.5 -154.5q0 -114 -105.5 -200.5t-244.5 -86.5z" />
    <glyph glyph-name="fourinferior" unicode="&#x2084;" horiz-adv-x="677" 
d="M340 -252v186h-326l-2 15l414 592h88v-496h150l-31 -111h-119v-186h-174zM98 45h244v344h-2z" />
    <glyph glyph-name="fiveinferior" unicode="&#x2085;" horiz-adv-x="550" 
d="M197 -297q-101 0 -147 33.5t-46 87.5q0 35 24.5 58.5t59.5 23.5q58 0 82 -53t-10 -109q29 -20 78 -20q61 0 109 49t48 125q0 97 -96 153t-256 58l107 413h370l-28 -155h-365l-27 -105q426 -13 426 -268q0 -81 -51.5 -149.5t-126.5 -105t-151 -36.5z" />
    <glyph glyph-name="sixinferior" unicode="&#x2086;" horiz-adv-x="698" 
d="M356 -268q-140 0 -229.5 88.5t-89.5 230.5q0 216 170 360.5t440 163.5l2 -12q-161 -27 -266 -130t-145 -257l2 -2q100 70 190 70q100 0 168 -64t68 -168q0 -118 -86.5 -199t-223.5 -81zM362 -256q55 0 90 59t35 168q0 102 -45.5 160.5t-113.5 58.5q-50 0 -92 -30
q-17 -57 -17 -127q0 -143 37.5 -216t105.5 -73z" />
    <glyph glyph-name="seveninferior" unicode="&#x2087;" horiz-adv-x="598" 
d="M90 -252l426 619v6h-250q-87 0 -128.5 -10.5t-57.5 -31.5t-29 -69l-2 -12h-12l35 272h520l2 -6l-338 -768h-166z" />
    <glyph glyph-name="eightinferior" unicode="&#x2088;" horiz-adv-x="645" 
d="M322 -270q-132 0 -209.5 52t-77.5 140q0 64 53 109.5t129 64.5v4q-82 43 -127 91t-45 116q0 96 76 165t201 69q130 0 203 -48.5t73 -132.5q0 -56 -52.5 -98t-129.5 -61v-4q94 -45 144 -95t50 -133q0 -101 -81.5 -170t-206.5 -69zM395 207q26 33 38.5 61.5t12.5 69.5
q0 77 -37 132.5t-96 55.5q-56 0 -87 -37.5t-31 -93.5q0 -28 12 -53t28 -42t46.5 -36t52.5 -29.5t61 -27.5zM334 -258q57 0 94 41t37 98q0 29 -14.5 56t-32.5 45.5t-54.5 40.5t-59.5 33t-68 32q-58 -64 -58 -149q0 -87 42 -142t114 -55z" />
    <glyph glyph-name="nineinferior" unicode="&#x2089;" horiz-adv-x="698" 
d="M51 -303l-2 12q158 27 263.5 127.5t146.5 249.5h-2q-104 -70 -189 -70q-100 0 -167.5 68t-67.5 172q0 119 86.5 202t222.5 83q140 0 230 -90.5t90 -239.5q0 -208 -170.5 -351t-440.5 -163zM373 72q49 0 88 28q18 52 18 129q0 150 -37.5 223.5t-105.5 73.5q-55 0 -91 -61
t-36 -170q0 -103 48 -163t116 -60z" />
    <glyph glyph-name="Euro" unicode="&#x20ac;" horiz-adv-x="1046" 
d="M625 -27q-186 0 -323.5 134t-172.5 360h-131l6 20h121q-6 64 -6 119q0 78 10 127h-131l6 21h129q24 123 82.5 225.5t137.5 170t172.5 105t189.5 37.5q143 0 225 -47t82 -135q0 -47 -38.5 -84t-92.5 -37q-61 0 -97.5 42.5t-34.5 100.5t42 101q-2 1 -13 9t-19 12.5t-25 9
t-37 4.5q-136 0 -224 -142t-106 -372h385l6 -21h-391q-2 -25 -2 -78q0 -83 12 -168h375l6 -20h-373q37 -161 133 -253.5t228 -92.5q98 0 166 39.5t120 130.5l15 -8q-151 -310 -432 -310z" />
    <glyph glyph-name="trademark" unicode="&#x2122;" horiz-adv-x="843" 
d="M387 958l2 7h10q26 0 31.5 6.5t7.5 36.5l6 237q-14 24 -38 27l-17 2l-2 6h129l80 -215h2l82 215h133l-2 -6l-25 -2q-24 -3 -24 -8l8 -291q0 -2 9 -3q11 -1 20 -3l16 -2l2 -7h-176v7l25 2q20 3 20 8l-4 280h-2l-113 -297h-8l-106 277h-2l-5 -234q0 -24 9 -30t39 -6h10
l2 -7h-119zM117 958v7l22 2q23 3 23 8v299h-15q-54 0 -100 -94l-4 -9h-6l14 109h305l11 -109h-5l-4 9q-44 94 -96 94h-18v-301q0 -3 8 -4h5t6.5 -0.5t8.5 -1.5l15 -2v-7h-170z" />
    <glyph glyph-name="minus" unicode="&#x2212;" horiz-adv-x="886" 
d="M811 473h-735l4 25h727z" />
    <glyph glyph-name="uni2215" unicode="&#x2215;" horiz-adv-x="940" 
d="M-25 -27l961 1340h29l-961 -1340h-29z" />
    <glyph glyph-name="approxequal" unicode="&#x2248;" horiz-adv-x="886" 
d="M242 707q-72 0 -118 -36t-65 -122h-24q34 182 207 182q43 0 100 -21.5t103.5 -47t102.5 -47t97 -21.5q72 0 117.5 36t64.5 122h25q-19 -100 -75.5 -141.5t-131.5 -41.5q-54 0 -129 34.5t-149 69t-125 34.5zM242 371q-72 0 -118 -36t-65 -122h-24q34 182 207 182
q43 0 100 -21.5t103.5 -47t102.5 -47t97 -21.5q72 0 117.5 36t64.5 122h25q-19 -100 -75.5 -141.5t-131.5 -41.5q-54 0 -129 34.5t-149 69t-125 34.5z" />
    <glyph glyph-name="notequal" unicode="&#x2260;" horiz-adv-x="876" 
d="M37 647l-6 25h450l90 317h27l-90 -317h338l-6 -25h-340l-92 -330h432l6 -24h-447l-94 -338h-26l94 338h-342l6 24h344l92 330h-436z" />
    <glyph glyph-name="lessequal" unicode="&#x2264;" horiz-adv-x="860" 
d="M829 211l-806 342v22l806 340l11 -22l-781 -326v-4l781 -330zM840 76h-817l4 24h809z" />
    <glyph glyph-name="greaterequal" unicode="&#x2265;" horiz-adv-x="860" 
d="M840 553l-807 -342l-10 22l780 330v4l-780 326l10 22l807 -340v-22zM840 76h-817l4 24h809z" />
    <glyph glyph-name="pcircle" unicode="&#x24df;" horiz-adv-x="1441" 
d="M721 -29q-137 0 -261 53t-213.5 142.5t-142.5 213.5t-53 261q0 183 89.5 337.5t244 244.5t336.5 90t336.5 -90t244 -244.5t89.5 -337.5q0 -137 -53 -261t-142.5 -213.5t-213.5 -142.5t-261 -53zM721 -10q176 0 325.5 87.5t236.5 237.5t87 326t-87 326.5t-236.5 238.5
t-325.5 88t-325.5 -88t-236.5 -238.5t-87 -326.5t87 -326t236.5 -237.5t325.5 -87.5zM414 246l2 12l55 2q57 5 57 23v698q0 7 -10 9t-59 7l-41 4l-4 13h354q163 0 244.5 -53t81.5 -150t-91 -158t-243 -61q-34 0 -74 8v-321q0 -12 72 -17l51 -4l4 -12h-399zM756 606
q75 0 122.5 54.5t47.5 140.5q0 195 -178 198l-62 -2v-381q30 -10 70 -10z" />
    <glyph glyph-name="commaaccent" unicode="&#xf6c3;" horiz-adv-x="794" 
d="M264 -573l-6 10q86 19 130 67.5t44 110.5q0 70 -63 97t-121 -11q-25 64 14.5 120t124.5 56q83 0 131.5 -49.5t48.5 -126.5q0 -88 -84 -170t-219 -104z" />
    <glyph glyph-name="J.alt" horiz-adv-x="1009" 
d="M365 -25q-159 0 -246.5 59t-87.5 152q0 64 41.5 104t103.5 40q61 0 100 -38t39 -95q0 -38 -22 -74.5t-64 -54.5q16 -29 55 -49.5t87 -20.5q103 0 143.5 65.5t40.5 239.5v932q0 8 -7.5 12t-33.5 8t-78 7l-80 6l-6 12h662l-6 -12l-91 -8q-96 -8 -96 -31v-938
q0 -41 -40.5 -95.5t-103 -103.5t-147 -83t-163.5 -34z" />
    <glyph glyph-name="Jcircumflex.alt" horiz-adv-x="1009" 
d="M377 1389l297 403h8l297 -403h-12l-287 196h-4l-287 -196h-12zM365 -25q-159 0 -246.5 59t-87.5 152q0 64 41.5 104t103.5 40q61 0 100 -38t39 -95q0 -38 -22 -74.5t-64 -54.5q16 -29 55.5 -50.5t86.5 -21.5q103 0 143.5 67t40.5 240v932q0 8 -7 12.5t-34 9t-78 7.5
l-80 6l-6 12h662l-6 -12l-91 -8q-96 -8 -96 -33v-938q0 -41 -40.5 -95.5t-103 -103.5t-147 -83t-163.5 -34z" />
    <glyph glyph-name="zero.alt" horiz-adv-x="1142" 
d="M569 -23q-221 0 -363.5 142.5t-142.5 369.5q0 225 145 373t365 148q221 0 364.5 -144.5t143.5 -369.5q0 -227 -145.5 -373t-366.5 -146zM569 -4q212 0 352 141t140 359q0 216 -138.5 355.5t-349.5 139.5q-210 0 -349.5 -143t-139.5 -359q0 -218 136.5 -355.5
t348.5 -137.5z" />
    <glyph glyph-name="one.alt" horiz-adv-x="710" 
d="M76 0l6 12l55 2q55 2 77 7.5t22 23.5v887q0 12 -23 17.5t-86 8.5l-47 3l-6 12h561l-6 -12l-56 -3q-78 -5 -90 -14q-8 -6 -8 -16v-887q0 -12 23.5 -18t85.5 -9l47 -2l6 -12h-561z" />
    <glyph glyph-name="dot" horiz-adv-x="442" 
d="M219 340q-58 0 -98.5 41t-40.5 98q0 53 40.5 93t98.5 40q56 0 96.5 -40.5t40.5 -92.5q0 -57 -40 -98t-97 -41z" />
    <glyph glyph-name="ampersand.smallcap" horiz-adv-x="1140" 
d="M313 -18q-132 0 -213.5 77.5t-81.5 190.5q0 114 79.5 191t209.5 108q-69 30 -115.5 85.5t-46.5 123.5q0 63 48 117t116.5 82t136.5 28q119 0 199 -47.5t80 -124.5q0 -48 -33.5 -86t-79.5 -56.5t-94 -21.5q71 -34 154.5 -120.5t128.5 -166.5q104 143 104 213q0 60 -135 70
h-14l-6 14h413l-4 -14l-20 -2q-69 -1 -109 -29t-112 -125l-109 -143q70 -153 124 -207.5t120 -54.5q49 0 110 61l13 -10q-80 -77 -126 -106q-74 -47 -145 -47q-80 0 -147 50t-107 148q-91 -98 -171 -148t-167 -50zM504 655q49 41 49 144q0 68 -32 118t-85 50
q-49 0 -77.5 -37.5t-28.5 -98.5q0 -56 45 -101.5t129 -74.5zM438 111q114 0 205 84q-46 116 -128 210t-189 138q-63 -38 -89 -89.5t-26 -123.5q0 -91 66 -155t161 -64z" />
    <glyph glyph-name="at.smallcap" horiz-adv-x="1196" 
d="M606 -160q-250 0 -407.5 149t-157.5 384q0 127 48 242.5t129 199.5t193 134t234 50q222 0 366 -135.5t144 -343.5q0 -113 -50 -212.5t-133.5 -158.5t-178.5 -59q-75 0 -119.5 37.5t-44.5 105.5q0 37 33 129h-3q-85 -146 -146 -209t-134 -63q-61 0 -107 42.5t-47 105.5
q0 84 54 183t145 191q117 117 223 117q51 0 74 -51t8 -117h2l78 203l176 -6l-104 -269l-70 -176q-25 -60 -4 -100.5t90 -40.5q54 0 109 42t94 124.5t39 181.5q0 201 -139.5 333t-354.5 132q-159 0 -294.5 -83t-214.5 -224t-79 -305q0 -228 153.5 -373t395.5 -145
q164 0 301.5 83.5t200.5 211.5l14 -7q-63 -131 -205 -217t-311 -86zM463 193q88 0 192 210q45 93 45 117q0 51 -28.5 99.5t-59.5 48.5q-24 0 -45 -21q-50 -48 -104.5 -171t-54.5 -208q0 -35 15 -55t40 -20z" />
    <glyph glyph-name="a.smallcap" horiz-adv-x="1060" 
d="M532 397h-256l-47 -131q-17 -47 -26.5 -74t-17 -56t-9.5 -43t1 -29.5t9.5 -21t22 -12t32 -9t44.5 -5.5l28 -4l4 -12h-335l6 12l26 4q29 3 45.5 6.5t34.5 16.5t27.5 25.5t26.5 49.5t29.5 71t37.5 106l176 500l-16 53q58 13 94 51t66 106h34l277 -780q44 -125 76 -163.5
t84 -41.5l41 -4l4 -12h-519l7 12l36 4q54 4 63 32t-17 95zM283 420h241l-116 344h-2q-121 -344 -123 -344z" />
    <glyph glyph-name="b.smallcap" horiz-adv-x="989" 
d="M23 0l4 12l57 6q74 8 74 25v893q0 7 -14.5 10.5t-73.5 9.5l-41 5l-6 12h448q228 0 328 -53t100 -168q0 -159 -278 -207v-2q152 -10 238.5 -78.5t86.5 -177.5q0 -134 -108.5 -210.5t-329.5 -76.5h-485zM467 18l27 2q92 9 154.5 80t62.5 174q0 113 -78 179.5t-197 66.5h-43
v-475zM393 539h27q110 0 180 52t70 154q0 103 -63.5 155t-168.5 52l-45 -2v-411z" />
    <glyph glyph-name="c.smallcap" horiz-adv-x="1075" 
d="M614 -18q-171 0 -302 67t-199 178.5t-68 249.5q0 105 38.5 198t110.5 163.5t183.5 111.5t249.5 41q70 0 137 -16t108 -39l105 29l12 -324h-14l-160 287q-61 41 -182 41q-156 0 -244 -134t-88 -350q0 -219 91.5 -351t228.5 -132q122 0 202 57t138 174l53 109l10 -2
l-51 -291l-51 -10q-46 -20 -140.5 -38.5t-167.5 -18.5z" />
    <glyph glyph-name="d.smallcap" horiz-adv-x="1112" 
d="M23 0l4 12l57 6q74 8 74 25v893q0 7 -15 10.5t-73 9.5l-41 5l-6 12h499q263 1 405 -125t142 -359q0 -131 -75 -243.5t-205 -179t-283 -66.5h-483zM498 20q97 0 170 61t109 160.5t36 221.5q0 236 -87.5 362.5t-252.5 126.5h-80v-907z" />
    <glyph glyph-name="e.smallcap" horiz-adv-x="993" 
d="M23 0l4 12l55 6q76 8 76 25v893q0 7 -14.5 10.5t-73.5 9.5l-41 5l-6 12h847l13 -328h-17l-4 19q-43 165 -129.5 229t-222.5 61l-117 -4v-442l86 2q88 1 139.5 37t73.5 110l10 35h13l-45 -403l-13 2l-2 31q-11 88 -49 123t-145 42l-68 5v-467l148 -9q139 3 235.5 78
t141.5 219l6 19h16l-35 -332h-882z" />
    <glyph glyph-name="f.smallcap" horiz-adv-x="925" 
d="M23 0l4 12l59 6q72 8 72 25v893q0 7 -14 10.5t-72 9.5l-43 5l-6 12h839l8 -328h-14l-6 19q-39 164 -121.5 226t-218.5 62l-117 -4v-448l76 4q89 5 138.5 39t74.5 108l10 33h13l-46 -401l-12 2l-2 28q-11 89 -50.5 128t-143.5 40h-58v-442q0 -7 5 -10.5t23.5 -6.5t57.5 -6
l62 -4l4 -12h-522z" />
    <glyph glyph-name="g.smallcap" horiz-adv-x="1136" 
d="M602 -27q-129 0 -235.5 40t-176 109t-107.5 160.5t-38 194.5q0 85 22.5 161t70 141t115.5 112.5t164.5 74.5t211.5 27q69 0 142.5 -17t115.5 -40l106 29l6 -324h-14l-156 285q-70 47 -202 47q-106 0 -180.5 -64t-110 -172.5t-35.5 -251.5q0 -124 28.5 -221.5t74.5 -154.5
t99.5 -86t108.5 -29q46 0 91.5 13t62.5 24v377q0 12 -115 18l-47 6l-4 12h522l-4 -12l-71 -6q-25 -2 -38 -6t-15.5 -7.5t-2.5 -9.5v-319l99 22l2 -8q-96 -53 -236.5 -89t-253.5 -36z" />
    <glyph glyph-name="h.smallcap" horiz-adv-x="1185" 
d="M23 0l4 12l57 6q74 8 74 25v893q0 7 -14.5 10.5t-73.5 9.5l-41 5l-6 12h503l-4 -12l-57 -7q-72 -8 -72 -22v-426h398v430q0 8 -14 11t-72 9l-41 5l-5 12h504l-4 -12l-59 -7q-72 -8 -72 -22v-893q0 -9 14.5 -13t73.5 -10l41 -4l4 -12h-504l5 12l57 6q72 8 72 25v436h-398
v-440q0 -9 14.5 -13t73.5 -10l39 -4l6 -12h-503z" />
    <glyph glyph-name="i.smallcap" horiz-adv-x="593" 
d="M41 0l8 12l57 6q72 8 72 25v893q0 8 -14 11t-72 9l-45 5l-4 12h508l-6 -12l-60 -7q-69 -8 -69 -22v-893q0 -9 14.5 -13t71.5 -10l43 -4l4 -12h-508z" />
    <glyph glyph-name="j.smallcap" horiz-adv-x="585" 
d="M-6 -279q-72 0 -117 33.5t-45 87.5q0 48 33 81.5t82 33.5q53 0 84.5 -36t27 -86t-44.5 -87q83 -7 122.5 85t39.5 261v842q0 8 -14 11t-74 9l-43 5l-4 12h508l-6 -12l-60 -7q-71 -8 -71 -22v-828q0 -37 -40.5 -102t-100 -127t-136.5 -108t-141 -46z" />
    <glyph glyph-name="j.smallcap.alt" horiz-adv-x="817" 
d="M303 -18q-126 0 -201 46.5t-75 131.5q0 57 35 91t88 34q52 0 86 -32.5t34 -84.5q0 -31 -18 -63.5t-47 -49.5q13 -23 41.5 -40t62.5 -17q73 0 102 49t29 178v711q0 4 -3 6.5t-13 5t-28 4.5t-48 4l-61 5l-4 12h530l-6 -12l-62 -7q-73 -6 -73 -22v-699q0 -44 -55 -103
t-143.5 -103.5t-170.5 -44.5z" />
    <glyph glyph-name="k.smallcap" horiz-adv-x="1114" 
d="M23 0l4 12l59 6q72 8 72 25v893q0 7 -14 10.5t-72 9.5l-43 5l-6 12h512l-7 -12l-63 -7q-72 -6 -72 -22v-477l232 235q149 153 156 205q6 37 -50 51q-23 6 -63 10l-39 5l-4 12h442l-6 -12l-43 -3q-21 -2 -39 -5.5t-37 -12.5t-32.5 -15t-35.5 -23t-34.5 -27t-40 -36
t-42 -40.5l-51 -51l-57.5 -57.5l-12 -12l301 -506q61 -102 92 -128.5t82 -29.5l21 -2l4 -12h-498l4 12l21 2q34 4 48 11.5t13.5 30.5t-18.5 60t-58 107l-168 289l-88 -88v-385q0 -9 14.5 -13t73.5 -10l47 -4l4 -12h-509z" />
    <glyph glyph-name="l.smallcap" horiz-adv-x="923" 
d="M23 0l4 12l59 6q72 8 72 25v893q0 7 -14 10.5t-72 9.5l-43 5l-6 12h526l-6 -12l-78 -7q-72 -9 -72 -22v-907l90 -9q108 0 194.5 77t180.5 261l8 19h13l-50 -373h-806z" />
    <glyph glyph-name="m.smallcap" horiz-adv-x="1329" 
d="M16 0l4 12l31 2q121 9 121 76l18 811q-46 51 -118 57l-43 3l-6 12h391l245 -658h3l245 658h391l-4 -12l-77 -7q-72 -6 -72 -22l20 -893q0 -9 14.5 -13t73.5 -10l43 -4l7 -12h-517l7 12l73 6q64 5 64 25l-21 860h-2l-344 -903h-20l-330 860q0 2 -2 4.5t-2 3.5l-12 -792
q0 -24 30 -39.5t115 -22.5l27 -2l6 -12h-359z" />
    <glyph glyph-name="n.smallcap" horiz-adv-x="1122" 
d="M930 -10l-709 821h-2v-739q0 -51 143 -58l31 -2l4 -12h-354l4 12l29 2q119 9 119 74l6 743q-40 55 -90.5 88.5t-92.5 36.5h-18l-4 17h412l522 -608h2v536q0 50 -146 57l-26 3l-6 12h354l-4 -12l-31 -3q-117 -7 -117 -73l-8 -895h-18z" />
    <glyph glyph-name="o.smallcap" horiz-adv-x="1165" 
d="M575 -18q-234 0 -382 138.5t-148 364.5q0 135 74.5 251.5t201 185.5t271.5 69q233 0 379.5 -141t146.5 -367q0 -101 -43.5 -193.5t-117 -160t-173.5 -107.5t-209 -40zM590 2q139 0 206.5 117.5t67.5 363.5q0 232 -75 360t-209 128q-141 0 -210 -119.5t-69 -366.5
q0 -235 75 -359t214 -124z" />
    <glyph glyph-name="p.smallcap" horiz-adv-x="976" 
d="M18 0l7 12l59 6q74 8 74 25v893q0 5 -5.5 8t-24.5 6t-58 6l-45 5l-5 12h474q442 0 442 -242q0 -126 -120 -199t-331 -73q-32 0 -92 6v-426q0 -7 5 -10.5t23.5 -6.5t57.5 -6l62 -4l4 -12h-527zM477 477q91 0 151 67t60 171q0 233 -211 239l-84 -4v-465q36 -8 84 -8z" />
    <glyph glyph-name="q.smallcap" horiz-adv-x="1161" 
d="M903 -283q-151 0 -242.5 57.5t-164.5 211.5q-135 16 -238.5 87t-158 178t-54.5 234q0 131 74.5 247t201.5 185.5t271 69.5q159 0 280 -68.5t183.5 -183t62.5 -254.5q0 -145 -96 -270t-250 -184q30 -75 57.5 -122.5t62.5 -82.5t75.5 -47.5t97 -16t127.5 10.5l4 -13
q-148 -39 -293 -39zM590 -4q138 0 206 119t68 366q0 231 -75 360.5t-209 129.5q-141 0 -210 -120.5t-69 -367.5q0 -235 75 -361t214 -126z" />
    <glyph glyph-name="r.smallcap" horiz-adv-x="1112" 
d="M18 0l7 12l59 6q74 8 74 25v893q0 5 -5.5 8t-24.5 6t-58 6l-45 5l-5 12l506 2q416 3 416 -244q0 -88 -65 -151t-175 -82l187 -312q64 -103 96.5 -133t93.5 -39l19 -2l4 -12h-373l-12 29l-244 458q-78 20 -80 21v-469q0 -9 16.5 -14t69.5 -9l60 -4l4 -12h-525zM457 518
q111 0 174 57.5t63 161.5q0 99 -63 157t-174 58h-64v-426q36 -8 64 -8z" />
    <glyph glyph-name="s.smallcap" horiz-adv-x="827" 
d="M403 -18q-198 0 -323 53l-23 262h9l77 -139q87 -158 271 -158q98 0 157.5 50t59.5 134q0 40 -16 73.5t-37 55t-61 43t-68 32.5t-78 28q-47 16 -83.5 31.5t-76 40t-65.5 52.5t-43 67t-17 85q0 129 100 215t242 86q59 0 124 -13.5t103 -29.5l68 23l6 -285h-8l-152 248
q-59 39 -147 39q-75 0 -130.5 -44.5t-55.5 -105.5q0 -34 12 -60.5t29.5 -45t53 -36.5t66.5 -30t86 -30q48 -16 86.5 -33.5t79 -45t67.5 -59t44.5 -76t17.5 -96.5q0 -132 -110 -231.5t-265 -99.5z" />
    <glyph glyph-name="t.smallcap" horiz-adv-x="1071" 
d="M281 0l4 12l63 6q72 6 72 25v913h-43q-41 -2 -81.5 -24.5t-69.5 -49.5t-62 -72.5t-48.5 -70.5t-39.5 -67l-15 -23h-10l45 324h891l29 -322h-8l-15 25q-27 47 -43.5 75t-48 71t-59 68t-65.5 44.5t-77 21.5h-45v-917q0 -7 5.5 -10.5t24 -6.5t56.5 -6l50 -4l4 -12h-514z" />
    <glyph glyph-name="u.smallcap" horiz-adv-x="1101" 
d="M569 -27q-213 0 -314 79.5t-101 244.5v639q0 6 -4.5 8.5t-22.5 5.5t-57 6l-47 5l-5 12h512l-4 -12l-63 -7q-70 -5 -70 -22v-582q0 -287 264 -287q138 0 204.5 77t66.5 239v522q0 50 -144 57l-28 3l-6 12h354l-4 -12l-31 -3q-117 -7 -117 -73l-4 -510q-2 -202 -92.5 -302
t-286.5 -100z" />
    <glyph glyph-name="v.smallcap" horiz-adv-x="1052" 
d="M522 -10l-325 778q-30 68 -46 100.5t-34 54.5t-33 27.5t-43 7.5l-41 3l-4 12h506l-6 -12l-43 -3q-69 -3 -74.5 -25.5t31.5 -98.5l221 -551h4l166 426q7 17 19 49q13 33 18.5 47.5t13.5 37.5t10 31.5t3.5 23.5t-1.5 19.5t-8.5 13t-13.5 10.5t-22 6.5t-28.5 6.5t-37.5 4
l-29 3l-4 12h334l-4 -12l-29 -3q-20 -2 -33.5 -4t-27.5 -9.5t-22.5 -13t-21 -23.5t-19.5 -31t-21.5 -46t-24.5 -58t-31 -77l-278 -706h-21z" />
    <glyph glyph-name="w.smallcap" horiz-adv-x="1552" 
d="M489 -25l-313 793q-50 120 -75.5 152t-75.5 38l-31 3l-4 12h502l-5 -12l-49 -3q-61 -3 -71.5 -19.5t10.5 -57.5l229 -588h4l170 424l-20 51q-41 107 -69.5 146.5t-74.5 43.5l-43 3l-4 12h512l-4 -12l-45 -3q-62 -3 -73.5 -19.5t8.5 -72.5l209 -561h2l155 406q5 12 13 34
q53 124 42.5 163t-120.5 50l-33 3l-4 12h342l-6 -12l-23 -3q-74 -10 -98 -40t-72 -160q-14 -37 -22 -58l-273 -725h-20l-266 711h-2l-281 -711h-21z" />
    <glyph glyph-name="x.smallcap" horiz-adv-x="1060" 
d="M592 614l61 84q102 148 117 184q17 42 -16 57q-21 9 -84 17l-37 5l-6 12h381l-4 -12l-41 -3q-54 -5 -90.5 -26t-83.5 -78t-127 -180l-58 -80l264 -418q70 -111 91 -133q26 -26 59 -29l35 -2l4 -12h-514l4 12l43 2q57 3 68 22.5t-19 69.5l-190 306h-3q1 1 -22.5 -33
t-47.5 -69l-24 -34q-40 -56 -64 -92t-37.5 -65.5t-14.5 -46t11.5 -28.5t33.5 -17.5t57 -10.5l35 -4l6 -12h-381l4 12l55 4q57 3 99.5 45.5t141.5 179.5q27 37 42 58l96 131l-217 346q-13 21 -31.5 51t-26.5 42.5t-21 31.5t-20.5 25.5t-19 15.5t-23 12t-26.5 4l-49 3l-6 12
h532l-4 -12l-43 -3q-56 -2 -64.5 -25.5t29.5 -86.5z" />
    <glyph glyph-name="y.smallcap" horiz-adv-x="1036" 
d="M260 0l4 12l64 6q73 8 73 25v401l-196 351q-54 96 -81.5 125t-80.5 38l-27 3l-6 12h514l-4 -12l-20 -3q-74 -7 -92 -26t6 -51l204 -377h5l104 192q93 169 90 209.5t-117 50.5l-32 5l-6 12h370l-4 -12l-45 -5q-24 -2 -40.5 -6t-35 -18t-32 -29t-36.5 -51t-43 -72t-57 -104
l-104 -197v-440q0 -9 15 -13t73 -10l45 -4l4 -12h-512z" />
    <glyph glyph-name="z.smallcap" horiz-adv-x="964" 
d="M49 0v10l565 936v2l-118 6q-284 0 -385 -288l-7 -17h-10l17 324h780v-10l-586 -934v-2l121 -7q179 -8 285.5 72t185.5 285l8 24h13l-52 -401h-817z" />
    <glyph glyph-name="fi.smallcap" horiz-adv-x="1517" 
d="M967 0l8 12l57 6q72 8 72 25v893q0 8 -14 11t-72 9l-45 5l-4 12h506l-5 -12l-59 -7q-72 -8 -72 -22v-893q0 -9 14.5 -13t71.5 -10l43 -4l5 -12h-506zM23 0l4 12l59 6q72 8 72 25v893q0 7 -14 10.5t-72 9.5l-43 5l-6 12h839l8 -328h-14l-6 19q-39 164 -121.5 226
t-218.5 62l-117 -4v-448l76 4q89 5 138.5 39t74.5 108l10 33h13l-46 -401l-12 2l-2 28q-11 89 -50.5 128t-143.5 40h-58v-442q0 -7 5 -10.5t23.5 -6.5t57.5 -6l62 -4l4 -12h-522z" />
    <glyph glyph-name="fl.smallcap" horiz-adv-x="1849" 
d="M948 0l4 12l60 6q71 8 71 25v893q0 7 -14 10.5t-72 9.5l-43 5l-6 12h525l-7 -12l-75 -7q-74 -9 -74 -22v-907l92 -9q108 0 193 76.5t180 261.5l10 19h12l-51 -373h-805zM23 0l4 12l59 6q72 8 72 25v893q0 7 -14 10.5t-72 9.5l-43 5l-6 12h839l8 -328h-14l-6 19
q-39 164 -121.5 226t-218.5 62l-117 -4v-448l76 4q89 5 138.5 39t74.5 108l10 33h13l-46 -401l-12 2l-2 28q-11 89 -50.5 128t-143.5 40h-58v-442q0 -7 5 -10.5t23.5 -6.5t57.5 -6l62 -4l4 -12h-522z" />
    <glyph glyph-name="ff.smallcap" horiz-adv-x="1849" 
d="M948 0l4 12l60 6q71 8 71 25v893q0 7 -14 10.5t-72 9.5l-43 5l-6 12h840l8 -326h-16l-4 19q-41 163 -123 224.5t-219 61.5l-117 -4v-448l76 4q90 5 140 39t73 108l10 33h12l-43 -399h-14l-2 30q-11 88 -51 126.5t-144 39.5h-57v-442q0 -7 5.5 -10.5t24 -6.5t56.5 -6
l61 -4l6 -12h-522zM23 0l4 12l59 6q72 8 72 25v893q0 8 -14 11t-72 9l-43 5l-4 12h837l8 -326h-14l-6 19q-39 163 -121 224.5t-219 61.5l-117 -4v-448l76 4q89 5 138.5 39t74.5 108l10 33h13l-46 -399h-12l-2 30q-11 88 -50.5 126.5t-143.5 39.5h-58v-442q0 -7 5 -10.5
t23.5 -6.5t57.5 -6l62 -4l4 -12h-522z" />
    <glyph glyph-name="ffi.smallcap" horiz-adv-x="2443" 
d="M948 0l4 12l60 6q71 8 71 25v893q0 7 -14 10.5t-72 9.5l-43 5l-6 12h840l8 -326h-16l-4 19q-41 163 -123 224.5t-219 61.5l-117 -4v-448l76 4q90 5 140 39t73 108l10 33h12l-43 -399h-14l-2 30q-11 88 -51 126.5t-144 39.5h-57v-442q0 -7 5.5 -10.5t24 -6.5t56.5 -6
l61 -4l6 -12h-522zM1892 0l6 12l60 6q72 8 72 25v893q0 7 -14.5 10.5t-73.5 9.5l-46 5l-4 12h508l-6 -12l-59 -7q-70 -8 -70 -22v-893q0 -9 14.5 -13t71.5 -10l43 -4l4 -12h-506zM23 0l4 12l59 6q72 8 72 25v893q0 8 -14 11t-72 9l-43 5l-4 12h837l8 -326h-14l-6 19
q-39 163 -121 224.5t-219 61.5l-117 -4v-448l76 4q89 5 138.5 39t74.5 108l10 33h13l-46 -399h-12l-2 30q-11 88 -50.5 126.5t-143.5 39.5h-58v-442q0 -7 5 -10.5t23.5 -6.5t57.5 -6l62 -4l4 -12h-522z" />
    <glyph glyph-name="ffl.smallcap" horiz-adv-x="2772" 
d="M948 0l4 12l60 6q71 8 71 25v893q0 7 -14 10.5t-72 9.5l-43 5l-6 12h840l8 -326h-16l-4 19q-41 163 -123 224.5t-219 61.5l-117 -4v-448l76 4q90 5 140 39t73 108l10 33h12l-43 -399h-14l-2 30q-11 88 -51 126.5t-144 39.5h-57v-442q0 -7 5.5 -10.5t24 -6.5t56.5 -6
l61 -4l6 -12h-522zM1872 0l4 12l59 6q72 8 72 25v893q0 8 -14 11t-72 9l-43 5l-4 12h524l-6 -12l-78 -7q-71 -9 -71 -22v-907l90 -9q109 0 194 77t180 261l9 19h12l-49 -373h-807zM23 0l4 12l59 6q72 8 72 25v893q0 8 -14 11t-72 9l-43 5l-4 12h837l8 -326h-14l-6 19
q-39 163 -121 224.5t-219 61.5l-117 -4v-448l76 4q89 5 138.5 39t74.5 108l10 33h13l-46 -399h-12l-2 30q-11 88 -50.5 126.5t-143.5 39.5h-58v-442q0 -7 5 -10.5t23.5 -6.5t57.5 -6l62 -4l4 -12h-522z" />
    <glyph glyph-name="germandbls.smallcap" horiz-adv-x="1654" 
d="M1231 -18q-199 0 -324 53l-22 262h8l78 -139q87 -158 270 -158q98 0 157.5 50t59.5 134q0 40 -16 73.5t-37 55t-61 43t-68 32.5t-78 28q-47 16 -83.5 31.5t-76 40t-65.5 52.5t-43 67t-17 85q0 129 100 215t242 86q59 0 125 -13.5t103 -29.5l67 23l6 -285h-8l-151 248
q-59 39 -148 39q-75 0 -130.5 -44.5t-55.5 -105.5q0 -34 12 -60.5t29.5 -45t53.5 -36.5t67 -30t86 -30q48 -16 86.5 -33.5t79 -45t67.5 -59t44.5 -76t17.5 -96.5q0 -132 -110 -231.5t-265 -99.5zM403 -18q-198 0 -323 53l-23 262h9l77 -139q87 -158 271 -158q98 0 157.5 50
t59.5 134q0 40 -16 73.5t-37 55t-61 43t-68 32.5t-78 28q-47 16 -83.5 31.5t-76 40t-65.5 52.5t-43 67t-17 85q0 129 100 215t242 86q59 0 124 -13.5t103 -29.5l68 23l6 -285h-8l-152 248q-59 39 -147 39q-75 0 -130.5 -44.5t-55.5 -105.5q0 -34 12 -60.5t29.5 -45t53 -36.5
t66.5 -30t86 -30q48 -16 86.5 -33.5t79 -45t67.5 -59t44.5 -76t17.5 -96.5q0 -132 -110 -231.5t-265 -99.5z" />
    <glyph glyph-name="agrave.smallcap" horiz-adv-x="1060" 
d="M532 397h-256l-47 -131q-17 -47 -26.5 -74t-17 -56t-9.5 -43t1 -29.5t9.5 -21t22 -12t32 -9t44.5 -5.5l28 -4l4 -12h-335l6 12l26 4q29 3 45.5 6.5t34.5 16.5t27.5 25.5t26.5 49.5t29.5 71t37.5 106l176 500l-16 53q58 13 94 51t66 106h34l277 -780q44 -125 76 -163.5
t84 -41.5l41 -4l4 -12h-519l7 12l36 4q54 4 63 32t-17 95zM283 420h241l-116 344h-2q-121 -344 -123 -344zM584 1085l-437 383h238l209 -383h-10z" />
    <glyph glyph-name="aacute.smallcap" horiz-adv-x="1060" 
d="M532 397h-256l-47 -131q-17 -47 -26.5 -74t-17 -56t-9.5 -43t1 -29.5t9.5 -21t22 -12t32 -9t44.5 -5.5l28 -4l4 -12h-335l6 12l26 4q29 3 45.5 6.5t34.5 16.5t27.5 25.5t26.5 49.5t29.5 71t37.5 106l176 500l-16 53q58 13 94 51t66 106h34l277 -780q44 -125 76 -163.5
t84 -41.5l41 -4l4 -12h-519l7 12l36 4q54 4 63 32t-17 95zM283 420h241l-116 344h-2q-121 -344 -123 -344zM422 1085l209 383h237l-436 -383h-10z" />
    <glyph glyph-name="acircumflex.smallcap" horiz-adv-x="1060" 
d="M532 397h-256l-47 -131q-17 -47 -26.5 -74t-17 -56t-9.5 -43t1 -29.5t9.5 -21t22 -12t32 -9t44.5 -5.5l28 -4l4 -12h-335l6 12l26 4q29 3 45.5 6.5t34.5 16.5t27.5 25.5t26.5 49.5t29.5 71t37.5 106l176 500l-16 53q58 13 94 51t66 106h34l277 -780q44 -125 76 -163.5
t84 -41.5l41 -4l4 -12h-519l7 12l36 4q54 4 63 32t-17 95zM240 1065l297 403h8l297 -403h-13l-286 197h-4l-287 -197h-12zM283 420h241l-116 344h-2q-121 -344 -123 -344z" />
    <glyph glyph-name="atilde.smallcap" horiz-adv-x="1060" 
d="M532 397h-256l-47 -131q-17 -47 -26.5 -74t-17 -56t-9.5 -43t1 -29.5t9.5 -21t22 -12t32 -9t44.5 -5.5l28 -4l4 -12h-335l6 12l26 4q29 3 45.5 6.5t34.5 16.5t27.5 25.5t26.5 49.5t29.5 71t37.5 106l176 500l-16 53q58 13 94 51t66 106h34l277 -780q44 -125 76 -163.5
t84 -41.5l41 -4l4 -12h-519l7 12l36 4q54 4 63 32t-17 95zM283 420h241l-116 344h-2q-121 -344 -123 -344zM694 1100q-54 0 -131 32t-147.5 64.5t-106.5 32.5q-20 0 -31 -2.5t-25 -12t-21.5 -33.5t-10.5 -63h-12q11 144 45 198t117 54q53 0 130 -32t147 -63.5t106 -31.5
q20 0 32 2.5t26 12.5t22 33.5t12 60.5h10q-11 -141 -45.5 -196.5t-116.5 -55.5z" />
    <glyph glyph-name="adieresis.smallcap" horiz-adv-x="1060" 
d="M532 397h-256l-47 -131q-17 -47 -26.5 -74t-17 -56t-9.5 -43t1 -29.5t9.5 -21t22 -12t32 -9t44.5 -5.5l28 -4l4 -12h-335l6 12l26 4q29 3 45.5 6.5t34.5 16.5t27.5 25.5t26.5 49.5t29.5 71t37.5 106l176 500l-16 53q58 13 94 51t66 106h34l277 -780q44 -125 76 -163.5
t84 -41.5l41 -4l4 -12h-519l7 12l36 4q54 4 63 32t-17 95zM283 420h241l-116 344h-2q-121 -344 -123 -344zM731 1114q-56 0 -88.5 37.5t-32.5 83.5t32.5 85.5t88.5 39.5q57 0 90 -39t33 -86q0 -46 -33 -83.5t-90 -37.5zM334 1114q-56 0 -89.5 37.5t-33.5 83.5t33.5 85.5
t89.5 39.5q57 0 90 -39t33 -86q0 -46 -33 -83.5t-90 -37.5z" />
    <glyph glyph-name="aring.smallcap" horiz-adv-x="1060" 
d="M532 397h-256l-47 -131q-17 -47 -26.5 -74t-17 -56t-9.5 -43t1 -29.5t9.5 -21t22 -12t32 -9t44.5 -5.5l28 -4l4 -12h-335l6 12l26 4q30 3 46 6.5t34.5 16t28.5 26t26 48.5t29 71.5t37 106.5l227 643q-52 20 -80 65t-28 103q0 76 50 130t132 54t132 -54t50 -130
q0 -57 -28 -101.5t-78 -64.5l254 -715q44 -125 76 -163.5t84 -41.5l41 -4l4 -12h-519l7 12l36 4q54 4 63 32t-17 95zM516 936q73 0 117.5 48t44.5 118q0 69 -44.5 117.5t-117.5 48.5t-117.5 -48.5t-44.5 -117.5q0 -70 44.5 -118t117.5 -48zM283 420h241l-116 344h-2
q-121 -344 -123 -344z" />
    <glyph glyph-name="aringacute.smallcap" horiz-adv-x="1060" 
d="M332 1251l209 383h237l-436 -383h-10zM532 397h-256l-47 -131q-17 -47 -26.5 -74t-17 -56t-9.5 -43t1 -29.5t9.5 -21t22 -12t32 -9t44.5 -5.5l28 -4l4 -12h-335l6 12l26 4q30 3 46 6.5t34.5 16t28.5 26t26 48.5t29 71.5t37 106.5l227 643q-52 20 -80 65t-28 103
q0 76 50 130t132 54t132 -54t50 -130q0 -57 -28 -101.5t-78 -64.5l254 -715q44 -125 76 -163.5t84 -41.5l41 -4l4 -12h-519l7 12l36 4q54 4 63 32t-17 95zM516 936q73 0 117.5 48t44.5 118q0 69 -44.5 117.5t-117.5 48.5t-117.5 -48.5t-44.5 -117.5q0 -70 44.5 -118
t117.5 -48zM283 420h241l-116 344h-2q-121 -344 -123 -344z" />
    <glyph glyph-name="amacron.smallcap" horiz-adv-x="1060" 
d="M532 397h-256l-47 -131q-17 -47 -26.5 -74t-17 -56t-9.5 -43t1 -29.5t9.5 -21t22 -12t32 -9t44.5 -5.5l28 -4l4 -12h-335l6 12l26 4q29 3 45.5 6.5t34.5 16.5t27.5 25.5t26.5 49.5t29.5 71t37.5 106l176 500l-16 53q58 13 94 51t66 106h34l277 -780q44 -125 76 -163.5
t84 -41.5l41 -4l4 -12h-519l7 12l36 4q54 4 63 32t-17 95zM217 1067l27 88h516l-27 -88h-516zM283 420h241l-116 344h-2q-121 -344 -123 -344z" />
    <glyph glyph-name="abreve.smallcap" horiz-adv-x="1060" 
d="M532 397h-256l-47 -131q-17 -47 -26.5 -74t-17 -56t-9.5 -43t1 -29.5t9.5 -21t22 -12t32 -9t44.5 -5.5l28 -4l4 -12h-335l6 12l26 4q29 3 45.5 6.5t34.5 16.5t27.5 25.5t26.5 49.5t29.5 71t37.5 106l176 500l-16 53q58 13 94 51t66 106h34l277 -780q44 -125 76 -163.5
t84 -41.5l41 -4l4 -12h-519l7 12l36 4q54 4 63 32t-17 95zM283 420h241l-116 344h-2q-121 -344 -123 -344zM512 1034q-48 0 -88 19t-69 51t-53 81t-40.5 102t-30.5 120h11q74 -217 274 -217q93 0 165 52.5t110 164.5h10q-17 -86 -39 -148.5t-55 -116t-82 -81t-113 -27.5z
" />
    <glyph glyph-name="aogonek.smallcap" horiz-adv-x="1060" 
d="M823 -498q-86 0 -144 50.5t-58 136.5q0 57 32 110.5t82 92.5t102 66.5t101 41.5h-406l7 12l36 4q54 4 63 33t-17 96l-86 252h-259l-47 -131q-17 -47 -26 -73t-17 -56t-9.5 -43.5t1 -29t9.5 -21.5t21.5 -12.5t31.5 -9t45 -5.5l28 -4l4 -12h-335l6 12l28 4q29 3 45 6.5
t34 16.5t27.5 26t26 50t29 71.5t37.5 106.5l176 498l-16 53q58 14 94 52t66 105h34l277 -780q44 -125 76 -163.5t84 -41.5l41 -4l6 -12q-142 -23 -221.5 -88.5t-79.5 -161.5q0 -69 40.5 -108t112.5 -39q42 0 72.5 17.5t64.5 51.5l9 -8q-30 -60 -90.5 -111t-137.5 -51z
M285 420h241l-118 344h-2z" />
    <glyph glyph-name="ae.smallcap" horiz-adv-x="1359" 
d="M565 408h-276l-78 -154q-64 -131 -55 -180.5t88 -57.5l41 -4l4 -12h-373l4 12l60 6q48 5 94.5 57t120.5 199l313 613q11 20 14 29t-3 18.5t-27.5 14t-63.5 7.5l-61 5l-5 12h875l14 -328h-16l-4 19q-44 167 -128 231t-220 59l-84 -4v-442l53 2q88 3 138.5 38.5t70.5 108.5
l10 35h14l-47 -403h-14v33q-6 85 -46 122.5t-142 44.5l-37 3v-467l114 -9q272 6 375 297l6 19h17l-37 -332h-866l4 12l77 6q76 6 76 25v365zM301 430h264v504h-4z" />
    <glyph glyph-name="aeacute.smallcap" horiz-adv-x="1359" 
d="M565 408h-276l-78 -154q-64 -131 -55 -180.5t88 -57.5l41 -4l4 -12h-373l4 12l60 6q48 5 94.5 57t120.5 199l313 613q11 20 14 29t-3 18.5t-27.5 14t-63.5 7.5l-61 5l-5 12h875l14 -328h-16l-4 19q-44 167 -128 231t-220 59l-84 -4v-442l53 2q88 3 138.5 38.5t70.5 108.5
l10 35h14l-47 -403h-14v33q-6 85 -46 122.5t-142 44.5l-37 3v-467l114 -9q272 6 375 297l6 19h17l-37 -332h-866l4 12l77 6q76 6 76 25v365zM301 430h264v504h-4zM694 1024l209 383h238l-436 -383h-11z" />
    <glyph glyph-name="ccedilla.smallcap" horiz-adv-x="1075" 
d="M606 -18q-127 1 -233 40.5t-177.5 106.5t-111 156.5t-39.5 191.5q0 105 38.5 198t110.5 163.5t183.5 111.5t249.5 41q70 0 137 -16t108 -39l105 29l12 -324h-14l-160 287q-61 41 -182 41q-156 0 -244 -134t-88 -350q0 -219 91.5 -351t228.5 -132q122 0 202 57t138 174
l53 109l10 -2l-51 -291l-51 -10q-46 -19 -134.5 -37.5t-160.5 -19.5l-107 -119q92 16 166 2t120 -57t46 -101q0 -39 -15.5 -71.5t-38.5 -56t-63 -44t-74 -33t-86.5 -24.5t-86.5 -18.5t-87 -14.5l-4 10q161 30 237.5 71.5t76.5 115.5q0 58 -49.5 85t-124.5 27q-85 0 -152 -24
v12z" />
    <glyph glyph-name="cacute.smallcap" horiz-adv-x="1075" 
d="M502 1014l209 383h237l-436 -383h-10zM614 -18q-171 0 -302 67t-199 178.5t-68 249.5q0 105 38.5 198t110.5 163.5t183.5 111.5t249.5 41q70 0 137 -16t108 -39l105 29l12 -324h-14l-160 287q-61 41 -182 41q-156 0 -244 -134t-88 -350q0 -219 91.5 -351t228.5 -132
q122 0 202 57t138 174l53 109l10 -2l-51 -291l-51 -10q-46 -20 -140.5 -38.5t-167.5 -18.5z" />
    <glyph glyph-name="ccircumflex.smallcap" horiz-adv-x="1075" 
d="M287 993l297 404h8l297 -404h-12l-287 197h-4l-287 -197h-12zM614 -18q-171 0 -302 67t-199 178.5t-68 249.5q0 105 38.5 198t110.5 163.5t183.5 111.5t249.5 41q70 0 137 -16t108 -39l105 29l12 -324h-14l-160 287q-61 41 -182 41q-156 0 -244 -134t-88 -350
q0 -219 91.5 -351t228.5 -132q122 0 202 57t138 174l53 109l10 -2l-51 -291l-51 -10q-46 -20 -140.5 -38.5t-167.5 -18.5z" />
    <glyph glyph-name="cdotaccent.smallcap" horiz-adv-x="1075" 
d="M614 -18q-171 0 -302 67t-199 178.5t-68 249.5q0 105 38.5 198t110.5 163.5t183.5 111.5t249.5 41q70 0 137 -16t108 -39l105 29l12 -324h-14l-160 287q-61 41 -182 41q-156 0 -244 -134t-88 -350q0 -219 91.5 -351t228.5 -132q122 0 202 57t138 174l53 109l10 -2
l-51 -291l-51 -10q-46 -20 -140.5 -38.5t-167.5 -18.5zM604 1069q-62 0 -99.5 42.5t-37.5 92.5q0 54 37.5 96.5t99.5 42.5q65 0 101 -42t36 -97q0 -51 -36.5 -93t-100.5 -42z" />
    <glyph glyph-name="ccaron.smallcap" horiz-adv-x="1075" 
d="M608 1034l-297 404h13l286 -197h4l287 197h12l-297 -404h-8zM614 -18q-171 0 -302 67t-199 178.5t-68 249.5q0 105 38.5 198t110.5 163.5t183.5 111.5t249.5 41q70 0 137 -16t108 -39l105 29l12 -324h-14l-160 287q-61 41 -182 41q-156 0 -244 -134t-88 -350
q0 -219 91.5 -351t228.5 -132q122 0 202 57t138 174l53 109l10 -2l-51 -291l-51 -10q-46 -20 -140.5 -38.5t-167.5 -18.5z" />
    <glyph glyph-name="dcaron.smallcap" horiz-adv-x="1118" 
d="M23 0l4 12l57 6q74 8 74 25v893q0 7 -15 10.5t-73 9.5l-41 5l-6 12h499q263 1 405 -125t142 -359q0 -131 -75 -243.5t-205 -179t-283 -66.5h-483zM498 20q97 0 170 61t109 160.5t36 221.5q0 236 -87.5 362.5t-252.5 126.5h-80v-907zM506 1040l-297 404h12l287 -197h4
l287 197h12l-297 -404h-8z" />
    <glyph glyph-name="eth.smallcap" horiz-adv-x="1101" 
d="M158 479h-131l4 21h127v436q0 7 -17.5 11t-70.5 9l-45 5l-5 12h502q262 1 399.5 -124.5t137.5 -359.5q0 -131 -72.5 -243.5t-200.5 -179t-280 -66.5h-488l7 12l59 6q74 8 74 25v436zM393 500h172l4 -21h-176v-434l105 -25q97 0 167.5 61.5t104 160t33.5 221.5
q0 237 -83 363t-247 126h-80v-452z" />
    <glyph glyph-name="dcroat.smallcap" horiz-adv-x="1101" 
d="M158 479h-131l4 21h127v436q0 7 -17.5 11t-70.5 9l-45 5l-5 12h502q262 1 399.5 -124.5t137.5 -359.5q0 -131 -72.5 -243.5t-200.5 -179t-280 -66.5h-488l7 12l59 6q74 8 74 25v436zM393 500h172l4 -21h-176v-434l105 -25q97 0 167.5 61.5t104 160t33.5 221.5
q0 237 -83 363t-247 126h-80v-452z" />
    <glyph glyph-name="egrave.smallcap" horiz-adv-x="993" 
d="M23 0l4 12l55 6q76 8 76 25v893q0 7 -14.5 10.5t-73.5 9.5l-41 5l-6 12h847l13 -328h-17l-4 19q-43 165 -129.5 229t-222.5 61l-117 -4v-442l86 2q88 1 139.5 37t73.5 110l10 35h13l-45 -403l-13 2l-2 31q-11 88 -49 123t-145 42l-68 5v-467l148 -9q139 3 235.5 78
t141.5 219l6 19h16l-35 -332h-882zM596 1085l-436 383h237l209 -383h-10z" />
    <glyph glyph-name="eacute.smallcap" horiz-adv-x="993" 
d="M23 0l4 12l55 6q76 8 76 25v893q0 7 -14.5 10.5t-73.5 9.5l-41 5l-6 12h847l13 -328h-17l-4 19q-43 165 -129.5 229t-222.5 61l-117 -4v-442l86 2q88 1 139.5 37t73.5 110l10 35h13l-45 -403l-13 2l-2 31q-11 88 -49 123t-145 42l-68 5v-467l148 -9q139 3 235.5 78
t141.5 219l6 19h16l-35 -332h-882zM434 1065l209 383h238l-437 -383h-10z" />
    <glyph glyph-name="ecircumflex.smallcap" horiz-adv-x="993" 
d="M23 0l4 12l55 6q76 8 76 25v893q0 7 -14.5 10.5t-73.5 9.5l-41 5l-6 12h847l13 -328h-17l-4 19q-43 165 -129.5 229t-222.5 61l-117 -4v-442l86 2q88 1 139.5 37t73.5 110l10 35h13l-45 -403l-13 2l-2 31q-11 88 -49 123t-145 42l-68 5v-467l148 -9q139 3 235.5 78
t141.5 219l6 19h16l-35 -332h-882zM199 1065l297 403h8l297 -403h-13l-286 197h-4l-287 -197h-12z" />
    <glyph glyph-name="edieresis.smallcap" horiz-adv-x="993" 
d="M23 0l4 12l55 6q76 8 76 25v893q0 7 -14.5 10.5t-73.5 9.5l-41 5l-6 12h847l13 -328h-17l-4 19q-43 165 -129.5 229t-222.5 61l-117 -4v-442l86 2q88 1 139.5 37t73.5 110l10 35h13l-45 -403l-13 2l-2 31q-11 88 -49 123t-145 42l-68 5v-467l148 -9q139 3 235.5 78
t141.5 219l6 19h16l-35 -332h-882zM692 1114q-56 0 -88.5 37.5t-32.5 83.5t32.5 85.5t88.5 39.5q57 0 90 -39t33 -86q0 -46 -33 -83.5t-90 -37.5zM295 1114q-56 0 -89.5 37.5t-33.5 83.5t33.5 85.5t89.5 39.5q57 0 90 -39t33 -86q0 -46 -33 -83.5t-90 -37.5z" />
    <glyph glyph-name="emacron.smallcap" horiz-adv-x="993" 
d="M23 0l4 12l55 6q76 8 76 25v893q0 7 -14.5 10.5t-73.5 9.5l-41 5l-6 12h847l13 -328h-17l-4 19q-43 165 -129.5 229t-222.5 61l-117 -4v-442l86 2q88 1 139.5 37t73.5 110l10 35h13l-45 -403l-13 2l-2 31q-11 88 -49 123t-145 42l-68 5v-467l148 -9q139 3 235.5 78
t141.5 219l6 19h16l-35 -332h-882zM223 1067l27 88h516l-27 -88h-516z" />
    <glyph glyph-name="ebreve.smallcap" horiz-adv-x="993" 
d="M23 0l4 12l55 6q76 8 76 25v893q0 7 -14.5 10.5t-73.5 9.5l-41 5l-6 12h847l13 -328h-17l-4 19q-43 165 -129.5 229t-222.5 61l-117 -4v-442l86 2q88 1 139.5 37t73.5 110l10 35h13l-45 -403l-13 2l-2 31q-11 88 -49 123t-145 42l-68 5v-467l148 -9q139 3 235.5 78
t141.5 219l6 19h16l-35 -332h-882zM485 1014q-48 0 -88 19t-68.5 51t-52.5 80.5t-40.5 101.5t-30.5 120h10q74 -217 274 -217q93 0 165 52.5t110 164.5h10q-17 -86 -39 -148.5t-55 -115.5t-82 -80.5t-113 -27.5z" />
    <glyph glyph-name="edotaccent.smallcap" horiz-adv-x="993" 
d="M23 0l4 12l55 6q76 8 76 25v893q0 7 -14.5 10.5t-73.5 9.5l-41 5l-6 12h847l13 -328h-17l-4 19q-43 165 -129.5 229t-222.5 61l-117 -4v-442l86 2q88 1 139.5 37t73.5 110l10 35h13l-45 -403l-13 2l-2 31q-11 88 -49 123t-145 42l-68 5v-467l148 -9q139 3 235.5 78
t141.5 219l6 19h16l-35 -332h-882zM500 1049q-62 0 -100 42.5t-38 92.5q0 54 38 96.5t100 42.5q65 0 101 -42t36 -97q0 -51 -36.5 -93t-100.5 -42z" />
    <glyph glyph-name="eogonek.smallcap" horiz-adv-x="993" 
d="M698 -498q-84 0 -141 55t-57 138q0 180 256 305h-733l4 12l57 6q74 8 74 25v893q0 8 -14 11t-72 9l-43 5l-4 12h845l13 -326h-17l-4 19q-43 164 -129.5 227.5t-222.5 60.5l-117 -4v-442l86 2q88 1 139.5 37t73.5 110l10 35h13l-45 -401h-13l-2 33q-11 87 -49 121.5
t-145 41.5l-68 5v-467l148 -7q139 1 235 76.5t142 218.5l6 19h16l-35 -332h-106q-168 -99 -168 -244q0 -74 38.5 -113.5t110.5 -39.5q42 0 73 17.5t65 51.5l8 -8q-30 -60 -90.5 -111t-137.5 -51z" />
    <glyph glyph-name="ecaron.smallcap" horiz-adv-x="993" 
d="M483 1004l-297 403h13l286 -197h4l287 197h12l-296 -403h-9zM23 0l4 12l55 6q76 8 76 25v893q0 7 -14.5 10.5t-73.5 9.5l-41 5l-6 12h847l13 -328h-17l-4 19q-43 165 -129.5 229t-222.5 61l-117 -4v-442l86 2q88 1 139.5 37t73.5 110l10 35h13l-45 -403l-13 2l-2 31
q-11 88 -49 123t-145 42l-68 5v-467l148 -9q139 3 235.5 78t141.5 219l6 19h16l-35 -332h-882z" />
    <glyph glyph-name="gcircumflex.smallcap" horiz-adv-x="1136" 
d="M297 993l297 404h8l297 -404h-12l-287 197h-4l-287 -197h-12zM602 -27q-129 0 -235.5 40t-176 109t-107.5 160.5t-38 194.5q0 85 22.5 161t70 141t115.5 112.5t164.5 74.5t211.5 27q69 0 142.5 -17t115.5 -40l106 29l6 -324h-14l-156 285q-70 47 -202 47
q-106 0 -180.5 -64t-110 -172.5t-35.5 -251.5q0 -124 28.5 -221.5t74.5 -154.5t99.5 -86t108.5 -29q46 0 91.5 13t62.5 24v377q0 12 -115 18l-47 6l-4 12h522l-4 -12l-71 -6q-25 -2 -38 -6t-15.5 -7.5t-2.5 -9.5v-319l99 22l2 -8q-96 -53 -236.5 -89t-253.5 -36z" />
    <glyph glyph-name="gbreve.smallcap" horiz-adv-x="1136" 
d="M602 -27q-129 0 -235.5 40t-176 109t-107.5 160.5t-38 194.5q0 85 22.5 161t70 141t115.5 112.5t164.5 74.5t211.5 27q69 0 142.5 -17t115.5 -40l106 29l6 -324h-14l-156 285q-70 47 -202 47q-106 0 -180.5 -64t-110 -172.5t-35.5 -251.5q0 -124 28.5 -221.5t74.5 -154.5
t99.5 -86t108.5 -29q46 0 91.5 13t62.5 24v377q0 12 -115 18l-47 6l-4 12h522l-4 -12l-71 -6q-25 -2 -38 -6t-15.5 -7.5t-2.5 -9.5v-319l99 22l2 -8q-96 -53 -236.5 -89t-253.5 -36zM608 1016q-48 0 -88 19t-68.5 51t-52.5 81t-40.5 102t-30.5 120h10q38 -112 109.5 -165
t164.5 -53t165 53t110 165h10q-17 -86 -39 -148.5t-55 -116t-82 -81t-113 -27.5z" />
    <glyph glyph-name="gdotaccent.smallcap" horiz-adv-x="1136" 
d="M602 -27q-129 0 -235.5 40t-176 109t-107.5 160.5t-38 194.5q0 85 22.5 161t70 141t115.5 112.5t164.5 74.5t211.5 27q69 0 142.5 -17t115.5 -40l106 29l6 -324h-14l-156 285q-70 47 -202 47q-106 0 -180.5 -64t-110 -172.5t-35.5 -251.5q0 -124 28.5 -221.5t74.5 -154.5
t99.5 -86t108.5 -29q46 0 91.5 13t62.5 24v377q0 12 -115 18l-47 6l-4 12h522l-4 -12l-71 -6q-25 -2 -38 -6t-15.5 -7.5t-2.5 -9.5v-319l99 22l2 -8q-96 -53 -236.5 -89t-253.5 -36zM614 1059q-62 0 -99.5 42.5t-37.5 92.5q0 54 37.5 96.5t99.5 42.5q65 0 101.5 -42.5
t36.5 -96.5q0 -51 -37 -93t-101 -42z" />
    <glyph glyph-name="gcommaaccent.smallcap" horiz-adv-x="1136" 
d="M475 -573l-6 10q86 19 130 67.5t44 110.5q0 70 -62.5 97t-121.5 -11q-25 64 14.5 120t124.5 56q83 0 131.5 -49.5t48.5 -126.5q0 -88 -84 -170t-219 -104zM602 -27q-129 0 -235.5 40t-176 109t-107.5 160.5t-38 194.5q0 85 22.5 161t70 141t115.5 112.5t164.5 74.5
t211.5 27q69 0 142.5 -17t115.5 -40l106 29l6 -324h-14l-156 285q-70 47 -202 47q-106 0 -180.5 -64t-110 -172.5t-35.5 -251.5q0 -124 28.5 -221.5t74.5 -154.5t99.5 -86t108.5 -29q46 0 91.5 13t62.5 24v377q0 12 -115 18l-47 6l-4 12h522l-4 -12l-71 -6q-25 -2 -38 -6
t-15.5 -7.5t-2.5 -9.5v-319l99 22l2 -8q-96 -53 -236.5 -89t-253.5 -36z" />
    <glyph glyph-name="hcircumflex.smallcap" horiz-adv-x="1185" 
d="M291 1016l297 403h8l297 -403h-12l-287 196h-4l-287 -196h-12zM23 0l4 12l57 6q74 8 74 25v893q0 7 -14.5 10.5t-73.5 9.5l-41 5l-6 12h503l-4 -12l-57 -7q-72 -8 -72 -22v-426h398v430q0 8 -14 11t-72 9l-41 5l-5 12h504l-4 -12l-59 -7q-72 -8 -72 -22v-893
q0 -9 14.5 -13t73.5 -10l41 -4l4 -12h-504l5 12l57 6q72 8 72 25v436h-398v-440q0 -9 14.5 -13t73.5 -10l39 -4l6 -12h-503z" />
    <glyph glyph-name="hbar.smallcap" horiz-adv-x="1185" 
d="M-12 682l28 78h142v176q0 8 -14 11t-72 9l-43 5l-4 12h501l-4 -12l-57 -7q-72 -8 -72 -22v-172h400v176q0 7 -14 10.5t-72 9.5l-43 5l-5 12h504l-4 -12l-59 -7q-72 -8 -72 -22v-172h168l-27 -78h-141v-643q0 -9 14.5 -13t73.5 -10l41 -4l4 -12h-504l7 12l57 6q72 8 72 25
v436h-400v-440q0 -9 14.5 -13t73.5 -10l39 -4l6 -12h-503l4 12l59 6q72 8 72 25v639h-170zM393 506h400v176h-400v-176z" />
    <glyph glyph-name="igrave.smallcap" horiz-adv-x="593" 
d="M41 0l8 12l57 6q72 8 72 25v893q0 8 -14 11t-72 9l-45 5l-4 12h508l-6 -12l-60 -7q-69 -8 -69 -22v-893q0 -9 14.5 -13t71.5 -10l43 -4l4 -12h-508zM389 1085l-436 383h237l209 -383h-10z" />
    <glyph glyph-name="iacute.smallcap" horiz-adv-x="593" 
d="M41 0l8 12l57 6q72 8 72 25v893q0 8 -14 11t-72 9l-45 5l-4 12h508l-6 -12l-60 -7q-69 -8 -69 -22v-893q0 -9 14.5 -13t71.5 -10l43 -4l4 -12h-508zM197 1085l209 383h237l-436 -383h-10z" />
    <glyph glyph-name="icircumflex.smallcap" horiz-adv-x="593" 
d="M41 0l8 12l57 6q72 8 72 25v893q0 8 -14 11t-72 9l-45 5l-4 12h508l-6 -12l-60 -7q-69 -8 -69 -22v-893q0 -9 14.5 -13t71.5 -10l43 -4l4 -12h-508zM-4 1065l297 403h8l297 -403h-12l-287 197h-4l-287 -197h-12z" />
    <glyph glyph-name="idieresis.smallcap" horiz-adv-x="593" 
d="M41 0l8 12l57 6q72 8 72 25v893q0 8 -14 11t-72 9l-45 5l-4 12h508l-6 -12l-60 -7q-69 -8 -69 -22v-893q0 -9 14.5 -13t71.5 -10l43 -4l4 -12h-508zM498 1114q-56 0 -88.5 37.5t-32.5 83.5t32.5 85.5t88.5 39.5q57 0 90 -39t33 -86q0 -46 -33 -83.5t-90 -37.5zM100 1114
q-56 0 -89.5 37.5t-33.5 83.5t33.5 85.5t89.5 39.5q57 0 90 -39t33 -86q0 -46 -33 -83.5t-90 -37.5z" />
    <glyph glyph-name="imacron.smallcap" horiz-adv-x="593" 
d="M41 0l8 12l57 6q72 8 72 25v893q0 8 -14 11t-72 9l-45 5l-4 12h508l-6 -12l-60 -7q-69 -8 -69 -22v-893q0 -9 14.5 -13t71.5 -10l43 -4l4 -12h-508zM31 1067l26 88h516l-26 -88h-516z" />
    <glyph glyph-name="ibreve.smallcap" horiz-adv-x="593" 
d="M41 0l8 12l57 6q72 8 72 25v893q0 8 -14 11t-72 9l-45 5l-4 12h508l-6 -12l-60 -7q-69 -8 -69 -22v-893q0 -9 14.5 -13t71.5 -10l43 -4l4 -12h-508zM291 1014q-60 0 -106.5 27.5t-79 80.5t-55 116t-40.5 148h10q38 -112 110 -164.5t165 -52.5q200 0 274 217h11
q-17 -86 -39 -148.5t-55 -115.5t-82 -80.5t-113 -27.5z" />
    <glyph glyph-name="iogonek.smallcap" horiz-adv-x="593" 
d="M322 -498q-84 0 -141.5 55t-57.5 138q0 181 258 305h-338l6 12l60 6q71 8 71 25v893q0 7 -14.5 10.5t-73.5 9.5l-45 5l-4 12h508l-6 -12l-60 -7q-69 -8 -69 -22v-893q0 -9 14.5 -13t71.5 -10l43 -4l4 -12q-137 -24 -216 -87.5t-79 -156.5q0 -73 39 -113t110 -40
q42 0 73 17t67 52l6 -8q-30 -60 -90 -111t-137 -51z" />
    <glyph glyph-name="idotaccent.smallcap" horiz-adv-x="593" 
d="M41 0l8 12l57 6q72 8 72 25v893q0 8 -14 11t-72 9l-45 5l-4 12h508l-6 -12l-60 -7q-69 -8 -69 -22v-893q0 -9 14.5 -13t71.5 -10l43 -4l4 -12h-508zM332 1059q-62 0 -99.5 42.5t-37.5 92.5q0 54 37.5 96.5t99.5 42.5q65 0 101 -42t36 -97q0 -51 -36.5 -93t-100.5 -42z
" />
    <glyph glyph-name="dotlessi.smallcap" horiz-adv-x="593" 
d="M41 0l8 12l57 6q72 8 72 25v893q0 8 -14 11t-72 9l-45 5l-4 12h508l-6 -12l-60 -7q-69 -8 -69 -22v-893q0 -9 14.5 -13t71.5 -10l43 -4l4 -12h-508z" />
    <glyph glyph-name="jcircumflex.smallcap" horiz-adv-x="585" 
d="M-6 -279q-72 0 -117 33.5t-45 87.5q0 46 33 79.5t82 33.5q54 0 85.5 -35.5t27 -85t-43.5 -86.5q82 -7 121 85t39 261v842q0 8 -14 11t-74 9l-43 5l-4 12h508l-6 -12l-60 -7q-71 -8 -71 -22v-828q0 -37 -40.5 -102t-100 -127t-136.5 -108t-141 -46zM-6 1008l297 403h8
l297 -403h-12l-287 196h-4l-287 -196h-12z" />
    <glyph glyph-name="jcircumflex.smallcap.alt" horiz-adv-x="817" 
d="M250 1008l297 403h8l297 -403h-12l-287 196h-4l-287 -196h-12zM303 -18q-126 0 -201 46.5t-75 131.5q0 57 35 91t88 34q52 0 86 -32.5t34 -84.5q0 -31 -18 -63.5t-47 -49.5q13 -23 41.5 -40t62.5 -17q73 0 102 49t29 178v711q0 4 -3 6.5t-13 5t-28 4.5t-48 4l-61 5l-4 12
h530l-6 -12l-62 -7q-73 -6 -73 -22v-699q0 -44 -55 -103t-143.5 -103.5t-170.5 -44.5z" />
    <glyph glyph-name="dotlessj.smallcap" horiz-adv-x="585" 
d="M-6 -279q-72 0 -117 33.5t-45 87.5q0 46 33 79.5t82 33.5q54 0 85.5 -35.5t27 -85t-43.5 -86.5q82 -7 121 85t39 261v842q0 8 -14 11t-74 9l-43 5l-4 12h508l-6 -12l-60 -7q-71 -8 -71 -22v-828q0 -37 -40.5 -102t-100 -127t-136.5 -108t-141 -46z" />
    <glyph glyph-name="kcommaaccent.smallcap" horiz-adv-x="1114" 
d="M426 -604l-6 10q86 19 130 67.5t44 110.5q0 70 -63 97t-121 -11q-25 64 14.5 120t124.5 56q83 0 131.5 -49.5t48.5 -126.5q0 -88 -84 -170t-219 -104zM23 0l4 12l59 6q72 8 72 25v893q0 7 -14 10.5t-72 9.5l-43 5l-6 12h512l-7 -12l-63 -7q-72 -6 -72 -22v-477l232 235
q149 153 156 205q6 37 -50 51q-23 6 -63 10l-39 5l-4 12h442l-6 -12l-43 -3q-21 -2 -39 -5.5t-37 -12.5t-32.5 -15t-35.5 -23t-34.5 -27t-40 -36t-42 -40.5l-51 -51l-57.5 -57.5l-12 -12l301 -506q61 -102 92 -128.5t82 -29.5l21 -2l4 -12h-498l4 12l21 2q34 4 48 11.5
t13.5 30.5t-18.5 60t-58 107l-168 289l-88 -88v-385q0 -9 14.5 -13t73.5 -10l47 -4l4 -12h-509z" />
    <glyph glyph-name="lacute.smallcap" horiz-adv-x="923" 
d="M193 1016l208 383h238l-436 -383h-10zM23 0l4 12l59 6q72 8 72 25v893q0 7 -14 10.5t-72 9.5l-43 5l-6 12h526l-6 -12l-78 -7q-72 -9 -72 -22v-907l90 -9q108 0 194.5 77t180.5 261l8 19h13l-50 -373h-806z" />
    <glyph glyph-name="lcommaaccent.smallcap" horiz-adv-x="923" 
d="M336 -612l-6 10q86 19 130 67.5t44 110.5q0 70 -63 97t-122 -11q-25 64 15 120t125 56q83 0 131.5 -49.5t48.5 -126.5q0 -88 -84 -170t-219 -104zM23 0l4 12l59 6q72 8 72 25v893q0 7 -14 10.5t-72 9.5l-43 5l-6 12h526l-6 -12l-78 -7q-72 -9 -72 -22v-907l90 -9
q108 0 194.5 77t180.5 261l8 19h13l-50 -373h-806z" />
    </font>
</defs>
</svg>
