<svg id="Layer_1" data-name="Layer 1" xmlns="http://www.w3.org/2000/svg" viewBox="0 0 489.02 299.61"><defs><style>.cls-1{fill:none;}.cls-2{fill:#fff;}.cls-3{fill:#e5a92f;}.cls-4{fill:#e4a82e;}</style></defs><title>logo whole</title><path class="cls-1" d="M296.43,100.2l0,0Z" transform="translate(-27.39 -23.01)"/><path class="cls-1" d="M241.3,96.66h34.08L275,95.52q-2.65-7-5.37-14-2.94-7.59-5.73-14.58t-5.06-12.8q-2.26-5.82-3.78-9.52c-.68,1.46-1.66,3.76-3,6.91s-2.89,7-4.8,11.46-4,9.58-6.32,15.25-4.81,11.82-7.5,18.45h7.86Z" transform="translate(-27.39 -23.01)"/><path class="cls-1" d="M276.38,101.55a21.53,21.53,0,0,0-.42,2.35c-.12.9-.22,2-.33,3.46s-.23,3.12-.34,5.14q-.17,5.9-.25,12.89T275,138.62v16h3c1.8,0,3.79,0,6-.17s4.46-.25,6.83-.42a43.63,43.63,0,0,0,5.9-.76,31.32,31.32,0,0,0,9.6-3.54,19.1,19.1,0,0,0,3.76-3h-33V145a19.35,19.35,0,0,0,2.44-.34,21,21,0,0,0,4.05-1.18,11.52,11.52,0,0,0,3.7-2.36,5.09,5.09,0,0,0,1.6-3.88,22,22,0,0,0-.93-5c-.61-2.3-1.49-5.12-2.61-8.43s-2.41-7-3.87-11c-1.33-3.69-2.77-7.53-4.29-11.49l-.59-1.35h0l.07.2C276.57,100.65,276.49,101.1,276.38,101.55Z" transform="translate(-27.39 -23.01)"/><path class="cls-2" d="M326.3,146.72v-2a17.42,17.42,0,0,1-6.74-1.52q-.68-.31-1.29-.66v4.2Z" transform="translate(-27.39 -23.01)"/><path class="cls-3" d="M310.06,146.72a19.4,19.4,0,0,1-3.76,3,31.49,31.49,0,0,1-9.61,3.54,43.41,43.41,0,0,1-5.9.76c-2.36.17-4.63.31-6.83.42s-4.19.17-6,.17h-3v-16q0-6.23.09-13.23t.25-12.89c.11-2,.23-3.74.34-5.14s.22-2.56.33-3.46a19.23,19.23,0,0,1,.43-2.35c.11-.45.19-.9.28-1.35l-.07-.2-1.22-3.34h-41.9l-.86,1.69h8.3a69.25,69.25,0,0,1,7.41,1.43,11.42,11.42,0,0,1,5.39,3.45,7.11,7.11,0,0,1,1.6,3.29,31.12,31.12,0,0,1,.85,5.14q.24,2.88.33,6.07c.06,2.14.09,4.21.09,6.23V166.6c0,3.38,0,6.66-.09,9.86s-.11,6.16-.17,8.85-.08,4.83-.08,6.41c0,1.8-.06,3.62-.17,5.48s-.31,3.62-.59,5.31-.59,3.17-.93,4.46a7.44,7.44,0,0,1-1.35,2.95,16.12,16.12,0,0,1-6,4.22,33.88,33.88,0,0,1-7.84,2.18V218h53.93v-1.69a39.47,39.47,0,0,1-10.53-1.6,9.59,9.59,0,0,1-5.14-3.62,16,16,0,0,1-1.93-7.16c-.29-3.2-.48-6.6-.59-10.2,0-1.91,0-4.18-.09-6.83s-.09-5.53-.09-8.67v-20.9H283c1.12,0,2.3,0,3.54.08s2.7.15,4.38.26a28.13,28.13,0,0,1,8.51,1.77,22.75,22.75,0,0,1,6.83,4.3,25.49,25.49,0,0,1,6.07,9.19,77.68,77.68,0,0,1,3.87,11.37h2V130h-2c-.45,2.82-.95,5.43-1.52,7.84a16,16,0,0,1-.48,1.71,20,20,0,0,1-2.38,5A16.8,16.8,0,0,1,310.06,146.72Z" transform="translate(-27.39 -23.01)"/><path class="cls-3" d="M334.62,96.66H295.11l.9,2.41q7.07.18,12.73.88,7.5.92,10.36,2.27a48,48,0,0,1,12.13,8.93,162.73,162.73,0,0,1,13.15,14.67l1.69-.85Z" transform="translate(-27.39 -23.01)"/><path class="cls-2" d="M293.93,93.49c-2.38-6.4-4.81-13-7.32-19.75q-4.31-11.62-9-24.18T267.65,23H266.3c-.45.79-1.1,1.8-1.94,3a33.94,33.94,0,0,1-3.12,3.87,32,32,0,0,1-4.3,3.88,26.91,26.91,0,0,1-5.47,3.2l1.68,3.71q-4,9.43-8.59,20.31t-9.19,21.57q-4.63,10.69-9,20.81t-7.92,18a123,123,0,0,1-6.57,13A36.44,36.44,0,0,1,208,140a16.8,16.8,0,0,1-3.62,2.53,18.66,18.66,0,0,1-7.5,2.35v1.86h35.9V145c-1.46-.23-3-.48-4.63-.76a19.47,19.47,0,0,1-4.56-1.35,10.23,10.23,0,0,1-3.45-2.36,5.07,5.07,0,0,1-1.35-3.62c0-2.47,1.18-6.75,3.55-12.81q2.35-5.91,4.72-11.72t4.88-12.22l.7-1.85h0l.86-1.69h0q4-9.93,7.5-18.45T247.26,63c1.92-4.5,3.52-8.31,4.8-11.46s2.28-5.45,3-6.91q1.51,3.7,3.78,9.52t5.06,12.81q2.77,7,5.73,14.57,2.73,7,5.37,14l.42,1.14,1.21,3.34h0l.6,1.35c1.52,4,2.95,7.81,4.28,11.49,1.47,4,2.75,7.73,3.88,11s2,6.12,2.61,8.43a22,22,0,0,1,.93,5,5.13,5.13,0,0,1-1.6,3.88,11.74,11.74,0,0,1-3.71,2.36,20.68,20.68,0,0,1-4,1.18,21.9,21.9,0,0,1-2.44.34v1.69h33a15.59,15.59,0,0,0,1.8-2.2,19.52,19.52,0,0,0,2.39-5,19.54,19.54,0,0,1-2.61-3,21.36,21.36,0,0,1-1.52-2.36l-3.62-7.84q-1.61-3.45-3.46-8.69-3.48-9.12-6.95-18.45l-.07-.2-.91-2.42Zm2.5,6.71h0l0,0Z" transform="translate(-27.39 -23.01)"/><path class="cls-2" d="M83,322.28v-1.17a16.4,16.4,0,0,0,4.5-1.05,8,8,0,0,0,2.57-1.64,3.54,3.54,0,0,0,1.11-2.69,15.25,15.25,0,0,0-.64-3.45q-.64-2.38-1.81-5.84t-2.69-7.65q-1.51-4.21-3.27-8.77H51.7c-1.17,3-2.3,5.79-3.39,8.48s-2.19,5.39-3.27,8.12c-1.64,4.2-2.46,7.17-2.46,8.88a3.49,3.49,0,0,0,.94,2.51,7.28,7.28,0,0,0,2.39,1.64,13.32,13.32,0,0,0,3.16.93c1.12.2,2.2.37,3.21.53v1.17H27.39V321a12.85,12.85,0,0,0,5.2-1.64,11.31,11.31,0,0,0,2.51-1.75,25.12,25.12,0,0,0,2.69-3.85,84.1,84.1,0,0,0,4.56-9q2.44-5.49,5.49-12.51t6.25-14.43q3.21-7.41,6.37-14.95t6-14.08l-1.17-2.58a18.86,18.86,0,0,0,3.8-2.22,22.33,22.33,0,0,0,3-2.68,24.69,24.69,0,0,0,2.16-2.69c.58-.86,1-1.56,1.34-2.11h.94q3.61,9.7,6.89,18.41t6.26,16.77q3,8.06,5.78,15.6t5.61,14.9q1.27,3.61,2.39,6l2.52,5.43a13.61,13.61,0,0,0,1,1.63,14.42,14.42,0,0,0,2.16,2.4,12.94,12.94,0,0,0,3.33,2.16,11.85,11.85,0,0,0,4.67,1.05v1.41Zm-15.3-70.82c-.47,1-1.16,2.61-2,4.79s-2,4.84-3.33,7.95-2.79,6.64-4.38,10.57l-5.2,12.8H81.84q-2-5.25-4-10.52t-4-10.1l-3.51-8.89Q68.76,254,67.71,251.46Z" transform="translate(-27.39 -23.01)"/><path class="cls-2" d="M154.76,276.29a4.59,4.59,0,0,1-3.51,1.7,6,6,0,0,1-3-.64,9.33,9.33,0,0,1-1.92-1.46,12.25,12.25,0,0,0-1.76-1.47,4.78,4.78,0,0,0-5.31.35,13.06,13.06,0,0,0-2.52,2.52,20.18,20.18,0,0,0-2.1,3.44c-.62,1.29-1.17,2.52-1.64,3.69v33.65a2.85,2.85,0,0,0,1.52,1.64,8.89,8.89,0,0,0,2.63.81,22.87,22.87,0,0,0,3,.29,17.11,17.11,0,0,1,2.75.3v1.17H116.78v-1.17a15.57,15.57,0,0,0,4.62-1.05,2.8,2.8,0,0,0,1.93-2.69v-39.5a4.12,4.12,0,0,0-.18-1.4,2.73,2.73,0,0,0-1-1.05c-.7-.39-1.52-.88-2.46-1.46a18.77,18.77,0,0,0-2.8-1.46v-.71l15.31-6h.7l-.24,16.24h.24c.39-.94,1-2.3,1.87-4.09a34.85,34.85,0,0,1,3.27-5.44,20.49,20.49,0,0,1,4.79-4.73,10.86,10.86,0,0,1,6.43-2,7.35,7.35,0,0,1,5,1.75,5.58,5.58,0,0,1,2.05,4.44A6.14,6.14,0,0,1,154.76,276.29Z" transform="translate(-27.39 -23.01)"/><path class="cls-2" d="M203.49,312.17a24.77,24.77,0,0,1-5.15,5.49,22.41,22.41,0,0,1-6.83,3.68,25.46,25.46,0,0,1-8.24,1.29,24.84,24.84,0,0,1-10.4-2.17,23.43,23.43,0,0,1-8.18-6.07,29.31,29.31,0,0,1-5.32-9.18A32.4,32.4,0,0,1,157.45,294a29.24,29.24,0,0,1,2-10.7,28.94,28.94,0,0,1,5.49-8.93,27,27,0,0,1,8.36-6.2,24.13,24.13,0,0,1,10.57-2.33,31.32,31.32,0,0,1,7.6.93,24.26,24.26,0,0,1,6.66,2.69,15.4,15.4,0,0,1,4.73,4.32,10.08,10.08,0,0,1,1.81,6,6.06,6.06,0,0,1-9.64,4.91,5.25,5.25,0,0,1-2-2.92,11.9,11.9,0,0,0,.58-4,11.21,11.21,0,0,0-2.27-7.18q-2.28-2.86-7.19-2.86a12.49,12.49,0,0,0-6.66,1.86,17.93,17.93,0,0,0-5.26,5,25.88,25.88,0,0,0-3.51,7.36,30.93,30.93,0,0,0-1.28,9,31.67,31.67,0,0,0,1.4,9.64,22.34,22.34,0,0,0,4,7.48,17.7,17.7,0,0,0,6.25,4.79,19.49,19.49,0,0,0,8.24,1.69q7.24,0,11.46-2.39a19.48,19.48,0,0,0,7-7.07l.93.47A24,24,0,0,1,203.49,312.17Z" transform="translate(-27.39 -23.01)"/><path class="cls-2" d="M242.86,274.13H225.1v30.73q0,6,2.57,8.65a8.83,8.83,0,0,0,6.66,2.69,12.51,12.51,0,0,0,5.61-1.11,10.4,10.4,0,0,0,3.86-3.45l.7.35a22.23,22.23,0,0,1-1.93,3.68,13.82,13.82,0,0,1-3.27,3.51,15.36,15.36,0,0,1-4.79,2.45,21.23,21.23,0,0,1-6.49.88,14.51,14.51,0,0,1-4.7-.76,12.15,12.15,0,0,1-4-2.22,13.22,13.22,0,0,1-2.83-3.27,7.07,7.07,0,0,1-1.1-3.68q0-11,.12-20.86t.12-17.59h-8.53v-1.28l16.83-16h.93V267h21.62Z" transform="translate(-27.39 -23.01)"/><path class="cls-2" d="M245.55,322.28v-1.17c.94-.08,1.87-.18,2.81-.3a11.15,11.15,0,0,0,2.51-.58,5.5,5.5,0,0,0,1.87-1.11,2.31,2.31,0,0,0,.76-1.75V277.29a6.69,6.69,0,0,0-.18-1.64,2.34,2.34,0,0,0-1-1.28,20.84,20.84,0,0,0-2.51-1.41c-1-.46-2-.89-3.1-1.28V271l15.77-5.14h.71v52.23a2.51,2.51,0,0,0,1,1.69,5,5,0,0,0,1.81.76,12.23,12.23,0,0,0,2.28.29,15.61,15.61,0,0,1,2.39.3v1.17Zm16.77-70.41a6.35,6.35,0,0,1-8.94-.06,6,6,0,0,1-1.87-4.44,5.91,5.91,0,0,1,1.81-4.44,6.66,6.66,0,0,1,9,0,5.91,5.91,0,0,1,1.81,4.44A6.09,6.09,0,0,1,262.32,251.87Z" transform="translate(-27.39 -23.01)"/><path class="cls-2" d="M321.5,312.17a24.49,24.49,0,0,1-5.14,5.49,22.41,22.41,0,0,1-6.83,3.68,25.51,25.51,0,0,1-8.24,1.29,24.84,24.84,0,0,1-10.4-2.17,23.43,23.43,0,0,1-8.18-6.07,29.31,29.31,0,0,1-5.32-9.18A32.4,32.4,0,0,1,275.47,294a29.24,29.24,0,0,1,2-10.7,28.94,28.94,0,0,1,5.49-8.93,27,27,0,0,1,8.36-6.2,24.13,24.13,0,0,1,10.57-2.33,31.38,31.38,0,0,1,7.6.93,24.26,24.26,0,0,1,6.66,2.69,15.4,15.4,0,0,1,4.73,4.32,10.08,10.08,0,0,1,1.81,6,6.06,6.06,0,0,1-9.64,4.91,5.25,5.25,0,0,1-2-2.92,11.9,11.9,0,0,0,.58-4,11.16,11.16,0,0,0-2.28-7.18q-2.28-2.86-7.18-2.86a12.49,12.49,0,0,0-6.66,1.86,17.93,17.93,0,0,0-5.26,5,25.88,25.88,0,0,0-3.51,7.36,30.93,30.93,0,0,0-1.28,9,31.36,31.36,0,0,0,1.4,9.64,22.16,22.16,0,0,0,4,7.48,17.7,17.7,0,0,0,6.25,4.79,19.49,19.49,0,0,0,8.24,1.69q7.25,0,11.46-2.39a19.48,19.48,0,0,0,7-7.07l.93.47A23.72,23.72,0,0,1,321.5,312.17Z" transform="translate(-27.39 -23.01)"/><path class="cls-4" d="M401.2,258.36a114.27,114.27,0,0,0-9.12-10.17,33,33,0,0,0-8.41-6.19,26.82,26.82,0,0,0-7.19-1.58,99.4,99.4,0,0,0-12.09-.64c-.78,0-1.68,0-2.69.06l-2.92.11-2.63.12c-.82,0-1.42.06-1.81.06-.08.47-.17.93-.29,1.4a12,12,0,0,0-.29,1.64c-.08.62-.16,1.42-.24,2.39s-.16,2.16-.23,3.57q-.12,4.08-.18,8.93t-.06,9.18v11.1h2.11c1.24,0,2.63,0,4.15-.12s3.09-.17,4.73-.29a29.86,29.86,0,0,0,4.09-.53,21.82,21.82,0,0,0,6.66-2.45,12.36,12.36,0,0,0,3.86-3.62,14,14,0,0,0,2-4.62q.58-2.5,1.05-5.43h1.41V298.9h-1.41A54.42,54.42,0,0,0,379,291a17.71,17.71,0,0,0-4.21-6.37,15.71,15.71,0,0,0-4.73-3,20,20,0,0,0-5.9-1.23l-3-.17q-1.29-.06-2.46-.06h-5.61V294.7q0,3.27.06,6c0,1.83.06,3.41.06,4.73q.12,3.74.41,7.07a11.11,11.11,0,0,0,1.34,5,6.62,6.62,0,0,0,3.57,2.52,27.75,27.75,0,0,0,7.3,1.11v1.17H328.4v-1.17a23.57,23.57,0,0,0,5.43-1.52,11.13,11.13,0,0,0,4.15-2.92,5.37,5.37,0,0,0,.94-2.05c.23-.89.44-1.93.64-3.09s.33-2.4.41-3.69.11-2.55.11-3.79,0-2.57.06-4.44.08-3.92.12-6.14.06-4.5.06-6.83V257.07q0-2.1-.06-4.32c0-1.48-.12-2.88-.23-4.21a22.57,22.57,0,0,0-.59-3.56,4.94,4.94,0,0,0-1.11-2.28,7.93,7.93,0,0,0-3.74-2.4,48.35,48.35,0,0,0-5.14-1v-1.17h65l7.95,19.63Z" transform="translate(-27.39 -23.01)"/><path class="cls-4" d="M455.53,304.92a30.33,30.33,0,0,1-6,9.29,26.9,26.9,0,0,1-8.7,6.2,25.35,25.35,0,0,1-10.46,2.22A29.86,29.86,0,0,1,421,321a26.66,26.66,0,0,1-9.06-5.2,27.17,27.17,0,0,1-6.78-9.11,30.21,30.21,0,0,1-2.63-13,27.2,27.2,0,0,1,2-10.4,27.72,27.72,0,0,1,26.11-17.41,27.91,27.91,0,0,1,18.17,7,27.06,27.06,0,0,1,6.43,8.65,27.67,27.67,0,0,1,2.51,12.21A28.93,28.93,0,0,1,455.53,304.92ZM446,285a31,31,0,0,0-2.86-8.41,18.74,18.74,0,0,0-5.26-6.37,12.81,12.81,0,0,0-8.06-2.51,11.08,11.08,0,0,0-6.9,2.33,20.36,20.36,0,0,0-5.2,6.14,31.78,31.78,0,0,0-3.27,8.53,42.05,42.05,0,0,0-1.11,9.64,53.23,53.23,0,0,0,.93,10.16,27.9,27.9,0,0,0,3,8.48,17,17,0,0,0,5.38,5.84,13.88,13.88,0,0,0,7.83,2.16,11.07,11.07,0,0,0,7.65-2.75,20.83,20.83,0,0,0,5-6.89,36.73,36.73,0,0,0,2.8-8.94,49.92,49.92,0,0,0,.88-8.88A45.68,45.68,0,0,0,446,285Z" transform="translate(-27.39 -23.01)"/><path class="cls-4" d="M513.14,268.52a7.48,7.48,0,0,0-2.92.94,17,17,0,0,0-3.56,2.8,65.77,65.77,0,0,0-5.21,6c-1.16,1.48-2.16,2.77-3,3.86l-2.28,3c-.7.93-1.4,1.89-2.11,2.86s-1.52,2.12-2.45,3.45c1,2,1.95,3.83,2.8,5.43s1.74,3.12,2.63,4.56,1.81,2.94,2.75,4.5,1.95,3.27,3,5.14a56.76,56.76,0,0,0,3.62,5.61,12.92,12.92,0,0,0,2.92,2.92,6.66,6.66,0,0,0,2.86,1.11c1,.11,2.17.21,3.57.29v1.29H488.6V321c.39,0,.86,0,1.4-.06a6,6,0,0,0,1.64-.35,3.8,3.8,0,0,0,1.52-1.05,4.21,4.21,0,0,0,.93-2.28,10.59,10.59,0,0,0-1-3.5q-.87-2-2.1-4.39c-.82-1.59-1.72-3.25-2.69-5s-1.93-3.43-2.86-5.14c-.94,1.4-2,3-3.28,4.73s-2.43,3.47-3.56,5.14a46.72,46.72,0,0,0-2.8,4.67A8.05,8.05,0,0,0,474.7,317a4.64,4.64,0,0,0,2.45,3.21,14.89,14.89,0,0,0,4.67.76v1.29H459V321c.93,0,1.89,0,2.86-.06a8.14,8.14,0,0,0,3.1-.82,17.72,17.72,0,0,0,3.79-2.57,38.81,38.81,0,0,0,5.09-5.43q3.39-4.1,6.13-7.89t4.62-6.48c-1.25-2.11-2.36-4-3.33-5.73s-1.95-3.41-2.92-5.08-1.95-3.37-2.92-5.09-2.09-3.62-3.33-5.72c-.55-.86-1.15-1.75-1.82-2.69s-1.26-1.71-1.81-2.34a10.78,10.78,0,0,0-4.5-2c-1.52-.27-3-.53-4.49-.76V267h27.92v1.29a9.3,9.3,0,0,0-1.28.12,9.51,9.51,0,0,0-1.7.41,5.44,5.44,0,0,0-1.69.93,4.31,4.31,0,0,0-1.29,1.69,13.88,13.88,0,0,0,.88,2.52q.76,1.82,2.1,4.38l3,5.67c1.09,2.06,2.26,4.11,3.51,6.13q1.63-2.46,3.45-5.14c1.2-1.79,2.29-3.51,3.27-5.14s1.81-3.12,2.51-4.44a7.39,7.39,0,0,0,1.05-2.92,3.75,3.75,0,0,0-2.1-3.22,16.37,16.37,0,0,0-5-1V267h22.32v1.29Z" transform="translate(-27.39 -23.01)"/></svg>