<svg id="Layer_1" data-name="Layer 1" xmlns="http://www.w3.org/2000/svg" viewBox="0 0 205.16 268.12"><defs><style>.cls-1{fill:none;}.cls-2{fill:#fff;}.cls-3{fill:#e5a92f;}</style></defs><title>logo ICON-03</title><path class="cls-1" d="M155.82,112.88l0-.07Z" transform="translate(-18.91 -6.75)"/><path class="cls-1" d="M80,108h46.86l-.57-1.57q-3.66-9.64-7.39-19.29-4.05-10.43-7.88-20t-7-17.61q-3.12-8-5.21-13.09-1.4,3-4.06,9.5t-6.6,15.76q-3.94,9.27-8.69,21L69.21,108H80Z" transform="translate(-18.91 -6.75)"/><path class="cls-1" d="M128.25,114.73a27.35,27.35,0,0,0-.58,3.24c-.16,1.24-.31,2.82-.46,4.75s-.31,4.29-.46,7.07q-.24,8.11-.35,17.73t-.12,18.19v22h4.17c2.47,0,5.21-.07,8.23-.23s6.14-.35,9.39-.58a60.26,60.26,0,0,0,8.11-1A43.17,43.17,0,0,0,169.39,181a26.42,26.42,0,0,0,5.17-4.17H129.22v-2.32a26.1,26.1,0,0,0,3.36-.47,28.21,28.21,0,0,0,5.56-1.62,16,16,0,0,0,5.1-3.25,7,7,0,0,0,2.2-5.33,30.53,30.53,0,0,0-1.28-6.84q-1.28-4.74-3.59-11.59t-5.33-15.18c-1.83-5.07-3.8-10.35-5.89-15.8l-.82-1.85h0l.1.28C128.51,113.5,128.4,114.12,128.25,114.73Z" transform="translate(-18.91 -6.75)"/><path class="cls-2" d="M196.89,176.84v-2.78a24.1,24.1,0,0,1-9.27-2.08c-.62-.29-1.21-.59-1.78-.91v5.77Z" transform="translate(-18.91 -6.75)"/><path class="cls-3" d="M174.55,176.84a26.42,26.42,0,0,1-5.17,4.17,43.17,43.17,0,0,1-13.21,4.87,60.48,60.48,0,0,1-8.11,1c-3.24.23-6.37.43-9.39.58s-5.76.23-8.23.23h-4.17v-22q0-8.57.12-18.19t.35-17.73c.15-2.78.31-5.14.46-7.07s.31-3.51.46-4.75a27,27,0,0,1,.58-3.24c.16-.62.27-1.23.39-1.85l-.1-.28L126.86,108H69.25l-1.18,2.32h11.4a96,96,0,0,1,10.2,2,15.71,15.71,0,0,1,7.41,4.75,9.81,9.81,0,0,1,2.2,4.52,43.46,43.46,0,0,1,1.16,7.07q.34,3.95.46,8.34c.08,2.94.12,5.79.12,8.57v58.63c0,4.64,0,9.15-.12,13.56s-.16,8.46-.23,12.17-.12,6.64-.12,8.81q0,3.71-.23,7.53t-.81,7.3c-.39,2.32-.81,4.37-1.28,6.14a10.46,10.46,0,0,1-1.85,4.06,22.12,22.12,0,0,1-8.23,5.79,46.73,46.73,0,0,1-10.78,3v2.32h74.16v-2.32q-9.51-.46-14.48-2.2t-7.07-5q-2.08-3.24-2.66-9.85t-.81-14c0-2.63,0-5.75-.12-9.39s-.12-7.61-.12-11.93V191.45H137.4c1.54,0,3.16,0,4.87.11s3.71.2,6,.35a39,39,0,0,1,11.7,2.44,31.32,31.32,0,0,1,9.39,5.91q4.88,4.41,8.34,12.63a107.71,107.71,0,0,1,5.33,15.64h2.78V153.9h-2.78q-.93,5.81-2.09,10.78c-.19.8-.41,1.58-.66,2.35a27.42,27.42,0,0,1-3.28,6.81A21.81,21.81,0,0,1,174.55,176.84Z" transform="translate(-18.91 -6.75)"/><path class="cls-3" d="M208.32,108H154l1.24,3.32q9.7.24,17.5,1.2Q183,113.81,187,115.66a65.8,65.8,0,0,1,16.68,12.28,225.74,225.74,0,0,1,18.08,20.16l2.32-1.16Z" transform="translate(-18.91 -6.75)"/><path class="cls-2" d="M152.38,103.65c-3.27-8.8-6.62-17.82-10.07-27.15q-5.91-16-12.4-33.25T116.24,6.75h-1.85q-.93,1.62-2.67,4.17a47.72,47.72,0,0,1-4.29,5.33,44,44,0,0,1-5.91,5.33A37.49,37.49,0,0,1,94,26l2.32,5.1Q90.74,44.05,84.49,59T71.86,88.66l-12.4,28.62q-6,13.91-10.89,24.8a168,168,0,0,1-9,17.84,50.19,50.19,0,0,1-5.33,7.65c-.46.62-2.13,1.78-5,3.48a25.66,25.66,0,0,1-10.31,3.24v2.55H68.27v-2.32q-3-.47-6.37-1.05a26.46,26.46,0,0,1-6.26-1.85,14.12,14.12,0,0,1-4.75-3.25,7,7,0,0,1-1.85-5q0-5.08,4.87-17.61,3.24-8.11,6.49-16.11t6.72-16.8l1-2.55h0L69.26,108h-.05q5.57-13.66,10.31-25.37t8.69-21q3.95-9.27,6.6-15.76t4.06-9.5q2.09,5.1,5.21,13.09t7,17.61q3.82,9.62,7.88,20,3.75,9.64,7.39,19.29l.57,1.57,1.67,4.59h0l.82,1.85c2.09,5.45,4.06,10.74,5.89,15.8q3,8.34,5.33,15.18T144.17,157a30.53,30.53,0,0,1,1.28,6.84,7,7,0,0,1-2.2,5.33,16.15,16.15,0,0,1-5.1,3.25,31.8,31.8,0,0,1-8.92,2.09v2.32h45.34a22.1,22.1,0,0,0,2.48-3,27.09,27.09,0,0,0,3.28-6.81,28.05,28.05,0,0,1-3.59-4.08,31.43,31.43,0,0,1-2.09-3.25l-5-10.78q-2.21-4.74-4.75-11.94-4.78-12.54-9.56-25.37l-.1-.28L154,108Zm3.44,9.23h0l0-.07Z" transform="translate(-18.91 -6.75)"/></svg>