<svg width="114" height="80" viewBox="0 0 114 80" fill="none" xmlns="http://www.w3.org/2000/svg">
<path d="M30.0547 27.7969C30.0547 28.7266 29.8203 29.6094 29.3516 30.4453C28.8828 31.2734 28.1523 31.9453 27.1602 32.4609C26.1758 32.9766 24.9023 33.2344 23.3398 33.2344C22.5586 33.2344 21.8711 33.1992 21.2773 33.1289C20.6914 33.0586 20.1445 32.9453 19.6367 32.7891C19.1289 32.625 18.6016 32.4141 18.0547 32.1562V28.0312C18.9844 28.5 19.9219 28.8594 20.8672 29.1094C21.8125 29.3516 22.668 29.4727 23.4336 29.4727C23.8945 29.4727 24.2695 29.418 24.5586 29.3086C24.8555 29.1992 25.0742 29.0508 25.2148 28.8633C25.3555 28.668 25.4258 28.4453 25.4258 28.1953C25.4258 27.8984 25.3203 27.6484 25.1094 27.4453C24.9062 27.2344 24.5781 27.0156 24.125 26.7891C23.6719 26.5625 23.0742 26.2812 22.332 25.9453C21.6992 25.6484 21.125 25.3438 20.6094 25.0312C20.1016 24.7188 19.6641 24.3633 19.2969 23.9648C18.9375 23.5586 18.6602 23.0859 18.4648 22.5469C18.2695 22.0078 18.1719 21.3711 18.1719 20.6367C18.1719 19.5352 18.4414 18.6133 18.9805 17.8711C19.5273 17.1211 20.2852 16.5586 21.2539 16.1836C22.2305 15.8086 23.3555 15.6211 24.6289 15.6211C25.7461 15.6211 26.75 15.7461 27.6406 15.9961C28.5391 16.2461 29.3438 16.5312 30.0547 16.8516L28.6367 20.4258C27.9023 20.0898 27.1797 19.8242 26.4688 19.6289C25.7578 19.4258 25.0977 19.3242 24.4883 19.3242C24.0898 19.3242 23.7617 19.375 23.5039 19.4766C23.2539 19.5703 23.0664 19.6992 22.9414 19.8633C22.8242 20.0273 22.7656 20.2148 22.7656 20.4258C22.7656 20.6914 22.8672 20.9297 23.0703 21.1406C23.2812 21.3516 23.6289 21.582 24.1133 21.832C24.6055 22.0742 25.2734 22.3906 26.1172 22.7812C26.9531 23.1562 27.6641 23.5625 28.25 24C28.8359 24.4297 29.2812 24.9492 29.5859 25.5586C29.8984 26.1602 30.0547 26.9062 30.0547 27.7969ZM38.9375 29.6133C39.3516 29.6133 39.7305 29.5703 40.0742 29.4844C40.418 29.3984 40.7773 29.2891 41.1523 29.1562V32.4961C40.6523 32.7148 40.1211 32.8906 39.5586 33.0234C39.0039 33.1641 38.293 33.2344 37.4258 33.2344C36.5664 33.2344 35.8086 33.1016 35.1523 32.8359C34.4961 32.5625 33.9844 32.0938 33.6172 31.4297C33.2578 30.7578 33.0781 29.8242 33.0781 28.6289V23.1562H31.4727V21.293L33.5117 19.8516L34.6953 17.0625H37.6953V19.7227H40.9531V23.1562H37.6953V28.3242C37.6953 28.7539 37.8047 29.0781 38.0234 29.2969C38.2422 29.5078 38.5469 29.6133 38.9375 29.6133ZM56.3867 19.7227V33H52.9297L52.3555 31.3477H52.0859C51.8125 31.793 51.4648 32.1562 51.043 32.4375C50.6289 32.7109 50.168 32.9102 49.6602 33.0352C49.1523 33.168 48.625 33.2344 48.0781 33.2344C47.2109 33.2344 46.4258 33.0664 45.7227 32.7305C45.0273 32.3945 44.4727 31.8672 44.0586 31.1484C43.6523 30.4297 43.4492 29.5039 43.4492 28.3711V19.7227H48.0312V26.9766C48.0312 27.8359 48.1523 28.4922 48.3945 28.9453C48.6445 29.3906 49.0508 29.6133 49.6133 29.6133C50.1914 29.6133 50.6367 29.457 50.9492 29.1445C51.2695 28.832 51.4922 28.3711 51.6172 27.7617C51.7422 27.1523 51.8047 26.4102 51.8047 25.5352V19.7227H56.3867ZM63.6758 33.2344C62.3086 33.2344 61.1836 32.6523 60.3008 31.4883C59.418 30.3242 58.9766 28.6211 58.9766 26.3789C58.9766 24.1133 59.4297 22.3984 60.3359 21.2344C61.2422 20.0703 62.4141 19.4883 63.8516 19.4883C64.4453 19.4883 64.957 19.5742 65.3867 19.7461C65.8164 19.918 66.1875 20.1523 66.5 20.4492C66.8203 20.7383 67.0977 21.0664 67.332 21.4336H67.4258C67.3711 21.0977 67.3203 20.6367 67.2734 20.0508C67.2266 19.457 67.2031 18.8789 67.2031 18.3164V14.7656H71.8203V33H68.3633L67.3789 31.3242H67.2031C66.9922 31.6758 66.7266 31.9961 66.4062 32.2852C66.0938 32.5742 65.7109 32.8047 65.2578 32.9766C64.8125 33.1484 64.2852 33.2344 63.6758 33.2344ZM65.5508 29.6133C66.2852 29.6133 66.8008 29.3828 67.0977 28.9219C67.4023 28.4531 67.5664 27.7422 67.5898 26.7891V26.4258C67.5898 25.3789 67.4414 24.5781 67.1445 24.0234C66.8555 23.4609 66.3086 23.1797 65.5039 23.1797C64.957 23.1797 64.5039 23.4453 64.1445 23.9766C63.7852 24.5078 63.6055 25.332 63.6055 26.4492C63.6055 27.5508 63.7852 28.3555 64.1445 28.8633C64.5117 29.3633 64.9805 29.6133 65.5508 29.6133ZM79.6016 19.7227V33H75.0195V19.7227H79.6016ZM77.3281 14.3789C77.9844 14.3789 78.5547 14.5156 79.0391 14.7891C79.5312 15.0625 79.7773 15.6055 79.7773 16.418C79.7773 17.207 79.5312 17.7422 79.0391 18.0234C78.5547 18.2969 77.9844 18.4336 77.3281 18.4336C76.6562 18.4336 76.082 18.2969 75.6055 18.0234C75.1367 17.7422 74.9023 17.207 74.9023 16.418C74.9023 15.6055 75.1367 15.0625 75.6055 14.7891C76.082 14.5156 76.6562 14.3789 77.3281 14.3789ZM95.4805 26.332C95.4805 27.4414 95.3281 28.4258 95.0234 29.2852C94.7188 30.1445 94.2773 30.8672 93.6992 31.4531C93.1211 32.0391 92.4219 32.4844 91.6016 32.7891C90.7812 33.0859 89.8555 33.2344 88.8242 33.2344C87.8633 33.2344 86.9805 33.0859 86.1758 32.7891C85.3789 32.4844 84.6836 32.0391 84.0898 31.4531C83.4961 30.8672 83.0352 30.1445 82.707 29.2852C82.3867 28.4258 82.2266 27.4414 82.2266 26.332C82.2266 24.8633 82.4922 23.6211 83.0234 22.6055C83.5625 21.5898 84.3281 20.8164 85.3203 20.2852C86.3203 19.7539 87.5117 19.4883 88.8945 19.4883C90.168 19.4883 91.3008 19.7539 92.293 20.2852C93.2852 20.8164 94.0625 21.5898 94.625 22.6055C95.1953 23.6211 95.4805 24.8633 95.4805 26.332ZM86.8789 26.332C86.8789 27.0898 86.9453 27.7305 87.0781 28.2539C87.2109 28.7695 87.4219 29.1641 87.7109 29.4375C88.0078 29.7031 88.3945 29.8359 88.8711 29.8359C89.3477 29.8359 89.7266 29.7031 90.0078 29.4375C90.2891 29.1641 90.4922 28.7695 90.6172 28.2539C90.75 27.7305 90.8164 27.0898 90.8164 26.332C90.8164 25.5742 90.75 24.9414 90.6172 24.4336C90.4922 23.9258 90.2852 23.543 89.9961 23.2852C89.7148 23.0273 89.332 22.8984 88.8477 22.8984C88.1523 22.8984 87.6484 23.1875 87.3359 23.7656C87.0312 24.3438 86.8789 25.1992 86.8789 26.332ZM24.1953 66.2344C23.0391 66.2344 22.0195 65.9961 21.1367 65.5195C20.2539 65.043 19.5664 64.3164 19.0742 63.3398C18.582 62.3633 18.3359 61.1328 18.3359 59.6484C18.3359 58.0938 18.5938 56.8242 19.1094 55.8398C19.6328 54.8477 20.3516 54.1133 21.2656 53.6367C22.1797 53.1602 23.2188 52.9219 24.3828 52.9219C25.0234 52.9219 25.6406 52.9883 26.2344 53.1211C26.8359 53.2461 27.3281 53.4062 27.7109 53.6016L27.125 55.2305C26.7344 55.0742 26.2812 54.9336 25.7656 54.8086C25.2578 54.6836 24.7812 54.6211 24.3359 54.6211C23.4453 54.6211 22.7031 54.8125 22.1094 55.1953C21.5234 55.5781 21.082 56.1406 20.7852 56.8828C20.4961 57.625 20.3516 58.5391 20.3516 59.625C20.3516 60.6641 20.4922 61.5508 20.7734 62.2852C21.0625 63.0195 21.4883 63.582 22.0508 63.9727C22.6211 64.3555 23.332 64.5469 24.1836 64.5469C24.8633 64.5469 25.4766 64.4766 26.0234 64.3359C26.5703 64.1875 27.0664 64.0156 27.5117 63.8203V65.5547C27.082 65.7734 26.6016 65.9414 26.0703 66.0586C25.5469 66.1758 24.9219 66.2344 24.1953 66.2344ZM41.6328 59.5547C41.6328 60.6094 41.4961 61.5508 41.2227 62.3789C40.9492 63.207 40.5547 63.9062 40.0391 64.4766C39.5234 65.0469 38.8984 65.4844 38.1641 65.7891C37.4375 66.0859 36.6133 66.2344 35.6914 66.2344C34.832 66.2344 34.043 66.0859 33.3242 65.7891C32.6133 65.4844 31.9961 65.0469 31.4727 64.4766C30.957 63.9062 30.5547 63.207 30.2656 62.3789C29.9844 61.5508 29.8438 60.6094 29.8438 59.5547C29.8438 58.1484 30.082 56.9531 30.5586 55.9688C31.0352 54.9766 31.7148 54.2227 32.5977 53.707C33.4883 53.1836 34.5469 52.9219 35.7734 52.9219C36.9453 52.9219 37.9688 53.1836 38.8438 53.707C39.7266 54.2305 40.4102 54.9883 40.8945 55.9805C41.3867 56.9648 41.6328 58.1562 41.6328 59.5547ZM31.8594 59.5547C31.8594 60.5859 31.9961 61.4805 32.2695 62.2383C32.543 62.9961 32.9648 63.582 33.5352 63.9961C34.1055 64.4102 34.8398 64.6172 35.7383 64.6172C36.6289 64.6172 37.3594 64.4102 37.9297 63.9961C38.5078 63.582 38.9336 62.9961 39.207 62.2383C39.4805 61.4805 39.6172 60.5859 39.6172 59.5547C39.6172 58.5312 39.4805 57.6484 39.207 56.9062C38.9336 56.1562 38.5117 55.5781 37.9414 55.1719C37.3711 54.7656 36.6328 54.5625 35.7266 54.5625C34.3906 54.5625 33.4102 55.0039 32.7852 55.8867C32.168 56.7695 31.8594 57.9922 31.8594 59.5547ZM49.5664 66.2344C47.9414 66.2344 46.6523 65.6797 45.6992 64.5703C44.7539 63.4609 44.2812 61.8125 44.2812 59.625C44.2812 57.4141 44.7656 55.7461 45.7344 54.6211C46.7031 53.4883 47.9922 52.9219 49.6016 52.9219C50.2812 52.9219 50.875 53.0117 51.3828 53.1914C51.8906 53.3711 52.3281 53.6133 52.6953 53.918C53.0625 54.2148 53.3711 54.5547 53.6211 54.9375H53.7617C53.7305 54.6953 53.6992 54.3633 53.668 53.9414C53.6367 53.5195 53.6211 53.1758 53.6211 52.9102V47.7656H55.5664V66H53.9961L53.7031 64.1719H53.6211C53.3789 64.5547 53.0703 64.9023 52.6953 65.2148C52.3281 65.5273 51.8867 65.7773 51.3711 65.9648C50.8633 66.1445 50.2617 66.2344 49.5664 66.2344ZM49.8711 64.6172C51.2461 64.6172 52.2188 64.2266 52.7891 63.4453C53.3594 62.6641 53.6445 61.5039 53.6445 59.9648V59.6133C53.6445 57.9805 53.3711 56.7266 52.8242 55.8516C52.2852 54.9766 51.3008 54.5391 49.8711 54.5391C48.6758 54.5391 47.7812 55 47.1875 55.9219C46.5938 56.8359 46.2969 58.0859 46.2969 59.6719C46.2969 61.25 46.5898 62.4688 47.1758 63.3281C47.7695 64.1875 48.668 64.6172 49.8711 64.6172ZM64.6367 52.9219C65.7305 52.9219 66.668 53.1641 67.4492 53.6484C68.2305 54.1328 68.8281 54.8125 69.2422 55.6875C69.6562 56.5547 69.8633 57.5703 69.8633 58.7344V59.9414H60.9922C61.0156 61.4492 61.3906 62.5977 62.1172 63.3867C62.8438 64.1758 63.8672 64.5703 65.1875 64.5703C66 64.5703 66.7188 64.4961 67.3438 64.3477C67.9688 64.1992 68.6172 63.9805 69.2891 63.6914V65.4023C68.6406 65.6914 67.9961 65.9023 67.3555 66.0352C66.7227 66.168 65.9727 66.2344 65.1055 66.2344C63.8711 66.2344 62.793 65.9844 61.8711 65.4844C60.957 64.9766 60.2461 64.2344 59.7383 63.2578C59.2305 62.2812 58.9766 61.0859 58.9766 59.6719C58.9766 58.2891 59.207 57.0938 59.668 56.0859C60.1367 55.0703 60.793 54.2891 61.6367 53.7422C62.4883 53.1953 63.4883 52.9219 64.6367 52.9219ZM64.6133 54.5156C63.5742 54.5156 62.7461 54.8555 62.1289 55.5352C61.5117 56.2148 61.1445 57.1641 61.0273 58.3828H67.8242C67.8164 57.6172 67.6953 56.9453 67.4609 56.3672C67.2344 55.7812 66.8867 55.3281 66.418 55.0078C65.9492 54.6797 65.3477 54.5156 64.6133 54.5156ZM91.5781 64.7812C91.5781 64.2344 91.7109 63.8477 91.9766 63.6211C92.2422 63.3867 92.5664 63.2695 92.9492 63.2695C93.3477 63.2695 93.6836 63.3867 93.957 63.6211C94.2305 63.8477 94.3672 64.2344 94.3672 64.7812C94.3672 65.3203 94.2305 65.7148 93.957 65.9648C93.6836 66.207 93.3477 66.3281 92.9492 66.3281C92.5664 66.3281 92.2422 66.207 91.9766 65.9648C91.7109 65.7148 91.5781 65.3203 91.5781 64.7812Z" fill="#FE7020"/>
<rect x="0.5" y="0.5" width="112.455" height="79" stroke="#FE7020"/>
</svg>
