<svg width="141" height="116" viewBox="0 0 141 116" fill="none" xmlns="http://www.w3.org/2000/svg">
<path fill-rule="evenodd" clip-rule="evenodd" d="M26.9151 0L48.5172 21.8185L70.1192 0L91.7213 21.8185L113.323 0L140.238 27.1847L129.612 37.9172L113.323 21.465L91.7213 43.2835L70.1192 21.465L48.5172 43.2835L26.9151 21.465L10.6261 37.9172L0 27.1847L26.9151 0Z" fill="#5F676D"/>
<path fill-rule="evenodd" clip-rule="evenodd" d="M26.9151 38.0938L48.5172 59.0395L70.1192 38.0938L91.7213 59.0395L113.323 38.0938L140.238 64.1911L129.612 74.4943L113.323 58.7002L91.7213 79.6459L70.1192 58.7002L48.5172 79.6459L26.9151 58.7002L10.6261 74.4943L0 64.1911L26.9151 38.0938Z" fill="#929AA0"/>
<path fill-rule="evenodd" clip-rule="evenodd" d="M26.9151 74.4453L48.5172 95.391L70.1192 74.4453L91.7213 95.391L113.323 74.4453L140.238 100.543L129.612 110.846L113.323 95.0517L91.7213 115.997L70.1192 95.0517L48.5172 115.997L26.9151 95.0517L10.6261 110.846L0 100.543L26.9151 74.4453Z" fill="#C8CDD0"/>
</svg>
