<svg width="141" height="116" viewBox="0 0 141 116" fill="none" xmlns="http://www.w3.org/2000/svg">
<path fill-rule="evenodd" clip-rule="evenodd" d="M26.9151 0L48.5172 21.8185L70.1192 0L91.7213 21.8185L113.323 0L140.238 27.1847L129.612 37.9172L113.323 21.465L91.7213 43.2835L70.1192 21.465L48.5172 43.2835L26.9151 21.465L10.6261 37.9172L0 27.1847L26.9151 0Z" fill="#929AA0"/>
<rect x="21" y="100" width="17.5298" height="16" fill="white"/>
<rect x="21" y="80" width="17.5298" height="16" fill="white"/>
<rect x="21" y="60" width="17.5298" height="16" fill="white"/>
<rect x="61" y="100" width="17.5298" height="16" fill="white"/>
<rect x="61" y="80" width="17.5298" height="16" fill="white"/>
<rect x="61" y="60" width="17.5298" height="16" fill="white"/>
<rect x="102" y="100" width="17.5298" height="16" fill="white"/>
<rect x="102" y="80" width="17.5298" height="16" fill="white"/>
<rect x="102" y="60" width="17.5298" height="16" fill="white"/>
</svg>
