<svg width="70" height="70" viewBox="0 0 70 70" fill="none" xmlns="http://www.w3.org/2000/svg">
<path d="M14.5833 14.5833H32.0833C33.6875 14.5833 35 13.2708 35 11.6667C35 10.0625 33.6875 8.75 32.0833 8.75H14.5833C11.375 8.75 8.75 11.375 8.75 14.5833V55.4167C8.75 58.625 11.375 61.25 14.5833 61.25H32.0833C33.6875 61.25 35 59.9375 35 58.3333C35 56.7292 33.6875 55.4167 32.0833 55.4167H14.5833V14.5833Z" fill="rgba(255, 255, 255, 0.9)"/>
<path d="M60.2292 33.9794L52.0917 25.8419C51.1583 24.9085 49.5833 25.5502 49.5833 26.8627V32.0835H29.1667C27.5625 32.0835 26.25 33.396 26.25 35.0002C26.25 36.6044 27.5625 37.9169 29.1667 37.9169H49.5833V43.1377C49.5833 44.4502 51.1583 45.0919 52.0625 44.1585L60.2 36.021C60.7833 35.4669 60.7833 34.5335 60.2292 33.9794Z" fill="rgba(255, 255, 255, 0.9)"/>
</svg>
