<svg width="95" height="65" viewBox="0 0 95 65" fill="none" xmlns="http://www.w3.org/2000/svg">
<path d="M38.1967 38.4092H31.1891L27.3803 59.3291L24.0684 38.7889H14.2436L10.7787 59.254L7.27376 38.4092H0L6.32212 64.5591H15.4992L19.0418 44.2065L22.3537 64.5591H31.493L38.1967 38.4092Z" fill="#22054F"/>
<path d="M63.4196 59.3797H49.8077L63.2669 43.9273V38.4092H40.8329V44.0266H53.6901L40.0781 59.7304V65.0001H63.4196V59.3797Z" fill="#22054F"/>
<path d="M72.5983 22.0679L72.6002 22.0698L89.746 11.9304V11.9266C90.0784 11.7345 90.3038 11.3809 90.3038 10.9721C90.3038 10.6052 90.1223 10.2839 89.8453 10.0824V10.0786L89.8339 10.0728C89.7823 10.0348 89.725 10.0044 89.6658 9.97588L72.5926 0.186323C72.4149 0.0703461 72.2028 0 71.9755 0C71.3623 0 70.8636 0.496228 70.8636 1.10653V21.1553C70.8636 21.7656 71.3623 22.2599 71.9755 22.2599C72.2067 22.2599 72.4206 22.1895 72.5983 22.0679Z" fill="#EDA056"/>
<path d="M49.8876 30.3825L69.2151 35.2802L69.2189 35.2764C69.5895 35.3752 70.0002 35.284 70.2906 34.995C70.5504 34.7364 70.6517 34.379 70.6001 34.0424L70.602 34.0406L70.5982 34.0272C70.5867 33.9645 70.5695 33.9018 70.5485 33.8409L65.4287 14.9044C65.3885 14.6972 65.2873 14.4995 65.1249 14.3378C64.6912 13.9063 63.9882 13.9063 63.5546 14.3378L49.3087 28.5155C48.8751 28.9471 48.877 29.6468 49.3106 30.0783C49.473 30.2399 49.6755 30.3426 49.8876 30.3825Z" fill="#FB0AE8"/>
<path d="M78.553 23.9931L73.6318 43.2281L73.6356 43.2319C73.5363 43.6007 73.628 44.0095 73.9183 44.2985C74.1781 44.559 74.5373 44.6597 74.8754 44.6065L74.8774 44.6084L74.8888 44.6046C74.9538 44.5932 75.0149 44.5761 75.0779 44.5552L94.1055 39.4617C94.3137 39.4199 94.5124 39.3191 94.6748 39.1594C95.1085 38.7278 95.1085 38.0262 94.6748 37.5947L80.429 23.4189C79.9953 22.9873 79.2923 22.9873 78.8586 23.4189C78.6943 23.5824 78.5931 23.782 78.553 23.9931Z" fill="#9660DB"/>
</svg>
