<svg width="956" height="414" viewBox="0 0 956 414" fill="none" xmlns="http://www.w3.org/2000/svg">
<path d="M825.303 129.462L825.314 129.473L925.347 69.9901V69.9678C927.286 68.8412 928.601 66.7666 928.601 64.3686C928.601 62.2159 927.542 60.3309 925.926 59.1486V59.1263L925.859 59.0928C925.558 58.8697 925.224 58.6913 924.878 58.524L825.27 1.09307C824.233 0.412688 822.996 0 821.67 0C818.092 0 815.183 2.91114 815.183 6.49151V124.108C815.183 127.689 818.092 130.589 821.67 130.589C823.018 130.589 824.267 130.176 825.303 129.462Z" fill="#EDA056"/>
<path d="M692.803 178.238L805.564 206.971L805.586 206.948C807.749 207.528 810.145 206.993 811.839 205.297C813.355 203.781 813.946 201.684 813.645 199.709L813.656 199.698L813.634 199.62C813.567 199.252 813.466 198.884 813.344 198.527L783.473 87.4353C783.239 86.2196 782.649 85.0596 781.701 84.1115C779.171 81.5796 775.069 81.5796 772.539 84.1115L689.426 167.285C686.896 169.817 686.907 173.922 689.437 176.454C690.385 177.402 691.566 178.004 692.803 178.238Z" fill="#FB0AE8"/>
<path d="M860.044 140.761L831.333 253.604L831.355 253.626C830.776 255.79 831.311 258.188 833.005 259.884C834.521 261.412 836.616 262.003 838.589 261.69L838.6 261.702L838.667 261.679C839.046 261.612 839.402 261.512 839.77 261.389L950.781 231.508C951.996 231.263 953.155 230.672 954.102 229.735C956.633 227.203 956.633 223.087 954.102 220.555L870.989 137.393C868.459 134.861 864.357 134.861 861.827 137.393C860.869 138.352 860.278 139.523 860.044 140.761Z" fill="#9660DB"/>
<path d="M191.917 217.308H156.708L137.571 323.001L120.931 219.226H71.5664L54.1568 322.622L36.5467 217.308H0L31.7652 349.425H77.8748L95.6745 246.598L112.315 349.425H158.235L191.917 217.308Z" fill="white"/>
<path d="M299.815 296.957C299.815 270.534 282.595 244.501 248.545 244.501C214.484 244.501 194.009 268.816 194.009 298.686C194.009 334.679 217.348 352.102 246.628 352.102C272.842 352.102 291.968 339.085 297.909 315.919H264.037C262.7 323.771 256.77 328.746 247.007 328.746C237.254 328.746 229.787 323.961 228.07 306.918H299.246C299.625 303.471 299.815 300.025 299.815 296.957ZM246.817 267.857C256.001 267.857 261.931 273.791 263.848 285.859H229.218C231.514 273.222 237.823 267.857 246.817 267.857Z" fill="white"/>
<path d="M382.847 244.501C372.515 244.501 362.573 246.598 356.833 250.814L349.176 262.112V208.686H314.736V349.424H349.176V336.207L355.875 347.127C361.035 350.194 370.988 352.101 379.403 352.101C405.618 352.101 427.82 332.381 427.82 295.998C427.82 265.749 410.6 244.501 382.847 244.501ZM370.03 328.745C359.698 328.745 349.176 321.852 349.176 301.363V296.957C349.176 275.519 358.36 267.857 370.988 267.857C383.048 267.857 392.611 278.575 392.611 297.727C392.611 318.595 383.427 328.745 370.03 328.745Z" fill="white"/>
<path d="M527.497 327.975H475.836L526.917 269.005V247.947H441.775V269.385H490.571L438.911 329.314V349.424H527.497V327.975Z" fill="white"/>
<path d="M628.134 327.975H576.474L627.555 269.005V247.947H542.413V269.385H591.209L539.549 329.314V349.424H628.134V327.975Z" fill="white"/>
<path d="M677.681 208.686H643.24V313.23C643.24 320.893 643.24 326.068 643.631 331.422C644.388 345.019 653.383 351.343 669.266 351.343C676.923 351.343 683.042 350.952 689.361 350.384V327.016C680.367 327.407 678.639 326.068 678.071 322.042C677.681 319.555 677.681 317.446 677.681 312.661V208.686Z" fill="white"/>
<path d="M802.43 296.957C802.43 270.534 785.21 244.501 751.16 244.501C717.099 244.501 696.624 268.816 696.624 298.686C696.624 334.679 719.963 352.102 749.243 352.102C775.457 352.102 794.583 339.085 800.524 315.919H766.652C765.315 323.771 759.385 328.746 749.622 328.746C739.869 328.746 732.402 323.961 730.685 306.918H801.861C802.24 303.471 802.43 300.025 802.43 296.957ZM749.432 267.857C758.616 267.857 764.546 273.791 766.463 285.859H731.833C734.129 273.222 740.438 267.857 749.432 267.857Z" fill="white"/>
<path d="M441.849 396.321C444.012 395.585 445.427 394.246 445.427 391.703C445.427 388.703 443.555 387.019 440.222 386.562C439.208 386.439 438.483 386.439 437.469 386.439H431.261V407.564H438.049C439.03 407.564 439.698 407.564 440.746 407.408C443.532 406.984 446.185 405.211 446.185 401.351C446.185 398.44 444.625 396.968 441.849 396.321ZM433.891 388.58H437.681C438.171 388.58 438.818 388.58 439.364 388.636C441.259 388.848 442.607 389.83 442.607 391.915C442.607 393.778 441.816 395.072 439.643 395.406C439.03 395.496 438.506 395.529 437.96 395.529H433.891V388.58ZM439.921 405.356C439.52 405.389 438.94 405.423 438.45 405.423H433.891V397.671H438.26C438.751 397.671 439.241 397.704 439.943 397.793C441.972 398.072 443.376 399.02 443.376 401.619C443.376 403.917 441.939 405.177 439.921 405.356Z" fill="white"/>
<path d="M462.96 398.987C462.96 394.247 460.475 390.9 456.006 390.9C451.57 390.9 448.293 394.247 448.293 399.511C448.293 405.233 451.447 407.988 455.671 407.988C459.004 407.988 462.102 406.248 462.737 402.333H459.985C459.617 404.653 457.9 405.969 455.794 405.969C453.409 405.969 451.391 404.53 451.146 400.247H462.894C462.96 399.667 462.96 399.232 462.96 398.987ZM455.95 392.93C458.614 392.93 460.051 394.86 460.297 398.228H451.168C451.48 394.76 453.375 392.93 455.95 392.93Z" fill="white"/>
<path d="M472.713 390.9C468.644 390.9 465.089 394.001 465.089 399.478C465.089 405.423 468.21 407.988 472.311 407.988C475.923 407.988 478.62 406.159 479.411 402.389H476.658C476.112 404.742 474.607 405.969 472.467 405.969C470.049 405.969 467.965 404.017 467.965 399.299C467.965 394.916 470.116 392.93 472.657 392.93C474.819 392.93 476.235 394.18 476.814 396.79H479.567C479.077 393.232 476.602 390.9 472.713 390.9Z" fill="white"/>
<path d="M489.321 390.9C483.815 390.9 481.274 394.86 481.274 399.444C481.274 404.017 483.815 407.988 489.321 407.988C494.838 407.988 497.379 404.017 497.379 399.444C497.379 394.86 494.838 390.9 489.321 390.9ZM489.321 405.969C486.055 405.969 484.149 403.248 484.149 399.444C484.149 395.618 486.055 392.93 489.321 392.93C492.598 392.93 494.492 395.618 494.492 399.444C494.492 403.248 492.598 405.969 489.321 405.969Z" fill="white"/>
<path d="M522.129 394.86C521.761 392.618 520.111 390.9 517.202 390.9C515.765 390.9 514.594 391.179 513.77 391.86L512.332 393.934C511.719 392.161 510.136 390.9 507.651 390.9C506.213 390.9 505.054 391.179 504.229 391.86L503.181 393.689V391.335H500.551V407.564H503.181V399.545C503.181 394.615 504.686 392.986 506.737 392.986C508.576 392.986 509.735 393.879 509.98 395.708C510.069 396.544 510.103 397.425 510.103 398.864V407.564H512.733V399.545C512.733 394.615 514.227 392.986 516.277 392.986C518.116 392.986 519.276 393.879 519.521 395.708C519.621 396.544 519.643 397.425 519.643 398.864V407.564H522.285V397.637C522.285 396.321 522.251 395.685 522.129 394.86Z" fill="white"/>
<path d="M528.024 386.004C527.077 386.004 526.341 386.74 526.341 387.688C526.341 388.636 527.077 389.372 528.024 389.372C528.971 389.372 529.707 388.636 529.707 387.688C529.707 386.74 528.971 386.004 528.024 386.004ZM529.339 407.564V391.335H526.709V407.564H529.339Z" fill="white"/>
<path d="M547.644 395.652C547.399 392.808 545.404 390.9 541.859 390.9C540.21 390.9 539.006 391.179 537.635 392.25L536.621 394.124V391.335H533.99V407.564H536.621V400.426C536.621 394.882 538.761 392.986 541.302 392.986C543.821 392.986 544.858 394.392 545.014 396.299C545.069 397.124 545.069 397.793 545.069 398.619V407.564H547.7V398.44C547.7 397.124 547.7 396.477 547.644 395.652Z" fill="white"/>
<path d="M566.299 391.335H563.669V393.566L562.599 391.971C561.774 391.302 560.058 390.9 558.709 390.9C554.518 390.9 550.785 393.689 550.785 399.69C550.785 404.441 553.415 407.988 558.163 407.988C559.813 407.988 561.529 407.475 562.443 406.705L563.669 404.965V405.233C563.669 405.724 563.669 406.248 563.647 407.018C563.524 410.141 561.774 411.97 558.564 411.97C555.778 411.97 554.184 410.598 553.972 408.601L553.939 408.334H551.275L551.309 408.635C551.643 412.07 553.939 414 558.564 414C563.246 414 566.121 411.479 566.277 406.739C566.299 405.846 566.299 404.597 566.299 403.582V391.335ZM558.564 405.969C555.321 405.969 553.66 403.058 553.66 399.388C553.66 395.128 555.867 392.93 558.709 392.93C561.039 392.93 563.669 394.514 563.669 398.719V399.6C563.669 404.251 561.25 405.969 558.564 405.969Z" fill="white"/>
<path d="M586.864 407.564H589.494C589.249 405.757 589.193 404.653 589.193 403.426V397.336C589.193 396.633 589.16 395.83 589.093 395.195C588.826 392.529 587.198 390.9 583.342 390.9C579.764 390.9 577.346 392.897 577.1 396.355H579.853C580.043 394.124 581.135 392.93 583.342 392.93C585.515 392.93 586.374 393.901 586.496 395.407C586.552 396.02 586.552 396.667 586.552 397.37V397.793H585.515C579.151 397.793 576.398 399.69 576.398 403.37C576.398 406.371 578.694 407.988 581.626 407.988C583.186 407.988 584.601 407.743 585.705 406.984L586.585 405.233L586.864 407.564ZM582.517 405.969C580.522 405.969 579.274 405.11 579.274 403.158C579.274 400.37 582.094 399.422 586.552 399.757V401.407C586.552 404.352 584.969 405.969 582.517 405.969Z" fill="white"/>
<path d="M621.99 391.335H619.17L615.414 404.965L611.803 391.335H608.526L604.97 405.055L601.214 391.335H598.182L603.354 407.564H606.475L610.086 393.901L613.697 407.564H616.818L621.99 391.335Z" fill="white"/>
<path d="M637.748 398.987C637.748 394.247 635.262 390.9 630.793 390.9C626.357 390.9 623.08 394.247 623.08 399.511C623.08 405.233 626.234 407.988 630.458 407.988C633.791 407.988 636.889 406.248 637.525 402.333H634.772C634.404 404.653 632.687 405.969 630.581 405.969C628.196 405.969 626.178 404.53 625.933 400.247H637.681C637.748 399.667 637.748 399.232 637.748 398.987ZM630.737 392.93C633.401 392.93 634.839 394.86 635.084 398.228H625.955C626.268 394.76 628.162 392.93 630.737 392.93Z" fill="white"/>
<path d="M649.372 390.9C647.712 390.9 645.995 391.424 645.081 392.194L643.855 393.934V385.055H641.225V407.564H643.855V405.333L644.925 406.917C645.761 407.597 647.467 407.987 648.815 407.987C653.006 407.987 656.74 405.21 656.74 399.198C656.74 394.458 654.109 390.9 649.372 390.9ZM648.815 405.969C646.486 405.969 643.855 404.374 643.855 400.18V399.299C643.855 394.636 646.274 392.93 648.971 392.93C652.215 392.93 653.864 395.83 653.864 399.511C653.864 403.771 651.657 405.969 648.815 405.969Z" fill="white"/>
<path d="M680.693 385.055H678.062V393.566L676.992 391.971C676.168 391.301 674.451 390.9 673.103 390.9C668.912 390.9 665.178 393.688 665.178 399.689C665.178 404.441 667.808 407.987 672.556 407.987C674.206 407.987 675.922 407.474 676.836 406.705L678.062 404.965V407.564H680.693V385.055ZM672.958 405.969C669.714 405.969 668.054 403.057 668.054 399.388C668.054 395.127 670.26 392.93 673.103 392.93C675.432 392.93 678.062 394.514 678.062 398.719V399.6C678.062 404.251 675.644 405.969 672.958 405.969Z" fill="white"/>
<path d="M698.661 398.987C698.661 394.247 696.176 390.9 691.706 390.9C687.27 390.9 683.994 394.247 683.994 399.511C683.994 405.233 687.148 407.988 691.372 407.988C694.705 407.988 697.803 406.248 698.438 402.333H695.685C695.318 404.653 693.601 405.969 691.495 405.969C689.11 405.969 687.092 404.53 686.847 400.247H698.594C698.661 399.667 698.661 399.232 698.661 398.987ZM691.651 392.93C694.315 392.93 695.752 394.86 695.998 398.228H686.869C687.181 394.76 689.076 392.93 691.651 392.93Z" fill="white"/>
<path d="M715.424 391.335H712.638L707.767 405.635L702.819 391.335H699.91L706.062 407.564H709.272L715.424 391.335Z" fill="white"/>
<path d="M731.183 398.987C731.183 394.247 728.698 390.9 724.229 390.9C719.793 390.9 716.516 394.247 716.516 399.511C716.516 405.233 719.67 407.988 723.894 407.988C727.227 407.988 730.325 406.248 730.961 402.333H728.208C727.84 404.653 726.123 405.969 724.017 405.969C721.632 405.969 719.614 404.53 719.369 400.247H731.117C731.183 399.667 731.183 399.232 731.183 398.987ZM724.173 392.93C726.837 392.93 728.274 394.86 728.52 398.228H719.391C719.703 394.76 721.598 392.93 724.173 392.93Z" fill="white"/>
<path d="M737.169 385.055H734.538V403.002C734.538 403.894 734.538 404.597 734.572 405.143C734.661 407.196 735.798 407.686 737.325 407.686C737.938 407.686 738.606 407.653 739.197 407.564V405.667C737.748 405.824 737.269 405.478 737.202 404.441C737.169 403.916 737.169 403.403 737.169 402.912V385.055Z" fill="white"/>
<path d="M748.916 390.9C743.41 390.9 740.869 394.86 740.869 399.444C740.869 404.017 743.41 407.988 748.916 407.988C754.433 407.988 756.975 404.017 756.975 399.444C756.975 394.86 754.433 390.9 748.916 390.9ZM748.916 405.969C745.651 405.969 743.745 403.248 743.745 399.444C743.745 395.618 745.651 392.93 748.916 392.93C752.193 392.93 754.088 395.618 754.088 399.444C754.088 403.248 752.193 405.969 748.916 405.969Z" fill="white"/>
<path d="M768.294 390.9C766.633 390.9 764.917 391.425 764.003 392.194L762.777 393.934V391.335H760.146V413.565H762.777V405.333L763.847 406.917C764.683 407.598 766.388 407.988 767.737 407.988C771.927 407.988 775.661 405.211 775.661 399.199C775.661 394.459 773.031 390.9 768.294 390.9ZM767.737 405.969C765.407 405.969 762.777 404.374 762.777 400.18V399.299C762.777 394.637 765.195 392.93 767.893 392.93C771.136 392.93 772.786 395.83 772.786 399.511C772.786 403.772 770.579 405.969 767.737 405.969Z" fill="white"/>
<path d="M792.159 398.987C792.159 394.247 789.673 390.9 785.204 390.9C780.768 390.9 777.491 394.247 777.491 399.511C777.491 405.233 780.645 407.988 784.869 407.988C788.202 407.988 791.3 406.248 791.936 402.333H789.183C788.815 404.653 787.099 405.969 784.992 405.969C782.607 405.969 780.589 404.53 780.344 400.247H792.092C792.159 399.667 792.159 399.232 792.159 398.987ZM785.148 392.93C787.812 392.93 789.25 394.86 789.495 398.228H780.367C780.679 394.76 782.573 392.93 785.148 392.93Z" fill="white"/>
<path d="M802 390.967C801.242 390.967 800.406 391.245 799.737 391.703L798.266 393.878V391.335H795.636V407.563H798.266V398.317C798.266 394.614 800.35 392.985 803.103 393.175V391.179C802.803 391.022 802.435 390.967 802 390.967Z" fill="white"/>
</svg>
