<svg width="24" height="24" viewBox="0 0 24 24" fill="none" xmlns="http://www.w3.org/2000/svg">
<path d="M21.2764 3.6687C21.3739 3.71919 21.4556 3.79545 21.5127 3.88919C21.5699 3.98292 21.6002 4.09053 21.6004 4.2003V16.2003C21.6004 16.304 21.5736 16.4059 21.5225 16.4961C21.4714 16.5864 21.3977 16.6618 21.3088 16.7151L15.3088 20.3151C15.2184 20.3692 15.1154 20.3986 15.0101 20.4003C14.9048 20.402 14.8008 20.3759 14.7088 20.3247L9.29679 17.3175C9.20897 17.2617 9.10717 17.2319 9.00314 17.2315C8.8991 17.2311 8.79707 17.26 8.70879 17.3151L8.69199 17.3247L3.29199 20.3247C3.20066 20.3755 3.09764 20.4015 2.99314 20.4003C2.88865 20.399 2.78629 20.3705 2.69621 20.3175C2.60613 20.2645 2.53145 20.1889 2.47956 20.0982C2.42768 20.0075 2.40039 19.9048 2.40039 19.8003V8.4003C2.40028 8.30378 2.42346 8.20865 2.46795 8.123C2.51245 8.03735 2.57695 7.9637 2.65599 7.9083L8.65599 3.7083C8.75691 3.63756 8.87715 3.59961 9.00039 3.59961C9.12363 3.59961 9.24388 3.63756 9.34479 3.7083L15.0004 7.6683L20.656 3.7083C20.7461 3.64544 20.8516 3.6085 20.9613 3.60152C21.0709 3.59454 21.1803 3.61777 21.2776 3.6687H21.2764ZM3.60039 8.7123V18.7803L8.10039 16.2807C8.19759 16.2231 8.29839 16.1751 8.40039 16.1379V5.3523L3.60039 8.7123ZM9.89799 16.2795L14.4052 18.7827L14.4004 8.7123L9.60039 5.3523V16.1403C9.70239 16.1763 9.80199 16.2231 9.89799 16.2795ZM15.6052 18.7383L20.4004 15.8607V5.3523L15.6004 8.7123L15.6052 18.7383Z" fill="white"/>
</svg>
