<svg width="1440" height="5782" viewBox="0 0 1440 5782" fill="none" xmlns="http://www.w3.org/2000/svg">
<path opacity="0.7" fill-rule="evenodd" clip-rule="evenodd" d="M96.9684 1679L564.859 2132.67L1032.75 1679L1500.64 2132.67L1968.53 1679L2551.5 2244.26L2321.34 2467.42L1968.53 2125.33L1500.64 2579L1032.75 2125.33L564.859 2579L96.9684 2125.33L-255.844 2467.42L-486 2244.26L96.9684 1679Z" fill="#181A1B"/>
<path opacity="0.45" fill-rule="evenodd" clip-rule="evenodd" d="M228.968 817L696.859 1270.67L1164.75 817L1632.64 1270.67L2100.53 817L2683.5 1382.26L2453.34 1605.42L2100.53 1263.33L1632.64 1717L1164.75 1263.33L696.859 1717L228.968 1263.33L-123.844 1605.42L-354 1382.26L228.968 817Z" fill="#474D52"/>
<path opacity="0.35" fill-rule="evenodd" clip-rule="evenodd" d="M96.9684 0L564.859 453.675L1032.75 0L1500.64 453.675L1968.53 0L2551.5 565.256L2321.34 788.419L1968.53 446.325L1500.64 900L1032.75 446.325L564.859 900L96.9684 446.325L-255.844 788.419L-486 565.256L96.9684 0Z" fill="#929AA0"/>
<path opacity="0.45" fill-rule="evenodd" clip-rule="evenodd" d="M184.968 4882L652.859 5335.67L1120.75 4882L1588.64 5335.67L2056.53 4882L2639.5 5447.26L2409.34 5670.42L2056.53 5328.33L1588.64 5782L1120.75 5328.33L652.859 5782L184.968 5328.33L-167.844 5670.42L-398 5447.26L184.968 4882Z" fill="#474D52"/>
<path opacity="0.7" fill-rule="evenodd" clip-rule="evenodd" d="M96.9684 4137L564.859 4590.67L1032.75 4137L1500.64 4590.67L1968.53 4137L2551.5 4702.26L2321.34 4925.42L1968.53 4583.33L1500.64 5037L1032.75 4583.33L564.859 5037L96.9684 4583.33L-255.844 4925.42L-486 4702.26L96.9684 4137Z" fill="#181A1B"/>
<path opacity="0.45" fill-rule="evenodd" clip-rule="evenodd" d="M96.9684 4137L564.859 4590.67L1032.75 4137L1500.64 4590.67L1968.53 4137L2551.5 4702.26L2321.34 4925.42L1968.53 4583.33L1500.64 5037L1032.75 4583.33L564.859 5037L96.9684 4583.33L-255.844 4925.42L-486 4702.26L96.9684 4137Z" fill="#474D52"/>
<path opacity="0.35" fill-rule="evenodd" clip-rule="evenodd" d="M228.968 3275L696.859 3728.67L1164.75 3275L1632.64 3728.67L2100.53 3275L2683.5 3840.26L2453.34 4063.42L2100.53 3721.33L1632.64 4175L1164.75 3721.33L696.859 4175L228.968 3721.33L-123.844 4063.42L-354 3840.26L228.968 3275Z" fill="#929AA0"/>
<path opacity="0.45" fill-rule="evenodd" clip-rule="evenodd" d="M96.9684 2458L564.859 2911.67L1032.75 2458L1500.64 2911.67L1968.53 2458L2551.5 3023.26L2321.34 3246.42L1968.53 2904.33L1500.64 3358L1032.75 2904.33L564.859 3358L96.9684 2904.33L-255.844 3246.42L-486 3023.26L96.9684 2458Z" fill="#474D52"/>
</svg>
