<svg width="31" height="21" viewBox="0 0 31 21" fill="none" xmlns="http://www.w3.org/2000/svg">
<path d="M15.5 6.3C14.3789 6.3 13.3036 6.7425 12.5109 7.53015C11.7181 8.3178 11.2727 9.38609 11.2727 10.5C11.2727 11.6139 11.7181 12.6822 12.5109 13.4698C13.3036 14.2575 14.3789 14.7 15.5 14.7C16.6211 14.7 17.6964 14.2575 18.4891 13.4698C19.2819 12.6822 19.7273 11.6139 19.7273 10.5C19.7273 9.38609 19.2819 8.3178 18.4891 7.53015C17.6964 6.7425 16.6211 6.3 15.5 6.3ZM15.5 17.5C13.6314 17.5 11.8394 16.7625 10.5181 15.4497C9.19683 14.137 8.45455 12.3565 8.45455 10.5C8.45455 8.64348 9.19683 6.86301 10.5181 5.55025C11.8394 4.2375 13.6314 3.5 15.5 3.5C17.3686 3.5 19.1606 4.2375 20.4819 5.55025C21.8032 6.86301 22.5455 8.64348 22.5455 10.5C22.5455 12.3565 21.8032 14.137 20.4819 15.4497C19.1606 16.7625 17.3686 17.5 15.5 17.5V17.5ZM15.5 0C8.45455 0 2.43773 4.354 0 10.5C2.43773 16.646 8.45455 21 15.5 21C22.5455 21 28.5623 16.646 31 10.5C28.5623 4.354 22.5455 0 15.5 0Z" fill="#474A7B"/>
</svg>
