<svg width="24" height="23" viewBox="0 0 24 23" fill="none" xmlns="http://www.w3.org/2000/svg">
<path d="M4.96729 18.049L10.4472 18.0303L22.4079 6.18385C22.8773 5.71446 23.1356 5.0911 23.1356 4.42799C23.1356 3.76489 22.8773 3.14152 22.4079 2.67213L20.4385 0.702686C19.4997 -0.236091 17.8618 -0.231124 16.9305 0.69896L4.96729 12.5479V18.049V18.049ZM18.6826 2.45855L20.6558 4.42427L18.6727 6.38874L16.7032 4.42054L18.6826 2.45855ZM7.45082 13.5836L14.9387 6.16647L16.9081 8.13591L9.42151 15.5505L7.45082 15.5567V13.5836Z" fill="#474A7B"/>
<path d="M2.48354 23H19.8683C21.238 23 22.3518 21.8862 22.3518 20.5165V9.75284L19.8683 12.2364V20.5165H6.40504C6.37276 20.5165 6.33923 20.5289 6.30694 20.5289C6.26596 20.5289 6.22498 20.5177 6.18276 20.5165H2.48354V3.13173H10.9859L13.4695 0.648193H2.48354C1.11387 0.648193 0 1.76206 0 3.13173V20.5165C0 21.8862 1.11387 23 2.48354 23Z" fill="#474A7B"/>
</svg>
