<svg width="44" height="44" viewBox="0 0 44 44" fill="none" xmlns="http://www.w3.org/2000/svg">
<path d="M35.6321 20.2848C36.7862 21.4533 36.7862 23.3325 35.6321 24.501L31.129 29.0605C30.7173 29.4773 30.0444 29.4773 29.6328 29.0605V29.0605C29.2286 28.6512 29.2283 27.9931 29.6321 27.5835L32.673 24.4991C33.8245 23.3311 33.8245 21.4547 32.673 20.2867L29.6321 17.2023C29.2283 16.7927 29.2286 16.1346 29.6328 15.7253V15.7253C30.0444 15.3086 30.7173 15.3086 31.129 15.7253L35.6321 20.2848ZM8.36772 24.501C7.21366 23.3325 7.21366 21.4533 8.36772 20.2848L12.8709 15.7253C13.2825 15.3086 13.9554 15.3086 14.3671 15.7253V15.7253C14.7713 16.1346 14.7716 16.7927 14.3677 17.2023L11.3269 20.2867C10.1753 21.4547 10.1753 23.3311 11.3269 24.4991L14.3677 27.5835C14.7716 27.9931 14.7713 28.6512 14.3671 29.0605V29.0605C13.9554 29.4773 13.2825 29.4773 12.8709 29.0605L8.36772 24.501ZM19.256 32.7249C18.6992 32.5743 18.3686 32.0023 18.5162 31.4447L23.4482 12.8054C23.597 12.2432 24.1748 11.9095 24.736 12.0616V12.0616C25.2926 12.2124 25.6229 12.7843 25.4754 13.3418L20.5431 31.9811C20.3944 32.543 19.817 32.8766 19.256 32.7249V32.7249Z" fill="#FE7020"/>
<path d="M34.9207 23.7983L30.4175 28.3578C30.3973 28.3782 30.3644 28.3782 30.3443 28.3578C30.3245 28.3378 30.3245 28.3056 30.3443 28.2855L33.3851 25.2012C34.9205 23.6438 34.9205 21.142 33.3851 19.5847L30.3443 16.5003C30.3245 16.4802 30.3245 16.4481 30.3443 16.428C30.3644 16.4077 30.3973 16.4077 30.4175 16.428L34.9207 20.9875C35.69 21.7665 35.69 23.0193 34.9207 23.7983ZM9.07921 20.9875L13.5824 16.428C13.6025 16.4077 13.6354 16.4077 13.6556 16.428C13.6753 16.4481 13.6754 16.4802 13.6556 16.5003L10.6148 19.5847C9.07937 21.142 9.07937 23.6438 10.6148 25.2012L13.6556 28.2855C13.6754 28.3056 13.6753 28.3378 13.6556 28.3578C13.6354 28.3782 13.6025 28.3782 13.5824 28.3578L9.07921 23.7983C8.30983 23.0193 8.30983 21.7665 9.07921 20.9875ZM19.4829 31.7005L24.415 13.0612C24.4218 13.0352 24.4485 13.0198 24.4745 13.0268C24.5002 13.0338 24.5155 13.0602 24.5087 13.086L19.5764 31.7253C19.5695 31.7512 19.5429 31.7666 19.517 31.7596C19.4913 31.7526 19.4761 31.7263 19.4829 31.7005Z" fill="#FE7020" stroke="#FE7020" stroke-width="2"/>
<circle cx="22" cy="22" r="21" stroke="#FE7020" stroke-width="2"/>
<circle cx="22" cy="22" r="21" stroke="#FE7020" stroke-width="2"/>
</svg>
