<svg width="48" height="48" viewBox="0 0 48 48" fill="none" xmlns="http://www.w3.org/2000/svg">
<circle cx="24" cy="24" r="23" fill="#FE7020" stroke="#FE7020" stroke-width="2"/>
<path d="M39.0606 22.3205C40.2146 23.489 40.2146 25.3682 39.0606 26.5367L33.9587 31.7023C33.5097 32.157 32.7756 32.157 32.3266 31.7023C31.8856 31.2558 31.8853 30.5379 32.3258 30.091L35.8319 26.5348C36.9834 25.3668 36.9834 23.4904 35.8319 22.3224L32.3258 18.7662C31.8853 18.3193 31.8856 17.6014 32.3266 17.1549C32.7756 16.7002 33.5097 16.7002 33.9587 17.1549L39.0606 22.3205ZM8.93901 26.5367C7.78495 25.3682 7.78495 23.489 8.93901 22.3205L14.0409 17.1549C14.4899 16.7002 15.224 16.7002 15.673 17.1549C16.114 17.6014 16.1143 18.3193 15.6737 18.7662L12.1677 22.3224C11.0161 23.4904 11.0161 25.3668 12.1677 26.5348L15.6737 30.091C16.1143 30.5379 16.114 31.2558 15.673 31.7023C15.224 32.157 14.4899 32.157 14.0409 31.7023L8.93901 26.5367ZM21.0064 35.6999C20.399 35.5356 20.0384 34.9116 20.1993 34.3033L25.5798 13.9695C25.742 13.3562 26.3723 12.9922 26.9846 13.1581C27.5918 13.3226 27.9521 13.9465 27.7912 14.5546L22.4105 34.8884C22.2483 35.5014 21.6184 35.8654 21.0064 35.6999Z" fill="#FAFBFF"/>
</svg>
