<?xml version="1.0" standalone="no"?>
<!DOCTYPE svg PUBLIC "-//W3C//DTD SVG 20010904//EN"
 "http://www.w3.org/TR/2001/REC-SVG-20010904/DTD/svg10.dtd">
<svg version="1.0" xmlns="http://www.w3.org/2000/svg"
 width="564.000000pt" height="564.000000pt" viewBox="0 0 564.000000 564.000000"
 preserveAspectRatio="xMidYMid meet">
<metadata>
Created by potrace 1.14, written by Peter Selinger 2001-2017
</metadata>
<g transform="translate(0.000000,564.000000) scale(0.100000,-0.100000)"
fill="#000000" stroke="none">
<path d="M2582 5389 c-341 -30 -708 -141 -1005 -302 -375 -205 -723 -531 -952
-893 -74 -117 -193 -361 -243 -499 -82 -226 -137 -502 -148 -743 l-6 -127
-117 -118 -116 -119 142 -136 142 -137 20 -86 c224 -966 1012 -1729 1993
-1929 362 -74 785 -65 1141 26 920 233 1641 954 1868 1868 l30 121 142 137
142 137 -116 118 -117 118 -6 120 c-18 361 -110 715 -270 1034 -263 522 -726
964 -1256 1197 -399 176 -846 251 -1268 213z m409 -649 c659 -67 1239 -464
1534 -1050 21 -41 30 -69 22 -61 -14 11 -70 -39 -442 -401 -235 -227 -430
-414 -433 -415 -4 -2 -200 184 -435 412 l-429 415 -28 -22 c-15 -13 -208 -198
-429 -413 -220 -214 -405 -390 -410 -390 -6 0 -202 186 -436 413 -372 361
-428 412 -442 401 -8 -8 1 20 22 61 356 707 1123 1129 1906 1050z m-1481
-2355 c232 -225 426 -410 431 -410 4 0 200 186 434 413 299 290 429 411 438
405 8 -4 201 -190 431 -413 229 -223 420 -405 425 -405 5 0 199 185 431 410
233 226 426 410 431 410 4 0 49 -38 99 -84 l91 -84 -6 -51 c-55 -428 -265
-844 -577 -1142 -277 -264 -624 -441 -998 -509 -126 -23 -430 -31 -558 -15
-496 61 -940 301 -1256 680 -219 262 -366 586 -422 925 l-18 109 95 88 c51 48
97 87 100 86 4 -2 197 -187 429 -413z"/>
</g>
</svg>
